<svg id="Capa_1" enable-background="new 0 0 512 512" height="512" viewBox="0 0 512 512" width="512" xmlns="http://www.w3.org/2000/svg"><path d="m511.909 56.919c-3.697 69.274-123.073 182.114-211.812 256.162-2.816-.129-4.525-.208-7.341-.337l-86.808-86.811c-.178-2.835-.289-4.604-.466-7.439 70.54-90.53 177.285-210.893 246.176-218.138 35.22-3.701 62.111 21.911 60.251 56.563z" fill="#ee3616"/><path d="m511.909 56.919c-3.7 69.274-123.072 182.11-211.814 256.164-2.81-.13-4.52-.21-7.34-.34l-43.601-43.602c5.712-5.728 245.233-245.251 250.575-250.593 8.37 9.979 12.99 23.32 12.18 38.371z" fill="#cb0010"/><path d="m300.097 313.081c-27.396 22.913-54.864 44.317-69.974 55.724-6.11-38.342-36.141-71.854-78.722-77.404.668-1 22.492-32.452 54.08-72.907z" fill="#e0f4fe"/><path d="m300.095 313.082c-27.489 22.99-57.169 46.121-69.971 55.723-3.2-20.091-12.97-38.852-27.671-52.973 28.396-28.397 43.093-43.075 50.191-50.193z" fill="#bcdcfe"/><path d="m206.811 313.148c-43.811-43.814-117.3-32.521-154.35 13.788-43.707 54.634-7.118 103.388-48.346 146.858-7.179 7.568-4.618 20.004 4.981 24.113 68.278 29.23 154.263 10.25 194.113-31.767 37.468-39.505 49.059-107.533 3.602-152.992z" fill="#fed941"/><path d="m203.213 466.14c-38.291 40.372-119.192 59.473-186.034 34.972 4.491-4.491 183.77-183.776 188.784-188.79 42.586 39.639 39.111 109.668-2.75 153.818z" fill="#fcbe29"/></svg>