<?xml version="1.0" encoding="UTF-8"?>
<!DOCTYPE svg PUBLIC "-//W3C//DTD SVG 1.1//EN" "http://www.w3.org/Graphics/SVG/1.1/DTD/svg11.dtd">
<!-- Creator: CorelDRAW -->
<svg xmlns="http://www.w3.org/2000/svg" xml:space="preserve" width="2048px" height="2048px" style="shape-rendering:geometricPrecision; text-rendering:geometricPrecision; image-rendering:optimizeQuality; fill-rule:evenodd; clip-rule:evenodd"
viewBox="0 0 2048 2048"
 xmlns:xlink="http://www.w3.org/1999/xlink">
 <defs>
  <style type="text/css">
   <![CDATA[
    .fil1 {fill:none}
    .fil0 {fill:#424242}
   ]]>
  </style>
 </defs>
 <g id="Layer_x0020_1">
  <metadata id="CorelCorpID_0Corel-Layer"/>
  <path class="fil0" d="M361.707 987.22l0 0zm0 592.584l0 0zm135.736 90.4902l0 0zm592.584 0l0 0zm90.4902 -135.736l0 0zm0 -592.584l0 0zm-135.736 -90.4902l0 0zm-592.584 0l0 0zm-90.4902 90.4902c-12.4937,12.4937 -12.4937,32.752 0.00236221,45.2433l74.2359 74.2359c-9.60119,16.0748 -18.0579,32.8512 -25.2567,50.2193 -7.07481,17.0669 -12.9839,34.8449 -17.6209,53.2359l-104.962 0c-17.6693,0 -31.9937,14.3244 -31.9937,31.9937l0 127.973c0,17.6693 14.3244,31.9949 31.9937,31.9949l104.965 0c4.63819,18.3957 10.5484,36.1807 17.6256,53.2524 7.19764,17.3634 15.652,34.1327 25.2496,50.2028l-74.0564 74.0564 -0.18189 0.177165c-12.4937,12.4937 -12.4937,32.752 0.00236221,45.2433l90.3107 90.3107 0.177165 0.18189c12.4937,12.4937 32.752,12.4937 45.2433,-0.00236221l74.2371 -74.2371c16.0748,9.60119 32.8512,18.0579 50.2205,25.2591 17.0658,7.07481 34.8425,12.9827 53.2335,17.6197l0 104.961c0,17.6693 14.3244,31.9949 31.9937,31.9949l127.974 0c17.6681,0 31.9937,-14.3256 31.9937,-31.9949l0 -104.963c18.3969,-4.63819 36.1807,-10.5484 53.2524,-17.6256 17.3646,-7.19764 34.1351,-15.6508 50.204,-25.2484l74.0552 74.0552 0.177165 0.18189c12.4937,12.4937 32.752,12.4937 45.2433,-0.00236221l90.3107 -90.3107 0.18189 -0.177165c12.4937,-12.4937 12.4937,-32.752 -0.00236221,-45.2433l-74.2371 -74.2371c9.60119,-16.0748 18.0579,-32.8512 25.2591,-50.2205 7.07481,-17.0658 12.9827,-34.8437 17.6197,-53.2335l104.962 0c17.6693,0 31.9937,-14.3256 31.9937,-31.9949l0 -127.973c0,-17.6693 -14.3244,-31.9937 -31.9937,-31.9937l-104.965 0c-4.63937,-18.3957 -10.5484,-36.176 -17.6244,-53.2453 -7.19882,-17.3658 -15.652,-34.1374 -25.2508,-50.2099l74.0564 -74.0564 0.18189 -0.177165c12.4937,-12.4937 12.4937,-32.752 -0.00236221,-45.2433l-90.3107 -90.3119 -0.177165 -0.180709c-12.4937,-12.4937 -32.752,-12.4937 -45.2433,0.00236221l-74.2347 74.2347c-16.0713,-9.59883 -32.8453,-18.0543 -50.2099,-25.252 -17.0705,-7.07717 -34.8532,-12.985 -53.2465,-17.6232l0 -104.965c0,-17.6693 -14.3256,-31.9937 -31.9937,-31.9937l-127.974 0c-17.6693,0 -31.9937,14.3244 -31.9937,31.9937l0 104.965c-18.3969,4.63937 -36.1796,10.5496 -53.2512,17.6268 -17.3634,7.19764 -34.1351,15.652 -50.204,25.2496l-74.0564 -74.0575 -0.177165 -0.180709c-12.4937,-12.4937 -32.752,-12.4937 -45.2433,0.00236221l-90.3107 90.3107 -0.18189 0.177165zm409.405 133.108c51.3059,0 97.7576,20.7992 131.382,54.4241 33.626,33.6248 54.4241,80.0776 54.4241,131.382 0,51.3048 -20.798,97.7564 -54.4241,131.381 -33.6248,33.6248 -80.0776,54.4241 -131.382,54.4241 -51.3036,0 -97.7564,-20.798 -131.381,-54.4241 -33.6248,-33.6248 -54.4241,-80.0764 -54.4241,-131.381 0,-51.3036 20.8004,-97.7576 54.4241,-131.382 33.6248,-33.6248 80.0776,-54.4241 131.381,-54.4241z"/>
  <path class="fil0" d="M1520.89 446.374c0,13.8437 -3.97677,26.9965 -11.7791,39.3874 -7.87678,12.3898 -24.626,29.2902 -50.3233,50.6292 -13.3063,11.0894 -21.5669,19.9606 -24.7784,26.6906 -3.2126,6.73111 -4.66536,18.7382 -4.36063,36.0992l-57.13 0c-0.152362,-8.25946 -0.229134,-13.2319 -0.229134,-15.0662 0,-18.5091 3.05906,-33.7276 9.17835,-45.6579 6.11811,-12.0071 18.4299,-25.3925 36.7855,-40.3819 18.3555,-14.9138 29.3693,-24.704 32.8866,-29.3681 5.58308,-7.26615 8.33623,-15.3721 8.33623,-24.1677 0,-12.2374 -4.89449,-22.7138 -14.6835,-31.5095 -9.79017,-8.71772 -22.9441,-13.0784 -39.5398,-13.0784 -15.9851,0 -29.3693,4.58977 -40.1528,13.6902 -10.7067,9.1004 -18.1252,23.0209 -22.1788,41.6811l-57.7418 -7.18819c1.60512,-26.7673 13.0004,-49.4835 34.1103,-68.1438 21.1854,-18.6603 48.8705,-27.9921 83.2855,-27.9921 36.0992,0 64.8544,9.48308 86.269,28.3736 21.3378,18.8906 32.0457,40.8414 32.0457,66.0024zm-528.895 -92.3753l0 348c0,22.5827 9.21615,43.0914 24.0626,57.9378 14.8465,14.8465 35.3551,24.0626 57.9378,24.0626l121.766 0 20.4839 163.876 9.81142 78.4997 47.439 -63.2493 134.345 -179.126 302.156 0c22.5827,0 43.0914,-9.21615 57.9378,-24.0626 14.8465,-14.8465 24.0626,-35.3551 24.0626,-57.9378l0 -348c0,-22.5827 -9.21615,-43.0914 -24.0626,-57.9378 -14.8465,-14.8465 -35.3551,-24.0626 -57.9378,-24.0626l-636 0c-22.5827,0 -43.0914,9.21615 -57.9378,24.0626 -14.8465,14.8465 -24.0626,35.3551 -24.0626,57.9378zm380.523 266.901l62.9434 0 0 62.9434 -62.9434 0 0 -62.9434z"/>
 </g>
 <rect class="fil1" width="2048" height="2048"/>
</svg>
