<svg xmlns="http://www.w3.org/2000/svg" width="166" height="129" viewBox="0 0 166 129">
  <g id="Group_395" data-name="Group 395" transform="translate(-200 -1080)">
    <g id="Group_383" data-name="Group 383" transform="translate(-279 -547.328)">
      <g id="_19" data-name="19" transform="translate(509.144 1638.146)">
        <g id="Group_381" data-name="Group 381" transform="translate(7.42 8.21)">
          <path id="Path_4078" data-name="Path 4078" d="M862.453,658.22l-3.613.936,4.7-18.752,62.6-63.624" transform="translate(-858.84 -572.35)" fill="none" stroke="#484751" stroke-linecap="square" stroke-miterlimit="10" stroke-width="2.5"/>
          <path id="Path_4079" data-name="Path 4079" d="M936.611,586.3l-62.6,62.6-7.785,1.984" transform="translate(-855.563 -566.798)" fill="none" stroke="#484751" stroke-linecap="square" stroke-miterlimit="10" stroke-width="2.5"/>
          <line id="Line_50" data-name="Line 50" x2="9.093" y2="9.093" transform="translate(71.955 9.085)" fill="none" stroke="#484751" stroke-linecap="square" stroke-miterlimit="10" stroke-width="2.5"/>
          <path id="Path_4080" data-name="Path 4080" d="M919.207,591.889l2.811-2.811a5.53,5.53,0,0,0,0-7.823l-5.923-5.923a5.53,5.53,0,0,0-7.823,0l-2.811,2.811" transform="translate(-838.16 -573.711)" fill="none" stroke="#484751" stroke-linecap="square" stroke-miterlimit="10" stroke-width="2.5"/>
          <line id="Line_51" data-name="Line 51" x1="56.149" y2="56.149" transform="translate(18.025 11.305)" fill="none" stroke="#484751" stroke-linecap="square" stroke-miterlimit="10" stroke-width="2.5"/>
          <line id="Line_52" data-name="Line 52" x2="6.363" y2="6.363" transform="translate(6.545 69.75)" fill="none" stroke="#484751" stroke-linecap="square" stroke-miterlimit="10" stroke-width="2.5"/>
        </g>
        <line id="Line_53" data-name="Line 53" x1="26.894" y1="26.894" transform="translate(47.803 68.941)" fill="none" stroke="#484751" stroke-linecap="square" stroke-miterlimit="10" stroke-width="2.5"/>
        <path id="Path_4081" data-name="Path 4081" d="M904.214,604.825,932.88,633.5l-19.8,19.8" transform="translate(-831.292 -550.371)" fill="none" stroke="#484751" stroke-linecap="square" stroke-miterlimit="10" stroke-width="2.5"/>
        <path id="Path_4082" data-name="Path 4082" d="M881.009,615.142,853.7,587.833l19.8-19.809L906.79,601.33" transform="translate(-853.7 -568.024)" fill="none" stroke="#484751" stroke-linecap="square" stroke-miterlimit="10" stroke-width="2.5"/>
        <line id="Line_54" data-name="Line 54" x1="3.628" y2="3.628" transform="translate(88.809 74.273)" fill="none" stroke="#484751" stroke-linecap="square" stroke-miterlimit="10" stroke-width="2.5"/>
        <line id="Line_55" data-name="Line 55" x1="3.628" y2="3.628" transform="translate(80.794 66.15)" fill="none" stroke="#484751" stroke-linecap="square" stroke-miterlimit="10" stroke-width="2.5"/>
        <line id="Line_56" data-name="Line 56" x1="3.628" y2="3.628" transform="translate(72.78 58.027)" fill="none" stroke="#484751" stroke-linecap="square" stroke-miterlimit="10" stroke-width="2.5"/>
        <line id="Line_57" data-name="Line 57" x1="3.628" y2="3.628" transform="translate(40.721 25.533)" fill="none" stroke="#484751" stroke-linecap="square" stroke-miterlimit="10" stroke-width="2.5"/>
        <line id="Line_58" data-name="Line 58" x1="5.86" y2="5.86" transform="translate(30.474 17.415)" fill="none" stroke="#484751" stroke-linecap="square" stroke-miterlimit="10" stroke-width="2.5"/>
        <line id="Line_59" data-name="Line 59" x1="3.628" y2="3.628" transform="translate(24.691 9.162)" fill="none" stroke="#484751" stroke-linecap="square" stroke-miterlimit="10" stroke-width="2.5"/>
        <line id="Line_60" data-name="Line 60" x1="5.86" y2="5.86" transform="translate(78.562 66.171)" fill="none" stroke="#484751" stroke-linecap="square" stroke-miterlimit="10" stroke-width="2.5"/>
      </g>
      <g id="Rectangle_172" data-name="Rectangle 172" transform="translate(479 1627.328)" fill="none" stroke="#484751" stroke-width="2.5">
        <rect width="166" height="129" stroke="none"/>
        <rect x="1.25" y="1.25" width="163.5" height="126.5" fill="none"/>
      </g>
    </g>
  </g>
</svg>
