<?xml version="1.0" encoding="iso-8859-1"?>
<!-- Generator: Adobe Illustrator 20.1.0, SVG Export Plug-In . SVG Version: 6.00 Build 0)  -->
<svg version="1.1" id="Circle-Arrow-3" xmlns="http://www.w3.org/2000/svg" xmlns:xlink="http://www.w3.org/1999/xlink" x="0px"
	 y="0px" viewBox="0 0 32 32" style="enable-background:new 0 0 32 32;" xml:space="preserve">
<g>
	<path d="M16,0C7.178,0,0,7.178,0,16s7.178,16,16,16s16-7.178,16-16S24.822,0,16,0z M16,30C8.28,30,2,23.72,2,16S8.28,2,16,2
		s14,6.28,14,14S23.72,30,16,30z"/>
	<path d="M25.708,15.293l-6-6l-1.414,1.414L22.587,15H6v2h16.587l-4.293,4.293l1.414,1.414l6-6
		C26.099,16.316,26.099,15.684,25.708,15.293z"/>
</g>
</svg>
