<?xml version="1.0" encoding="utf-8"?>
<!-- Generator: Adobe Illustrator 23.0.5, SVG Export Plug-In . SVG Version: 6.00 Build 0)  -->
<svg version="1.1" xmlns="http://www.w3.org/2000/svg" xmlns:xlink="http://www.w3.org/1999/xlink" x="0px" y="0px"
	 viewBox="0 0 841.89 566.93" style="enable-background:new 0 0 841.89 566.93;" xml:space="preserve">
<style type="text/css">
	.st0{fill:none;stroke:#FE585A;stroke-width:3;stroke-miterlimit:10;}
	.st1{fill:#1B1464;}
	.st2{fill:#FE585A;}
</style>
<g id="BG_1_">
	<circle class="st0" cx="426.53" cy="221.22" r="177.83"/>
	<g>
		<path class="st1" d="M275.32,458.75v-13.98c3.2,0,4.8-1.22,4.8-3.67c0-2.24-1.22-3.36-3.67-3.36c-2.47,0-3.71,1.54-3.71,4.61
			v34.84h-15.86v-33.2c0-3.44,0.34-6.26,1.04-8.46c0.69-2.2,1.87-4.25,3.54-6.15c1.88-2.11,4.22-3.78,7.03-5
			c2.81-1.22,5.72-1.84,8.71-1.84c5.42,0,9.97,1.82,13.65,5.47c3.68,3.65,5.53,8.16,5.53,13.55c0,5.23-1.65,9.48-4.96,12.73
			c-3.02,3-7.58,4.49-13.67,4.49L275.32,458.75z"/>
		<path class="st1" d="M326.58,444.61v11.88h-10.35c-1.41,0-2.4,0.21-2.99,0.63c-0.59,0.42-0.88,1.12-0.88,2.11
			c0,1.12,0.3,1.86,0.9,2.21c0.6,0.35,1.82,0.53,3.67,0.53h10.66v15.23h-12.46c-5.86,0-10.34-1.4-13.44-4.2
			c-3.1-2.8-4.65-6.84-4.65-12.13v-20.9c0-5.1,1.46-9.06,4.39-11.88s7.05-4.22,12.36-4.22h13.79v15.31h-10.12
			c-2.73,0-4.1,0.89-4.1,2.66c0,1.04,0.33,1.76,0.98,2.17c0.65,0.4,1.81,0.61,3.48,0.61H326.58z"/>
		<path class="st1" d="M355.1,439.18v38.01h-15.86v-38.01h-12.15v-15.31h40.12v15.31H355.1z"/>
		<path class="st1" d="M404.28,423.87l-16.56,38.01h16.37v15.31h-40.23l16.48-38.01h-17.42v-15.31H404.28z"/>
	</g>
	<g>
		<path class="st1" d="M468.64,458.75v-13.98c3.2,0,4.8-1.22,4.8-3.67c0-2.24-1.22-3.36-3.67-3.36c-2.47,0-3.71,1.54-3.71,4.61
			v34.84H450.2v-33.2c0-3.44,0.34-6.26,1.04-8.46c0.69-2.2,1.87-4.25,3.54-6.15c1.88-2.11,4.22-3.78,7.03-5
			c2.81-1.22,5.72-1.84,8.71-1.84c5.42,0,9.97,1.82,13.65,5.47c3.68,3.65,5.53,8.16,5.53,13.55c0,5.23-1.65,9.48-4.96,12.73
			c-3.02,3-7.58,4.49-13.67,4.49L468.64,458.75z"/>
		<path class="st1" d="M519.89,444.61v11.88h-10.35c-1.41,0-2.4,0.21-2.99,0.63c-0.59,0.42-0.88,1.12-0.88,2.11
			c0,1.12,0.3,1.86,0.9,2.21c0.6,0.35,1.82,0.53,3.67,0.53h10.66v15.23h-12.46c-5.86,0-10.34-1.4-13.44-4.2
			c-3.1-2.8-4.65-6.84-4.65-12.13v-20.9c0-5.1,1.46-9.06,4.39-11.88s7.05-4.22,12.36-4.22h13.79v15.31h-10.12
			c-2.73,0-4.1,0.89-4.1,2.66c0,1.04,0.33,1.76,0.98,2.17c0.65,0.4,1.81,0.61,3.48,0.61H519.89z"/>
		<path class="st1" d="M548.41,439.18v38.01h-15.86v-38.01h-12.15v-15.31h40.12v15.31H548.41z"/>
		<path class="st1" d="M597.6,423.87l-16.56,38.01h16.37v15.31h-40.23l16.48-38.01h-17.42v-15.31H597.6z"/>
	</g>
	<g>
		<path class="st1" d="M407.25,477.19v-34.61c0-6.07,1.88-10.92,5.65-14.57c3.76-3.65,8.77-5.47,15.03-5.47
			c6.23,0,11,1.77,14.31,5.31c3.3,3.54,4.96,8.63,4.96,15.27v34.06h-16.43v-34.06c0-3.25-1.2-4.88-3.6-4.88
			c-2.32,0-3.48,1.63-3.48,4.88v34.06H407.25z"/>
	</g>
	<g>
		<path class="st1" d="M277.24,497.85h2.21v10.47h-2.21v-2.08c-1.07,1.58-2.41,2.37-4,2.37c-1.38,0-2.56-0.54-3.54-1.63
			s-1.47-2.4-1.47-3.95c0-1.46,0.49-2.74,1.48-3.84c0.99-1.1,2.14-1.64,3.47-1.64c0.82,0,1.6,0.22,2.34,0.67s1.31,1.03,1.71,1.75
			V497.85z M277.55,503.12c0-0.96-0.34-1.78-1.03-2.46c-0.69-0.68-1.51-1.02-2.47-1.02c-0.93,0-1.75,0.34-2.44,1.02
			s-1.04,1.47-1.04,2.39c0,0.99,0.34,1.83,1.02,2.53c0.68,0.69,1.5,1.04,2.47,1.04c0.96,0,1.78-0.34,2.47-1.03
			C277.2,504.88,277.55,504.06,277.55,503.12z"/>
		<path class="st1" d="M293.72,497.85v2.11c1.06-1.6,2.41-2.4,4.06-2.4c1.35,0,2.52,0.54,3.49,1.62c0.98,1.08,1.46,2.37,1.46,3.87
			c0,1.51-0.49,2.82-1.48,3.92s-2.16,1.65-3.5,1.65c-0.78,0-1.52-0.2-2.24-0.61c-0.71-0.41-1.3-0.99-1.77-1.76v7h-2.21v-15.39
			H293.72z M300.43,503.04c0-0.92-0.35-1.73-1.04-2.42c-0.69-0.69-1.51-1.04-2.45-1.04c-0.95,0-1.78,0.34-2.48,1.03
			c-0.7,0.69-1.05,1.49-1.05,2.42c0,0.96,0.34,1.79,1.03,2.49s1.5,1.05,2.44,1.05c0.97,0,1.8-0.35,2.5-1.04
			C300.08,504.85,300.43,504.01,300.43,503.04z"/>
		<path class="st1" d="M316.69,503.51h-8.94c0.19,1.08,0.64,1.86,1.33,2.35c0.69,0.5,1.44,0.74,2.25,0.74c1.25,0,2.3-0.52,3.15-1.56
			l1.61,1.22c-1.21,1.57-2.83,2.35-4.86,2.35c-1.56,0-2.86-0.53-3.91-1.6s-1.57-2.39-1.57-3.97c0-1.48,0.53-2.77,1.59-3.85
			c1.06-1.09,2.36-1.63,3.89-1.63c1.51,0,2.8,0.55,3.87,1.66C316.18,500.32,316.71,501.75,316.69,503.51z M307.98,501.74h6.4
			c-0.71-1.44-1.76-2.16-3.15-2.16C309.72,499.59,308.64,500.31,307.98,501.74z"/>
		<path class="st1" d="M320.59,494.8h2.21v3.05h2.18v2.02h-2.18v8.46h-2.21v-8.46h-1.74v-2.04h1.74V494.8z"/>
		<path class="st1" d="M326.75,497.85h9.9l-6.31,8.54h6.26v1.93h-9.98l6.39-8.56h-6.26V497.85z"/>
		<path class="st1" d="M355.3,505.12v2.53c-1.13,0.64-2.22,0.96-3.28,0.96c-1.45,0-2.71-0.54-3.8-1.63
			c-1.09-1.09-1.63-2.35-1.63-3.78c0-1.63,0.54-2.97,1.63-4.04c1.08-1.07,2.44-1.61,4.08-1.61c0.97,0,1.98,0.25,3.01,0.76v2.46
			c-1.11-0.71-2.16-1.07-3.15-1.07c-0.91,0-1.71,0.32-2.4,0.96s-1.03,1.4-1.03,2.26c0,0.97,0.32,1.79,0.96,2.46
			c0.64,0.66,1.43,1,2.36,1C352.99,506.39,354.08,505.97,355.3,505.12z"/>
		<path class="st1" d="M357.51,503.04c0-1.43,0.56-2.7,1.69-3.81c1.13-1.11,2.43-1.67,3.89-1.67c1.51,0,2.82,0.55,3.95,1.64
			c1.13,1.1,1.69,2.38,1.69,3.84c0,1.47-0.55,2.77-1.66,3.89c-1.1,1.12-2.38,1.68-3.83,1.68c-1.55,0-2.89-0.55-4.03-1.66
			S357.51,504.54,357.51,503.04z M366.6,503.04c0-0.89-0.34-1.66-1.02-2.32c-0.68-0.66-1.48-0.99-2.41-0.99
			c-0.96,0-1.78,0.33-2.47,1c-0.69,0.67-1.03,1.46-1.03,2.38c0,0.88,0.35,1.65,1.05,2.32s1.52,0.99,2.46,0.99
			c0.91,0,1.71-0.34,2.4-1.02S366.6,503.94,366.6,503.04z"/>
		<path class="st1" d="M371.54,508.32v-10.47h2.18v1.61c0.52-0.66,1.01-1.14,1.48-1.45s1.01-0.46,1.62-0.46
			c0.8,0,1.42,0.17,1.87,0.52s0.84,0.9,1.15,1.66c0.55-0.76,1.09-1.32,1.6-1.66s1.11-0.52,1.79-0.52c0.83,0,1.55,0.31,2.15,0.93
			c0.6,0.62,0.9,1.36,0.9,2.21v7.62h-2.21v-7.05c0-1.16-0.57-1.74-1.72-1.74c-0.65,0-1.21,0.3-1.66,0.89s-0.68,1.32-0.68,2.2v5.7
			h-2.21v-6.75c0-1.37-0.56-2.06-1.69-2.06c-0.67,0-1.24,0.28-1.7,0.84s-0.7,1.25-0.7,2.07v5.9H371.54z"/>
		<path class="st1" d="M389.53,508.32v-10.47h2.18v1.61c0.52-0.66,1.01-1.14,1.48-1.45s1.01-0.46,1.62-0.46
			c0.8,0,1.42,0.17,1.87,0.52s0.84,0.9,1.15,1.66c0.55-0.76,1.09-1.32,1.6-1.66s1.11-0.52,1.79-0.52c0.83,0,1.55,0.31,2.15,0.93
			c0.6,0.62,0.9,1.36,0.9,2.21v7.62h-2.21v-7.05c0-1.16-0.57-1.74-1.72-1.74c-0.65,0-1.21,0.3-1.66,0.89s-0.68,1.32-0.68,2.2v5.7
			h-2.21v-6.75c0-1.37-0.56-2.06-1.69-2.06c-0.67,0-1.24,0.28-1.7,0.84s-0.7,1.25-0.7,2.07v5.9H389.53z"/>
		<path class="st1" d="M407.87,497.85h2.21v5.9c0,1.82,0.8,2.73,2.4,2.73c0.71,0,1.27-0.24,1.69-0.73c0.42-0.49,0.62-1.15,0.62-2
			v-5.9h2.18v6.26c0,1.31-0.43,2.39-1.28,3.24c-0.85,0.85-1.95,1.27-3.27,1.27c-1.35,0-2.45-0.42-3.29-1.27s-1.26-1.95-1.26-3.31
			V497.85z"/>
		<path class="st1" d="M419.88,494.41c0-0.46,0.17-0.85,0.51-1.19c0.34-0.33,0.74-0.5,1.21-0.5c0.46,0,0.85,0.17,1.19,0.5
			c0.33,0.33,0.5,0.73,0.5,1.19c0,0.47-0.17,0.86-0.5,1.19c-0.33,0.33-0.73,0.5-1.19,0.5c-0.47,0-0.87-0.17-1.21-0.5
			C420.05,495.27,419.88,494.87,419.88,494.41z M420.5,497.85h2.18v10.47h-2.18V497.85z"/>
		<path class="st1" d="M427.35,494.8h2.21v3.05h2.18v2.02h-2.18v8.46h-2.21v-8.46h-1.74v-2.04h1.74V494.8z"/>
		<path class="st1" d="M433.66,497.85h2.51l3.8,5.69l2.63-5.69h2.28l-7.08,15.39h-2.31l3.46-7.49L433.66,497.85z"/>
		<path class="st1" d="M462.12,492.01v2.23c-0.64-0.43-1.2-0.65-1.66-0.65c-0.39,0-0.69,0.14-0.91,0.43
			c-0.22,0.29-0.33,0.69-0.33,1.2v2.62h2.91v2.02h-2.91v8.46h-2.21v-8.46h-1.93v-2.02h1.93v-2.47c0-1.19,0.31-2.14,0.92-2.85
			c0.61-0.71,1.43-1.06,2.46-1.06C460.89,491.46,461.47,491.64,462.12,492.01z"/>
		<path class="st1" d="M464.01,503.04c0-1.43,0.56-2.7,1.7-3.81c1.13-1.11,2.43-1.67,3.89-1.67c1.51,0,2.82,0.55,3.95,1.64
			c1.13,1.1,1.69,2.38,1.69,3.84c0,1.47-0.55,2.77-1.66,3.89c-1.11,1.12-2.38,1.68-3.83,1.68c-1.55,0-2.89-0.55-4.03-1.66
			C464.58,505.84,464.01,504.54,464.01,503.04z M473.1,503.04c0-0.89-0.34-1.66-1.02-2.32c-0.68-0.66-1.48-0.99-2.41-0.99
			c-0.96,0-1.78,0.33-2.47,1c-0.69,0.67-1.04,1.46-1.04,2.38c0,0.88,0.35,1.65,1.05,2.32c0.7,0.66,1.52,0.99,2.46,0.99
			c0.91,0,1.71-0.34,2.4-1.02S473.1,503.94,473.1,503.04z"/>
		<path class="st1" d="M480.7,497.85V500c0.49-0.86,0.97-1.49,1.44-1.87c0.47-0.39,1.08-0.58,1.83-0.58c0.21,0,0.52,0.05,0.91,0.15
			l-0.67,2.21c-0.42-0.08-0.7-0.13-0.84-0.13c-0.75,0-1.37,0.26-1.87,0.78c-0.5,0.52-0.76,1.17-0.76,1.95v5.8h-2.21v-10.47H480.7z"
			/>
		<path class="st1" d="M494.7,497.85h2.51l3.8,5.69l2.63-5.69h2.28l-7.08,15.39h-2.31l3.46-7.49L494.7,497.85z"/>
		<path class="st1" d="M507.66,503.04c0-1.43,0.56-2.7,1.7-3.81c1.13-1.11,2.43-1.67,3.89-1.67c1.51,0,2.82,0.55,3.95,1.64
			c1.13,1.1,1.69,2.38,1.69,3.84c0,1.47-0.55,2.77-1.66,3.89c-1.11,1.12-2.38,1.68-3.83,1.68c-1.55,0-2.89-0.55-4.03-1.66
			C508.23,505.84,507.66,504.54,507.66,503.04z M516.75,503.04c0-0.89-0.34-1.66-1.02-2.32c-0.68-0.66-1.48-0.99-2.41-0.99
			c-0.96,0-1.78,0.33-2.47,1c-0.69,0.67-1.04,1.46-1.04,2.38c0,0.88,0.35,1.65,1.05,2.32c0.7,0.66,1.52,0.99,2.46,0.99
			c0.91,0,1.71-0.34,2.4-1.02S516.75,503.94,516.75,503.04z"/>
		<path class="st1" d="M521.52,497.85h2.21v5.9c0,1.82,0.8,2.73,2.4,2.73c0.71,0,1.27-0.24,1.69-0.73c0.42-0.49,0.62-1.15,0.62-2
			v-5.9h2.18v6.26c0,1.31-0.43,2.39-1.28,3.24s-1.95,1.27-3.28,1.27c-1.35,0-2.45-0.42-3.29-1.27s-1.26-1.95-1.26-3.31V497.85z"/>
		<path class="st1" d="M536.4,497.85V500c0.49-0.86,0.97-1.49,1.44-1.87c0.47-0.39,1.08-0.58,1.83-0.58c0.21,0,0.52,0.05,0.91,0.15
			l-0.67,2.21c-0.42-0.08-0.7-0.13-0.84-0.13c-0.75,0-1.37,0.26-1.87,0.78c-0.5,0.52-0.76,1.17-0.76,1.95v5.8h-2.21v-10.47H536.4z"
			/>
		<path class="st1" d="M553.55,497.85v2.11c1.06-1.6,2.41-2.4,4.06-2.4c1.35,0,2.52,0.54,3.49,1.62c0.98,1.08,1.46,2.37,1.46,3.87
			c0,1.51-0.49,2.82-1.48,3.92s-2.16,1.65-3.5,1.65c-0.78,0-1.52-0.2-2.24-0.61s-1.3-0.99-1.77-1.76v7h-2.21v-15.39H553.55z
			 M560.26,503.04c0-0.92-0.35-1.73-1.04-2.42c-0.69-0.69-1.51-1.04-2.45-1.04c-0.96,0-1.78,0.34-2.48,1.03
			c-0.7,0.69-1.04,1.49-1.04,2.42c0,0.96,0.34,1.79,1.03,2.49c0.69,0.7,1.5,1.05,2.44,1.05c0.97,0,1.8-0.35,2.5-1.04
			S560.26,504.01,560.26,503.04z"/>
		<path class="st1" d="M576.52,503.51h-8.94c0.19,1.08,0.64,1.86,1.33,2.35c0.69,0.5,1.44,0.74,2.25,0.74c1.25,0,2.3-0.52,3.15-1.56
			l1.61,1.22c-1.21,1.57-2.83,2.35-4.86,2.35c-1.56,0-2.86-0.53-3.91-1.6s-1.57-2.39-1.57-3.97c0-1.48,0.53-2.77,1.59-3.85
			c1.06-1.09,2.36-1.63,3.89-1.63c1.51,0,2.8,0.55,3.87,1.66C576.01,500.32,576.54,501.75,576.52,503.51z M567.81,501.74h6.4
			c-0.71-1.44-1.76-2.16-3.15-2.16C569.55,499.59,568.46,500.31,567.81,501.74z"/>
		<path class="st1" d="M580.42,494.8h2.21v3.05h2.18v2.02h-2.18v8.46h-2.21v-8.46h-1.74v-2.04h1.74V494.8z"/>
	</g>
</g>
<g id="graphics">
	<g>
		<path class="st2" d="M357.36,159.68c-1.1,1.83,0.38,3.6,2.08,3.56c1.23-0.03,2.5,0.14,3.77,0.53c1.27,0.39,2.42,0.96,3.42,1.66
			c1.39,0.98,3.6,0.34,3.72-1.8c0.2-3.85-1.58-7.23-4.61-8.15C362.7,154.57,359.34,156.37,357.36,159.68z"/>
		<path class="st2" d="M484.72,166.59c1.15-0.44,2.41-0.71,3.73-0.77c1.32-0.06,2.6,0.09,3.78,0.41c1.64,0.45,3.51-0.9,2.89-2.94
			c-1.11-3.7-3.92-6.27-7.09-6.12c-3.17,0.15-5.72,2.99-6.47,6.77C481.14,166.04,483.13,167.2,484.72,166.59z"/>
		<path class="st2" d="M532.18,314.5c1.83-2.86,2.77-6.16,2.77-9.45c0-9.42-7.33-17.94-20.24-18.81c-0.18-0.05-0.37-0.08-0.56-0.1
			c-17.27-17.71-25.18-60.6-20.49-86.37c15.71-1.23,26.76-10.46,30.89-26.21c1.82-6.97-1.41-12.34-8.11-13.61
			c-3.29-0.63-5.47-2.58-6.67-5.96c-0.04-0.11-0.08-0.21-0.13-0.32c-6.34-14.05-17.31-15.79-24.58-16.43c0-0.03,0.03-0.08,0-0.08
			c-2.63,0.15-5.89,0.14-4.15-1.79c4.64-5.15,5.46-7.58,5.99-9.46c1.18-4.14-3.21-6.84-6.5-6.3c-18.06,2.98-35.77,19.12-45.13,40.99
			c-1.22,2.86-3.3,7.76-5.9,14.06c-3.3-7.93-10.03-27.05-29.41-37.12c-8.54-4.44-16.93-5.83-25.7-5.28
			c-7.32,0.45-22.54,1.37-30.74,19.76c-0.25,0.25-2.25,1.94-10.89,2.87c-5.3,0.57-10.21,0.52-10.26,0.52c-0.02,0-0.03,0-0.05,0
			c-2.29,0-4.17,1.85-4.2,4.15c-0.31,23.83,10.44,34.21,18.49,38.64c0.01,0.01,0.02,0.01,0.03,0.02c4.85,2.92,10.98,3.61,16.67,3.61
			c3.08,0,5.89-0.2,7.99-0.41c1.58,9.96,4.51,50.26-15.44,84.85c-12.81,0.95-20.02,9.48-20.02,18.8c0,3.29,0.93,6.59,2.77,9.45
			c0,0,4.53,8.4,18.35,8.4c2.41,0,39.88,0,45.13,0c2.32,0,4.2-1.88,4.2-4.2c0-2.32-1.88-4.2-4.2-4.2c-5.23,0-41.92,0-46.52,0
			c-7.83,0-11.33-4.75-11.33-9.45c0-5.98,5.23-10.21,13.27-10.46c3.69,0.82,8.15,2.91,9.98,8.14c0.77,2.19,3.17,3.34,5.35,2.57
			c2.19-0.77,3.34-3.16,2.57-5.35c-1.89-5.39-5.7-9.46-10.96-11.86c18.7-34.15,17.28-73.5,15.24-86.97
			c-0.38-2.49-1.35-5.61-1.55-6.04c-0.76-1.71-2.6-2.74-4.51-2.43c-3.65,0.6-13.59,1.64-20.47-0.66c-0.2-0.07-0.39-0.14-0.58-0.21
			c-7.53-3.28-12.51-9.73-14.74-18.93c2.73-0.62,6.68-2.84,9.25-10.1c7.93-1.26,12.42-3.58,14.05-7.24
			c3.87-8.74,9.39-12.29,15.49-13.81c3.16-0.79,11.28-1.89,18.2,2.74c1.93,1.29,3.49,3.41,4.43,6.12c1.56,4.52,0.43,9.57-3.18,14.22
			c-9.37,12.06-11.73,18.2-10.87,26.2c0.55,5.04,3.29,9.18,7.74,11.64c6.11,3.39,14.1,3.5,20.21-0.27
			c6.57-4.06,10.38-11.28,12.22-23.45c0-0.02,0.01-0.04,0.01-0.07c-1.6-4.08-4.13-9.7-7.24-13.6c0.24,3.39,0.73,7.67-0.27,12.19
			c-2.01,9.09-3.28,13.65-8.39,17.36c-3.95,2.87-9.18,2.31-12.48,0.48c-2.05-1.13-3.21-2.88-3.46-5.2
			c-0.47-4.33,0.02-8.4,9.15-20.15c5.75-7.4,7.57-16.79,3.19-25.08c1.05,0.54,2.27,1.25,3.41,2.07v0c0,0,5.86,3.71,11.99,11.6
			c1.78,2.29,8.01,10.5,13.56,27.16c-12.7,31.54-31.27,81.1-31.27,101.24c0,19.83,16.13,35.96,35.96,35.96
			c19.83,0,35.96-16.13,35.96-35.96c0-10.9-6.5-34.15-19.3-69.1c-2.93-7.99-5.9-15.79-8.68-22.91l-4.27,12.14
			c11.22,29.42,23.85,66.14,23.85,79.86c0,15.2-12.36,27.56-27.56,27.56c-15.2,0-27.56-12.37-27.56-27.56
			c0-21.28,23.89-81.3,31.92-101.14c0,0,0-0.01-0.01-0.01c4.48-11.07,7.96-19.25,9.09-21.88c5.96-13.92,17.99-28.96,32.66-34.36
			c-10.96,10.49-7.03,15.99-3.02,15.99c5.42,0,6.51,0,10.86,0c6.75,0.56,13.8,1.31,18.43,11.44c1.82,4.96,5.22,8.53,9.76,10.3
			c-0.98,2.46-1.74,6.69,3.14,8.9c-3.69,8.72-11.79,16.85-29.33,15.1c-2.32-0.23-4.37,1.45-4.6,3.76c-0.23,2.31,1.45,4.37,3.76,4.6
			c0.17,0.02,0.33,0.03,0.5,0.04c-2.16,13.4-1.38,30.93,2.19,47.65c3.71,17.37,10,31.83,17.95,41.5c-4.5,2.45-7.78,6.24-9.49,11.12
			c-0.96,2.74,1.09,5.59,3.96,5.59c1.73,0,3.36-1.08,3.96-2.81c1.82-5.2,6.25-7.3,9.93-8.12c17.36,0.81,16.61,19.9,1.56,19.9
			c-7.01,0-41.31,0-48.17,0c-2.32,0-4.2,1.88-4.2,4.2c0,2.32,1.88,4.2,4.2,4.2c6.86,0,34.88,0,48.17,0
			C528.5,322.9,532.18,314.5,532.18,314.5z"/>
	</g>
</g>
</svg>
