<?xml version="1.0" encoding="utf-8"?>
<!-- Generator: Adobe Illustrator 23.0.5, SVG Export Plug-In . SVG Version: 6.00 Build 0)  -->
<svg version="1.1" id="Layer_1" xmlns="http://www.w3.org/2000/svg" xmlns:xlink="http://www.w3.org/1999/xlink" x="0px" y="0px"
	 viewBox="0 0 1000 1000" style="enable-background:new 0 0 1000 1000;" xml:space="preserve">
<style type="text/css">
	.st0{fill:none;stroke:#1E1E1E;stroke-width:7;stroke-miterlimit:10;}
	.st1{fill:#1E1E1E;}
	.st2{fill:#F0F0F0;}
	.st3{fill:#FFFFFF;}
	.st4{fill:#ED0A2B;}
</style>
<rect x="185.58" y="358.54" class="st0" width="622.75" height="161.57"/>
<rect x="560.2" y="358.54" class="st1" width="248.13" height="161.57"/>
<g>
	<path class="st1" d="M273.4,418.79l-19.68,72.17h-19.68l-26.31-98.42h21l17.12,66.92l17.71-66.92h20.34l17.06,66.92l17.06-66.92
		h20.99l-26.24,98.42h-19.68L273.4,418.79z"/>
	<path class="st1" d="M353.31,490.96v-98.35l72.3-0.07v18.37H373v21h39.43v18.31H373v22.37h52.49v18.37H353.31z"/>
	<path class="st1" d="M515.31,439.06c8.62,5.77,13.19,13.28,13.71,22.5c-0.87,18.55-10.78,28.37-29.72,29.46l-55.37-0.07v-98.35
		h52.23c16.58,0.96,25.33,10.61,26.24,28.93C522.08,430.29,519.72,436.13,515.31,439.06z M463.67,432.04h27.56
		c7.92-0.13,11.98-4.22,12.2-12.27c-0.22-4.81-4.22-7.35-12.01-7.61h-27.75V432.04z M463.67,475.61h32.15
		c9.23-0.13,13.95-4.88,14.17-14.24c-0.22-6.3-4.88-9.58-13.97-9.84h-32.35V475.61z"/>
</g>
<g>
	<g>
		<path class="st2" d="M584.05,489.24v-98.42h69.22v18.37h-49.54v21h36.55v18.31h-36.55v40.74H584.05z"/>
		<path class="st2" d="M667.57,390.76h19.62v98.48h-19.62V390.76z"/>
		<path class="st2" d="M739.35,438l-34.44-47.17h23.09l22.96,31.3l22.96-31.3h23.09L762.57,438l37.59,51.24h-23.36l-25.85-35.36
			l-25.85,35.36h-23.36L739.35,438z"/>
	</g>
</g>
<rect x="543.02" y="354.57" transform="matrix(-1 -1.224647e-16 1.224647e-16 -1 1103.2163 879.1708)" class="st2" width="17.19" height="170.04"/>
<polygon class="st3" points="798.46,353.24 701.03,489.24 726.46,489.24 823.06,354.39 "/>
<g>
	<path d="M318.83,557.72l-17.43,42.49h-3.51l-17.43-42.49h3.51l15.68,38.74l15.68-38.74H318.83z"/>
	<path d="M326.65,560.44c0,3.15-4.78,3.15-4.78,0C321.87,557.3,326.65,557.3,326.65,560.44z M322.71,570.07v30.02h2.97v-30.02
		H322.71z"/>
	<path d="M336.94,570.19l0.12,5.33c1.88-4.05,6.11-5.63,9.93-5.63c2.24-0.06,4.42,0.54,6.41,1.75l-1.33,2.42
		c-1.57-0.97-3.33-1.39-5.08-1.39c-5.57,0.06-9.87,4.54-9.87,9.99v17.43h-2.97v-29.9H336.94z"/>
	<path d="M366.6,561.17v9.02h10.17v2.48H366.6v18.22c0,4.05,0.85,6.9,5.51,6.9c1.45,0,3.09-0.48,4.6-1.21l1.03,2.42
		c-1.88,0.91-3.75,1.51-5.63,1.51c-6.35,0-8.41-3.75-8.41-9.62v-18.22h-6.35v-2.48h6.35v-8.72L366.6,561.17z"/>
	<path d="M407.7,600.09v-5.39c-2.3,4.12-6.48,5.81-10.65,5.87c-7.99,0-13.5-4.9-13.5-13.19v-17.25h2.97v17.19
		c0,6.78,4.18,10.41,10.65,10.35c6.17-0.06,10.47-4.72,10.47-10.89v-16.64h2.97v29.96H407.7z"/>
	<path d="M447.17,570.19c0,9.99,0,19.91,0,29.9h-2.97v-6.36c-2.91,4.66-7.38,6.84-12.23,6.84c-8.35,0-15.19-6.29-15.19-15.43
		s6.84-15.31,15.19-15.31c4.84,0,9.74,2.24,12.23,6.9v-6.54H447.17z M419.75,585.14c0,7.51,5.45,12.53,12.22,12.53
		c16.65,0,16.65-25,0-25C425.2,572.67,419.75,577.63,419.75,585.14z"/>
	<path d="M458.19,557.72v42.37h-2.97v-42.37H458.19z"/>
	<path d="M511.15,565.89c-3.09-4.96-8.05-5.69-12.83-5.75c-4.96,0-12.83,1.82-12.83,8.59c0,5.39,5.81,6.66,12.95,7.99
		c8.17,1.57,16.64,3.03,16.64,12.17c-0.06,9.56-9.68,11.86-16.76,11.86c-6.6,0-14.1-2.72-17.37-9.2l2.91-1.45
		c2.6,5.14,9.26,7.69,14.47,7.69c5.21,0,13.5-1.45,13.5-8.96c0.06-6.35-6.96-7.75-13.92-9.08c-7.75-1.51-15.68-3.09-15.68-10.89
		c-0.18-8.96,9.14-11.74,16.1-11.74c6.05,0,11.32,0.97,15.49,7.2L511.15,565.89z"/>
	<path d="M521.26,585.2c0-9.5,6.78-15.55,15.19-15.55c8.41,0,15.19,6.05,15.19,15.55c0,9.5-6.78,15.31-15.19,15.31
		C528.04,600.51,521.26,594.7,521.26,585.2z M548.74,585.2c0-7.75-5.51-12.77-12.29-12.77c-6.78,0-12.29,5.02-12.29,12.77
		s5.51,12.41,12.29,12.41C543.23,597.61,548.74,592.95,548.74,585.2z"/>
	<path d="M561.46,557.72v42.37h-2.97v-42.37H561.46z"/>
	<path d="M593.84,600.09v-5.39c-2.3,4.12-6.47,5.81-10.65,5.87c-7.99,0-13.5-4.9-13.5-13.19v-17.25h2.97v17.19
		c0,6.78,4.18,10.41,10.65,10.35c6.17-0.06,10.47-4.72,10.47-10.89v-16.64h2.97v29.96H593.84z"/>
	<path d="M611.39,561.17v9.02h10.17v2.48h-10.17v18.22c0,4.05,0.85,6.9,5.51,6.9c1.45,0,3.09-0.48,4.6-1.21l1.03,2.42
		c-1.88,0.91-3.75,1.51-5.63,1.51c-6.35,0-8.41-3.75-8.41-9.62v-18.22h-6.36v-2.48h6.36v-8.72L611.39,561.17z"/>
	<path d="M632.34,560.44c0,3.15-4.78,3.15-4.78,0C627.56,557.3,632.34,557.3,632.34,560.44z M628.41,570.07v30.02h2.97v-30.02
		H628.41z"/>
	<path d="M639.12,585.2c0-9.5,6.78-15.55,15.19-15.55c8.41,0,15.19,6.05,15.19,15.55c0,9.5-6.78,15.31-15.19,15.31
		C645.9,600.51,639.12,594.7,639.12,585.2z M666.6,585.2c0-7.75-5.51-12.77-12.29-12.77c-6.78,0-12.29,5.02-12.29,12.77
		s5.51,12.41,12.29,12.41C661.09,597.61,666.6,592.95,666.6,585.2z"/>
	<path d="M679.25,570.19v5.33c2.3-4.12,6.48-5.81,10.65-5.87c7.99,0,13.5,4.9,13.5,13.19v17.25h-2.97V582.9
		c0-6.78-4.18-10.41-10.65-10.35c-6.17,0.06-10.47,4.72-10.47,10.89v16.64h-2.97v-29.9H679.25z"/>
	<path d="M731.67,575.64c-3.03-2.66-5.99-3.15-9.32-3.15c-4.66-0.06-9.14,1.69-9.02,5.51c0.12,4,5.33,4.78,9.08,5.45
		c5.33,0.91,12.65,1.82,12.35,8.78c-0.18,6.6-7.02,8.35-12.29,8.35c-5.26,0-10.47-2-13.07-5.99l2.18-1.94
		c2.48,3.57,6.96,5.08,10.95,5.08c3.63,0,9.14-0.97,9.32-5.69c0.12-4.3-4.84-5.14-9.74-5.93c-5.81-0.97-11.56-2.06-11.62-8.05
		c-0.06-5.87,5.81-8.41,11.86-8.35c4.36,0,8.17,1.21,11.14,4L731.67,575.64z"/>
</g>
<polygon class="st4" points="727.9,390.27 704.41,390.27 750.7,455.41 824,354.65 797.27,354.58 749.67,420.06 "/>
</svg>
