<?xml version="1.0" encoding="utf-8"?>
<!-- Generator: Adobe Illustrator 23.0.5, SVG Export Plug-In . SVG Version: 6.00 Build 0)  -->
<svg version="1.1" id="Layer_1" xmlns="http://www.w3.org/2000/svg" xmlns:xlink="http://www.w3.org/1999/xlink" x="0px" y="0px"
	 viewBox="0 0 1000 1000" style="enable-background:new 0 0 1000 1000;" xml:space="preserve">
<style type="text/css">
	.st0{fill:#1E1E1E;}
	.st1{fill:#F0F0F0;}
	.st2{fill:#FFFFFF;}
	.st3{fill:#ED0A2B;}
</style>
<rect x="278.2" y="295.22" class="st0" width="417.43" height="271.82"/>
<g>
	<g>
		<path class="st1" d="M318.32,515.11V349.54h116.45v30.91h-83.34v35.32h61.48v30.8h-61.48v68.55H318.32z"/>
		<path class="st1" d="M458.83,349.43h33v165.68h-33V349.43z"/>
		<path class="st1" d="M579.58,428.9l-57.95-79.36h38.85l38.63,52.65l38.63-52.65h38.85l-57.95,79.36l63.25,86.21h-39.29
			l-43.49-59.49l-43.49,59.49h-39.29L579.58,428.9z"/>
	</g>
</g>
<polygon class="st2" points="679.04,286.3 515.12,515.11 557.91,515.11 720.43,288.25 "/>
<polygon class="st3" points="560.32,348.61 520.81,348.61 598.68,458.2 722,288.69 677.03,288.56 596.94,398.73 "/>
</svg>
