<svg xmlns="http://www.w3.org/2000/svg" width="627.167" height="475.782" viewBox="0 0 627.167 475.782">
  <g id="Group_357" data-name="Group 357" transform="translate(-93.63 -68.078)">
    <g id="shadow" transform="translate(93.63 459.029)">
      <path id="Path_3940" data-name="Path 3940" d="M237.9,1013.788c-12.708.2-25.414.356-38.117.394-22.638.068-52.309-3.3-69.206,9.512-8.508,6.448-5.708,19.309,7.788,21.588,3.819.645,7.93.574,11.513,1.673s6.421,4.09,4.433,6.373c-1.017,1.167-2.973,1.793-4.849,2.284-11.863,3.1-25.012,3.5-36.814,6.7-28.042,7.617-23.2,22.927,2.292,27.869,22.926,4.444,48.421,3.829,72.057,4.13,138.332,1.761,277.037,3.852,414.6-2.084,29.668-1.28,59.164-2.9,88.7-4.4,13.519-.688,30.439-2.486,30.493-6.513.037-2.8-8.888-4.9-17.685-5.99-15.406-1.917-35.518-3.584-32.607-9.855,1.062-2.287,6.077-4.386,13.042-5.458,5.38-.828,11.568-1.047,17.4-1.546s11.813-1.414,14.265-3.046c6.6-4.393-10.027-7.008-21.734-7.409-14.021-.48-25.453-3.569-20.619-8.228,3.367-3.245,14.325-5.441,17.657-8.689a2.906,2.906,0,0,0,.448-4.051c-8.9-13.379-55.391-12.232-72.717-13.233-32.054-1.853-64.251-2.207-96.405-2.372-72.941-.376-145.884.252-218.81,1.228C281.331,1012.956,259.614,1013.442,237.9,1013.788Z" transform="translate(-93.63 -1011.326)" fill="#272525" opacity="0.11"/>
    </g>
    <g id="object" transform="translate(131.086 68.078)">
      <g id="Group_356" data-name="Group 356" transform="translate(0)">
        <g id="Group_305" data-name="Group 305" transform="translate(188.334)">
          <g id="Group_303" data-name="Group 303" transform="translate(39.377 89.908)">
            <g id="Group_300" data-name="Group 300" transform="translate(8.469 139.617)">
              <g id="Group_298" data-name="Group 298">
                <path id="Path_3941" data-name="Path 3941" d="M754.735,628.877l-.9,78,8.313,100.409h11.3l13.524-92.636,15.466-92.8Z" transform="translate(-753.833 -621.854)" fill="#2e4661"/>
                <path id="Path_3942" data-name="Path 3942" d="M775.1,1067.243v4.867l-12.222,6.111-6.111-6.111L762.88,1066H775.1Z" transform="translate(-755.552 -881.913)" fill="#3a3029"/>
              </g>
              <g id="Group_299" data-name="Group 299" transform="translate(30.688)">
                <path id="Path_3943" data-name="Path 3943" d="M875.577,628.877,875.8,674l-7.622,133.283h-11.3l-18.907-88.446-10.093-96.986Z" transform="translate(-827.875 -621.854)" fill="#2e4661"/>
                <path id="Path_3944" data-name="Path 3944" d="M898,1067.243v4.867l12.222,6.111,6.111-6.111L910.222,1066H898Z" transform="translate(-868.935 -881.913)" fill="#3a3029"/>
              </g>
            </g>
            <path id="Path_3945" data-name="Path 3945" d="M832.013,534.66c.242,7.16.087,16.736-2.928,17.094a2.971,2.971,0,0,1-1.605-.424c-5.242-2.547-8.978-6.146-14.146-8.607-5.415-2.578-11.57-3.927-17.584-4.859a182.877,182.877,0,0,0-27.12-2.374c-7.76-.069-15.83,3.471-23.167,5.418-2.824.749-5.121,2.807-7.467,4.421-3.465,2.384-4.984,3.328-4.512-1.543.771-7.948,1.572-15.894,2.549-23.819,1.951-15.808,4.605-31.578,9.1-46.88,1.716-5.846,3.7-11.611,5.674-17.373l7.229-21.051c2.995-8.721,8.05-14.865,16.9-17.916,7.649-2.636,17.149-3.358,24.589.333,8.27,4.1,12.2,18.078,16.221,25.548,3.521,6.545,7.959,24.4,9.276,31.452,1.586,8.493,3.051,16.945,4.2,25.376a260.085,260.085,0,0,1,2.439,27.9C831.691,528.38,831.9,531.241,832.013,534.66Z" transform="translate(-733.4 -360.848)" fill="#2e4661"/>
            <path id="Path_3946" data-name="Path 3946" d="M820.493,423.645l-15.273.146s-16.39,57.275-16.991,67.146c-.591,9.691-4.734,48.984-4.734,48.984s16.915.4,36.4,2.773c19.053,4.077,20.654,1.666,20.654,1.666s-10.282-41.3-10.623-53.164c-.349-12.137-1.9-52.219-1.9-52.219Z" transform="translate(-762.732 -366.18)" fill="#fff"/>
            <path id="Path_3947" data-name="Path 3947" d="M847.175,425.9h-7.519a2.12,2.12,0,0,0-1.686,3.407l3.087,4.045-8.213,75.76,10.109,9.936,6.95-11.8-1.9-73.9,1.223-4.809A2.12,2.12,0,0,0,847.175,425.9Z" transform="translate(-791.627 -367.503)" fill="#2e4661"/>
            <g id="Group_302" data-name="Group 302" transform="translate(24.318)">
              <path id="Path_3948" data-name="Path 3948" d="M834.134,374.195a1.808,1.808,0,0,0,.625.357,3.463,3.463,0,0,0,1.486.041l6.061-.717c-.667-6.187,2.95-7.587,6.474-11.566,3.572-4.034,2.473-9.473,2.272-14.41a10.526,10.526,0,0,0-.706-4.039c-1.02-2.188-3.4-3.4-5.7-4.114-5.885-1.829-12.615-1.379-17.8,1.957a9.413,9.413,0,0,0-3.414,3.463c-1.152,2.251-.859,4.938-.538,7.446a25.113,25.113,0,0,0,3.814,10.891c2.031,3.027,5.9,4.477,6.349,8.11A4.111,4.111,0,0,0,834.134,374.195Z" transform="translate(-809.953 -316.433)" fill="#e7caad"/>
              <g id="Group_301" data-name="Group 301">
                <path id="Path_3949" data-name="Path 3949" d="M816.832,349.372c.344,1.555,1.068,3.128.691,4.674-2.47-.838-4.083-3.364-4.958-5.931a9.077,9.077,0,0,1-.585-3.627,4.305,4.305,0,0,1,1.607-3.165c1.357-.971,3.79-.59,4.179,1.17S816.315,347.033,816.832,349.372Z" transform="translate(-803.717 -317.673)" fill="#3a3029"/>
                <path id="Path_3950" data-name="Path 3950" d="M792.076,303.042a5.534,5.534,0,0,1,2.433-4.652c1.435-.969,3.09-1.773,3.962-3.314.676-1.2.776-2.676,1.446-3.876,1.214-2.172,3.85-2.811,6.143-3.548,5.735-1.841,8.823-3.968,14.9-1.61,4.319,1.677,9.9,1.9,13.908,4.347a14.043,14.043,0,0,1,4.267,4.49c4.049,6.331,5.021,15.234,2.384,21.838a26.925,26.925,0,0,1-2.142,4.139c-1.6,2.6-3.321,5.8-6.16,7.079-.179-1.226-1.092-1.9-1.378-3.108a9.519,9.519,0,0,1-.092-2.669c.175-3.472,1.24-8.962-2.228-10.684-4.385-2.177-12.609-.213-16.833,1.63-3.736,1.631-10.043,3.753-14.027,2.006C794.958,313.486,791.951,307.022,792.076,303.042Z" transform="translate(-792.072 -285)" fill="#3a3029"/>
              </g>
            </g>
          </g>
          <g id="Group_304" data-name="Group 304">
            <path id="Path_3951" data-name="Path 3951" d="M794.88,100.725s-50.964,60.763-51.727,62.456-18.938-28.891-18.938-28.891L685.934,184.2l-17.012-19.066L638.4,205.394l29.613-23.911,18.74,20.712,34.685-41.49,18.806,31.639,72.43-78.94Z" transform="translate(-638.395 -87.194)" fill="#4a9385"/>
            <path id="Path_3952" data-name="Path 3952" d="M934.381,89.812l58.507-21.734-10.527,62.987Z" transform="translate(-811.703 -68.078)" fill="#4a9385"/>
          </g>
          <path id="Path_3953" data-name="Path 3953" d="M726.631,375.816l-44.349,13.678,9.533-43.52L678.138,341,657,395.71l12.849,16.579,44.763-5.8Z" transform="translate(-649.289 -227.881)" fill="#2e4661"/>
          <path id="Path_3954" data-name="Path 3954" d="M884.58,328.309l48.052-3.365-12.226-52.177,11.826-8.482L958.655,324.1l-7.895,19.433-46.325,11.06Z" transform="translate(-782.543 -182.962)" fill="#2e4661"/>
          <path id="Path_3955" data-name="Path 3955" d="M713.1,313.669,712,301.078l7.888-9.015,4.132,3.756-1.9,9.343,2.047,2.262-3.678,8.93S713.076,313.489,713.1,313.669Z" transform="translate(-681.493 -199.227)" fill="#e7caad"/>
          <path id="Path_3956" data-name="Path 3956" d="M971.857,237.418l.969-13.786L961.676,215,957,221.115l5.036,8.992-1.8,4.676,4.943,7.425Z" transform="translate(-824.947 -154.105)" fill="#e7caad"/>
        </g>
        <g id="Group_331" data-name="Group 331" transform="translate(324.947 100.303)">
          <g id="Group_308" data-name="Group 308">
            <path id="Path_3957" data-name="Path 3957" d="M1169.2,1038.188l.037-.053-.042-.012-2.055-26.936-13.321,2.859,6.605,23.455-3.4,7.135s-1.3,3.578-.085,3.209,6.471-1.836,6.882-2.226c.349-.331,3.989-5.466,5.1-7.032Z" transform="translate(-1076.803 -720.597)" fill="#b99a6f"/>
            <path id="Path_3958" data-name="Path 3958" d="M1045.705,1021.944l2.1,18.338-3.485,4.841.365,3.189,9.339-3.088,4.2-2.1.271-25.878Z" transform="translate(-1012.686 -724.147)" fill="#b99a6f"/>
            <path id="Path_3959" data-name="Path 3959" d="M1085.8,672.484l6.557,51.856,4.061,19.341,17.772,71.459,16.191-3.325-7.5-78.177,3.666-49.724L1128,670.849l3.984-15.753Z" transform="translate(-1036.977 -512.096)" fill="#273140"/>
            <path id="Path_3960" data-name="Path 3960" d="M1006.072,672.244l2.619,52.788L1022,813.167l15.946-1.824.5-52.155,8.637-97.511-18.236-7.607-14.591-3.985Z" transform="translate(-990.292 -509.162)" fill="#273140"/>
            <path id="Path_3961" data-name="Path 3961" d="M1035.317,1070.581l-12.323,12.314.946,4.738,9.966-1.14,13.041-9.568.022-6.868-1.333-1.059s-12.073,7.439-12.916,7.131S1035.317,1070.581,1035.317,1070.581Z" transform="translate(-1000.201 -754.446)" fill="#273140"/>
            <path id="Path_3962" data-name="Path 3962" d="M1155.542,1073.787l-6.251,6.7-3.783,3.006,1.544,5.157,5.534.965,14.579-8.861-1.338-6.343-1.374-1.462a72.834,72.834,0,0,1-11.073,7.437C1151.864,1081.158,1155.542,1073.787,1155.542,1073.787Z" transform="translate(-1071.936 -756.76)" fill="#273140"/>
            <path id="Path_3963" data-name="Path 3963" d="M1003.278,446.989l-11.6,6.019L968,494.738l7.222,12.84,10.432-7.222L1001.3,479.49Z" transform="translate(-968 -390.244)" fill="#a0a4a9"/>
            <path id="Path_3964" data-name="Path 3964" d="M1016.257,443.009s5.617-6.669,26.883-6.669,37.148,67.35,36.346,79.438,2.174,39.331,2.174,39.331l-49.755-12.481s-28.078.053-34.9,6.722,13.276-47.594,13.678-60.1S1009.436,449.262,1016.257,443.009Z" transform="translate(-984.157 -384.008)" fill="#a0a4a9"/>
            <path id="Path_3965" data-name="Path 3965" d="M1110.308,436.34h9.63l38.118,26.883,3.1,18.153-16.579,2.072-12.2-13.4Z" transform="translate(-1051.325 -384.008)" fill="#a0a4a9"/>
            <path id="Path_3966" data-name="Path 3966" d="M1076.311,440l1.949.087-6.3,53.666-10.953-22.771L1059,446.51l2.006-3.611Z" transform="translate(-1021.283 -386.154)" fill="#c5cccc"/>
            <g id="Group_307" data-name="Group 307" transform="translate(8.903)">
              <path id="Path_3967" data-name="Path 3967" d="M1032.2,367.3c-1.312-16.268,19.674-19.122,29.023-8.209,6.1,7.118,4.41,20.549-3.072,26.626a9.245,9.245,0,0,0,.318.911,30.15,30.15,0,0,1,1.355,4.1c.141.523-7.933,2.345-8.835,2.544a1.232,1.232,0,0,1-.937-.043c-.5-.337-.618-1.928-.79-2.471l-.611-1.925c-5.093-.216-9.649-3.424-12.33-7.544C1033.625,377.146,1032.59,372.191,1032.2,367.3Z" transform="translate(-1014.457 -334.966)" fill="#b99a6f"/>
              <g id="Group_306" data-name="Group 306">
                <path id="Path_3968" data-name="Path 3968" d="M1013.819,343.693a8.092,8.092,0,0,1,3.341,3.06,6.467,6.467,0,0,1,1.221,2.395c.708,3.514-2.549,4.737-4.56,6.847a17.922,17.922,0,0,0-4.592,9.544c-.812,5.4,2.767,10.329,5.888,14.531,1.1,1.481,2.935,3.6,2.3,5.622-.646,2.06-3.747,3.139-5.637,3.05-1.727-.082-3.46-.87-5.134-.45-1.772.444-3.686,2.144-5.115.965-.4-.328-.642-.834-1.081-1.1-1.482-.906-3.084,1.612-4.771,1.255-1.038-.221-1.558-1.428-1.708-2.5a7.081,7.081,0,0,0-.731-3.122,10.385,10.385,0,0,0-2.116-1.757,4.839,4.839,0,0,1-1.446-4.983c1.005-3.24,5.134-4.512,6.346-7.676a10.459,10.459,0,0,0,.081-5.262,9.181,9.181,0,0,1,.266-5.235c.923-1.972,3.184-2.692,3.981-4.9.468-1.3.525-2.745,1.151-3.97.825-1.614,2.984-3.521,4.347-4.756A7.656,7.656,0,0,1,1013.819,343.693Z" transform="translate(-989.479 -329.457)" fill="#363636"/>
                <path id="Path_3969" data-name="Path 3969" d="M1057.438,341.727c2.12,4.617,2.005,10.659,5.939,13.821,3.97,3.19,9.69,1.58,14.382-.213.772-.3,10.645-3.764,10.8-3.9,5.05-4.275-.347-7.214-.931-10.782-.84-5.129,7.185-4.327,5.411-8.8-1.008.247-1.98-.693-2.294-1.707a16.754,16.754,0,0,1-.31-3.158,7.112,7.112,0,0,0-4.561-5.8c-4.83-1.7-10.473,2.347-15.02-.043-2.82-1.482-4.045-4.881-6.216-7.245-4.2-4.571-10.578-3.125-16.041-3.632-5.766-.535-10.755-.029-15.728,3.206-6.164,4.011-8.15,12.937-2.8,18.187,6.856,6.733,19.695.286,25.779,7.505A11.181,11.181,0,0,1,1057.438,341.727Z" transform="translate(-1011.432 -310.079)" fill="#363636"/>
              </g>
            </g>
            <path id="Path_3970" data-name="Path 3970" d="M968,540.335l12.02-9.947L1003.23,525l3.316,9.118-31.5,19.066Z" transform="translate(-968 -435.921)" fill="#a9adb3"/>
          </g>
          <g id="Group_330" data-name="Group 330" transform="translate(19.273 90.51)">
            <g id="Group_309" data-name="Group 309" transform="translate(4.559 2.487)" opacity="0.1">
              <path id="Path_3971" data-name="Path 3971" d="M1055.558,534.452h-21.711a4.428,4.428,0,0,0-4.427,4.376c0,.018,0,.035,0,.053s0,.035,0,.053V627.2l-3.921.608,1.023,1.408a5.685,5.685,0,0,0,4.6,2.341h19.507a5.342,5.342,0,0,1-2.619-.685,5.339,5.339,0,0,0,6.031-1.019c1.422-1.392,1.52-2.949,1.52-4.814l.094-86.154a4.429,4.429,0,0,1,4.429-4.429Z" transform="translate(-1025.5 -534.452)"/>
            </g>
            <path id="Path_3972" data-name="Path 3972" d="M1101.586,547.559l-6.2-16.1h0a4.426,4.426,0,0,0-8.538.587l-.422.029v16.685l.981-1.3,1.084,1.442h.208l1.084-1.442,1.084,1.442h.208l1.084-1.442,1.084,1.442h.208l1.084-1.442,1.085,1.442h.207l1.085-1.442,1.084,1.442h.208l1.084-1.442,1.084,1.442h.208Z" transform="translate(-1056.615 -528.452)" fill="#d9cec3"/>
            <path id="Path_3973" data-name="Path 3973" d="M1050.094,528.452h-21.711a4.428,4.428,0,0,0-4.427,4.376c0,.018,0,.035,0,.053s0,.035,0,.053V623.85h17.114a5.356,5.356,0,0,0,7.5,0c1.422-1.392,1.521-2.949,1.521-4.814l.094-86.154a4.429,4.429,0,0,1,4.429-4.429Z" transform="translate(-1020.035 -528.452)" fill="#f0edea"/>
            <g id="Group_310" data-name="Group 310" transform="translate(0 90.287)">
              <path id="Path_3974" data-name="Path 3974" d="M1034.261,747.736a5.348,5.348,0,0,1,.2-1.448h-.2l-19.761,3.066,1.023,1.408a5.685,5.685,0,0,0,4.6,2.341h19.507A5.366,5.366,0,0,1,1034.261,747.736Z" transform="translate(-1014.5 -746.288)" fill="#d9cec3"/>
            </g>
            <g id="Group_329" data-name="Group 329" transform="translate(5.832 4.551)">
              <g id="Group_311" data-name="Group 311" transform="translate(6.23)">
                <rect id="Rectangle_87" data-name="Rectangle 87" width="4.689" height="0.814" opacity="0.17"/>
                <rect id="Rectangle_88" data-name="Rectangle 88" width="4.689" height="0.814" transform="translate(5.87)" opacity="0.17"/>
                <rect id="Rectangle_89" data-name="Rectangle 89" width="3.204" height="0.814" transform="translate(11.74)" opacity="0.17"/>
                <rect id="Rectangle_90" data-name="Rectangle 90" width="3.204" height="0.814" transform="translate(2.345 1.508)" opacity="0.17"/>
                <rect id="Rectangle_91" data-name="Rectangle 91" width="3.204" height="0.814" transform="translate(6.162 1.489)" opacity="0.17"/>
                <rect id="Rectangle_92" data-name="Rectangle 92" width="1.881" height="0.814" transform="translate(9.942 1.489)" opacity="0.17"/>
                <rect id="Rectangle_93" data-name="Rectangle 93" width="1.881" height="0.814" transform="translate(12.309 1.489)" opacity="0.17"/>
              </g>
              <rect id="Rectangle_94" data-name="Rectangle 94" width="10.919" height="0.509" transform="translate(0 12.802)" opacity="0.17"/>
              <g id="Group_312" data-name="Group 312" transform="translate(0 8.755)">
                <rect id="Rectangle_95" data-name="Rectangle 95" width="10.919" height="0.509" opacity="0.17"/>
                <rect id="Rectangle_96" data-name="Rectangle 96" width="2.068" height="0.305" transform="translate(0 0.802)" opacity="0.17"/>
                <rect id="Rectangle_97" data-name="Rectangle 97" width="4.047" height="0.509" transform="translate(18.332)" opacity="0.17"/>
              </g>
              <g id="Group_313" data-name="Group 313" transform="translate(0.038 15.116)">
                <rect id="Rectangle_98" data-name="Rectangle 98" width="10.919" height="0.509" opacity="0.17"/>
                <rect id="Rectangle_99" data-name="Rectangle 99" width="2.068" height="0.305" transform="translate(0 0.802)" opacity="0.17"/>
                <rect id="Rectangle_100" data-name="Rectangle 100" width="4.047" height="0.509" transform="translate(18.332)" opacity="0.17"/>
              </g>
              <g id="Group_314" data-name="Group 314" transform="translate(0 18.475)">
                <rect id="Rectangle_101" data-name="Rectangle 101" width="10.919" height="0.509" opacity="0.17"/>
                <rect id="Rectangle_102" data-name="Rectangle 102" width="2.068" height="0.305" transform="translate(0 0.802)" opacity="0.17"/>
                <rect id="Rectangle_103" data-name="Rectangle 103" width="4.047" height="0.509" transform="translate(18.332)" opacity="0.17"/>
              </g>
              <rect id="Rectangle_104" data-name="Rectangle 104" width="4.047" height="0.509" transform="translate(18.332 12.802)" opacity="0.17"/>
              <rect id="Rectangle_105" data-name="Rectangle 105" width="10.919" height="0.509" transform="translate(0 26.09)" opacity="0.17"/>
              <g id="Group_315" data-name="Group 315" transform="translate(0 22.043)">
                <rect id="Rectangle_106" data-name="Rectangle 106" width="10.919" height="0.509" opacity="0.17"/>
                <rect id="Rectangle_107" data-name="Rectangle 107" width="2.068" height="0.305" transform="translate(0 0.802)" opacity="0.17"/>
                <rect id="Rectangle_108" data-name="Rectangle 108" width="4.047" height="0.509" transform="translate(18.332)" opacity="0.17"/>
              </g>
              <g id="Group_316" data-name="Group 316" transform="translate(0.038 28.403)">
                <rect id="Rectangle_109" data-name="Rectangle 109" width="10.919" height="0.509" opacity="0.17"/>
                <rect id="Rectangle_110" data-name="Rectangle 110" width="2.068" height="0.305" transform="translate(0 0.802)" opacity="0.17"/>
                <rect id="Rectangle_111" data-name="Rectangle 111" width="4.047" height="0.509" transform="translate(18.332)" opacity="0.17"/>
              </g>
              <g id="Group_317" data-name="Group 317" transform="translate(0 31.763)">
                <rect id="Rectangle_112" data-name="Rectangle 112" width="10.919" height="0.509" opacity="0.17"/>
                <rect id="Rectangle_113" data-name="Rectangle 113" width="2.068" height="0.305" transform="translate(0 0.802)" opacity="0.17"/>
                <rect id="Rectangle_114" data-name="Rectangle 114" width="4.047" height="0.509" transform="translate(18.332)" opacity="0.17"/>
              </g>
              <rect id="Rectangle_115" data-name="Rectangle 115" width="4.047" height="0.509" transform="translate(18.332 26.09)" opacity="0.17"/>
              <rect id="Rectangle_116" data-name="Rectangle 116" width="10.919" height="0.509" transform="translate(0 39.377)" opacity="0.17"/>
              <g id="Group_318" data-name="Group 318" transform="translate(0 35.33)">
                <rect id="Rectangle_117" data-name="Rectangle 117" width="10.919" height="0.509" opacity="0.17"/>
                <rect id="Rectangle_118" data-name="Rectangle 118" width="2.068" height="0.305" transform="translate(0 0.802)" opacity="0.17"/>
                <rect id="Rectangle_119" data-name="Rectangle 119" width="4.047" height="0.509" transform="translate(18.332)" opacity="0.17"/>
              </g>
              <g id="Group_319" data-name="Group 319" transform="translate(0.038 41.691)">
                <rect id="Rectangle_120" data-name="Rectangle 120" width="10.919" height="0.509" opacity="0.17"/>
                <rect id="Rectangle_121" data-name="Rectangle 121" width="2.068" height="0.305" transform="translate(0 0.802)" opacity="0.17"/>
                <rect id="Rectangle_122" data-name="Rectangle 122" width="4.047" height="0.509" transform="translate(18.332)" opacity="0.17"/>
              </g>
              <g id="Group_320" data-name="Group 320" transform="translate(0 45.05)">
                <rect id="Rectangle_123" data-name="Rectangle 123" width="10.919" height="0.509" opacity="0.17"/>
                <rect id="Rectangle_124" data-name="Rectangle 124" width="2.068" height="0.305" transform="translate(0 0.802)" opacity="0.17"/>
                <rect id="Rectangle_125" data-name="Rectangle 125" width="4.047" height="0.509" transform="translate(18.332)" opacity="0.17"/>
              </g>
              <rect id="Rectangle_126" data-name="Rectangle 126" width="4.047" height="0.509" transform="translate(18.332 39.377)" opacity="0.17"/>
              <rect id="Rectangle_127" data-name="Rectangle 127" width="10.919" height="0.509" transform="translate(0 52.665)" opacity="0.17"/>
              <g id="Group_321" data-name="Group 321" transform="translate(0 48.618)">
                <rect id="Rectangle_128" data-name="Rectangle 128" width="10.919" height="0.509" opacity="0.17"/>
                <rect id="Rectangle_129" data-name="Rectangle 129" width="2.068" height="0.305" transform="translate(0 0.802)" opacity="0.17"/>
                <rect id="Rectangle_130" data-name="Rectangle 130" width="4.047" height="0.509" transform="translate(18.332)" opacity="0.17"/>
              </g>
              <g id="Group_322" data-name="Group 322" transform="translate(0.038 54.978)">
                <rect id="Rectangle_131" data-name="Rectangle 131" width="10.919" height="0.509" opacity="0.17"/>
                <rect id="Rectangle_132" data-name="Rectangle 132" width="2.068" height="0.305" transform="translate(0 0.802)" opacity="0.17"/>
                <rect id="Rectangle_133" data-name="Rectangle 133" width="4.047" height="0.509" transform="translate(18.332)" opacity="0.17"/>
              </g>
              <g id="Group_323" data-name="Group 323" transform="translate(0 58.338)">
                <rect id="Rectangle_134" data-name="Rectangle 134" width="10.919" height="0.509" opacity="0.17"/>
                <rect id="Rectangle_135" data-name="Rectangle 135" width="2.068" height="0.305" transform="translate(0 0.802)" opacity="0.17"/>
                <rect id="Rectangle_136" data-name="Rectangle 136" width="4.047" height="0.509" transform="translate(18.332)" opacity="0.17"/>
              </g>
              <rect id="Rectangle_137" data-name="Rectangle 137" width="4.047" height="0.509" transform="translate(18.332 52.665)" opacity="0.17"/>
              <rect id="Rectangle_138" data-name="Rectangle 138" width="10.919" height="0.509" transform="translate(0 65.612)" opacity="0.17"/>
              <g id="Group_324" data-name="Group 324" transform="translate(0 61.565)">
                <rect id="Rectangle_139" data-name="Rectangle 139" width="10.919" height="0.509" opacity="0.17"/>
                <rect id="Rectangle_140" data-name="Rectangle 140" width="2.068" height="0.305" transform="translate(0 0.802)" opacity="0.17"/>
                <rect id="Rectangle_141" data-name="Rectangle 141" width="4.047" height="0.509" transform="translate(18.332)" opacity="0.17"/>
              </g>
              <g id="Group_325" data-name="Group 325" transform="translate(0.038 67.925)">
                <rect id="Rectangle_142" data-name="Rectangle 142" width="10.919" height="0.509" opacity="0.17"/>
                <rect id="Rectangle_143" data-name="Rectangle 143" width="2.068" height="0.305" transform="translate(0 0.802)" opacity="0.17"/>
                <rect id="Rectangle_144" data-name="Rectangle 144" width="4.047" height="0.509" transform="translate(18.332)" opacity="0.17"/>
              </g>
              <g id="Group_326" data-name="Group 326" transform="translate(0 71.285)">
                <rect id="Rectangle_145" data-name="Rectangle 145" width="10.919" height="0.509" opacity="0.17"/>
                <rect id="Rectangle_146" data-name="Rectangle 146" width="2.068" height="0.305" transform="translate(0 0.802)" opacity="0.17"/>
                <rect id="Rectangle_147" data-name="Rectangle 147" width="4.047" height="0.509" transform="translate(18.332)" opacity="0.17"/>
              </g>
              <rect id="Rectangle_148" data-name="Rectangle 148" width="4.047" height="0.509" transform="translate(18.332 65.612)" opacity="0.17"/>
              <rect id="Rectangle_149" data-name="Rectangle 149" width="10.919" height="0.509" transform="translate(0 74.47)" opacity="0.17"/>
              <g id="Group_327" data-name="Group 327" transform="translate(0.038 76.784)">
                <rect id="Rectangle_150" data-name="Rectangle 150" width="10.919" height="0.509" opacity="0.17"/>
                <rect id="Rectangle_151" data-name="Rectangle 151" width="2.068" height="0.305" transform="translate(0 0.802)" opacity="0.17"/>
                <rect id="Rectangle_152" data-name="Rectangle 152" width="4.047" height="0.509" transform="translate(18.332)" opacity="0.17"/>
              </g>
              <g id="Group_328" data-name="Group 328" transform="translate(0 80.143)">
                <rect id="Rectangle_153" data-name="Rectangle 153" width="10.919" height="0.509" opacity="0.17"/>
                <rect id="Rectangle_154" data-name="Rectangle 154" width="2.068" height="0.305" transform="translate(0 0.802)" opacity="0.17"/>
                <rect id="Rectangle_155" data-name="Rectangle 155" width="4.047" height="0.509" transform="translate(18.332)" opacity="0.17"/>
              </g>
              <rect id="Rectangle_156" data-name="Rectangle 156" width="4.047" height="0.509" transform="translate(18.332 74.47)" opacity="0.17"/>
            </g>
          </g>
          <path id="Path_3975" data-name="Path 3975" d="M1157.493,503.829,1146.717,503,1109,517.092l4.974,9.118,46.421-5.8Z" transform="translate(-1050.559 -423.039)" fill="#a9adb3"/>
          <path id="Path_3976" data-name="Path 3976" d="M1037,512.191l7.046-9.118L1058.967,501v2.9l-8.7,2.072,2.9,3.316-.415,2.9Z" transform="translate(-1008.401 -421.868)" fill="#b99a6f"/>
          <path id="Path_3977" data-name="Path 3977" d="M1096.97,536.8l-2.924-2.8-1.244.829,1.244,2.9.01.019-3.238.81L1087,536.346V542.7l8.792,3.73,4.472-3.316Z" transform="translate(-1037.678 -441.191)" fill="#b99a6f"/>
        </g>
        <g id="Group_338" data-name="Group 338" transform="translate(415.379 111.179)">
          <path id="Path_3978" data-name="Path 3978" d="M1245.958,479l-18.883,28.986-12.292,23.477,4.5,9.1,16.352-4.574Z" transform="translate(-1202.93 -419.863)" fill="#647380"/>
          <g id="Group_333" data-name="Group 333" transform="translate(8.71 0)">
            <path id="Path_3979" data-name="Path 3979" d="M1278.928,717.3v14.677l-19.57,63.6,4.892,66.048-12.231,2.446-19.57-80.726.749-23.751,9.036-48.439Z" transform="translate(-1221.984 -555.797)" fill="#647380"/>
            <path id="Path_3980" data-name="Path 3980" d="M1270.35,1074.7l-9.337,9.882,2.7,5.009,19.266-9.247-3.548-7.321Z" transform="translate(-1238.709 -767.68)" fill="#363636"/>
            <path id="Path_3981" data-name="Path 3981" d="M1338.717,1087.958l-11.51,7.236,1.36,5.524,20.965-4.141-1.607-7.975Z" transform="translate(-1277.467 -776.424)" fill="#363636"/>
            <path id="Path_3982" data-name="Path 3982" d="M1241.455,462.505l29.114-11.549s10.347,25.7,22.109,66.869-5.462,93.574-5.462,93.574-66.7-15.852-80.018-18.466l16.706-75.253Z" transform="translate(-1207.199 -403.442)" fill="#647380"/>
            <path id="Path_3983" data-name="Path 3983" d="M1307.133,750.625,1326.8,885.168h8.938l5.645-73.387,12.231-73.387Z" transform="translate(-1265.713 -571.745)" fill="#647380"/>
            <g id="Group_332" data-name="Group 332" transform="translate(18.346)">
              <path id="Path_3984" data-name="Path 3984" d="M1287.343,374.916c7.927.583,15.34-5.927,23.142-4.311,5.073,1.051,9.078,5.55,10.626,10.621a12.7,12.7,0,0,1,.271,7.29,12.143,12.143,0,0,1-2.3,4.122,17.266,17.266,0,0,1-4.764,4.032,31.117,31.117,0,0,0,3.393,4.5l-10.968,4.2-2.423-6.3a16.668,16.668,0,0,1-3.269-.5,18.929,18.929,0,0,1-13.32-14.071A36.772,36.772,0,0,1,1287.343,374.916Z" transform="translate(-1272.398 -356.243)" fill="#e8cbae"/>
              <path id="Path_3985" data-name="Path 3985" d="M1268.41,357.384l24.512-2.913,4.757,18.724,6.922-5.493-3.567-30.637-34.593-.745-14.979,8.787.634,8.806,13.394,9.015Z" transform="translate(-1251.463 -336.32)" fill="#4e4e4e"/>
            </g>
            <path id="Path_3986" data-name="Path 3986" d="M1276.851,445.533l29.115-11.55s10.347,25.7,22.109,66.869-5.462,93.574-5.462,93.574-59.665-29.482-72.984-32.1l9.672-61.623Z" transform="translate(-1232.043 -393.504)" fill="#fff"/>
            <path id="Path_3987" data-name="Path 3987" d="M1355.909,502.913C1344.147,461.744,1333.96,436,1333.96,436l-29.275,11.593-.047.149c.645,1.682,1.319,3.355,1.9,5.06a117.015,117.015,0,0,1,5.057,20.7c1.84,12.37,2.033,25.088,1.638,37.572a244.93,244.93,0,0,1-3.742,35.727,241.736,241.736,0,0,1-13.079,45.489c27.08,5.5,58.949,12.008,58.949,12.008S1367.672,544.082,1355.909,502.913Z" transform="translate(-1259.437 -394.685)" fill="#647380"/>
            <path id="Path_3988" data-name="Path 3988" d="M1280.354,542.249c-1.317,5.544-2.727,11.789-1.6,17.179,0,0,3.632,7.588,3.943,7.276.014-.242,4.14-3.65,5.3-6.19,1.971-4.333,2.395-9.742,2.436-14.63.146-17.346-.88-34.831,2.045-51.93,3.413-1.037,6.34-3.548,4.241-7.112-6.643,2.519-7.346,17.47-8.8,23.576Z" transform="translate(-1248.855 -424.455)" fill="#2e4661"/>
          </g>
          <g id="Group_337" data-name="Group 337" transform="translate(0 75.182)">
            <g id="Group_334" data-name="Group 334" transform="translate(5.734 1.63)" opacity="0.1">
              <path id="Path_3989" data-name="Path 3989" d="M1301.152,611.015l-58.22,26.746a3.667,3.667,0,0,1-4.789-1.971l-37.753-82.181a3.667,3.667,0,0,1,1.625-4.917l58.221-26.746a3.666,3.666,0,0,1,4.789,1.971l37.753,82.181A3.667,3.667,0,0,1,1301.152,611.015Z" transform="translate(-1200.02 -521.643)"/>
            </g>
            <g id="Group_336" data-name="Group 336">
              <path id="Path_3990" data-name="Path 3990" d="M1289.807,605.273l-57,29.266a3.667,3.667,0,0,1-4.871-1.76l-41.309-80.452a3.667,3.667,0,0,1,1.408-4.984l57-29.265a3.667,3.667,0,0,1,4.871,1.759l41.309,80.452A3.667,3.667,0,0,1,1289.807,605.273Z" transform="translate(-1186.185 -517.712)" fill="#c5cccc"/>
              <path id="Path_3991" data-name="Path 3991" d="M1270.664,653.5l-14.925,7.664a1.964,1.964,0,0,1-2.609-.943l-8.006-15.592a1.964,1.964,0,0,1,.754-2.67L1260.8,634.3a1.964,1.964,0,0,1,2.609.943l8.006,15.592A1.965,1.965,0,0,1,1270.664,653.5Z" transform="translate(-1220.556 -585.86)" fill="#2e4661"/>
              <path id="Path_3992" data-name="Path 3992" d="M1337.055,619.41l-14.925,7.664a1.964,1.964,0,0,1-2.609-.943l-8.006-15.592a1.964,1.964,0,0,1,.754-2.67l14.925-7.664a1.965,1.965,0,0,1,2.609.943l8.006,15.592A1.964,1.964,0,0,1,1337.055,619.41Z" transform="translate(-1259.429 -565.9)" fill="#2e4661"/>
              <path id="Path_3993" data-name="Path 3993" d="M1302.242,715l-14.925,7.664a1.964,1.964,0,0,1-2.609-.943l-8.006-15.592a1.964,1.964,0,0,1,.754-2.67l14.925-7.664a1.965,1.965,0,0,1,2.609.943L1303,712.329A1.964,1.964,0,0,1,1302.242,715Z" transform="translate(-1239.045 -621.869)" fill="#2e4661"/>
              <path id="Path_3994" data-name="Path 3994" d="M1368.633,680.91l-14.925,7.663a1.964,1.964,0,0,1-2.609-.943l-8.006-15.592a1.964,1.964,0,0,1,.754-2.67l14.925-7.663a1.964,1.964,0,0,1,2.609.943l8.006,15.592A1.965,1.965,0,0,1,1368.633,680.91Z" transform="translate(-1277.919 -601.909)" fill="#a16652"/>
              <path id="Path_3995" data-name="Path 3995" d="M1269.21,656.562l4.238-2.176a.981.981,0,0,1,.8-.063,1.063,1.063,0,0,1,.61.542.978.978,0,0,1,.078.784,1.024,1.024,0,0,1-.537.593l-4.238,2.176,2.415,4.7a1.224,1.224,0,0,1,.14.847.881.881,0,0,1-.489.6.892.892,0,0,1-.768.014,1.163,1.163,0,0,1-.623-.567l-2.414-4.7-4.215,2.164a1.049,1.049,0,0,1-.8.094.968.968,0,0,1-.6-.517,1.045,1.045,0,0,1-.061-.809.993.993,0,0,1,.506-.624l4.215-2.164-2.408-4.69a1.187,1.187,0,0,1-.128-.853.906.906,0,0,1,.489-.6.88.88,0,0,1,.772-.048,1.224,1.224,0,0,1,.607.607Z" transform="translate(-1230.984 -595.871)" fill="#f2f2f2"/>
              <path id="Path_3996" data-name="Path 3996" d="M1331.647,631.633a.514.514,0,0,1-.448.032.72.72,0,0,1-.356-.363l-.683-1.329a.58.58,0,0,1-.059-.445.55.55,0,0,1,.3-.327l9.68-4.97a.675.675,0,0,1,.491-.078.543.543,0,0,1,.345.3l.683,1.329a.646.646,0,0,1,.034.5.605.605,0,0,1-.3.386Z" transform="translate(-1270.439 -580.025)" fill="#f2f2f2"/>
              <path id="Path_3997" data-name="Path 3997" d="M1358.435,684.7a.515.515,0,0,1-.448.032.723.723,0,0,1-.356-.364l-.683-1.329a.579.579,0,0,1-.059-.445.551.551,0,0,1,.3-.327l9.68-4.97a.677.677,0,0,1,.491-.078.543.543,0,0,1,.345.3l.683,1.329a.645.645,0,0,1,.034.5.606.606,0,0,1-.3.386Z" transform="translate(-1286.125 -611.098)" fill="#f2f2f2"/>
              <path id="Path_3998" data-name="Path 3998" d="M1364.469,696.453a.514.514,0,0,1-.448.032.723.723,0,0,1-.356-.364l-.683-1.329a.58.58,0,0,1-.059-.445.551.551,0,0,1,.3-.327l9.68-4.97a.678.678,0,0,1,.491-.078.543.543,0,0,1,.345.3l.683,1.329a.646.646,0,0,1,.034.5.6.6,0,0,1-.3.385Z" transform="translate(-1289.657 -617.979)" fill="#f2f2f2"/>
              <g id="Group_335" data-name="Group 335" transform="translate(44.765 82.261)">
                <path id="Path_3999" data-name="Path 3999" d="M1295.756,725.714a.514.514,0,0,1-.448.032.723.723,0,0,1-.356-.364l-.683-1.329a.58.58,0,0,1-.059-.445.55.55,0,0,1,.3-.327l9.68-4.97a.676.676,0,0,1,.491-.078.543.543,0,0,1,.345.3l.683,1.329a.646.646,0,0,1,.034.5.605.605,0,0,1-.3.385Z" transform="translate(-1294.189 -717.373)" fill="#f2f2f2"/>
                <path id="Path_4000" data-name="Path 4000" d="M1303.583,717.034a1.416,1.416,0,1,1-1.95-.7A1.467,1.467,0,0,1,1303.583,717.034Z" transform="translate(-1298.113 -716.183)" fill="#f2f2f2"/>
                <ellipse id="Ellipse_242" data-name="Ellipse 242" cx="1.413" cy="1.517" rx="1.413" ry="1.517" transform="translate(5.473 7.043) rotate(-27.181)" fill="#f2f2f2"/>
              </g>
            </g>
            <path id="Path_4001" data-name="Path 4001" d="M1257.768,535.17,1194.7,568.059l-7.6-14.793a3.787,3.787,0,0,1,1.639-5.1l56.538-29.031a3.786,3.786,0,0,1,5.1,1.639Z" transform="translate(-1186.477 -518.301)" fill="#2e4661"/>
            <rect id="Rectangle_157" data-name="Rectangle 157" width="57.735" height="13.55" transform="translate(10.026 37.356) rotate(-27.179)" fill="#f2f2f2"/>
          </g>
          <path id="Path_4002" data-name="Path 4002" d="M1378.51,436l53.26,35.023,3.316,16.164-42.387,34.09s-6.52-6.734-6.935-7.978,26.526-31.5,26.526-31.5l-31.5-14.092-8.289-19.895Z" transform="translate(-1295.278 -394.685)" fill="#6e7e8c"/>
          <path id="Path_4003" data-name="Path 4003" d="M1385.092,622c-2.072.829-10.362.829-10.362.829L1371,636.507l5.728,1.869,6.742-8.1,1.622,3.067,4.34-5.673Z" transform="translate(-1294.399 -503.593)" fill="#e8cbae"/>
          <path id="Path_4004" data-name="Path 4004" d="M1201.641,630.993l-.641,7.464,5.8,5.388,9.533-5.388-3.316-6.632-9.533,2.072Z" transform="translate(-1194.86 -508.859)" fill="#e8cbae"/>
        </g>
        <path id="Path_4005" data-name="Path 4005" d="M605,425l8.7,2.487,32.329,41.862-1.243,24.868-6.632,2.9Z" transform="translate(-430.507 -277.065)" fill="#677b91"/>
        <g id="Group_342" data-name="Group 342" transform="translate(118.938 93.068)">
          <path id="Path_4006" data-name="Path 4006" d="M620.538,1062.516l9.48,6.715,3.16,5.135a36.842,36.842,0,0,1-5.53,1.975c-1.975.4-17.38-1.975-17.38-1.975v-9.085Z" transform="translate(-552.53 -743.417)" fill="#273140"/>
          <path id="Path_4007" data-name="Path 4007" d="M532.443,1071.026l5.135,5.135s4.345,7.11,2.37,7.11-12.64,1.185-13.43,0-6.715-5.135-7.5-5.925-.425-7.717-.425-7.717Z" transform="translate(-498.799 -747.581)" fill="#273140"/>
          <path id="Path_4008" data-name="Path 4008" d="M531.581,708.927l-6.715,67.545-11.455,71.1H499.586l-1.58-74.26S487.185,708.145,486,688Z" transform="translate(-479.767 -524.127)" fill="#556678"/>
          <path id="Path_4009" data-name="Path 4009" d="M617.715,696.709l-11.85,135.879h-14.22l-4.345-69.52-8.163-61.549,31.073-36.411Z" transform="translate(-534.302 -510.724)" fill="#556678"/>
          <g id="Group_339" data-name="Group 339" transform="translate(0 53.551)">
            <path id="Path_4010" data-name="Path 4010" d="M557.189,492.358c-2.222-8-3.978-16.12-5.482-24.281-1.312-7.121-1.83-14.785-4.922-21.424s-8.936-11.669-13.446-17.314c-1.911-2.392-3.95-4.881-6.791-6.021a17.891,17.891,0,0,0-6.191-.912l-19.082-.548c-2.319-.067-4.73-.116-6.844.84-3.168,1.432-4.958,4.759-6.524,7.863-4,7.927-4.735,16.719-5.093,25.679.012.084,1.835,24.132-2.3,43.166-4.118,18.942-9.847,51.8-9.536,74.165.058.183.115.368.176.546,3.69-2.421,6.7-5.342,10.646-7.453,4.913-2.629,10.534-4.026,16.046-5a154.954,154.954,0,0,1,25.066-2.587,197.915,197.915,0,0,1,19.809.994c5.469.455,10.559,2.076,16.13,1.69a36.318,36.318,0,0,0,9.745-2.047C569.219,532.975,559.261,499.819,557.189,492.358Z" transform="translate(-470.963 -421.826)" fill="#677b91"/>
          </g>
          <path id="Path_4011" data-name="Path 4011" d="M546.786,423.044h-5.135v5.925l24.095,50.955,1.975-23.3-7.9-32.785Z" transform="translate(-512.353 -368.988)" fill="#c5cccc"/>
          <g id="Group_340" data-name="Group 340" transform="translate(35.619 57.216)">
            <path id="Path_4012" data-name="Path 4012" d="M576.288,465.349c-.245-2.084-.528-3.944-.849-5.444-2.221-10.366-11.054-23.309-11.054-23.309a54.569,54.569,0,0,1-1.165-5.532l-6.32-.4,1.039,6.455,2.962,2.542s8.984,24.312,10.095,34.308c.116,1.049.208,2.131.279,3.226l3.4,7.189Z" transform="translate(-556.9 -430.668)" fill="#2e4661"/>
          </g>
          <path id="Path_4013" data-name="Path 4013" d="M597.992,608.881l-8.69,59.645,15.4,1.185h10.665l-12.245-51.745Z" transform="translate(-540.254 -477.801)" fill="#c5cccc"/>
          <g id="Group_341" data-name="Group 341" transform="translate(11.101)">
            <path id="Path_4014" data-name="Path 4014" d="M549.329,378.657l-10.62-.461a53.089,53.089,0,0,1,.1-8.468c-2.992-.869-6.468-2.228-7.15-5.268a8.786,8.786,0,0,1,.011-2.929q.7-6.044,1.4-12.088a10.717,10.717,0,0,1,1.022-4.053c1.2-2.148,3.708-3.2,6.107-3.753,6.121-1.416,12.929-.451,17.946,3.332a9.59,9.59,0,0,1,3.209,3.778c1,2.375.5,5.085-.014,7.611q-.714,3.5-1.428,6.994c-.547,2.682-1.383,5.742-3.874,6.874-1.323.6-2.928.536-4.109,1.383C549.856,373.1,550.325,376.3,549.329,378.657Z" transform="translate(-517.534 -320.959)" fill="#e7caad"/>
            <path id="Path_4015" data-name="Path 4015" d="M549.154,299.114a10.4,10.4,0,0,1-2.4-.66c-2.564-1.116-4.361-3.355-7.085-4.4a24.942,24.942,0,0,0-17.827.464c-5.178,2.178-12.244,3.016-16.879,5.942a14.129,14.129,0,0,0-4.568,5.034,21.287,21.287,0,0,0,1.188,22.48,30.457,30.457,0,0,0,3.539,3.986c2.642,2.564,5.808,5.737,9.292,6.549-.088-3.072-3.419-12.587-1.2-15.231,2.939-3.506,8.706-3.417,12.838-3.03,4.924.461,8.978-1.12,13.889-.874,2.5.126,5.33.628,7.248-.982,2.217-1.862,6.9-7.776,8.017-10.371a6.557,6.557,0,0,0-1.368-6.873C552.376,299.588,550.8,299.407,549.154,299.114Z" transform="translate(-497.745 -292.624)" fill="#3a3029"/>
          </g>
        </g>
        <g id="Group_347" data-name="Group 347" transform="translate(32.119 115.437)">
          <path id="Path_4016" data-name="Path 4016" d="M417.257,495l16.392,44.042-16,23.3-3.16-55.892Z" transform="translate(-351.078 -433.488)" fill="#647380"/>
          <g id="Group_343" data-name="Group 343" transform="translate(15.847 234.715)">
            <path id="Path_4017" data-name="Path 4017" d="M307.071,1074.424a4.68,4.68,0,0,0-4.5-.646,4.74,4.74,0,0,0-2.762,3.4,8.64,8.64,0,0,0,.154,3.011c.876,5.144,4,17.086,11.308,17.024,3.069-.027,4.936-2.649,5.052-5.379C316.5,1087.718,312.05,1077.6,307.071,1074.424Z" transform="translate(-299.729 -1006.903)" fill="#363636"/>
            <path id="Path_4018" data-name="Path 4018" d="M321.868,915.262,320.683,928.3l-8.69,52.93,1.58,7.9s-.79,4.345-5.135,3.555c-1.738-.316-5.925-9.085-5.925-9.085l1.185-3.555-1.185-37.92,2.765-16.195-2.765-13.035Z" transform="translate(-301.359 -912.892)" fill="#e7caad"/>
          </g>
          <g id="Group_344" data-name="Group 344" transform="translate(38.011 237.939)">
            <path id="Path_4019" data-name="Path 4019" d="M386.3,1096.379l-9.782-9.035a19.262,19.262,0,0,0-8.273-2.409,4.682,4.682,0,0,0-4.117,1.93,4.742,4.742,0,0,0-.443,4.357,5.9,5.9,0,0,0,.85,1.376h0l0,.005c.291.365.61.711.927,1.052.2.217.425.45.662.693,2.024,2.194,5.416,5.767,6.762,6.575,1.975,1.185,6.32,4.345,11.455.79l-.06-.05A4.952,4.952,0,0,0,386.3,1096.379Z" transform="translate(-359.145 -1016.852)" fill="#363636"/>
            <path id="Path_4020" data-name="Path 4020" d="M372.684,921.514l-.79,11.338-3.875,55.2,3.875,6.421s.79,5.135-5.135,4.74c-1.762-.117-8-8.054-8-8.054l.9-3.637-4.159-37.71-.194-15.774-2.1-13.366Z" transform="translate(-353.203 -920.671)" fill="#e7caad"/>
          </g>
          <path id="Path_4021" data-name="Path 4021" d="M285.649,466.616l27.606,1.691,14.494,10.364s-.824,46.428,0,63.6,2.164,31.111,4.038,56.221c2.062,27.629-4.486,61-4.486,61H269.877S257.235,596.723,263,580.317a139.336,139.336,0,0,0,7.99-45.651c0-13.354-5.925-55.695-5.925-55.695Z" transform="translate(-261.494 -416.87)" fill="#c5cccc"/>
          <path id="Path_4022" data-name="Path 4022" d="M263.508,477.547s7.125,48.765,7.5,57.275-9.48,42.66-9.48,42.66l45.425,5.925s8.742-39.628,10.665-57.67-31.995-58.855-31.995-58.855Z" transform="translate(-261.517 -417.026)" fill="#647380"/>
          <path id="Path_4023" data-name="Path 4023" d="M387.743,470.414l9.48,10.143s1.219,54.783.864,63.293,7.091,35.571,7.091,35.571l-14.669,5.02s-7.291-27.383-9.085-45.425S379.965,470,379.965,470Z" transform="translate(-330.847 -418.852)" fill="#647380"/>
          <g id="Group_346" data-name="Group 346" transform="translate(9.425 0)">
            <g id="Group_345" data-name="Group 345">
              <path id="Path_4024" data-name="Path 4024" d="M367.281,391.533c1.617,4.531-.721,9.362-2.777,13.491-.84,1.687-2.164,4.049-.729,5.759,1.605,1.915,5.1,1.187,6.513-.48a9.527,9.527,0,0,0,1.745-4.156c1.52-6.578,3.639-15.791,2.461-22.455-.945-5.344-8.412-14.311-14.906-10.276a7.1,7.1,0,0,0-2.439,3.179,5.568,5.568,0,0,0-.678,2.264c-.04,3.147,3.04,3.678,5.166,5.176A15.816,15.816,0,0,1,367.281,391.533Z" transform="translate(-326.53 -361.706)" fill="#514943"/>
              <path id="Path_4025" data-name="Path 4025" d="M333.727,416.167a14.235,14.235,0,0,0,9.69-8.512c1.687-4.007,1.776-8.45,1.309-12.733-1.553-14.252-20.555-13.337-26.99-2.414C312.129,402.028,320.669,419.038,333.727,416.167Z" transform="translate(-302.825 -368.652)" fill="#e7caad"/>
              <path id="Path_4026" data-name="Path 4026" d="M300.574,377.116c0,1.743-.714,3.655-.8,5.453-.152,3.31.963,7.486.036,10.581a20.218,20.218,0,0,1-10.25-3.924c-2.722-2.1-2.582-5.6-3.453-8.976a44.3,44.3,0,0,1-1.863-9.472c-.593-17.648,16.062-28.83,32.214-22.3,6.111,2.469,9.352,9.854,5.507,15.246-4.134,5.8-13.733,4.312-18.906,8.805A9.484,9.484,0,0,0,300.574,377.116Z" transform="translate(-284.233 -346.594)" fill="#514943"/>
            </g>
            <path id="Path_4027" data-name="Path 4027" d="M345.639,454.154q-.2,1.626-.4,3.251c-.062.5.1,1.888-.286,2.26a1.123,1.123,0,0,1-.82.188c-.83-.027-8.261-.3-8.224-.774a25.842,25.842,0,0,1,.514-3.753c.228-1,.185-2.825.7-3.61a13.285,13.285,0,0,0,4.17,1.436q2.182.411,4.379.75Q345.655,454.028,345.639,454.154Z" transform="translate(-314.489 -408.146)" fill="#e7caad"/>
          </g>
        </g>
        <g id="Group_349" data-name="Group 349" transform="translate(123.431 166.693)">
          <g id="Group_348" data-name="Group 348" transform="translate(1.336 3.975)" opacity="0.1">
            <path id="Path_4028" data-name="Path 4028" d="M487.028,527.489a7.948,7.948,0,0,1-1.443-2.326,7.608,7.608,0,0,1-.393-4.436,1.206,1.206,0,0,1,1.364-.987,1.231,1.231,0,0,1,.99,1.391,5.322,5.322,0,0,0,.826,4.208,5.3,5.3,0,0,1,.8-.59c1.036-.625,2.623-1.411,3.708-.458a2.384,2.384,0,0,1-.4,3.667,4.093,4.093,0,0,1-3.1.981c.314,1.45.884,2.1,2.333,2.219.88.07,2.982-.154,3.464-1.084.312-.6-.061-2.151-.058-2.869a28.241,28.241,0,0,1,.656-5.928,31.528,31.528,0,0,1,4.823-10.969c5.1-7.475,12.829-12.839,21.076-16.237q.683-.282,1.372-.546a46.422,46.422,0,0,1,17.192-3.166,16.752,16.752,0,0,1,3.513-5.9,14.053,14.053,0,0,1,14.061-4.067,57.9,57.9,0,0,0-4.359,12.345,38.2,38.2,0,0,1,15.671,10.723c.092.1.178.2.261.3l6.661-.33s-.285,9.537-.872,13.7c0,0,.928,5.9-1.926,7.378a35.939,35.939,0,0,1-8.119,16.185q-.414.486-.847.962l3.785,9.881s-6.862,5.585-11.152,5.751l-4.937-6.083a49.934,49.934,0,0,1-5.811,2.664,57.643,57.643,0,0,1-7.189,2.236l.4,7.9c-3.3,2.744-12.139,3.173-12.139,3.173l-3.784-9.876c-11.856-1.167-21.783-7.5-26.29-19.264q-.576-1.5-.985-3a8.3,8.3,0,0,1-5.379-.615,6.677,6.677,0,0,1-2.952-2.992A5.882,5.882,0,0,1,487.028,527.489Z" transform="translate(-485.026 -479.85)"/>
          </g>
          <path id="Path_4029" data-name="Path 4029" d="M483.805,519.033a7.684,7.684,0,0,1-1.462-2.319,7.4,7.4,0,0,1-.348-4.453,1.283,1.283,0,0,1,1.425-1.01,1.2,1.2,0,0,1,1.006,1.384,5.152,5.152,0,0,0,.8,4.219,5.686,5.686,0,0,1,.831-.6c1.081-.642,2.733-1.453,3.843-.51,1.249,1.062.689,2.79-.462,3.691a4.414,4.414,0,0,1-3.225,1.028c.305,1.453.887,2.1,2.384,2.2.91.059,3.087-.194,3.6-1.136.331-.61-.034-2.161-.022-2.883a27.881,27.881,0,0,1,.757-5.967,32.169,32.169,0,0,1,5.137-11.089c5.377-7.581,13.445-13.075,22.023-16.6q.71-.292,1.427-.567a49.957,49.957,0,0,1,17.831-3.41,17.332,17.332,0,0,1,3.712-5.979c3.687-3.833,9.516-5.747,14.6-4.275a58.484,58.484,0,0,0-4.675,12.466,38.214,38.214,0,0,1,16.072,10.569c.094.1.182.2.266.3l6.9-.42s5.208,12.277,4.546,16.473c0,0-4.748,3.228-7.721,4.754a36.87,36.87,0,0,1-8.616,16.376q-.436.494-.89.979l3.786,9.881s-7.174,5.705-11.616,5.928l-5.027-6.048a53.964,53.964,0,0,1-6.049,2.754,62.25,62.25,0,0,1-7.468,2.343l.3,7.939c-3.453,2.8-12.6,3.351-12.6,3.351l-3.783-9.876c-12.252-1.016-22.439-7.25-26.946-19.013a31.073,31.073,0,0,1-.979-3,8.744,8.744,0,0,1-5.557-.546,6.559,6.559,0,0,1-3.015-2.968A5.69,5.69,0,0,1,483.805,519.033Z" transform="translate(-481.802 -470.259)" fill="#e498b5"/>
          <path id="Path_4030" data-name="Path 4030" d="M571.677,503.618l.008,4.065a54.265,54.265,0,0,0-23.477,8.994l-3.54-1.529S553.072,503.083,571.677,503.618Z" transform="translate(-518.612 -489.781)" fill="#c27098"/>
          <path id="Path_4031" data-name="Path 4031" d="M512.791,599.7c7.271,6.718,17.33,9.545,27.193,9.921a64.526,64.526,0,0,0,22.037-2.812c10.272-3.308,18.678-9.911,26.2-17.295.332-.325.652-.657.968-.992a38.859,38.859,0,0,1-7.241,11.771,50.394,50.394,0,0,1-19.8,13.494c-21.446,8.217-43.163,3.6-50.438-15.1C512.063,599.035,512.429,599.368,512.791,599.7Z" transform="translate(-499.317 -539.507)" opacity="0.03"/>
          <path id="Path_4032" data-name="Path 4032" d="M693.449,528.3s7.964,11.312,3.526,20.58l2.955-1.685S700.486,534.608,693.449,528.3Z" transform="translate(-605.727 -504.243)" opacity="0.03"/>
        </g>
        <path id="Path_4033" data-name="Path 4033" d="M459.691,436.227,448.5,489.694l7.461,10.362,56.368,15.75,4.559-10.776-46.835-25.7L480,448.661,481.451,424Z" transform="translate(-338.872 -276.48)" fill="#6d8299"/>
        <path id="Path_4034" data-name="Path 4034" d="M607.949,614.8l7.038-5.388,4.559-.414.414,1.243-2.487,2.072,4.559-.414,4.974-1.243,1.658,3.73-11.605,9.947-11.992-2.722Z" transform="translate(-430.546 -384.802)" fill="#e7caad"/>
        <g id="Group_355" data-name="Group 355" transform="translate(28.879 186.256)">
          <g id="Group_350" data-name="Group 350" transform="translate(8.331 14.316)" opacity="0.1">
            <path id="Path_4035" data-name="Path 4035" d="M315.683,552c-23.234.158-40.171,21.472-41.813,47.491-1.659,26.285,19.09,47.075,42.323,46.917s41.954-21.42,41.813-47.491S338.917,551.842,315.683,552Z" transform="translate(-273.777 -552)"/>
          </g>
          <g id="Group_352" data-name="Group 352" transform="translate(0 0)">
            <g id="Group_351" data-name="Group 351">
              <circle id="Ellipse_243" data-name="Ellipse 243" cx="39.818" cy="39.818" r="39.818" transform="translate(0 56.311) rotate(-45)" fill="#e89f40"/>
              <path id="Path_4036" data-name="Path 4036" d="M327.957,548.6a43.4,43.4,0,1,0,43.666,43.14A43.4,43.4,0,0,0,327.957,548.6Zm.483,79.516a36.113,36.113,0,1,1,35.893-36.332A36.114,36.114,0,0,1,328.44,628.116Z" transform="translate(-271.91 -535.692)" fill="#272525" opacity="0.1"/>
              <path id="Path_4037" data-name="Path 4037" d="M321.64,537.858a47.856,47.856,0,1,0,48.146,47.565A47.856,47.856,0,0,0,321.64,537.858Zm.533,87.672a39.818,39.818,0,1,1,39.575-40.059A39.818,39.818,0,0,1,322.173,625.53Z" transform="translate(-265.62 -529.402)" fill="#f2d042"/>
            </g>
          </g>
          <g id="Group_354" data-name="Group 354" transform="translate(42.634 27.209)">
            <g id="Group_353" data-name="Group 353" transform="translate(0 6.714)">
              <path id="Path_4038" data-name="Path 4038" d="M357.281,633.722c-.488-.339-.577-1.05-.691-1.694a2.532,2.532,0,0,1,2.347-3.076c2.433-.292,4.925,1.555,7.135,2.606a13.806,13.806,0,0,0,6.009,1.295,8.722,8.722,0,0,0,5.643-1.713,5.5,5.5,0,0,0,2.125-4.5,4.563,4.563,0,0,0-1.71-4.024q-1.71-1.2-5.859-1.2h-1.826q-6.772,0-10.325-2.829t-3.552-8.208a10.072,10.072,0,0,1,3.469-8.168q3.469-2.908,9.744-2.908a16.925,16.925,0,0,1,5.212.857c3.682,1.189,9.777,4.165,8.486,7.826-1.473,4.174-7.913-1.872-10.18-2.847a11.785,11.785,0,0,0-4.68-.856,7.412,7.412,0,0,0-5.03,1.653,5.317,5.317,0,0,0-1.909,4.2,3.764,3.764,0,0,0,1.959,3.586q1.958,1.076,8.432,1.235,6.9.2,10.092,2.888t3.187,8.307a11.113,11.113,0,0,1-3.519,8.606q-3.519,3.227-9.494,3.227a23.972,23.972,0,0,1-4.215-.418C365.248,637.056,360.646,636.058,357.281,633.722Z" transform="translate(-356.541 -599.306)" fill="#f2d042"/>
            </g>
            <path id="Path_4039" data-name="Path 4039" d="M387.936,637.955h-.05a2.706,2.706,0,0,1-2.49-2.88v-49.09a2.706,2.706,0,0,1,2.49-2.879h.05a2.706,2.706,0,0,1,2.49,2.879v49.09A2.706,2.706,0,0,1,387.936,637.955Z" transform="translate(-373.436 -583.106)" fill="#f2d042"/>
          </g>
        </g>
        <path id="Path_4040" data-name="Path 4040" d="M217.987,493,184,548.954l4.974,14.092,44.349,37.717,7.184-9.533-32.467-44.349,17.408-21.967,5.388-24.454Z" transform="translate(-184 -316.881)" fill="#6e7e8c"/>
        <path id="Path_4041" data-name="Path 4041" d="M309.811,734.008,316.344,733l6.217.414-.691,2.072-4.7,1.658,2.837,6.234,4.679,1.883L318,747.092l-12.741-7.046Z" transform="translate(-255.002 -457.408)" fill="#e7caad"/>
        <path id="Path_4042" data-name="Path 4042" d="M421.692,549.684,417.013,538H405.408l-3.959,7.979,6.031,2.383,8.013-2.383Z" transform="translate(-311.322 -343.23)" fill="#e7caad"/>
        <path id="Path_4043" data-name="Path 4043" d="M690.344,574.245,687.514,570h-9.433l-.943,6.131,7.546,7.546h1.887Z" transform="translate(-472.746 -361.967)" fill="#e7caad"/>
      </g>
    </g>
  </g>
</svg>
