<svg xmlns="http://www.w3.org/2000/svg" width="748.947" height="334.401" viewBox="0 0 748.947 334.401">
  <g id="Group_297" data-name="Group 297" transform="translate(-59.864 -164.144)">
    <ellipse id="Ellipse_235" data-name="Ellipse 235" cx="92.601" cy="10.402" rx="92.601" ry="10.402" transform="translate(388.631 477.742)" fill="#f2f2f2" style="mix-blend-mode: multiply;isolation: isolate"/>
    <ellipse id="Ellipse_236" data-name="Ellipse 236" cx="88.725" cy="9.966" rx="88.725" ry="9.966" transform="translate(605.556 478.177)" fill="#f2f2f2" style="mix-blend-mode: multiply;isolation: isolate"/>
    <ellipse id="Ellipse_237" data-name="Ellipse 237" cx="114.967" cy="9.966" rx="114.967" ry="9.966" transform="translate(112.398 478.177)" fill="#f2f2f2" style="mix-blend-mode: multiply;isolation: isolate"/>
    <g id="Group_292" data-name="Group 292" transform="translate(569.643 186.582)">
      <g id="Group_291" data-name="Group 291" transform="translate(0)">
        <g id="Group_281" data-name="Group 281" transform="translate(35.935)">
          <path id="Path_3902" data-name="Path 3902" d="M570.529,328s-18.762-96.183,40.238-109.139c75.213-16.514,70.284,98.863,70.284,98.863Z" transform="translate(-548.225 -180.585)" fill="#fddbbb"/>
          <path id="Path_3903" data-name="Path 3903" d="M679.908,184.3s28.523,73.067-87.739,68.608L592,275.876s-10.557-10.14-12.073.983c-1.748,12.809,10.048,8.163,10.048,8.163s-7.759,31.856-18.031,43.681c-1.666-1.695-48.852-107.77,1.2-106.755,0,0,.569-23.681,32.124-30.617C649.356,181.641,654.5,218.57,679.908,184.3Z" transform="translate(-550.201 -184.305)" fill="#424242"/>
          <path id="Path_3904" data-name="Path 3904" d="M612.973,267.554c.6,4.3-.723,8.029-2.945,8.337s-4.5-2.926-5.1-7.222.722-8.03,2.942-8.338S612.378,263.258,612.973,267.554Z" transform="translate(-544.036 -175.721)" fill="#424242"/>
          <path id="Path_3905" data-name="Path 3905" d="M657.871,260.987c.6,4.3-.721,8.029-2.942,8.337s-4.506-2.927-5.1-7.223.726-8.029,2.945-8.336S657.275,256.69,657.871,260.987Z" transform="translate(-538.966 -176.463)" fill="#424242"/>
          <path id="Path_3906" data-name="Path 3906" d="M650.422,281.16c-4.763.052-20.16.484-30.791,3.8a1.747,1.747,0,0,0-1.206,1.819c.329,4.036,2.689,15.271,18.829,13.711,15.931-1.54,15.569-13.562,14.924-17.834A1.749,1.749,0,0,0,650.422,281.16Z" transform="translate(-542.497 -173.366)" fill="#eb7d86"/>
        </g>
        <path id="Path_3907" data-name="Path 3907" d="M708.089,466.156c-7.391-10.719-20.948-.7-20.948-.7l1.408-33.261-5.517-129.21-9.9.948L644.273,352.5,604.8,311.159l-36.61,4.441c8.093,36.632,15.746,73.412,18.459,117.472l-25.024,20.284s14.753,27.093,18.01,17.545c5.042-14.779-9.592-17.478-9.592-17.478l26.5-15.113,4.727-28.013c43.94-1.025,71.964-7.612,71.964-7.612L678.7,433.6l3.341,38.619S715.481,476.875,708.089,466.156Z" transform="translate(-512.976 -170.902)" fill="#424242"/>
        <g id="Group_283" data-name="Group 283" transform="translate(91.821 133.03)">
          <g id="Group_282" data-name="Group 282">
            <path id="Path_3908" data-name="Path 3908" d="M668.747,303.835,639.892,352.4l-39.476-41.338Z" transform="translate(-600.416 -303.835)" fill="#f5f5f5"/>
          </g>
        </g>
        <g id="Group_285" data-name="Group 285" transform="translate(131.297 133.03)">
          <g id="Group_284" data-name="Group 284">
            <path id="Path_3909" data-name="Path 3909" d="M664.741,303.835l2.436,19.26-10.671,3.339,3.035,14.538L635.886,352.4Z" transform="translate(-635.886 -303.835)" fill="gray"/>
          </g>
        </g>
        <g id="Group_287" data-name="Group 287" transform="translate(91.821 140.257)">
          <g id="Group_286" data-name="Group 286">
            <path id="Path_3910" data-name="Path 3910" d="M639.892,351.668l-24.969-9.123-.253-10.768-11.9-2.981-2.357-18.466Z" transform="translate(-600.416 -310.329)" fill="gray"/>
          </g>
        </g>
        <g id="Group_289" data-name="Group 289" transform="translate(121.153 139.933)">
          <g id="Group_288" data-name="Group 288">
            <path id="Path_3911" data-name="Path 3911" d="M642.987,315.049l-4.153-5.011-9.316.627-2.747,6.833,4.183,4L628,342.405l8.915,9.3,7.672-12.9-5.382-17.949Z" transform="translate(-626.771 -310.038)" fill="#b35730"/>
          </g>
        </g>
        <path id="Path_3912" data-name="Path 3912" d="M634.05,356.232a3.147,3.147,0,1,0,2.028-3.96A3.147,3.147,0,0,0,634.05,356.232Z" transform="translate(-504.814 -165.353)" fill="gray"/>
        <path id="Path_3913" data-name="Path 3913" d="M634.914,369.134a3.145,3.145,0,1,0,2.027-3.96A3.15,3.15,0,0,0,634.914,369.134Z" transform="translate(-504.716 -163.895)" fill="gray"/>
        <g id="Group_290" data-name="Group 290" transform="translate(0 144.691)">
          <path id="Path_3914" data-name="Path 3914" d="M519.8,371.85s-1.067,12.886,8.475,11.7,3.276-12.6,3.276-12.6Z" transform="translate(-517.703 -307.916)" fill="#fddbbb"/>
          <path id="Path_3915" data-name="Path 3915" d="M532.051,369.294l.615,3.013-13.14.557-.161-3.12Z" transform="translate(-517.748 -308.104)" fill="#f5f5f5"/>
          <path id="Path_3916" data-name="Path 3916" d="M573.124,314.32s-61.4-1.994-54.7,62.727l14.97-.094s-9.744-50.019,44.742-45Z" transform="translate(-517.912 -314.313)" fill="#424242"/>
          <path id="Path_3917" data-name="Path 3917" d="M519.817,364.046a1.369,1.369,0,1,0,1.108-1.594A1.37,1.37,0,0,0,519.817,364.046Z" transform="translate(-517.7 -308.879)" fill="gray"/>
          <path id="Path_3918" data-name="Path 3918" d="M519.815,368.234a1.37,1.37,0,1,0,1.107-1.587A1.372,1.372,0,0,0,519.815,368.234Z" transform="translate(-517.7 -308.405)" fill="gray"/>
        </g>
      </g>
    </g>
    <g id="Group_293" data-name="Group 293" transform="translate(59.864 164.144)">
      <path id="Path_3919" data-name="Path 3919" d="M213.24,331.438l9.491,16.693,14.847,26.11L263.6,420.01l8.447,14.857,10.485,18.44a160.186,160.186,0,0,1-36.809,15.187c-1.185.324-2.371.629-3.556.925l.063.02,31.788-8.6.041-.041a160.072,160.072,0,0,0,35.38-14.771L234.6,314.407l-31.087-.073Z" transform="translate(-43.64 -147.182)" fill="#e0a649"/>
      <path id="Path_3920" data-name="Path 3920" d="M191.064,169.859q-6.554,1.795-12.82,4.1A159.936,159.936,0,0,1,366.232,331.673l26.906-7.277A159.931,159.931,0,0,0,191.064,169.859Z" transform="translate(-46.494 -164.144)" fill="#edb04e"/>
      <path id="Path_3921" data-name="Path 3921" d="M333.093,294.569a121.528,121.528,0,1,0-57.154,137.777l-26.025-45.77a84.339,84.339,0,0,1-8.732,3.985l4.728,17.264-17.644,4.831-4.727-17.264q-18.752,3.073-30.432-2.7T176.433,368.7l-1.418-5.18,34.527-9.453,1,3.644q2.364,8.633,6.517,11a12.082,12.082,0,0,0,9.526.9q5.562-1.522,7.536-5.982a13.23,13.23,0,0,0,.949-3.162l-9.491-16.693a41.007,41.007,0,0,0-10.029-2.792q-7-1.07-15.048-1.86a60.61,60.61,0,0,1-15.519-3.587,37.673,37.673,0,0,1-13.587-8.96q-6.125-6.157-9.324-17.86-9.819-35.864,23.7-51.235l-3.046-11.126,17.644-4.831,3.047,11.126q19.706-3.332,30.992,3.988t16.694,27.081l-33.378,9.139-.788-2.877a20.56,20.56,0,0,0-5.246-9.389,8.574,8.574,0,0,0-8.858-2.214q-5.754,1.576-7.414,6.051a14.178,14.178,0,0,0-.453,8.887q1.84,6.716,7.205,9.368a40.773,40.773,0,0,0,12.647,3.65q7.285,1,15.472,1.537a57.962,57.962,0,0,1,15.976,3.358,38.815,38.815,0,0,1,14.144,9.117,30.187,30.187,0,0,1,4.838,6.443l72.136.17A121.2,121.2,0,0,0,333.093,294.569Z" transform="translate(-55.977 -159.518)" fill="#ffbe55"/>
      <path id="Path_3922" data-name="Path 3922" d="M191.614,173.219c-4.7.845-9.4,1.893-14.088,3.177a159.832,159.832,0,0,0,80.867,309.244c1.185-.3,2.371-.6,3.556-.925a160.186,160.186,0,0,0,36.809-15.187l-10.485-18.44a138.4,138.4,0,0,1-31.919,13.192c-73.735,20.191-150.15-23.373-170.339-97.107s23.373-150.15,97.108-170.339,150.149,23.373,170.338,97.108a138.22,138.22,0,0,1,4.9,36.942l21.241.05A159.936,159.936,0,0,0,191.614,173.219Z" transform="translate(-59.864 -163.404)" fill="#ffbe55"/>
      <path id="Path_3923" data-name="Path 3923" d="M351.309,291.79c-20.19-73.735-96.6-117.3-170.338-97.108s-117.3,96.605-97.108,170.339,96.6,117.3,170.339,97.107a138.4,138.4,0,0,0,31.919-13.192l-8.447-14.857a121.688,121.688,0,1,1,61.449-105.388l17.086.04A138.22,138.22,0,0,0,351.309,291.79Z" transform="translate(-57.711 -161.253)" fill="#db9b34"/>
      <path id="Path_3924" data-name="Path 3924" d="M225.926,348.512q-1.98,4.462-7.536,5.982a12.082,12.082,0,0,1-9.526-.9q-4.155-2.364-6.517-11l-1-3.644-34.527,9.453,1.418,5.18q4.99,18.227,16.674,23.992t30.432,2.7l4.727,17.264,17.644-4.831-4.728-17.264a84.339,84.339,0,0,0,8.732-3.985l-14.847-26.11A13.23,13.23,0,0,1,225.926,348.512Z" transform="translate(-47.784 -144.402)" fill="#db9b34"/>
      <path id="Path_3925" data-name="Path 3925" d="M253.76,316.649a38.815,38.815,0,0,0-14.144-9.117,57.962,57.962,0,0,0-15.976-3.358q-8.185-.541-15.472-1.537a40.773,40.773,0,0,1-12.647-3.65q-5.369-2.653-7.205-9.368a14.178,14.178,0,0,1,.453-8.887q1.658-4.477,7.414-6.051a8.574,8.574,0,0,1,8.858,2.214,20.56,20.56,0,0,1,5.246,9.389l.788,2.877,33.378-9.139q-5.411-19.754-16.694-27.081t-30.992-3.988l-3.047-11.126-17.644,4.831,3.046,11.126q-33.527,15.367-23.7,51.235,3.205,11.7,9.324,17.86a37.673,37.673,0,0,0,13.587,8.96,60.61,60.61,0,0,0,15.519,3.587q8.05.788,15.048,1.86a41.007,41.007,0,0,1,10.029,2.792l-9.725-17.1,31.087.073,18.313.043A30.187,30.187,0,0,0,253.76,316.649Z" transform="translate(-49.323 -155.823)" fill="#db9b34"/>
    </g>
    <g id="Group_294" data-name="Group 294" transform="translate(392.069 340.393)">
      <path id="Path_3926" data-name="Path 3926" d="M437.644,350.867l7.228-12.642,8.986-15.716H425.983L358.358,440.79h27.874l20.9-36.551Z" transform="translate(-358.358 -322.508)" fill="#edb04e"/>
      <path id="Path_3927" data-name="Path 3927" d="M398.47,428.787h0Z" transform="translate(-353.828 -310.505)" fill="#edb04e"/>
      <path id="Path_3928" data-name="Path 3928" d="M436.176,428.787h0Z" transform="translate(-349.569 -310.505)" fill="#edb04e"/>
      <path id="Path_3929" data-name="Path 3929" d="M432.694,347.989,402.18,401.361a44.764,44.764,0,0,1,11.213,1.53q16.753,4.272,22.579,15.034,4.394,8.112,4.043,19.987h44.874A103.974,103.974,0,0,0,432.694,347.989Z" transform="translate(-353.409 -319.63)" fill="#ffbe55"/>
      <path id="Path_3930" data-name="Path 3930" d="M409.874,426.647a11.9,11.9,0,0,0-9.769,1.271c-.552.355-1.094.758-1.635,1.166h16.367A12.649,12.649,0,0,0,409.874,426.647Z" transform="translate(-353.828 -310.802)" fill="#ffbe55"/>
      <path id="Path_3931" data-name="Path 3931" d="M495.625,440.79H513.7a136.461,136.461,0,0,0-68.626-118.282l-8.985,15.717A118.593,118.593,0,0,1,495.625,440.79Z" transform="translate(-349.579 -322.508)" fill="#ffbe55"/>
      <path id="Path_3932" data-name="Path 3932" d="M436.827,336.63,429.6,349.272a103.974,103.974,0,0,1,52.194,89.923h14.566A118.593,118.593,0,0,0,436.827,336.63Z" transform="translate(-350.312 -320.913)" fill="#db9b34"/>
      <path id="Path_3933" data-name="Path 3933" d="M438.093,412.509q-5.825-10.754-22.579-15.034a44.763,44.763,0,0,0-11.213-1.53L383.4,432.5h16.769c.541-.408,1.083-.811,1.635-1.166a11.9,11.9,0,0,1,9.769-1.271,12.649,12.649,0,0,1,4.963,2.437h25.6Q442.482,420.622,438.093,412.509Z" transform="translate(-355.529 -314.214)" fill="#db9b34"/>
    </g>
    <circle id="Ellipse_238" data-name="Ellipse 238" cx="10.725" cy="10.725" r="10.725" transform="translate(407.566 467.234)" fill="#424242"/>
    <circle id="Ellipse_239" data-name="Ellipse 239" cx="4.658" cy="4.658" r="4.658" transform="translate(413.634 473.302)" fill="#f2f2f2"/>
    <circle id="Ellipse_240" data-name="Ellipse 240" cx="10.725" cy="10.725" r="10.725" transform="translate(527.885 467.234)" fill="#424242"/>
    <circle id="Ellipse_241" data-name="Ellipse 241" cx="4.658" cy="4.658" r="4.658" transform="translate(533.953 473.302)" fill="#f2f2f2"/>
    <g id="Group_295" data-name="Group 295" transform="translate(739.699 274.881)">
      <path id="Path_3934" data-name="Path 3934" d="M732.931,277.181s4.263-12.207-5.271-13.451-6.33,11.371-6.33,11.371Z" transform="translate(-665.054 -263.644)" fill="#fddbbb"/>
      <path id="Path_3935" data-name="Path 3935" d="M720.465,275.755l.159-3.071,12.86,2.754-.626,3.061Z" transform="translate(-665.093 -262.623)" fill="#f5f5f5"/>
      <path id="Path_3936" data-name="Path 3936" d="M671.144,324.589s58.935,17.324,68.679-47.01l-14.516-3.662s-3.107,50.863-54.6,32.349Z" transform="translate(-670.712 -262.484)" fill="#424242"/>
      <path id="Path_3937" data-name="Path 3937" d="M729.986,283.578a1.37,1.37,0,1,0-1.474,1.264A1.371,1.371,0,0,0,729.986,283.578Z" transform="translate(-664.327 -261.559)" fill="gray"/>
      <path id="Path_3938" data-name="Path 3938" d="M731.038,279.523a1.37,1.37,0,1,0-1.47,1.259A1.373,1.373,0,0,0,731.038,279.523Z" transform="translate(-664.208 -262.017)" fill="gray"/>
    </g>
    <g id="Group_296" data-name="Group 296" transform="translate(383.344 397.154)">
      <path id="Path_3939" data-name="Path 3939" d="M523.368,441.906H353.956a3.438,3.438,0,1,1,0-6.876H523.368a9.526,9.526,0,0,0,9.516-9.516V392.33a19.294,19.294,0,0,1,5.688-13.733l4.081-4.081a3.437,3.437,0,0,1,4.861,4.861l-4.081,4.082a12.459,12.459,0,0,0-3.674,8.87v33.184A16.41,16.41,0,0,1,523.368,441.906Z" transform="translate(-350.518 -373.509)" fill="#f2f2f2"/>
    </g>
  </g>
</svg>
