<svg xmlns="http://www.w3.org/2000/svg" width="615.46" height="421.99" viewBox="0 0 615.46 421.99">
  <title>Group 995</title>
  <g>
    <g>
      <path d="M278.37,105.38s6-3.18,12.72,1.62c4.14,3,12.93,7.56,15.64,4.77L310.06,101A30.58,30.58,0,0,1,298,95.55c-5.31-4.2-15.89-4-15.89-4Z" transform="translate(-56.74 -52.32)" style="fill: #ff725e"/>
      <g style="opacity: 0.4000000059604645">
        <path d="M297.13,96.91a5.38,5.38,0,0,1,2,7.34,5.82,5.82,0,0,1-.44.66c-1.81,2.14-6,1.58-8.13-.24a5.06,5.06,0,0,1-.6-7.14h0C291.79,95.36,294.71,95.5,297.13,96.91Z" transform="translate(-56.74 -52.32)" style="fill: #fff"/>
      </g>
      <path d="M297,99.05c0,.07-.26,0-.59-.13a6.71,6.71,0,0,0-1.36-.43,2.48,2.48,0,0,0-.86,0,1.16,1.16,0,0,0-.67.42.86.86,0,0,0-.08.75c.08.22.34.42.76.63.2.1.43.2.67.33a2.72,2.72,0,0,1,.72.54,2.34,2.34,0,0,1,.29.41,1.82,1.82,0,0,1,.16.5,1.64,1.64,0,0,1-.14,1,1.83,1.83,0,0,1-.57.69,1.76,1.76,0,0,1-.75.31,2.6,2.6,0,0,1-1.27-.11,3,3,0,0,1-.86-.44,3.29,3.29,0,0,1-.54-.43c-.27-.27-.39-.45-.34-.52s.25,0,.59.12a5.84,5.84,0,0,0,1.36.44,2,2,0,0,0,.84,0,.77.77,0,0,0,.52-.46.62.62,0,0,0,0-.33v-.14l-.12-.15a4.51,4.51,0,0,0-1.07-.6A3,3,0,0,1,293,101a2.31,2.31,0,0,1-.34-.36,1.35,1.35,0,0,1-.24-.46,1.89,1.89,0,0,1,.25-1.91,2.07,2.07,0,0,1,1.4-.76,2.91,2.91,0,0,1,1.24.13,3.83,3.83,0,0,1,1.41.87C296.94,98.8,297.07,99,297,99.05Z" transform="translate(-56.74 -52.32)" style="fill: #ff725e"/>
      <path d="M295,96.73a14.07,14.07,0,0,1-1,4,14,14,0,0,1-1.56,3.8,14.59,14.59,0,0,1,1-4A14.3,14.3,0,0,1,295,96.73Z" transform="translate(-56.74 -52.32)" style="fill: #ff725e"/>
      <path d="M295.82,97.25a11.9,11.9,0,0,1-.87,3.63c-.64,2-1.29,3.49-1.45,3.43a12,12,0,0,1,.88-3.62A11.69,11.69,0,0,1,295.82,97.25Z" transform="translate(-56.74 -52.32)" style="fill: #ff725e"/>
      <g style="opacity: 0.5">
        <path d="M308.71,101.71l-3.07,9.76h-.1c-4.81,1-10.91-3.2-14.94-6-.7-.48-1.36-.93-1.93-1.3a9,9,0,0,0-8.66-.33l-.32-.13,3.14-10.59h.11a21,21,0,0,1,16.25,4.69c3,2.63,9.26,3.81,9.32,3.82Zm-3.35,9.45,2.89-9.18c-1.12-.22-6.48-1.4-9.29-3.86a20.65,20.65,0,0,0-15.85-4.62l-2.94,9.89a7,7,0,0,1,.94-.36,9.7,9.7,0,0,1,7.75.9l1.94,1.3C294.75,107.94,300.72,112,305.36,111.16Z" transform="translate(-56.74 -52.32)" style="fill: #fff"/>
      </g>
      <path d="M654.4,191.9s-.07,11.66-12.66,17.88c-7.8,3.85-21.8,13.47-19.73,19.74l13.52,13.65s7.17-9.08,17.94-13.8c10.59-4.63,18.73-20.77,18.73-20.77Z" transform="translate(-56.74 -52.32)" style="fill: #ff725e"/>
      <g style="opacity: 0.4000000059604645">
        <path d="M652.1,227a9.19,9.19,0,0,1-12.67-2.85,8.44,8.44,0,0,1-.61-1.15c-1.77-4.45,2.43-10.29,6.87-12.06a8.67,8.67,0,0,1,11.25,4.81C658.72,220.17,656.17,224.46,652.1,227Z" transform="translate(-56.74 -52.32)" style="fill: #fff"/>
      </g>
      <path d="M648.94,225.1c-.06-.14.2-.4.67-.79a11.25,11.25,0,0,0,1.75-1.7,4.33,4.33,0,0,0,.65-1.33,1.88,1.88,0,0,0-.11-1.34,1.45,1.45,0,0,0-1.07-.72,2.37,2.37,0,0,0-1.54.63c-.32.23-.65.5-1,.75a4.92,4.92,0,0,1-1.39.66,3.16,3.16,0,0,1-.86.1,2.37,2.37,0,0,1-.88-.16,2.79,2.79,0,0,1-1.34-1,3.06,3.06,0,0,1-.44-2.79,4.42,4.42,0,0,1,1.18-1.83,5.63,5.63,0,0,1,1.36-1,6.6,6.6,0,0,1,1.09-.46c.61-.2,1-.23,1-.11s-.18.41-.65.81a11.27,11.27,0,0,0-1.76,1.69,3.24,3.24,0,0,0-.61,1.3,1.23,1.23,0,0,0,.29,1.16.93.93,0,0,0,.47.3.57.57,0,0,0,.26,0,1.18,1.18,0,0,0,.31,0,7.55,7.55,0,0,0,1.78-1.13,6.12,6.12,0,0,1,1.29-.75,3.8,3.8,0,0,1,.82-.21,2.66,2.66,0,0,1,.89,0,3.28,3.28,0,0,1,2.5,1.88,3.56,3.56,0,0,1,0,2.72,5.21,5.21,0,0,1-1.19,1.77A6.55,6.55,0,0,1,650,225C649.4,225.25,649,225.25,648.94,225.1Z" transform="translate(-56.74 -52.32)" style="fill: #ff725e"/>
      <path d="M654.07,223.93c-.2.2-2.53-1.9-5.2-4.69s-4.68-5.2-4.48-5.4,2.54,1.9,5.22,4.69S654.28,223.73,654.07,223.93Z" transform="translate(-56.74 -52.32)" style="fill: #ff725e"/>
      <path d="M652.7,224.76c-.2.2-2.34-1.69-4.76-4.22s-4.23-4.74-4-4.94,2.34,1.7,4.76,4.23S652.94,224.57,652.7,224.76Z" transform="translate(-56.74 -52.32)" style="fill: #ff725e"/>
      <g style="opacity: 0.5">
        <path d="M635.58,240.58l-12.25-12.46.06-.17c2.38-8,13.57-13.87,21-17.74,1.27-.66,2.48-1.29,3.5-1.86,6.83-3.8,7.74-12.13,7.44-12.78l.47-.39,13.43,13.23-.06.18a35.8,35.8,0,0,1-20.1,20.74c-6.38,2.44-13.17,10.9-13.24,11ZM624,228l11.52,11.71c1.23-1.5,7.32-8.63,13.28-10.9a35.2,35.2,0,0,0,19.68-20.19l-12.56-12.32a13.71,13.71,0,0,1-.22,1.69c-.36,1.79-2,7.85-7.58,11-1,.57-2.23,1.21-3.51,1.87C637.38,214.55,626.45,220.25,624,228Z" transform="translate(-56.74 -52.32)" style="fill: #fff"/>
      </g>
      <path d="M660.8,93.86s-7.41,1.64-13.18-5.45C644.06,84,636,76.52,632.25,78.73l-6.72,10.52a34.26,34.26,0,0,1,11.35,9.4c4.47,6,15.88,8.89,15.88,8.89Z" transform="translate(-56.74 -52.32)" style="fill: #ff725e"/>
      <g style="opacity: 0.4000000059604645">
        <path d="M638.2,97.46a6,6,0,0,1,0-8.48,5.88,5.88,0,0,1,.6-.52c2.57-1.77,6.88.06,8.65,2.62A5.66,5.66,0,0,1,646,98.93C643.48,100.68,640.39,99.68,638.2,97.46Z" transform="translate(-56.74 -52.32)" style="fill: #fff"/>
      </g>
      <path d="M638.94,95.25c.08-.06.28.07.6.31a6.18,6.18,0,0,0,1.33.86,2.16,2.16,0,0,0,.94.22,1.2,1.2,0,0,0,.83-.26.94.94,0,0,0,.31-.78,1.63,1.63,0,0,0-.63-.89c-.19-.17-.41-.34-.62-.55a3,3,0,0,1-.62-.79,1.68,1.68,0,0,1-.19-.53,1.88,1.88,0,0,1,0-.58,1.78,1.78,0,0,1,.44-1,1.87,1.87,0,0,1,.81-.57,1.91,1.91,0,0,1,.89-.11,3.05,3.05,0,0,1,1.33.48,4.53,4.53,0,0,1,.8.72,7.17,7.17,0,0,1,.45.63c.22.36.29.59.22.65s-.28-.06-.61-.3a7.25,7.25,0,0,0-1.33-.87,2.18,2.18,0,0,0-.9-.2.8.8,0,0,0-.7.35.54.54,0,0,0-.12.34.25.25,0,0,0,0,.17.64.64,0,0,0,.08.19,4.31,4.31,0,0,0,1,1,4.12,4.12,0,0,1,.66.72,2.87,2.87,0,0,1,.26.49,2.08,2.08,0,0,1-.71,2.42,2.3,2.3,0,0,1-1.72.41,2.84,2.84,0,0,1-1.29-.5,3.88,3.88,0,0,1-1.26-1.35C638.94,95.49,638.87,95.25,638.94,95.25Z" transform="translate(-56.74 -52.32)" style="fill: #ff725e"/>
      <path d="M640.42,98.25c-.15-.1.84-1.88,2.22-4s2.63-3.72,2.79-3.62-.84,1.89-2.23,4S640.57,98.38,640.42,98.25Z" transform="translate(-56.74 -52.32)" style="fill: #ff725e"/>
      <path d="M639.69,97.52c-.15-.1.74-1.73,2-3.63s2.4-3.37,2.55-3.26-.74,1.73-2,3.63S639.85,97.62,639.69,97.52Z" transform="translate(-56.74 -52.32)" style="fill: #ff725e"/>
      <g style="opacity: 0.5">
        <path d="M627.18,88.94l6.15-9.58h.11c5.44.36,10.76,6.62,14.29,10.76.6.71,1.18,1.38,1.68,2A10,10,0,0,0,658.6,95l.31.24-6.46,10.44h-.12a23.19,23.19,0,0,1-16.06-9.78c-2.47-3.69-8.82-6.78-8.89-6.81Zm6.35-9.16-5.77,9c1.13.56,6.53,3.4,8.84,6.85a22.79,22.79,0,0,0,15.65,9.62l6-9.74a6.94,6.94,0,0,1-1.11.1,10.7,10.7,0,0,1-8-3.22c-.51-.57-1.09-1.25-1.7-2C643.94,86.33,638.76,80.25,633.53,79.78Z" transform="translate(-56.74 -52.32)" style="fill: #fff"/>
      </g>
      <path d="M570,101.54s-9.29,7-21.89.86c-7.8-3.84-23.91-9.09-27.68-3.62l-2.58,19s11.57.15,21.87,5.82c10.13,5.57,27.88,2.19,27.88,2.19Z" transform="translate(-56.74 -52.32)" style="fill: #ff725e"/>
      <g style="opacity: 0.4000000059604645">
        <path d="M540.83,121.09a9.16,9.16,0,0,1-5.45-11.77,8.47,8.47,0,0,1,.56-1.23c2.44-4.11,9.64-4.34,13.75-1.9a8.68,8.68,0,0,1,3,11.88C550.26,122.19,545.3,122.79,540.83,121.09Z" transform="translate(-56.74 -52.32)" style="fill: #fff"/>
      </g>
      <path d="M540.41,117.46c.06-.13.43-.09,1,.05a10.23,10.23,0,0,0,2.41.34,3.83,3.83,0,0,0,1.45-.29,1.84,1.84,0,0,0,1-.9,1.5,1.5,0,0,0-.08-1.29,2.49,2.49,0,0,0-1.45-.83c-.37-.11-.78-.22-1.22-.37a4.93,4.93,0,0,1-1.37-.7,3.25,3.25,0,0,1-.61-.62,2.43,2.43,0,0,1-.41-.8,2.93,2.93,0,0,1,0-1.66,3,3,0,0,1,.77-1.32,3.15,3.15,0,0,1,1.17-.72,4.43,4.43,0,0,1,2.17-.18,6,6,0,0,1,1.58.49,8.37,8.37,0,0,1,1,.58c.53.37.78.64.72.77s-.43.1-1,0a11,11,0,0,0-2.41-.36,3.36,3.36,0,0,0-1.4.3,1.27,1.27,0,0,0-.74.94.86.86,0,0,0,0,.55.65.65,0,0,0,.13.23,1.21,1.21,0,0,0,.24.21,7,7,0,0,0,2,.72,6.51,6.51,0,0,1,1.37.57,4.89,4.89,0,0,1,.68.52,3.17,3.17,0,0,1,.54,3.84,3.51,3.51,0,0,1-2.14,1.67,4.66,4.66,0,0,1-2.13.14,6.36,6.36,0,0,1-2.62-1.07C540.58,117.87,540.34,117.58,540.41,117.46Z" transform="translate(-56.74 -52.32)" style="fill: #ff725e"/>
      <path d="M544.44,120.8c-.28,0,0-3.17.55-7s1.27-6.88,1.55-6.83,0,3.17-.54,7S544.73,120.84,544.44,120.8Z" transform="translate(-56.74 -52.32)" style="fill: #ff725e"/>
      <path d="M542.94,120.25c-.28,0-.08-2.89.44-6.35s1.19-6.24,1.47-6.2.08,2.89-.45,6.35S543.23,120.25,542.94,120.25Z" transform="translate(-56.74 -52.32)" style="fill: #ff725e"/>
      <g style="opacity: 0.5">
        <path d="M519.94,116.25,522.36,99l.17-.07c7.82-3,19.26,2.31,26.84,5.82,1.31.61,2.54,1.18,3.61,1.64,7.17,3.1,14.34-1.25,14.67-1.88l.59.13-2.3,18.75-.18.06a35.74,35.74,0,0,1-28.69-3.31c-5.83-3.57-16.67-3.8-16.78-3.8Zm3-16.86-2.28,16.27c2,.06,11.31.54,16.74,3.88a35.17,35.17,0,0,0,28,3.31l2.15-17.48a11.61,11.61,0,0,1-1.48.86c-1.63.8-7.41,3.23-13.31.68-1.08-.47-2.32-1-3.63-1.65-7.41-3.41-18.61-8.6-26.19-5.84Z" transform="translate(-56.74 -52.32)" style="fill: #fff"/>
      </g>
      <path d="M560.38,231.17s-9.24-2-12.07-13c-1.75-6.83-7-19.52-12.36-19l-13.09,8.44a42.84,42.84,0,0,1,7.94,16.55c1.91,9.17,13.35,18.33,13.35,18.33Z" transform="translate(-56.74 -52.32)" style="fill: #ff725e"/>
      <g style="opacity: 0.4000000059604645">
        <path d="M532.94,223.47a7.44,7.44,0,0,1,4.39-9.56,8.89,8.89,0,0,1,1-.3c3.82-.66,7.76,3.65,8.42,7.47a7,7,0,0,1-5.68,8.11h-.05C537.22,229.86,534.25,227.12,532.94,223.47Z" transform="translate(-56.74 -52.32)" style="fill: #fff"/>
      </g>
      <path d="M534.94,221.3q.16,0,.51.66a8.28,8.28,0,0,0,1.06,1.67,2.94,2.94,0,0,0,.94.74,1.47,1.47,0,0,0,1.09.13,1.17,1.17,0,0,0,.75-.72,2.05,2.05,0,0,0-.25-1.33c-.13-.29-.28-.6-.42-.95a3.83,3.83,0,0,1-.29-1.21,2.76,2.76,0,0,1,.06-.7,2.3,2.3,0,0,1,1.28-1.57,2.57,2.57,0,0,1,1.23-.22,2.69,2.69,0,0,1,1.06.34,3.71,3.71,0,0,1,1.25,1.24,5.57,5.57,0,0,1,.53,1.23,7.42,7.42,0,0,1,.18.94c.06.53,0,.82-.09.85s-.29-.21-.53-.65a9.1,9.1,0,0,0-1-1.68,2.72,2.72,0,0,0-.92-.7,1,1,0,0,0-1,0,.84.84,0,0,0-.32.33.36.36,0,0,0-.06.2.57.57,0,0,0,0,.26,5.67,5.67,0,0,0,.6,1.59,5.23,5.23,0,0,1,.37,1.16,3.86,3.86,0,0,1,0,.68,2.9,2.9,0,0,1-.15.71,2.72,2.72,0,0,1-1.92,1.67,2.81,2.81,0,0,1-2.15-.44,3.87,3.87,0,0,1-1.21-1.24,5.07,5.07,0,0,1-.72-2.17C534.79,221.62,534.84,221.32,534.94,221.3Z" transform="translate(-56.74 -52.32)" style="fill: #ff725e"/>
      <path d="M535,225.55c-.13-.2,1.93-1.7,4.59-3.35s4.91-2.84,5-2.65-1.93,1.7-4.59,3.36S535.14,225.74,535,225.55Z" transform="translate(-56.74 -52.32)" style="fill: #ff725e"/>
      <path d="M534.59,224.32c-.13-.2,1.73-1.57,4.14-3.07s4.47-2.56,4.6-2.37-1.74,1.58-4.15,3.07S534.71,224.51,534.59,224.32Z" transform="translate(-56.74 -52.32)" style="fill: #ff725e"/>
      <g style="opacity: 0.5">
        <path d="M524.94,208.09l11.94-7.63.13.07c6,3.23,8.73,13.08,10.56,19.6.31,1.13.61,2.19.89,3.09,1.87,6.06,8.33,8.18,8.9,8.05l.22.43-12.74,8.45-.13-.08a29,29,0,0,1-13.09-19.42c-.87-5.47-6.44-12.28-6.5-12.35Zm12-7.06-11.3,7.22c1,1.23,5.62,7.25,6.43,12.36a28.45,28.45,0,0,0,12.72,19l11.9-7.88a9.67,9.67,0,0,1-1.31-.46c-1.35-.59-5.9-2.87-7.43-7.85-.28-.91-.58-2-.9-3.1-1.79-6.44-4.5-16.07-10.19-19.29Z" transform="translate(-56.74 -52.32)" style="fill: #fff"/>
      </g>
      <path d="M472.73,158.5s-7.35,1.39-12.82-5.78c-3.38-4.43-11.13-12.06-14.86-10l-6.93,10.19a33.92,33.92,0,0,1,10.9,9.6c4.22,6.1,15.38,9.24,15.38,9.24Z" transform="translate(-56.74 -52.32)" style="fill: #ff725e"/>
      <g style="opacity: 0.4000000059604645">
        <path d="M450.35,161.37a5.9,5.9,0,0,1,.25-8.34,6.66,6.66,0,0,1,.66-.53c2.58-1.66,6.78.27,8.45,2.85A5.57,5.57,0,0,1,458,163C455.45,164.7,452.44,163.62,450.35,161.37Z" transform="translate(-56.74 -52.32)" style="fill: #fff"/>
      </g>
      <path d="M451.15,159.16c.08-.06.28.07.58.32a6,6,0,0,0,1.29.89,2.37,2.37,0,0,0,.91.25,1.15,1.15,0,0,0,.83-.24.92.92,0,0,0,.33-.76,1.69,1.69,0,0,0-.59-.89c-.19-.17-.39-.35-.6-.56a2.91,2.91,0,0,1-.59-.8,2,2,0,0,1-.17-.53,1.82,1.82,0,0,1,0-.57,1.89,1.89,0,0,1,1.28-1.5,2,2,0,0,1,.88-.08,3,3,0,0,1,1.3.51,4.09,4.09,0,0,1,.76.74,5.39,5.39,0,0,1,.43.63c.2.36.26.59.19.64s-.27-.06-.58-.31a8.27,8.27,0,0,0-1.29-.9,2.33,2.33,0,0,0-.89-.22.78.78,0,0,0-.69.32.55.55,0,0,0-.13.34.43.43,0,0,0,0,.16.46.46,0,0,0,.08.19,4.21,4.21,0,0,0,.93,1,4.35,4.35,0,0,1,.62.73,2.23,2.23,0,0,1,.24.49,2.07,2.07,0,0,1,.11.55,2.1,2.1,0,0,1-.88,1.81,2.21,2.21,0,0,1-1.71.35,3,3,0,0,1-1.26-.53,4,4,0,0,1-1.2-1.36C451.13,159.44,451.08,159.25,451.15,159.16Z" transform="translate(-56.74 -52.32)" style="fill: #ff725e"/>
      <path d="M452.52,162.25c-.15-.1.88-1.83,2.31-3.85s2.7-3.59,2.85-3.49-.89,1.84-2.31,3.86A16.32,16.32,0,0,1,452.52,162.25Z" transform="translate(-56.74 -52.32)" style="fill: #ff725e"/>
      <path d="M451.82,161.47c-.15-.1.78-1.68,2.08-3.52s2.46-3.24,2.61-3.14-.78,1.68-2.07,3.52A13.28,13.28,0,0,1,451.82,161.47Z" transform="translate(-56.74 -52.32)" style="fill: #ff725e"/>
      <g style="opacity: 0.5">
        <path d="M439.75,152.64l6.34-9.25h.12c5.35.51,10.4,6.84,13.75,11,.58.72,1.12,1.41,1.6,2a9.85,9.85,0,0,0,9,3.11l.3.25-6.68,10.09h-.12a22.88,22.88,0,0,1-15.53-10.11c-2.32-3.71-8.49-6.95-8.55-7Zm6.53-8.84-6,8.69c1.1.6,6.34,3.55,8.51,7a22.57,22.57,0,0,0,15.15,9.94l6.24-9.43a8.08,8.08,0,0,1-1.09.07,10.53,10.53,0,0,1-7.85-3.42c-.48-.57-1-1.26-1.61-2C456.37,150.57,451.43,144.38,446.28,143.8Z" transform="translate(-56.74 -52.32)" style="fill: #fff"/>
      </g>
      <path d="M288.37,294.34s-7.35,1.39-12.82-5.78c-3.38-4.43-11.13-12.06-14.86-10l-6.93,10.19a33.92,33.92,0,0,1,10.9,9.6c4.22,6.1,15.38,9.24,15.38,9.24Z" transform="translate(-56.74 -52.32)" style="fill: #ff725e"/>
      <g style="opacity: 0.4000000059604645">
        <path d="M266,297.25a5.87,5.87,0,0,1,.24-8.32,5.94,5.94,0,0,1,.67-.55c2.58-1.66,6.78.27,8.44,2.85a5.57,5.57,0,0,1-1.67,7.68C271.1,300.54,268.08,299.46,266,297.25Z" transform="translate(-56.74 -52.32)" style="fill: #fff"/>
      </g>
      <path d="M266.8,295c.07-.06.27.07.57.32a6,6,0,0,0,1.29.89,2.42,2.42,0,0,0,.92.25,1.19,1.19,0,0,0,.83-.24,1,1,0,0,0,.32-.76,1.64,1.64,0,0,0-.59-.89c-.18-.17-.39-.35-.6-.56a2.92,2.92,0,0,1-.6-.76,1.43,1.43,0,0,1-.17-.53,1.37,1.37,0,0,1,0-.57,1.8,1.8,0,0,1,.45-1,1.85,1.85,0,0,1,.83-.54,2,2,0,0,1,.87-.08,3,3,0,0,1,1.3.51,3.86,3.86,0,0,1,.77.74,4.31,4.31,0,0,1,.42.63c.2.36.27.59.2.65s-.28-.07-.59-.32a8.68,8.68,0,0,0-1.28-.9,2.53,2.53,0,0,0-.89-.22.84.84,0,0,0-.7.32.62.62,0,0,0-.13.34.43.43,0,0,0,0,.16.46.46,0,0,0,.08.19,4.21,4.21,0,0,0,.93,1,4,4,0,0,1,.63.73,4.44,4.44,0,0,1,.24.49,2.05,2.05,0,0,1,.1.55,2.12,2.12,0,0,1-.86,1.85,2.27,2.27,0,0,1-1.7.35,2.9,2.9,0,0,1-1.26-.54,3.91,3.91,0,0,1-1.24-1.41C266.78,295.25,266.72,295.05,266.8,295Z" transform="translate(-56.74 -52.32)" style="fill: #ff725e"/>
      <path d="M268.16,298.07c-.15-.1.88-1.83,2.31-3.85s2.7-3.59,2.85-3.49-.88,1.84-2.31,3.86S268.31,298.18,268.16,298.07Z" transform="translate(-56.74 -52.32)" style="fill: #ff725e"/>
      <path d="M267.47,297.31c-.15-.1.77-1.68,2.07-3.52s2.47-3.24,2.61-3.14-.77,1.68-2.07,3.52S267.61,297.42,267.47,297.31Z" transform="translate(-56.74 -52.32)" style="fill: #ff725e"/>
      <g style="opacity: 0.5">
        <path d="M255.39,288.48l6.35-9.23h.11c5.35.51,10.41,6.84,13.75,11,.58.73,1.12,1.41,1.61,2a9.82,9.82,0,0,0,9,3.11l.3.25-6.67,10.09h-.13a22.89,22.89,0,0,1-15.57-10.14c-2.32-3.71-8.49-6.95-8.55-7Zm6.55-8.84-6,8.69c1.1.6,6.33,3.55,8.5,7a22.53,22.53,0,0,0,15.17,9.92l6.23-9.43a6.72,6.72,0,0,1-1.09.07,10.53,10.53,0,0,1-7.81-3.4c-.49-.57-1-1.26-1.61-2C272,286.41,267.07,280.25,261.94,279.64Z" transform="translate(-56.74 -52.32)" style="fill: #fff"/>
      </g>
      <path d="M396.15,200.09s-2.73,8.9-13.79,10.77c-6.85,1.15-19.75,5.26-19.64,10.57l7.2,13.55a41.92,41.92,0,0,1,16.91-6.43c9.17-1.11,19.1-11.59,19.1-11.59Z" transform="translate(-56.74 -52.32)" style="fill: #ff725e"/>
      <g style="opacity: 0.4000000059604645">
        <path d="M386.33,226.4a7.31,7.31,0,0,1-9-5.08,6.41,6.41,0,0,1-.21-1.06c-.34-3.81,4.22-7.32,8-7.65a6.93,6.93,0,0,1,7.5,6.3C392.94,222.72,390,225.41,386.33,226.4Z" transform="translate(-56.74 -52.32)" style="fill: #fff"/>
      </g>
      <path d="M384.36,224.25c0-.12.24-.26.7-.45a8.3,8.3,0,0,0,1.72-.9,3,3,0,0,0,.8-.87,1.44,1.44,0,0,0,.23-1.05,1.2,1.2,0,0,0-.65-.79,1.91,1.91,0,0,0-1.33.13c-.29.1-.61.23-1,.33a3.55,3.55,0,0,1-1.21.18,2.2,2.2,0,0,1-.68-.11,1.86,1.86,0,0,1-.64-.33,2.15,2.15,0,0,1-.79-1.06,2.35,2.35,0,0,1,.3-2.22,3.44,3.44,0,0,1,1.32-1.13,4.92,4.92,0,0,1,1.26-.42,5.88,5.88,0,0,1,.94-.1c.51,0,.8,0,.82.16s-.23.27-.68.47a8.4,8.4,0,0,0-1.74.89,2.47,2.47,0,0,0-.76.85,1,1,0,0,0-.05.95.74.74,0,0,0,.29.34.41.41,0,0,0,.19.08,1.13,1.13,0,0,0,.26,0,5.8,5.8,0,0,0,1.61-.46,4.63,4.63,0,0,1,1.17-.27,3.75,3.75,0,0,1,.67,0,2.43,2.43,0,0,1,.68.21,2.68,2.68,0,0,1,1.49,2,2.83,2.83,0,0,1-.61,2.08,3.81,3.81,0,0,1-1.32,1.08,5,5,0,0,1-2.19.53C384.67,224.43,384.38,224.35,384.36,224.25Z" transform="translate(-56.74 -52.32)" style="fill: #ff725e"/>
      <path d="M388.54,224.52c-.2.11-1.5-2-2.91-4.78s-2.38-5.06-2.18-5.16,1.51,2,2.91,4.78S388.74,224.42,388.54,224.52Z" transform="translate(-56.74 -52.32)" style="fill: #ff725e"/>
      <path d="M387.3,224.84c-.2.11-1.4-1.83-2.67-4.32s-2.15-4.6-1.95-4.7,1.4,1.83,2.68,4.32S387.5,224.74,387.3,224.84Z" transform="translate(-56.74 -52.32)" style="fill: #ff725e"/>
      <g style="opacity: 0.5">
        <path d="M370.56,233l-6.51-12.36.08-.12c3.67-5.59,13.58-7.49,20.13-8.75,1.13-.22,2.19-.42,3.1-.62,6.1-1.34,8.72-7.5,8.64-8.07l.45-.19,7.24,13.21-.09.13a28.61,28.61,0,0,1-20.16,11.25c-5.44.39-12.58,5.31-12.65,5.36Zm-5.94-12.33,6.12,11.61c1.29-.86,7.58-4.92,12.67-5.29a28.09,28.09,0,0,0,19.7-10.92l-6.76-12.34a10.81,10.81,0,0,1-.56,1.25c-.68,1.28-3.3,5.55-8.32,6.65-.92.2-2,.4-3.12.62C377.94,213.51,368.24,215.36,364.62,220.69Z" transform="translate(-56.74 -52.32)" style="fill: #fff"/>
      </g>
      <path d="M336.18,174.89s-9.15,7.22-21.87,1.26c-7.87-3.69-24.07-8.64-27.74-3.11l-2.23,19.08s11.57-.06,22,5.42c10.22,5.38,27.91,1.68,27.91,1.68Z" transform="translate(-56.74 -52.32)" style="fill: #ff725e"/>
      <g style="opacity: 0.4000000059604645">
        <path d="M307.33,195a9.13,9.13,0,0,1-5.13-12.9c2.38-4.16,9.57-4.52,13.72-2.15a8.66,8.66,0,0,1,3.23,11.81h0C316.78,195.9,311.84,196.59,307.33,195Z" transform="translate(-56.74 -52.32)" style="fill: #fff"/>
      </g>
      <path d="M306.85,191.35c.06-.13.43-.09,1,0a9.84,9.84,0,0,0,2.42.3,3.81,3.81,0,0,0,1.44-.32,1.91,1.91,0,0,0,1-.92,1.48,1.48,0,0,0-.1-1.28,2.49,2.49,0,0,0-1.46-.81c-.38-.11-.79-.2-1.23-.35a4.65,4.65,0,0,1-1.38-.67,3.26,3.26,0,0,1-.62-.61,2.64,2.64,0,0,1-.43-.79,2.93,2.93,0,0,1-.06-1.66,3,3,0,0,1,1.9-2.08,4.45,4.45,0,0,1,2.17-.22,6,6,0,0,1,1.59.47,8.21,8.21,0,0,1,1,.56c.54.36.79.63.73.75s-.42.11-1,0a11.71,11.71,0,0,0-2.42-.31,3.3,3.3,0,0,0-1.39.33,1.24,1.24,0,0,0-.72.94.89.89,0,0,0,0,.56,1.07,1.07,0,0,0,.15.22.93.93,0,0,0,.23.21,7.39,7.39,0,0,0,2,.68,6.85,6.85,0,0,1,1.38.55,5.49,5.49,0,0,1,.69.5,3.4,3.4,0,0,1,.55.7,3.31,3.31,0,0,1,.09,3.13,3.5,3.5,0,0,1-2.11,1.72,4.91,4.91,0,0,1-2.12.17,6.25,6.25,0,0,1-2.64-1C307,191.76,306.79,191.47,306.85,191.35Z" transform="translate(-56.74 -52.32)" style="fill: #ff725e"/>
      <path d="M310.94,194.62c-.29,0-.1-3.17.41-7s1.15-6.9,1.43-6.86.1,3.17-.41,7S311.23,194.66,310.94,194.62Z" transform="translate(-56.74 -52.32)" style="fill: #ff725e"/>
      <path d="M309.44,194.06c-.28,0-.14-2.88.33-6.35s1.07-6.26,1.35-6.23.13,2.89-.33,6.36S309.72,194.1,309.44,194.06Z" transform="translate(-56.74 -52.32)" style="fill: #ff725e"/>
      <g style="opacity: 0.5">
        <path d="M286.4,190.55l2.1-17.3.16-.06c7.76-3.15,19.31,2,27,5.32,1.31.59,2.56,1.13,3.64,1.58,7.22,3,14.31-1.51,14.63-2.16l.59.13-2,18.75-.18.06a35.77,35.77,0,0,1-28.75-2.77c-5.88-3.47-16.73-3.5-16.84-3.5Zm2.66-16.91-2,16.3c1.94,0,11.31.34,16.8,3.58a35.21,35.21,0,0,0,28.08,2.79l1.83-17.51a11,11,0,0,1-1.47.88c-1.61.84-7.35,3.36-13.3.92-1.08-.44-2.33-1-3.65-1.58C307.87,175.72,296.58,170.73,289.06,173.64Z" transform="translate(-56.74 -52.32)" style="fill: #fff"/>
      </g>
      <path d="M409.57,52.32s1.28,10.2-9,17.08c-6.38,4.27-17.5,14.24-15,19.54l13.37,10.37A46.25,46.25,0,0,1,413,85.18c8.73-5.26,14-20.31,14-20.31Z" transform="translate(-56.74 -52.32)" style="fill: #ff725e"/>
      <g style="opacity: 0.4000000059604645">
        <path d="M411.59,83.25a8.1,8.1,0,0,1-11.41-1.06,7,7,0,0,1-.67-.94c-2.06-3.69,1-9.28,4.63-11.34a7.66,7.66,0,0,1,10.4,2.94C416.6,76.54,414.86,80.58,411.59,83.25Z" transform="translate(-56.74 -52.32)" style="fill: #fff"/>
      </g>
      <path d="M408.63,82c-.07-.1.13-.36.5-.76a9.9,9.9,0,0,0,1.33-1.69,3.57,3.57,0,0,0,.41-1.23,1.69,1.69,0,0,0-.25-1.16,1.26,1.26,0,0,0-1-.51,2.19,2.19,0,0,0-1.28.73c-.25.24-.51.51-.82.78a4.6,4.6,0,0,1-1.14.73,3.22,3.22,0,0,1-.74.19,2.1,2.1,0,0,1-.79,0,2.51,2.51,0,0,1-1.28-.71,2.47,2.47,0,0,1-.67-1.17,2.75,2.75,0,0,1,0-1.21,3.84,3.84,0,0,1,.82-1.74,5.14,5.14,0,0,1,1.08-1,5.75,5.75,0,0,1,.9-.53c.52-.25.83-.32.9-.22s-.11.38-.48.78a9.86,9.86,0,0,0-1.34,1.69,2.73,2.73,0,0,0-.38,1.2,1.09,1.09,0,0,0,.38,1,.82.82,0,0,0,.45.21h.23a.87.87,0,0,0,.26-.08,6.75,6.75,0,0,0,1.42-1.2,5.57,5.57,0,0,1,1-.8,4.15,4.15,0,0,1,.69-.28,2.88,2.88,0,0,1,.78-.1A2.93,2.93,0,0,1,412,76.24a3.12,3.12,0,0,1,.33,2.37,4.21,4.21,0,0,1-.83,1.68,5.87,5.87,0,0,1-2,1.53C409,82,408.7,82.07,408.63,82Z" transform="translate(-56.74 -52.32)" style="fill: #ff725e"/>
      <path d="M412.94,80.36c-.16.19-2.44-1.37-5.1-3.5s-4.69-4-4.53-4.21,2.44,1.37,5.1,3.5S413.12,80.16,412.94,80.36Z" transform="translate(-56.74 -52.32)" style="fill: #ff725e"/>
      <path d="M411.86,81.25c-.15.2-2.24-1.21-4.65-3.14s-4.27-3.67-4.08-3.86,2.24,1.22,4.65,3.15S412,81.05,411.86,81.25Z" transform="translate(-56.74 -52.32)" style="fill: #ff725e"/>
      <g style="opacity: 0.5">
        <path d="M398.71,97.05l-12.14-9.49V87.4c1.17-7.29,10.27-13.69,16.3-17.92,1-.73,2-1.42,2.85-2,5.53-4.11,5.37-11.5,5-12l.36-.39,13.27,10v.16A31.58,31.58,0,0,1,409.16,85.7c-5.3,2.86-10.26,11-10.31,11.12Zm-11.56-9.72,11.42,8.92c.9-1.46,5.4-8.39,10.35-11.07a31,31,0,0,0,14.89-19.93l-12.39-9.36a9.52,9.52,0,0,1,0,1.51c-.1,1.6-.81,7.09-5.36,10.46-.83.62-1.82,1.31-2.86,2C397.29,74.07,388.39,80.33,387.15,87.33Z" transform="translate(-56.74 -52.32)" style="fill: #fff"/>
      </g>
    </g>
    <polygon points="0 265.4 133.97 287.33 133.97 265.4 0 265.4" style="fill: #e0e0e0"/>
    <polygon points="156.09 314.95 290.06 336.88 290.06 314.95 156.09 314.95" style="fill: #e0e0e0"/>
    <polygon points="311.1 362.34 445.07 384.27 445.07 362.34 311.1 362.34" style="fill: #e0e0e0"/>
    <polygon points="465.91 400.06 599.88 421.99 599.88 400.06 465.91 400.06" style="fill: #e0e0e0"/>
    <g>
      <rect y="248.97" width="133.97" height="16.43" style="fill: #e8505b"/>
      <g style="opacity: 0.30000000000000004">
        <rect x="92.17" y="248.97" width="41.81" height="16.43"/>
      </g>
    </g>
    <g>
      <rect x="156.09" y="298.52" width="133.97" height="16.43" style="fill: #e8505b"/>
      <g style="opacity: 0.30000000000000004">
        <rect x="248.25" y="298.52" width="41.81" height="16.43"/>
      </g>
    </g>
    <g>
      <rect x="311.1" y="345.91" width="133.97" height="16.43" style="fill: #e8505b"/>
      <g style="opacity: 0.30000000000000004">
        <rect x="403.27" y="345.91" width="41.81" height="16.43"/>
      </g>
    </g>
    <g>
      <rect x="466.11" y="383.63" width="133.97" height="16.43" style="fill: #e8505b"/>
      <g style="opacity: 0.30000000000000004">
        <rect x="558.28" y="383.63" width="41.81" height="16.43"/>
      </g>
    </g>
    <path d="M574.26,376.16a3.64,3.64,0,1,0,3.64-3.65A3.64,3.64,0,0,0,574.26,376.16Z" transform="translate(-56.74 -52.32)" style="fill: #ebebeb"/>
  </g>
  <g>
    <path d="M547,373l8.11,18.39s-16,14.42-14.8,18l36.22-14.45-11.46-29.17Z" transform="translate(-56.74 -52.32)" style="fill: #e8505b"/>
    <path d="M547,373l8.11,18.39s-16,14.42-14.8,18l36.22-14.45-11.46-29.17Z" transform="translate(-56.74 -52.32)" style="opacity: 0.5"/>
    <path d="M576.53,394.93,575.26,392,541,407s-1.33,1.34-.7,2.41Z" transform="translate(-56.74 -52.32)" style="fill: #263238"/>
    <path d="M610.78,399.07l10.16,17.35S606.72,432.56,608.28,436l34.34-18.48L627.91,389.8Z" transform="translate(-56.74 -52.32)" style="fill: #e8505b"/>
    <path d="M610.78,399.07l10.16,17.35S606.72,432.56,608.28,436l34.34-18.48L627.91,389.8Z" transform="translate(-56.74 -52.32)" style="opacity: 0.5"/>
    <path d="M642.62,417.47,641,414.74,608.7,433.48s-1.17,1.49-.42,2.47Z" transform="translate(-56.74 -52.32)" style="fill: #263238"/>
    <g>
      <g>
        <g>
          <path d="M566.48,155.77l-22.26,1.74-.74-12.46s-9-.13-10.32-8.9S530.5,107,530.5,107h0a30.83,30.83,0,0,1,31.22-.45l1.44.82Z" transform="translate(-56.74 -52.32)" style="fill: #ffbe9d"/>
          <path d="M543.45,144.92a20.65,20.65,0,0,0,11-4.86s-1.94,6.9-10.82,7.34Z" transform="translate(-56.74 -52.32)" style="fill: #eb996e"/>
        </g>
        <g>
          <path d="M563.36,116.61c.14-.09,5.79-2.64,6.44,3.4s-5.54,5.44-5.57,5.27S563.36,116.61,563.36,116.61Z" transform="translate(-56.74 -52.32)" style="fill: #ffbe9d"/>
          <path d="M565.83,122.79s.11.06.3.13a1.05,1.05,0,0,0,.78-.07,2.62,2.62,0,0,0,1-2.47,3.43,3.43,0,0,0-.45-1.47,1.23,1.23,0,0,0-.88-.72.54.54,0,0,0-.59.36c-.06.17,0,.29,0,.3s-.14-.08-.12-.34a.66.66,0,0,1,.2-.4.75.75,0,0,1,.56-.22,1.5,1.5,0,0,1,1.2.82,3.59,3.59,0,0,1,.55,1.64,2.75,2.75,0,0,1-1.26,2.77,1.11,1.11,0,0,1-1-.05C565.85,122.94,565.81,122.81,565.83,122.79Z" transform="translate(-56.74 -52.32)" style="fill: #eb996e"/>
        </g>
        <g>
          <g>
            <g>
              <path d="M534.29,120.8a1.27,1.27,0,0,0,1.39,1.09,1.2,1.2,0,0,0,1.13-1.31,1.26,1.26,0,0,0-1.38-1.1A1.22,1.22,0,0,0,534.29,120.8Z" transform="translate(-56.74 -52.32)" style="fill: #263238"/>
              <path d="M533.9,119.12c.18.14,1-.7,2.38-.88s2.44.35,2.56.16-.14-.36-.61-.61a3.53,3.53,0,0,0-2.08-.33,3.38,3.38,0,0,0-1.87.9C533.91,118.74,533.82,119.06,533.9,119.12Z" transform="translate(-56.74 -52.32)" style="fill: #263238"/>
            </g>
            <g>
              <path d="M547.42,119.28a1.27,1.27,0,0,0,1.39,1.09,1.21,1.21,0,0,0,1.13-1.31,1.27,1.27,0,0,0-1.38-1.1A1.22,1.22,0,0,0,547.42,119.28Z" transform="translate(-56.74 -52.32)" style="fill: #263238"/>
              <path d="M547.21,117.5c.18.15,1-.69,2.38-.88s2.43.35,2.56.17-.14-.36-.62-.61a3.42,3.42,0,0,0-2.07-.34,3.35,3.35,0,0,0-1.87.91C547.22,117.13,547.12,117.44,547.21,117.5Z" transform="translate(-56.74 -52.32)" style="fill: #263238"/>
            </g>
            <path d="M543.72,128.2a9.7,9.7,0,0,0-2.25-.08c-.35,0-.69,0-.78-.24a1.74,1.74,0,0,1,.09-1c.2-.88.42-1.81.65-2.77a45.26,45.26,0,0,0,1.32-7.19,45.73,45.73,0,0,0-1.9,7.06l-.6,2.78a2,2,0,0,0,0,1.38.86.86,0,0,0,.64.42,1.93,1.93,0,0,0,.59,0A8.93,8.93,0,0,0,543.72,128.2Z" transform="translate(-56.74 -52.32)" style="fill: #263238"/>
            <path d="M547.82,128.58c-.22,0,0,1.48-1.13,2.7s-2.69,1.27-2.67,1.48.39.24,1.05.16a3.68,3.68,0,0,0,2.24-1.15,3.18,3.18,0,0,0,.85-2.25C548.13,128.9,547.92,128.56,547.82,128.58Z" transform="translate(-56.74 -52.32)" style="fill: #263238"/>
          </g>
          <path d="M546.11,112.26c.19.35,1.51,0,3.12,0s3,.22,3.12-.14c.07-.17-.2-.49-.77-.77a5.17,5.17,0,0,0-2.39-.48,5.31,5.31,0,0,0-2.36.62C546.29,111.77,546,112.1,546.11,112.26Z" transform="translate(-56.74 -52.32)" style="fill: #263238"/>
          <path d="M533.85,115.14c.28.27,1.17-.17,2.28-.35s2.1-.08,2.27-.43c.07-.17-.12-.46-.57-.69a3.23,3.23,0,0,0-1.93-.24,3.14,3.14,0,0,0-1.74.87C533.81,114.67,533.72,115,533.85,115.14Z" transform="translate(-56.74 -52.32)" style="fill: #263238"/>
        </g>
      </g>
      <path d="M525.44,102.05a3.32,3.32,0,0,1,.79-3.07,2.33,2.33,0,0,1,3-.19,2.72,2.72,0,0,1,1.85-3.58c1.42-.29,2.8.62,4.24.8a6.56,6.56,0,0,0,4-1.05c1.23-.7,2.34-1.6,3.59-2.26a11.34,11.34,0,0,1,15.29,4.57,5,5,0,0,1,5.57,1.26,8.27,8.27,0,0,1,2.07,5.59,18.75,18.75,0,0,1-.45,4.08c0,.11,0,.22.05.34.59,4.84.84,10.59-1.21,10.91-3.59.56-3.68-6.33-3.68-6.33-4.65-1.08-3.94-7.92-5.18-8.76s-3.88-2.85-12.44,3.16a18.07,18.07,0,0,1-10.78,2.73l-.24,0h-.06l-.08,0a8.42,8.42,0,0,1-2.5-.67,4.74,4.74,0,0,1-2.26-1.9,2.59,2.59,0,0,1,.12-2.82A5.71,5.71,0,0,1,525.44,102.05Z" transform="translate(-56.74 -52.32)" style="fill: #263238"/>
    </g>
    <polygon points="486.71 100.36 487.71 135.24 509.4 88.52 508.86 84.2 486.71 100.36" style="fill: #ebebeb"/>
    <g>
      <path d="M557.84,256.93c-.79.26-46,45.95-45,54.16s33.17,69,33.17,69l23-11.31-21.53-53.28.28-3.31,26.31-21.55L572.66,256Z" transform="translate(-56.74 -52.32)" style="fill: #263238"/>
      <path d="M567.58,265.94c.53.79,8.35,72.57,10.45,76.28s33.52,65,33.52,65l23.33-9.4L606.4,330.47l3.24-63.74-1.75-18L572.66,256Z" transform="translate(-56.74 -52.32)" style="fill: #263238"/>
      <path d="M577.62,341a3.5,3.5,0,0,1-.15-.72c-.09-.52-.2-1.21-.34-2.07-.28-1.86-.68-4.45-1.16-7.63-.93-6.51-2.21-15.4-3.63-25.22s-2.58-18.74-3.48-25.24c-.41-3.2-.75-5.8-1-7.66l-.24-2.09a3.61,3.61,0,0,1,0-.73s.06.25.15.72.2,1.21.34,2.07l1.15,7.64c.94,6.5,2.22,15.39,3.63,25.22s2.59,18.73,3.48,25.24c.42,3.19.76,5.79,1,7.65.1.87.19,1.57.25,2.09A3.65,3.65,0,0,1,577.62,341Z" transform="translate(-56.74 -52.32)" style="fill: #455a64"/>
      <path d="M605.81,328.41a35.3,35.3,0,0,1-1.36,5.69,34.31,34.31,0,0,1-1.84,5.55A35,35,0,0,1,604,334,33.19,33.19,0,0,1,605.81,328.41Z" transform="translate(-56.74 -52.32)" style="fill: #455a64"/>
      <path d="M609.34,344.67a6.56,6.56,0,0,1-1.28-1.77,17.53,17.53,0,0,1-2.17-10.2,6.43,6.43,0,0,1,.44-2.13,22.8,22.8,0,0,0,3,14.1Z" transform="translate(-56.74 -52.32)" style="fill: #455a64"/>
      <path d="M540,307.75a12.26,12.26,0,0,1,6.45,5.88c-.12.08-1.24-1.55-3-3.16S539.89,307.88,540,307.75Z" transform="translate(-56.74 -52.32)" style="fill: #455a64"/>
      <path d="M543.5,305.63a6.94,6.94,0,0,1,2.22,2.52,7,7,0,0,1,1.27,3.12,30,30,0,0,1-1.69-2.86A30,30,0,0,1,543.5,305.63Z" transform="translate(-56.74 -52.32)" style="fill: #455a64"/>
    </g>
    <g>
      <path d="M546.62,200.91l5.77,28.66,4.7,40s19.38-2.71,27.64-5.32c9.58-3,30.42-5.62,30.42-5.62l-3.52,3.48c7.46-2.09,12.21-9.2,12.21-9.2C611,241,600,216.44,600,216.44l-9.77-48.52s-1.48-6.84-2.38-9.89-15.73-12.86-17.79-14.1l-1.29-.61-.41-3.89-1.53-.92L550.79,153.1A17.35,17.35,0,0,0,545.2,164a125,125,0,0,0-.7,18.25C544.69,188,546.62,200.91,546.62,200.91Z" transform="translate(-56.74 -52.32)" style="fill: #e8505b"/>
      <g>
        <path d="M557.64,151.28s-8.48,4.55-9.95,8.41,2.9,46.18,2.9,46.18l-30.47.58L520,224.6s48.39,3.83,50.28,1.21c2.54-3.54,5.5-36.61,5.5-36.61l1.1-23.8S574.11,147.26,557.64,151.28Z" transform="translate(-56.74 -52.32)" style="fill: #e8505b"/>
        <g style="opacity: 0.30000000000000004">
          <path d="M552.39,229.57a29.26,29.26,0,0,0,12.2,1.13c4.29-.39,8.66-2.74,10.28-6.74,1.24-3.05.72-6.5.91-9.79.17-2.87.87-5.67,1.31-8.5s-1-8-2-10.75c0,0-1.08,19.64-4.16,27.89a6.62,6.62,0,0,1-1.88,3c-1.09.88-2.59,1-4,1.1-3.89.41-13.27-.27-13.27-.27" transform="translate(-56.74 -52.32)"/>
        </g>
        <path d="M576.86,168a2.5,2.5,0,0,1,0,.44c0,.3,0,.72-.05,1.26,0,1.14-.13,2.77-.23,4.86s-.25,4.7-.41,7.69-.28,6.42-.65,10.18-.72,7.88-1.19,12.3-1,9.14-1.85,14.07a29.8,29.8,0,0,1-.84,3.73,7.32,7.32,0,0,1-2.2,3.3,5.57,5.57,0,0,1-3.79,1.35c-1.34,0-2.69,0-4,0-5.44-.14-11.06-.41-16.82-.73-8.65-.47-17-1-24.77-1.56l-.22,0v-.22c0-6.45.07-12.52.11-18.13v-.21h.21l29.41-.63,8.22-.14,2.17,0c.49,0,.74,0,.74,0s-.25,0-.74.05l-2.16.09-8.23.26-29.4.81.21-.21c0,5.6,0,11.67-.06,18.12l-.23-.24c7.79.53,16.13,1.07,24.77,1.54,5.75.31,11.37.6,16.8.74,1.36,0,2.7.05,4,0a5.06,5.06,0,0,0,3.5-1.23,6.79,6.79,0,0,0,2.05-3.08,30.29,30.29,0,0,0,.83-3.66c.85-4.91,1.39-9.63,1.9-14s.9-8.52,1.25-12.28.52-7.18.72-10.17.36-5.56.49-7.68.25-3.72.33-4.85c0-.54.07-1,.1-1.27A2.14,2.14,0,0,1,576.86,168Z" transform="translate(-56.74 -52.32)" style="fill: #263238"/>
        <path d="M526,224.33a77.67,77.67,0,0,1-.21-8.8,77.84,77.84,0,0,1,.3-8.8,77.67,77.67,0,0,1,.21,8.8A77.84,77.84,0,0,1,526,224.33Z" transform="translate(-56.74 -52.32)" style="fill: #263238"/>
        <path d="M522.78,209.49c-.06,0,.24-.38.82-.18a.93.93,0,0,1,.62.8,1.07,1.07,0,0,1-1.84.86,1,1,0,0,1-.3-.95c.14-.58.54-.7.55-.64s-.19.27-.2.68a.73.73,0,0,0,.25.57.7.7,0,0,0,.71.11.68.68,0,0,0,.37-.6.6.6,0,0,0-.31-.51C523.1,209.42,522.81,209.55,522.78,209.49Z" transform="translate(-56.74 -52.32)" style="fill: #263238"/>
      </g>
      <path d="M590.38,172.08s15.86,20.73,17.79,26.37.44,13.76-2.79,17.64-5.83,2.3-5.83,2.3Z" transform="translate(-56.74 -52.32)" style="fill: #e8505b"/>
      <path d="M599,216.73a17.46,17.46,0,0,1-4,.93,16.56,16.56,0,0,1-4.06.44,17.28,17.28,0,0,1,4-.93A16.56,16.56,0,0,1,599,216.73Z" transform="translate(-56.74 -52.32)" style="fill: #263238"/>
      <path d="M602,232a5.93,5.93,0,0,1,.43,1.09c.24.72.6,1.74,1.07,3a90,90,0,0,0,4.26,9.61,102.56,102.56,0,0,0,5.32,9.06c.74,1.13,1.35,2,1.78,2.65a5.1,5.1,0,0,1,.62,1,5.24,5.24,0,0,1-.78-.88c-.47-.59-1.13-1.46-1.91-2.57a78.07,78.07,0,0,1-5.48-9,70.15,70.15,0,0,1-4.14-9.72c-.43-1.28-.75-2.33-.93-3.06A4.56,4.56,0,0,1,602,232Z" transform="translate(-56.74 -52.32)" style="fill: #263238"/>
      <g style="opacity: 0.30000000000000004">
        <path d="M603.1,234.46c2.52,4.48,5.1,9,8.92,12.47a22.84,22.84,0,0,1,3.9,3.77c1,1.49,1.47,3.57.49,5.1a1.58,1.58,0,0,1-1.58.85,2,2,0,0,1-1-.84,61.74,61.74,0,0,1-10.53-20.66" transform="translate(-56.74 -52.32)"/>
      </g>
      <g style="opacity: 0.30000000000000004">
        <path d="M601,218.31c2.17-1.56,2.93-4.52,2.61-7.18s-1.54-5.1-2.63-7.53A123.35,123.35,0,0,1,593.27,181l-1.55-5.75,7.84,41Z" transform="translate(-56.74 -52.32)"/>
      </g>
      <path d="M561.77,149.44a32.6,32.6,0,0,1,3-2.95,34.47,34.47,0,0,1,3-3,12.16,12.16,0,0,1-2.6,3.31A11.69,11.69,0,0,1,561.77,149.44Z" transform="translate(-56.74 -52.32)" style="fill: #263238"/>
      <path d="M560.17,153c0,.09-.92.37-2.32,1.06a18.4,18.4,0,0,0-8.41,8.52c-.68,1.41-1,2.35-1,2.33a2.06,2.06,0,0,1,.11-.69,12.38,12.38,0,0,1,.6-1.79,16.58,16.58,0,0,1,8.59-8.69,12.06,12.06,0,0,1,1.78-.62A2,2,0,0,1,560.17,153Z" transform="translate(-56.74 -52.32)" style="fill: #263238"/>
      <path d="M602.74,222.44a1.76,1.76,0,0,1-.25-.4l-.63-1.19c-.57-1.11-1.34-2.62-2.29-4.46v0c-1-4.54-2.39-11.16-3.92-18.53C594.23,190.87,593,184.58,592,180l-1-5.43c-.1-.59-.19-1.08-.26-1.48a1.83,1.83,0,0,1-.05-.52,2.52,2.52,0,0,1,.15.5c.09.39.21.88.35,1.47.3,1.34.71,3.16,1.2,5.39,1,4.62,2.3,10.9,3.76,17.83,1.53,7.37,2.87,14,3.76,18.57v0c.89,1.87,1.61,3.4,2.14,4.53l.56,1.23A1.89,1.89,0,0,1,602.74,222.44Z" transform="translate(-56.74 -52.32)" style="fill: #263238"/>
      <path d="M550.07,205.86a8,8,0,0,1-.24-1.5c-.11-1.06-.26-2.45-.44-4.12-.36-3.47-.82-8.28-1.29-13.58s-.87-10.12-1.14-13.61c-.12-1.67-.21-3.06-.29-4.12a8.37,8.37,0,0,1,0-1.52,10.19,10.19,0,0,1,.23,1.5c.11,1.06.26,2.45.45,4.12.35,3.47.81,8.27,1.28,13.58s.87,10.12,1.14,13.6c.12,1.67.21,3.06.29,4.13A10.93,10.93,0,0,1,550.07,205.86Z" transform="translate(-56.74 -52.32)" style="fill: #263238"/>
    </g>
    <g>
      <g>
        <path d="M520.51,208.57s-6.58-5-8.18-5.29c-1.23-.23-8.56-.1-11.93,0a2.4,2.4,0,0,0-2.42,2.34,1,1,0,0,0,0,.24,2.17,2.17,0,0,0,1.6,1.66,2.55,2.55,0,0,0-1.77,2.41c0,1.9,2.27,2.3,2.27,2.3l-.33.3a2.27,2.27,0,0,0,1.12,3.81l1,.24a2.24,2.24,0,0,0-1.39,1.89c0,2.5,5.68,3,5.68,3s13.93,2.21,14.23,2.11S520.51,208.57,520.51,208.57Z" transform="translate(-56.74 -52.32)" style="fill: #ffbe9d"/>
        <path d="M501.69,200.28c.06.83.26,2.59,1.66,3.38l7.77-.3s-5.78-2-6.61-3a6.05,6.05,0,0,0-1.11-1.09A1.1,1.1,0,0,0,501.69,200.28Z" transform="translate(-56.74 -52.32)" style="fill: #ffbe9d"/>
      </g>
      <path d="M507.46,203.28a11,11,0,0,1-3.54.25,13.73,13.73,0,0,1-3.54-.25,11.9,11.9,0,0,1,3.55-.25A14.67,14.67,0,0,1,507.46,203.28Z" transform="translate(-56.74 -52.32)" style="fill: #eb996e"/>
      <path d="M505.72,207.62a7.35,7.35,0,0,1-3.06.31,7.23,7.23,0,0,1-3-.53,14.14,14.14,0,0,1,3.05,0A13.4,13.4,0,0,1,505.72,207.62Z" transform="translate(-56.74 -52.32)" style="fill: #eb996e"/>
      <path d="M509.67,207.06c.12.08,0,.5-.47.78s-.89.25-.9.11.28-.31.62-.53S509.55,207,509.67,207.06Z" transform="translate(-56.74 -52.32)" style="fill: #eb996e"/>
      <path d="M506.57,212.54a22.39,22.39,0,0,1-6.67-.22,11.1,11.1,0,0,1,3.35-.15A11.27,11.27,0,0,1,506.57,212.54Z" transform="translate(-56.74 -52.32)" style="fill: #eb996e"/>
      <path d="M511,210.46c.06,0,.18.14.22.44a1.58,1.58,0,0,1-1.36,1.73c-.3,0-.48,0-.48-.11s.67-.22,1.11-.79S510.88,210.49,511,210.46Z" transform="translate(-56.74 -52.32)" style="fill: #eb996e"/>
      <path d="M507.75,217.35a9.31,9.31,0,0,1-3-.12,9.12,9.12,0,0,1-3-.62,9.31,9.31,0,0,1,3,.12A9.43,9.43,0,0,1,507.75,217.35Z" transform="translate(-56.74 -52.32)" style="fill: #eb996e"/>
      <path d="M512.08,214.9c.06,0,.16.16.15.47a1.89,1.89,0,0,1-.42,1c-.56.69-1.2.94-1.27.84s.41-.57.88-1.15S512,214.93,512.08,214.9Z" transform="translate(-56.74 -52.32)" style="fill: #eb996e"/>
    </g>
    <path d="M609,262.51a8.85,8.85,0,0,0,6.73-4.24c.16-.27.3-.64.09-.87a.8.8,0,0,0-.59-.18,18.26,18.26,0,0,0-6.38,1.1.87.87,0,0,0-.57.43.85.85,0,0,0,0,.52c.27,1.05.54,2.1.82,3.16" transform="translate(-56.74 -52.32)" style="fill: #e8505b"/>
    <g style="opacity: 0.4">
      <path d="M609,262.51a8.85,8.85,0,0,0,6.73-4.24c.16-.27.3-.64.09-.87a.8.8,0,0,0-.59-.18,18.26,18.26,0,0,0-6.38,1.1.87.87,0,0,0-.57.43.85.85,0,0,0,0,.52c.27,1.05.54,2.1.82,3.16" transform="translate(-56.74 -52.32)"/>
    </g>
    <g>
      <path d="M543.45,152.68s-3.2,10.73-2.32,10.12,2.79-2.3,2.79-2.3Z" transform="translate(-56.74 -52.32)" style="fill: #ebebeb"/>
      <path d="M543.63,157.63l-1.74,4.18a5.15,5.15,0,0,0-.34,1.35c-.15,1.17-.31,3.31.38,3.46a2.34,2.34,0,0,0,1.87-.77Z" transform="translate(-56.74 -52.32)" style="fill: #263238"/>
      <g>
        <path d="M597.83,158.29s-17.09-6.67-26.56-.78-11.19,15.29-16.83,15.29c-11,0-10.64-7.76-10.64-7.76l-2.34.71c0,1.59-2.54,13,9,14.39s16.46-14.38,26.88-14.39a34.56,34.56,0,0,1,18.33,5.63l7.49-4.73Z" transform="translate(-56.74 -52.32)" style="fill: #263238"/>
        <path d="M554,180a16.09,16.09,0,0,0,6.59-7.57c2.66-6.13,8.36-13.12,13.12-14.88s15.77-3,23.38,2l4.87,6.58-6.32,4.11a58.77,58.77,0,0,0-11.15-4.47c-7.86-2.19-12.64.29-17.21,4.61-.28.27-.55.54-.77.8a51.8,51.8,0,0,1-7.24,6.4C557,179.11,555,180,554,180Z" transform="translate(-56.74 -52.32)" style="fill: #455a64"/>
      </g>
    </g>
  </g>
  <g>
    <path d="M196,118c-8.7,1.34-15.08-6-17.12-12.48-1.87-6-2.77-12.25-5.4-18-3.69-8-13.46-11.67-22.22-10.93s-17.59,5.13-25.35,9.28l2.14,48.06s16.89-18,25-18.31c13.54-.54,12.8,21.71,25.94,25,0,0,18.43,5,30.89-11.09,7.91-10.22,8.61-22.62,8.61-22.62S212.44,115.44,196,118Z" transform="translate(-56.74 -52.32)" style="fill: #e8505b"/>
    <path d="M125.57,77.9c.12,0,2.49,51,5.29,114s5,114,4.85,114-2.48-51-5.28-114S125.45,77.91,125.57,77.9Z" transform="translate(-56.74 -52.32)" style="fill: #263238"/>
    <g style="opacity: 0.2">
      <path d="M172,102.18a58.34,58.34,0,0,0,6.4,14.42c2.5,3.93,6.3,7.23,10.86,8.18a10.54,10.54,0,0,1,2.44.63,2.36,2.36,0,0,1,1.45,1.92c0,1.25-1.26,2.08-2.39,2.63a19.46,19.46,0,0,1-5,1.93c-1.76.33-3.14.51-4.35-.81a26.28,26.28,0,0,1-3.14-3.77c-4-6.77-5.94-16.45-6.26-24.11" transform="translate(-56.74 -52.32)"/>
    </g>
    <path d="M183.8,133a2,2,0,0,1-.39-.22c-.25-.16-.6-.42-1-.77a18,18,0,0,1-3.21-3.48,26.93,26.93,0,0,1-3.21-6.25,71.52,71.52,0,0,1-2.38-8.26,92.26,92.26,0,0,1-2.21-15.43c-.12-2-.13-3.61-.13-4.73,0-.52,0-.94,0-1.28a1.42,1.42,0,0,1,0-.45,1.94,1.94,0,0,1,0,.45c0,.34,0,.76.06,1.28,0,1.11.11,2.72.26,4.71A102.75,102.75,0,0,0,174,114a74,74,0,0,0,2.33,8.22,27.62,27.62,0,0,0,3.09,6.21,19.84,19.84,0,0,0,3.07,3.54C183.31,132.66,183.83,133,183.8,133Z" transform="translate(-56.74 -52.32)" style="fill: #263238"/>
  </g>
</svg>
