<svg xmlns="http://www.w3.org/2000/svg" width="675.68" height="354.7" viewBox="0 0 675.68 354.7">
  <title>our port slider image</title>
  <g>
    <g>
      <rect x="43.01" y="43.94" width="95.4" height="157.92" style="fill: #e0e0e0"/>
      <rect x="39.84" y="43.94" width="95.4" height="157.92" style="fill: #ebebeb"/>
      <rect x="43.9" y="47.15" width="87.28" height="151.51" style="fill: #fafafa"/>
      <rect x="60.52" y="66.83" width="53.67" height="112.14" style="fill: #ebebeb"/>
    </g>
    <g>
      <path d="M364.5,156.08a10.44,10.44,0,0,1-1.37,1.56c-.88.92-2.12,2.16-3.5,3.52s-2.65,2.58-3.58,3.44a10.07,10.07,0,0,1-1.56,1.34,10.07,10.07,0,0,1,1.36-1.55c.88-.92,2.12-2.17,3.5-3.53s2.65-2.58,3.59-3.44A10.07,10.07,0,0,1,364.5,156.08Z" transform="translate(-19.06 -114.67)" style="fill: #e0e0e0"/>
      <path d="M419.35,155.94a9.75,9.75,0,0,1,1.56,1.37c.92.88,2.17,2.12,3.53,3.5s2.57,2.64,3.44,3.57a10.6,10.6,0,0,1,1.33,1.57,10.35,10.35,0,0,1-1.54-1.36c-.92-.88-2.17-2.12-3.54-3.5s-2.58-2.66-3.44-3.59A10.07,10.07,0,0,1,419.35,155.94Z" transform="translate(-19.06 -114.67)" style="fill: #e0e0e0"/>
      <g>
        <path d="M379,122.41s-1.17,14.16,14.16,14.16C393.13,129,386.9,123.05,379,122.41Z" transform="translate(-19.06 -114.67)" style="fill: #ebebeb"/>
        <path d="M407,122.42s-14.16-1.18-14.16,14.16C400.43,136.58,406.39,130.34,407,122.42Z" transform="translate(-19.06 -114.67)" style="fill: #ebebeb"/>
        <path d="M392.45,114.67s-11.56,10.38.64,21.9C398.76,130.55,398.28,121.13,392.45,114.67Z" transform="translate(-19.06 -114.67)" style="fill: #e0e0e0"/>
      </g>
    </g>
    <g>
      <g>
        <g>
          <g>
            <rect x="116.77" y="3.13" width="503.92" height="333.23" rx="14.57" style="fill: #455a64"/>
            <path d="M97.08,314.84H643a0,0,0,0,1,0,0V326.2a17.8,17.8,0,0,1-17.8,17.8H114.87a17.8,17.8,0,0,1-17.8-17.8V314.84a0,0,0,0,1,0,0Z" style="fill: #455a64"/>
            <rect x="130.3" y="16.37" width="475.45" height="281.41" style="fill: #263238"/>
            <polygon points="319.05 311.72 325.83 322.49 421.16 322.49 427.45 311.72 319.05 311.72" style="fill: #263238"/>
          </g>
          <rect x="140.09" y="25.89" width="456.85" height="270.98" rx="3.27" style="fill: #ebebeb"/>
          <path d="M635.42,426.39c0,.18-111.85.32-249.78.32s-249.81-.14-249.81-.32,111.82-.33,249.81-.33S635.42,426.21,635.42,426.39Z" transform="translate(-19.06 -114.67)" style="fill: #263238"/>
        </g>
        <g>
          <polygon points="146.28 59.78 154.6 63.56 161.83 59.78 154.05 55.71 146.28 59.78" style="fill: #fff"/>
          <polygon points="148.43 63.12 146.28 64.37 154.05 68.22 161.83 64.52 159.31 63.12 154.05 65.67 148.43 63.12" style="fill: #fff"/>
          <polygon points="148.43 67.86 146.28 69.11 154.05 72.97 161.83 69.26 159.31 67.86 154.05 70.41 148.43 67.86" style="fill: #fff"/>
        </g>
      </g>
      <path d="M227.5,387.56c-.07-.17-.15-.34-.23-.51a4.24,4.24,0,0,0,1.67-1.23,3,3,0,0,1,.7,1.76A6.7,6.7,0,0,0,227.5,387.56Z" transform="translate(-19.06 -114.67)" style="fill: #fff"/>
      <g>
        <path d="M229.83,267.63a2.53,2.53,0,0,0-2.68-2.43,2.81,2.81,0,0,0-3,2.65" transform="translate(-19.06 -114.67)" style="fill: #fff"/>
        <path d="M225,269.47a.14.14,0,0,0,.21-.11l.09-.34a.19.19,0,0,0-.06-.23A1.27,1.27,0,0,1,225,268a2,2,0,0,1,2.08-2,1.59,1.59,0,0,1,1.77,1.62c0,1.22-.54,2.25-1.35,2.25a.65.65,0,0,1-.66-.81,9.91,9.91,0,0,0,.37-1.51.57.57,0,0,0-.57-.63c-.46,0-.82.46-.82,1.09a1.58,1.58,0,0,0,.14.67l-.55,2.31a4.81,4.81,0,0,0,0,1.61.06.06,0,0,0,.1,0,4.56,4.56,0,0,0,.76-1.39c.06-.19.3-1.16.3-1.16" transform="translate(-19.06 -114.67)" style="fill: #fff"/>
      </g>
      <g>
        <path d="M251.77,212c-2.21,0-2.49,0-3.36,0a6,6,0,0,0-2,.38,4.18,4.18,0,0,0-2.38,2.38,6,6,0,0,0-.38,2c0,.87,0,1.15,0,3.36s0,2.49,0,3.36a6,6,0,0,0,.38,2,4.18,4.18,0,0,0,2.38,2.38,6,6,0,0,0,2,.38c.87,0,1.15,0,3.36,0s2.49,0,3.36,0a6,6,0,0,0,2-.38,4.18,4.18,0,0,0,2.38-2.38,6,6,0,0,0,.38-2c0-.87.05-1.15.05-3.36s0-2.49-.05-3.36a6,6,0,0,0-.38-2,4.18,4.18,0,0,0-2.38-2.38,6,6,0,0,0-2-.38c-.87,0-1.15,0-3.36,0" transform="translate(-19.06 -114.67)" style="fill: #fff"/>
        <path d="M251.77,215.93a4.18,4.18,0,1,0,4.19,4.18,4.18,4.18,0,0,0-4.19-4.18m0,6.9a2.72,2.72,0,1,1,2.72-2.72,2.71,2.71,0,0,1-2.72,2.72" transform="translate(-19.06 -114.67)" style="fill: #fff"/>
        <path d="M257.1,215.76a1,1,0,1,1-1-1,1,1,0,0,1,1,1" transform="translate(-19.06 -114.67)" style="fill: #fff"/>
      </g>
    </g>
    <g>
      <rect x="132.88" y="22.65" width="471.69" height="279.78" rx="4.46" style="fill: #dedede"/>
      <rect x="132.88" y="43.15" width="471.69" height="259.28" style="fill: #f9f9f9"/>
      <path d="M190.64,148.11a3.77,3.77,0,1,1-3.77-3.77h0A3.77,3.77,0,0,1,190.64,148.11Z" transform="translate(-19.06 -114.67)" style="fill: #e0715f"/>
      <path d="M167.8,148.11a3.77,3.77,0,1,1-3.76-3.77h0A3.76,3.76,0,0,1,167.8,148.11Z" transform="translate(-19.06 -114.67)" style="fill: #e0715f"/>
      <path d="M178.76,148.11a3.77,3.77,0,1,1-3.76-3.77h0A3.76,3.76,0,0,1,178.76,148.11Z" transform="translate(-19.06 -114.67)" style="fill: #e0715f"/>
      <path d="M384.36,278.55c0,.2-17.28.38-38.59.38s-38.59-.18-38.59-.38,17.28-.39,38.59-.39S384.36,278.33,384.36,278.55Z" transform="translate(-19.06 -114.67)" style="fill: #4d5a64"/>
      <path d="M384.36,288.88c0,.2-17.28.38-38.59.38s-38.59-.18-38.59-.38,17.28-.4,38.59-.4S384.36,288.66,384.36,288.88Z" transform="translate(-19.06 -114.67)" style="fill: #4d5a64"/>
      <path d="M353.43,299.19c0,.22-10.34.4-23.12.4s-23.13-.18-23.13-.4,10.36-.38,23.13-.38S353.43,299,353.43,299.19Z" transform="translate(-19.06 -114.67)" style="fill: #4d5a64"/>
      <rect x="288.12" y="58.32" width="36.7" height="4.65" style="fill: #4d5a64"/>
      <rect x="288.12" y="73.32" width="80.65" height="78.03" style="fill: #dedede"/>
      <polygon points="294.37 144.66 316.68 104.51 334.93 130.18 346.01 116.55 362.51 144.66 294.37 144.66" style="fill: #e0715f"/>
      <circle cx="336.9" cy="96.7" r="5.8" style="fill: #e0715f"/>
      <path d="M381.57,259.55a1.71,1.71,0,0,1,0-.32v-4.42c0-3.1,0-7.57-.08-13.25,0-11.4-.09-27.62-.16-47.11l.32.32H313.52c-.09.09.71-.72.37-.36h0v65.07l-.34-.34,49.27.18,13.89.08h.1l-13.81.08-49.49.18h-.33V194.47h0c-.34.33.47-.49.4-.39H382v.33c-.07,19.57-.13,35.86-.17,47.31,0,5.65-.07,10.1-.09,13.19v4.31A3,3,0,0,1,381.57,259.55Z" transform="translate(-19.06 -114.67)" style="fill: #4d5a64"/>
      <path d="M482.68,278.55c0,.2-17.28.38-38.6.38s-38.58-.18-38.58-.38,17.26-.39,38.58-.39S482.68,278.33,482.68,278.55Z" transform="translate(-19.06 -114.67)" style="fill: #4d5a64"/>
      <path d="M482.68,288.88c0,.2-17.28.38-38.6.38s-38.58-.18-38.58-.38,17.26-.4,38.58-.4S482.68,288.66,482.68,288.88Z" transform="translate(-19.06 -114.67)" style="fill: #4d5a64"/>
      <path d="M451.75,299.19c0,.22-10.36.4-23.13.4s-23.09-.18-23.09-.4,10.34-.38,23.11-.38S451.75,299,451.75,299.19Z" transform="translate(-19.06 -114.67)" style="fill: #4d5a64"/>
      <rect x="386.44" y="58.32" width="36.7" height="4.65" style="fill: #4d5a64"/>
      <rect x="386.44" y="73.32" width="80.65" height="78.03" style="fill: #dedede"/>
      <polygon points="392.69 144.66 414.99 104.51 433.24 130.18 444.33 116.55 460.82 144.66 392.69 144.66" style="fill: #e0715f"/>
      <path d="M460.12,211.37a5.82,5.82,0,1,1-5.83-5.8h0A5.8,5.8,0,0,1,460.12,211.37Z" transform="translate(-19.06 -114.67)" style="fill: #e0715f"/>
      <path d="M479.88,259.55v-4.74c0-3.1,0-7.57-.08-13.25,0-11.4-.11-27.62-.18-47.11l.33.32H411.82c-.1.09.72-.72.38-.36h0v65.07l-.33-.34,49.27.18,13.89.08h.1l-13.83.08-49.47.18h-.34V194.47h0c-.36.33.46-.49.38-.39h68.47v.33c-.08,19.57-.13,35.86-.17,47.31,0,5.65-.07,10.1-.09,13.19v4.31A1.12,1.12,0,0,1,479.88,259.55Z" transform="translate(-19.06 -114.67)" style="fill: #4d5a64"/>
      <rect x="290.7" y="198.93" width="36.7" height="4.65" style="fill: #4d5a64"/>
      <rect x="290.7" y="213.91" width="80.65" height="78.03" style="fill: #dedede"/>
      <polygon points="296.95 285.26 319.26 245.11 337.51 270.77 348.59 257.15 365.09 285.26 296.95 285.26" style="fill: #e0715f"/>
      <path d="M364.35,352a5.82,5.82,0,1,1-5.81-5.81,5.82,5.82,0,0,1,5.81,5.81Z" transform="translate(-19.06 -114.67)" style="fill: #e0715f"/>
      <path d="M384.15,400.15V395.4c0-3.08,0-7.56-.09-13.25,0-11.4-.1-27.63-.17-47.1l.33.33H316.09l.38-.39v65.15l-.34-.35,49.27.18,13.89.08h.15l-13.82.1-49.49.16h-.33V335.05l.4-.4h68.46V335c-.07,19.57-.13,35.87-.17,47.32,0,5.65,0,10.1-.08,13.17v4.33A1,1,0,0,1,384.15,400.15Z" transform="translate(-19.06 -114.67)" style="fill: #4d5a64"/>
      <rect x="389.09" y="198.93" width="36.7" height="4.65" style="fill: #4d5a64"/>
      <rect x="389.09" y="213.91" width="80.65" height="78.03" style="fill: #dedede"/>
      <polygon points="395.34 285.26 417.65 245.11 435.9 270.77 446.98 257.15 463.48 285.26 395.34 285.26" style="fill: #e0715f"/>
      <path d="M462.72,352a5.8,5.8,0,1,1-5.8-5.81,5.79,5.79,0,0,1,5.8,5.81Z" transform="translate(-19.06 -114.67)" style="fill: #e0715f"/>
      <path d="M482.54,400.15a1.82,1.82,0,0,1,0-.33V395.4c0-3.08,0-7.56-.08-13.25,0-11.4-.1-27.63-.16-47.1l.32.33H414.48l.38-.39v65.1l-.34-.34,49.27.18,13.89.08h.14l-13.81.1-49.49.16h-.34V335.05l.38-.4H483V335c-.07,19.57-.12,35.87-.16,47.32,0,5.65-.07,10.1-.1,13.17v4.33A1.85,1.85,0,0,1,482.54,400.15Z" transform="translate(-19.06 -114.67)" style="fill: #4d5a64"/>
      <rect x="490.6" y="198.93" width="36.7" height="4.65" style="fill: #4d5a64"/>
      <rect x="490.6" y="213.91" width="80.65" height="78.03" style="fill: #dedede"/>
      <polygon points="496.85 285.26 519.16 245.11 537.41 270.77 548.49 257.15 564.99 285.26 496.85 285.26" style="fill: #e0715f"/>
      <path d="M564.25,352a5.82,5.82,0,1,1-5.81-5.81,5.82,5.82,0,0,1,5.81,5.81Z" transform="translate(-19.06 -114.67)" style="fill: #e0715f"/>
      <path d="M584.05,400.15V395.4c0-3.08,0-7.56-.09-13.25,0-11.4-.1-27.63-.16-47.1l.32.33H516l.38-.39v65.1l-.34-.34,49.27.18,13.9.08h.15l-13.83.1-49.49.16h-.32V335.05l.39-.4h68.46V335c-.07,19.57-.12,35.87-.16,47.32,0,5.65-.07,10.1-.09,13.17v4.33A.78.78,0,0,1,584.05,400.15Z" transform="translate(-19.06 -114.67)" style="fill: #4d5a64"/>
      <path d="M582.76,266a53.31,53.31,0,0,1,8.84-.38l-.38.38h0v-3.41c0-1,0-1.91.08-2.81a8.69,8.69,0,0,1,.27-2.59,9,9,0,0,1,.26,2.59c0,.9,0,1.84.09,2.81V266h0l-.4.4A50.27,50.27,0,0,1,582.76,266Z" transform="translate(-19.06 -114.67)" style="fill: #4d5a64"/>
      <path d="M542.54,266a132.35,132.35,0,0,1,20.11,0A127.37,127.37,0,0,1,542.54,266Z" transform="translate(-19.06 -114.67)" style="fill: #4d5a64"/>
      <path d="M513.58,257.16A51.23,51.23,0,0,1,514,266l-.38-.38H517l2.81.08a9.8,9.8,0,0,1,2.59.28,8.69,8.69,0,0,1-2.59.27l-2.81.08h-3.45l-.39-.4A52.47,52.47,0,0,1,513.58,257.16Z" transform="translate(-19.06 -114.67)" style="fill: #4d5a64"/>
      <path d="M513.58,216.94A66.29,66.29,0,0,1,514,227a66,66,0,0,1-.38,10,67.34,67.34,0,0,1-.39-10A67.61,67.61,0,0,1,513.58,216.94Z" transform="translate(-19.06 -114.67)" style="fill: #4d5a64"/>
      <path d="M522.43,188a50.37,50.37,0,0,1-8.85.39L514,188h0v3.43c0,1,0,1.9-.08,2.81a8.69,8.69,0,0,1-.28,2.59,8.69,8.69,0,0,1-.27-2.59c0-.91,0-1.84-.08-2.81V188h0l.38-.38A52.78,52.78,0,0,1,522.43,188Z" transform="translate(-19.06 -114.67)" style="fill: #4d5a64"/>
      <path d="M562.65,188a132.35,132.35,0,0,1-20.11,0A132.35,132.35,0,0,1,562.65,188Z" transform="translate(-19.06 -114.67)" style="fill: #4d5a64"/>
      <path d="M591.62,196.83a49.38,49.38,0,0,1-.4-8.85c.78.76.22.22.38.38h-3.49l-2.81-.08a8.44,8.44,0,0,1-2.6-.28,8.75,8.75,0,0,1,2.6-.27l2.81-.08h3.44l.39.38A52.8,52.8,0,0,1,591.62,196.83Z" transform="translate(-19.06 -114.67)" style="fill: #4d5a64"/>
      <path d="M591.62,237.1a63.68,63.68,0,0,1-.4-10,63.8,63.8,0,0,1,.4-10.06,69,69,0,0,1,.38,10.06A68.9,68.9,0,0,1,591.62,237.1Z" transform="translate(-19.06 -114.67)" style="fill: #4d5a64"/>
      <path d="M590.48,278.44c0,.2-17.29.38-38.59.38s-38.6-.18-38.6-.38,17.28-.39,38.6-.39S590.48,278.22,590.48,278.44Z" transform="translate(-19.06 -114.67)" style="fill: #4d5a64"/>
      <path d="M590.48,288.77c0,.2-17.29.38-38.59.38s-38.55-.19-38.55-.38,17.28-.4,38.6-.4S590.48,288.55,590.48,288.77Z" transform="translate(-19.06 -114.67)" style="fill: #4d5a64"/>
      <rect x="494.23" y="58.21" width="36.7" height="4.65" style="fill: #4d5a64"/>
      <path d="M269.66,233.6A39.58,39.58,0,1,1,230.08,194h0A39.58,39.58,0,0,1,269.66,233.6Z" transform="translate(-19.06 -114.67)" style="fill: #dedede"/>
      <path d="M277.48,319.8c0,.21-20.31.39-45.35.39s-45.37-.18-45.37-.39,20.31-.39,45.37-.39S277.48,319.59,277.48,319.8Z" transform="translate(-19.06 -114.67)" style="fill: #4d5a64"/>
      <path d="M277.48,329.9c0,.22-20.31.39-45.35.39s-45.37-.17-45.37-.39,20.31-.38,45.37-.38S277.48,329.62,277.48,329.9Z" transform="translate(-19.06 -114.67)" style="fill: #4d5a64"/>
      <path d="M277.48,339.87c0,.21-20.31.38-45.35.38s-45.37-.17-45.37-.38,20.31-.41,45.44-.41S277.48,339.66,277.48,339.87Z" transform="translate(-19.06 -114.67)" style="fill: #4d5a64"/>
      <path d="M238.88,350.12c0,.21-11.78.38-26.3.38s-26.31-.17-26.31-.38,11.78-.39,26.31-.39S238.88,349.91,238.88,350.12Z" transform="translate(-19.06 -114.67)" style="fill: #4d5a64"/>
      <rect x="167.7" y="184.65" width="62.51" height="4.57" style="fill: #4d5a64"/>
      <path d="M205.32,263.81a38.34,38.34,0,0,0,50.17,0c-2.1-7.16-7.2-15.64-19.61-17.53a15.53,15.53,0,0,0,9.27-14.37c0-8.6-6.47-15.59-14.52-15.63S216,223.19,216,231.77a15.56,15.56,0,0,0,9.3,14.53C212.67,248.17,207.47,256.7,205.32,263.81Z" transform="translate(-19.06 -114.67)" style="fill: #e0715f"/>
      <rect x="167.7" y="251.12" width="35.05" height="4.27" style="fill: #e0715f"/>
    </g>
    <g>
      <g>
        <g>
          <g>
            <path d="M479.7,420.54l-17.14,20.95S435.5,431.11,432,434.67l39.45,34.7,28-31.56Z" transform="translate(-19.06 -114.67)" style="fill: #e8505b"/>
            <path d="M476,449.74a2.16,2.16,0,0,1-.51,2.84,2.06,2.06,0,0,1-2.81-.48,2.27,2.27,0,0,1,.55-3,2.15,2.15,0,0,1,2.87.82" transform="translate(-19.06 -114.67)" style="fill: #e0e0e0"/>
            <path d="M435.05,433.18c-.1.11,8.6,7.46,19.42,16.41s19.67,16.12,19.77,16-8.61-7.46-19.44-16.41S435.14,433.07,435.05,433.18Z" transform="translate(-19.06 -114.67)" style="fill: #263238"/>
            <path d="M462.12,440.7c-.17.2.72,1.14,1.13,2.6s.2,2.73.44,2.81.95-1.3.42-3.06S462.23,440.48,462.12,440.7Z" transform="translate(-19.06 -114.67)" style="fill: #263238"/>
            <path d="M456.43,438.76c-.21.14.34,1.21.28,2.61s-.63,2.44-.43,2.6,1.28-.83,1.33-2.57S456.6,438.57,456.43,438.76Z" transform="translate(-19.06 -114.67)" style="fill: #263238"/>
            <path d="M449.68,441.66c.14.2,1.26-.53,1.7-2s-.1-2.72-.32-2.63-.17,1.15-.54,2.38S449.51,441.47,449.68,441.66Z" transform="translate(-19.06 -114.67)" style="fill: #263238"/>
            <path d="M466.58,436.32c-.07.25,1.05.77,2.09,1.81s1.58,2.13,1.82,2.05,0-1.49-1.19-2.69S466.62,436.09,466.58,436.32Z" transform="translate(-19.06 -114.67)" style="fill: #263238"/>
          </g>
          <path d="M469.73,431.32c-.08.08.59.88,2,1.74a11.43,11.43,0,0,0,2.64,1.2,11.67,11.67,0,0,0,1.67.39,3.23,3.23,0,0,0,1,.07,1.13,1.13,0,0,0,1-1,1.41,1.41,0,0,0-.46-1.19,3.13,3.13,0,0,0-.83-.55,10.39,10.39,0,0,0-1.61-.67,9.76,9.76,0,0,0-2.9-.41,4.45,4.45,0,0,0-2.59.59c0,.14,1-.07,2.57.05a10.4,10.4,0,0,1,2.66.56,10.26,10.26,0,0,1,1.45.65c.52.26.88.57.82.86,0,.1,0,.14-.24.18a2.48,2.48,0,0,1-.74-.05,14.71,14.71,0,0,1-1.58-.32,15,15,0,0,1-2.57-.95A19.79,19.79,0,0,0,469.73,431.32Z" transform="translate(-19.06 -114.67)" style="fill: #263238"/>
          <path d="M469.73,431.82c0,.1,1-.26,2.22-1.46a8.46,8.46,0,0,0,1.64-2.41,8.3,8.3,0,0,0,.56-1.66,2.19,2.19,0,0,0-.39-2.12,1.21,1.21,0,0,0-1.31-.17,3.47,3.47,0,0,0-.85.55,5.92,5.92,0,0,0-1.18,1.34,6.09,6.09,0,0,0-1,2.8c-.13,1.71.48,2.65.55,2.6a23.38,23.38,0,0,1,.08-2.52,6.06,6.06,0,0,1,1-2.42,5.47,5.47,0,0,1,1-1.12c.44-.37.9-.57,1-.38a1.52,1.52,0,0,1,.12,1.26,8.85,8.85,0,0,1-.46,1.51,9.34,9.34,0,0,1-1.36,2.32C470.5,431.16,469.66,431.7,469.73,431.82Z" transform="translate(-19.06 -114.67)" style="fill: #263238"/>
        </g>
        <g>
          <path d="M542,439.39s-9.37,3.24-18.12,3c-8.2-.24-26.08,3.18-24.8,13.8,1.43,11.84,25.13,6,34.29,3s18.29-5.83,18.29-5.83Z" transform="translate(-19.06 -114.67)" style="fill: #e8505b"/>
          <path d="M522.22,457.16a39.75,39.75,0,0,1-2.88-8.12,20.66,20.66,0,0,1,1.66,4A20.42,20.42,0,0,1,522.22,457.16Z" transform="translate(-19.06 -114.67)" style="fill: #263238"/>
          <path d="M525.52,456.92a20.48,20.48,0,0,1-1.32-4.13,19.5,19.5,0,0,1-.87-4.24,20.72,20.72,0,0,1,1.32,4.12A21.07,21.07,0,0,1,525.52,456.92Z" transform="translate(-19.06 -114.67)" style="fill: #263238"/>
          <path d="M528.54,455.3a15.66,15.66,0,0,1-1.12-3.61,15,15,0,0,1-.67-3.72,30.84,30.84,0,0,1,1.79,7.33Z" transform="translate(-19.06 -114.67)" style="fill: #263238"/>
          <path d="M533.37,453.46a8.54,8.54,0,0,1-1.62-3,8.66,8.66,0,0,1-.76-3.35,24.79,24.79,0,0,1,1.19,3.18A24.07,24.07,0,0,1,533.37,453.46Z" transform="translate(-19.06 -114.67)" style="fill: #263238"/>
          <path d="M533.91,449a4.78,4.78,0,0,1,1.25-.23,10.58,10.58,0,0,1,3.46.25,3.78,3.78,0,0,1,1.11.44,1.57,1.57,0,0,1,.79,1.09,1.79,1.79,0,0,1-2,1.85,4.54,4.54,0,0,1-2.72-1.49,7.9,7.9,0,0,1-1.46-9.05,1.26,1.26,0,0,1,.66-.51,1,1,0,0,1,.83.15,2.15,2.15,0,0,1,.76,1.22,6.35,6.35,0,0,1,.16,2.42,6.81,6.81,0,0,1-1.25,3.24,5.4,5.4,0,0,1-.63.7c-.16.15-.25.22-.26.21s.3-.35.74-1a7.15,7.15,0,0,0,1.08-3.16,6.58,6.58,0,0,0-.21-2.29,1.81,1.81,0,0,0-.62-1,.62.62,0,0,0-.91.27,7.54,7.54,0,0,0,1.43,8.48,4.12,4.12,0,0,0,2.43,1.38,1.41,1.41,0,0,0,1.58-1.36,1.22,1.22,0,0,0-.6-.85,3.49,3.49,0,0,0-1-.42,11.8,11.8,0,0,0-3.37-.39C534.37,449,533.92,449,533.91,449Z" transform="translate(-19.06 -114.67)" style="fill: #263238"/>
          <path d="M550.51,451.9s-.07.05-.23.11l-.7.27-2.71,1c-2.37.82-5.8,2-10.07,3.37s-9.38,2.95-15.15,4.45a41.86,41.86,0,0,1-9.23,1.58,19.46,19.46,0,0,1-5-.35,13.42,13.42,0,0,1-2.46-.75,7.15,7.15,0,0,1-2.25-1.41l0,0a4.57,4.57,0,0,1-1-.91,6.29,6.29,0,0,1-1.11-5.12,8.29,8.29,0,0,1,2.6-4.4,15.84,15.84,0,0,1,4.12-2.7c.74-.31,1.46-.66,2.2-.93s1.47-.54,2.21-.73c5.91-1.68,11.46-1.85,16-2.4,2.29-.23,4.34-.54,6.14-.87a40.61,40.61,0,0,0,4.53-1.14l1.62-.55,1.16-.48.71-.29a1.53,1.53,0,0,1,.25-.09,1,1,0,0,1-.23.13l-.7.34-1.14.52-1.61.59a39.23,39.23,0,0,1-4.54,1.22c-1.8.36-3.87.69-6.16.95-4.56.58-10.1.8-15.93,2.48-.73.2-1.44.49-2.18.73s-1.43.61-2.16.92a15.39,15.39,0,0,0-4,2.63,7.94,7.94,0,0,0-2.46,4.16,5.85,5.85,0,0,0,1,4.74,4.72,4.72,0,0,0,.86.82h0l0,0a6.86,6.86,0,0,0,2.09,1.29,12.48,12.48,0,0,0,2.37.73,19.54,19.54,0,0,0,4.87.35,42.37,42.37,0,0,0,9.14-1.54c5.75-1.48,10.87-3,15.15-4.35s7.73-2.46,10.11-3.23l2.74-.89.71-.22Z" transform="translate(-19.06 -114.67)" style="fill: #263238"/>
          <path d="M516,461.84a15.61,15.61,0,0,1-.53-2.44c-.29-1.5-.72-3.57-1.31-5.83s-1.21-4.29-1.68-5.74a14.85,14.85,0,0,1-.71-2.39,11.75,11.75,0,0,1,1,2.28,52.17,52.17,0,0,1,1.82,5.73,53.35,53.35,0,0,1,1.19,5.9A11.15,11.15,0,0,1,516,461.84Z" transform="translate(-19.06 -114.67)" style="fill: #263238"/>
        </g>
        <path d="M501.65,460.85s-.32-.3-.8-.91a9.85,9.85,0,0,1-1.54-2.88,5.68,5.68,0,0,1-.33-2.18,9.16,9.16,0,0,1,.59-2.49,11.77,11.77,0,0,1,3.52-4.68,16.43,16.43,0,0,1,5.2-2.83,31.8,31.8,0,0,1,4.74-1.21c1.38-.25,2.51-.42,3.28-.55a5.74,5.74,0,0,0,1.2-.24,5.15,5.15,0,0,0-1.22,0c-.79.07-1.92.18-3.32.39a28.3,28.3,0,0,0-4.84,1.12,16.15,16.15,0,0,0-5.37,2.89,11.9,11.9,0,0,0-3.63,4.9,9.31,9.31,0,0,0-.58,2.64,6,6,0,0,0,.42,2.32,9,9,0,0,0,1.72,2.89A3,3,0,0,0,501.65,460.85Z" transform="translate(-19.06 -114.67)" style="fill: #263238"/>
      </g>
      <g>
        <g>
          <path d="M539.7,438.29s24.86-38.62,31.16-40.55,17.5-3.44,26.94,0,36.66,15,36.66,15l17.17,5.71a43.6,43.6,0,0,1,29.08,33.29h0S659,469.55,642.63,466.41s-61.06-23.23-61.06-23.23h0c-4.76,2.83-12.55,4.07-16.12,5.61-10,4.31-15.4,5.46-15.4,5.46h0Z" transform="translate(-19.06 -114.67)" style="fill: #263238"/>
          <path d="M568.89,437.39a23.4,23.4,0,0,0,3,1.51l7.18,3.52c2.81,1.37,5.38,2.58,7.27,3.38a18.56,18.56,0,0,0,3.11,1.18,24.35,24.35,0,0,0-3-1.51L579.26,442c-2.81-1.37-5.37-2.57-7.26-3.38A19.34,19.34,0,0,0,568.89,437.39Z" transform="translate(-19.06 -114.67)" style="fill: #455a64"/>
          <path d="M561.64,420.57c.09,0,.48-1.34,1.28-3.47a50.87,50.87,0,0,1,3.86-8A52.45,52.45,0,0,1,572,401.9c1.5-1.72,2.51-2.71,2.46-2.77s-.31.2-.79.62-1.15,1.07-1.94,1.91a41.51,41.51,0,0,0-5.39,7.17,42.34,42.34,0,0,0-3.76,8.14c-.36,1.09-.62,2-.76,2.61A4,4,0,0,0,561.64,420.57Z" transform="translate(-19.06 -114.67)" style="fill: #455a64"/>
          <path d="M568.19,425.89a6.78,6.78,0,0,0,5.32,5,23.38,23.38,0,0,1-3-2.09A21.3,21.3,0,0,1,568.19,425.89Z" transform="translate(-19.06 -114.67)" style="fill: #455a64"/>
        </g>
        <path d="M466.65,428.4s72.82-79.07,76.87-81.28c1.86-1,12.69-11.72,15.43-11.74a16,16,0,0,1,10,3.49l46.68,44.43,13.7,29.84L600.29,428.8l-39.34-34-67.82,55.52Z" transform="translate(-19.06 -114.67)" style="fill: #263238"/>
        <path d="M564.28,403.76a5.36,5.36,0,0,0,.49-.57,21.3,21.3,0,0,1,1.43-1.63,18.22,18.22,0,0,1,6.52-4.37,13.41,13.41,0,0,1,5.31-.94,24.52,24.52,0,0,1,6.15,1.11c2.12.64,4.31,1.47,6.6,2.28l7.07,2.52,24.84,8.75,7.55,2.6,2.06.68a3.46,3.46,0,0,0,.73.2,4.38,4.38,0,0,0-.7-.3l-2-.77-7.49-2.76L598,401.67,591,399.16c-2.29-.8-4.48-1.62-6.63-2.25a24.38,24.38,0,0,0-6.28-1.09,13.58,13.58,0,0,0-5.45,1,17.71,17.71,0,0,0-6.54,4.58,15.53,15.53,0,0,0-1.36,1.69A3.22,3.22,0,0,0,564.28,403.76Z" transform="translate(-19.06 -114.67)" style="fill: #455a64"/>
      </g>
      <g>
        <path d="M583.61,370.3l-61.28-19.49a7.7,7.7,0,0,1-5.19-9l1.73-7.66,52,2.63,44-31.13a22,22,0,0,1,9.13-3.74l8.71-1.42,26.82-7.66,29.79,29.69a13.46,13.46,0,0,1,4,9.07l1.37,35.33a105.66,105.66,0,0,1-.59,16l-5.71,50.28s-1.6,25.88-12.81,21.88c0,0-12.59-24.16-27-33s-34.61-15.86-34.61-15.86l3.15-48-.42-10.18Z" transform="translate(-19.06 -114.67)" style="fill: #e8505b"/>
        <path d="M559.33,362.12a4,4,0,0,1-.24-1.05,24.06,24.06,0,0,1-.29-2.9,29.94,29.94,0,0,1,.12-4.34,35,35,0,0,1,1-5.22,32.6,32.6,0,0,1,3.92-8.8,23,23,0,0,1,1.71-2.36,4.36,4.36,0,0,1,.72-.79c.08,0-.86,1.25-2.12,3.35a35.68,35.68,0,0,0-3.72,8.73,37.08,37.08,0,0,0-1,5.14,36.13,36.13,0,0,0-.23,4.28C559.19,360.6,559.42,362.11,559.33,362.12Z" transform="translate(-19.06 -114.67)" style="fill: #fafafa"/>
        <path d="M538,356.47a2.48,2.48,0,0,1-.28-.84,17.64,17.64,0,0,1-.45-2.35,25.4,25.4,0,0,1,2.9-15.35,21.26,21.26,0,0,1,1.28-2c.34-.45.53-.69.56-.67s-.62,1.08-1.51,2.87a29.62,29.62,0,0,0-2.48,7.37,29.08,29.08,0,0,0-.38,7.77C537.85,355.23,538.13,356.45,538,356.47Z" transform="translate(-19.06 -114.67)" style="fill: #fafafa"/>
      </g>
      <g>
        <g>
          <path d="M514.05,312.94l2.44-.79a2.51,2.51,0,0,1,1.33-.06c2.8.63,13.59,3.08,17.7,4a3.62,3.62,0,0,1,2.45,2l16.63,34.65a2.32,2.32,0,0,1-.47,2.66h0Z" transform="translate(-19.06 -114.67)" style="fill: #263238"/>
          <path d="M514.05,312.94l18.25,36.85,21.83,5.84-18.6-36.38a3.1,3.1,0,0,0-2-1.61Z" transform="translate(-19.06 -114.67)" style="fill: #455a64"/>
        </g>
        <g>
          <g>
            <path d="M512.43,328.86c.43-.58-3.77-20-2.56-20.56s1.78-.32,2.57.85,5.6,12.62,5.6,12.62l2.11-.78a3.67,3.67,0,0,1,1.77-.2c3.17.45,13.55,2,13.49,2.42,0,0,.2,4-3.42,3.21l5.13,1.63s1.75,3-1.37,3.46h-3.57l5.58,1.08s-.55,3.08-2.57,3.28a50,50,0,0,1-7.46-.56l-1.24,2.74,5.81,11.74-9.79-3.32s-5.24-2.69-4.84-5.37c0,0-3.76-2.16-3.76-5.11C513.91,336,510.14,332,512.43,328.86Z" transform="translate(-19.06 -114.67)" style="fill: #ffbe9d"/>
            <path d="M514.7,328.26c.06.06.85-.61,2.29-1.45a19.29,19.29,0,0,1,2.61-1.28,8.6,8.6,0,0,1,3.43-.68,29,29,0,0,1,6.42.89,25.12,25.12,0,0,0,2.65.61,10.57,10.57,0,0,0-2.55-1,24,24,0,0,0-6.52-1.06,8.73,8.73,0,0,0-3.6.76,14.75,14.75,0,0,0-2.63,1.41A7.77,7.77,0,0,0,514.7,328.26Z" transform="translate(-19.06 -114.67)" style="fill: #aa6550"/>
            <path d="M518.26,333.16a19.9,19.9,0,0,1,1.46-1.7,5.1,5.1,0,0,1,2-1.21,8.42,8.42,0,0,1,2.9-.08c2.09.3,4,.81,5.37,1.06a9.84,9.84,0,0,0,2.22.34,9,9,0,0,0-2.14-.7,49,49,0,0,0-5.38-1.21,8.45,8.45,0,0,0-3.11.13,5.19,5.19,0,0,0-2.13,1.41A4.1,4.1,0,0,0,518.26,333.16Z" transform="translate(-19.06 -114.67)" style="fill: #aa6550"/>
          </g>
          <path d="M512.72,328.58a7.73,7.73,0,0,0,.77-1.66,10.38,10.38,0,0,1,2.3-3.61,9.87,9.87,0,0,1,3.79-1.95,7.92,7.92,0,0,0,1.74-.59,5.48,5.48,0,0,0-1.83.24,8.75,8.75,0,0,0-4,1.92,9.13,9.13,0,0,0-2.29,3.86A6,6,0,0,0,512.72,328.58Z" transform="translate(-19.06 -114.67)" style="fill: #aa6550"/>
        </g>
      </g>
      <g>
        <g>
          <g>
            <path d="M572,344.56l-16-16.71-13.18-4.7-4.08,1.56-9.57-1.85a1.73,1.73,0,0,0-1.79,2.65.9.9,0,0,0,.31.28c.92.46,13.41,4.47,13.41,4.47l-16-1.26s-1.71.83-.34,2.09,6.79,2.75,10.31,3.43a40.84,40.84,0,0,1,6.23,2.52s-13.34,2.27-13.23,3.3-.11,1.49,1,1.61,12.37-.35,14.09.11,7.68,8.48,10.89,10.2a7.29,7.29,0,0,0,6.42,0l3,3.21,7.33-10.2" transform="translate(-19.06 -114.67)" style="fill: #ffbe9d"/>
            <path d="M570.86,345.27l-.14.16-.37.5c-.35.46-.83,1.11-1.45,1.95l-5.48,7.51h.2c-.9-1-1.9-2.07-3-3.22a.17.17,0,0,0-.18,0h0a7.37,7.37,0,0,1-4.61.58,6.14,6.14,0,0,1-2.31-1,18.81,18.81,0,0,1-2.07-1.78c-1.34-1.3-2.66-2.75-4-4.25-.7-.75-1.4-1.52-2.16-2.27a12.58,12.58,0,0,0-1.21-1.08l-.35-.25-.42-.2a6.6,6.6,0,0,0-.85-.11c-2.21-.15-4.46-.1-6.79-.09l-3.54.06-1.8,0a5,5,0,0,1-1.69-.14c-.18-.08-.21-.29-.23-.6l0-.47a1.77,1.77,0,0,1,0-.19c0,.08,0,0,0,0a6.84,6.84,0,0,1,1.65-.65c1.19-.35,2.42-.63,3.67-.91,2.49-.54,5-1,7.66-1.47a.26.26,0,0,0,.21-.29.3.3,0,0,0-.14-.19c-1.36-.66-2.75-1.29-4.19-1.86a13.09,13.09,0,0,0-2.25-.71c-.76-.15-1.52-.32-2.28-.5-1.52-.37-3-.79-4.53-1.31a18.24,18.24,0,0,1-2.19-.89,4.67,4.67,0,0,1-1-.6,1.2,1.2,0,0,1-.51-.82c0-.34.35-.7.72-.89l-.13,0,16,1.25a.25.25,0,0,0,.27-.23.24.24,0,0,0-.17-.26l-7.2-2.33-3.49-1.16-1.71-.58-.82-.31a.71.71,0,0,1-.31-.18,2.28,2.28,0,0,1-.21-.3,1.4,1.4,0,0,1,.14-1.43,1.62,1.62,0,0,1,1.3-.67c1.07.17,2.24.42,3.34.62l6.47,1.25h.12l4.08-1.57h-.14L556,328l-.07,0,11.78,12.22,3.18,3.26.83.84q.28.29.3.27l-.26-.3-.8-.87c-.73-.78-1.77-1.9-3.12-3.33-2.74-2.91-6.71-7.1-11.66-12.33l-.06,0L543,323a.26.26,0,0,0-.15,0l-4.08,1.55h.12l-6.48-1.27c-1.13-.21-2.19-.46-3.41-.64a2.08,2.08,0,0,0-1.7.86,1.89,1.89,0,0,0-.18,1.93,2.32,2.32,0,0,0,.3.42,1.12,1.12,0,0,0,.46.28c.29.12.56.22.85.32l1.72.59,3.49,1.17,7.19,2.34.1-.49-16-1.27h0a.28.28,0,0,0-.13,0,2.21,2.21,0,0,0-.67.51,1.27,1.27,0,0,0-.33.85,1.68,1.68,0,0,0,.68,1.2,5.13,5.13,0,0,0,1.07.67,19.83,19.83,0,0,0,2.26.92c1.52.52,3.05.94,4.58,1.31.76.19,1.53.36,2.3.51a13.17,13.17,0,0,1,2.16.68c1.42.56,2.81,1.2,4.16,1.84l.06-.47c-2.61.46-5.18.95-7.68,1.49-1.25.28-2.49.57-3.7.93a6.68,6.68,0,0,0-1.8.73c-.08.09-.18.11-.23.35a1.79,1.79,0,0,0,0,.27l0,.46a2.61,2.61,0,0,0,.09.51.8.8,0,0,0,.4.48,5,5,0,0,0,1.92.19l1.8,0,3.53-.06c2.32,0,4.59-.08,6.75.06a4.75,4.75,0,0,1,.78.1l.31.14.31.23a11.55,11.55,0,0,1,1.18,1c.75.74,1.46,1.49,2.15,2.24,1.39,1.49,2.72,2.94,4.08,4.25a20.84,20.84,0,0,0,2.12,1.8,6.69,6.69,0,0,0,2.45,1.08,7.7,7.7,0,0,0,4.83-.65l-.18,0,3,3.2a.14.14,0,0,0,.19,0v0L569,348l1.39-2,.35-.52A1,1,0,0,0,570.86,345.27Z" transform="translate(-19.06 -114.67)" style="fill: #aa6550"/>
          </g>
          <path d="M551.16,328.52a15.51,15.51,0,0,0-2.5-1c-1.58-.58-3.8-1.37-6.33-2.23h0l-1.89-.39c-3.07-.62-5.85-1.16-7.87-1.52a20.71,20.71,0,0,0-3.29-.49,20.88,20.88,0,0,0,3.22.84c2,.46,4.77,1.05,7.84,1.68l1.89.38h0c2.53.85,4.77,1.57,6.38,2.06A15.55,15.55,0,0,0,551.16,328.52Z" transform="translate(-19.06 -114.67)" style="fill: #aa6550"/>
        </g>
        <path d="M659.94,328.74l-43,37.27-44.29-25.34s-14,7.4-11,19.75l39.2,31a32,32,0,0,0,38.95.63l15-11.1,34-28.51s5.6-18.14-6.67-23.74A25.58,25.58,0,0,0,659.94,328.74Z" transform="translate(-19.06 -114.67)" style="fill: #e8505b"/>
        <path d="M654,333.89s-.24.18-.68.55l-1.95,1.65-7.43,6.38-27.12,23.4.22,0-44.26-25.39-.12-.07-.13.07a24.87,24.87,0,0,0-9,8,15.36,15.36,0,0,0-2.15,12.08l0,.07.06.06,12.19,9.64,22.22,17.59h0a42.82,42.82,0,0,0,20.54,10.25,27.18,27.18,0,0,0,10.9-.13,42.22,42.22,0,0,0,9.62-3.93,97.63,97.63,0,0,0,15.51-11L665,372.45l17.89-15.16,4.79-4.1,1.23-1.06a5.5,5.5,0,0,0,.41-.38l-.44.34-1.26,1-4.85,4-18,15.05-12.57,10.53a97.94,97.94,0,0,1-15.47,10.92,42,42,0,0,1-9.52,3.87,26.73,26.73,0,0,1-10.7.11,42.34,42.34,0,0,1-20.29-10.16h0L574,369.87l-12.19-9.65.09.12a13.48,13.48,0,0,1-.16-6.06,15.89,15.89,0,0,1,2.25-5.59,24.35,24.35,0,0,1,8.78-7.81h-.24l44.32,25.3.12.07.1-.09,27-23.53,7.37-6.45,1.91-1.69C653.78,334.1,654,333.89,654,333.89Z" transform="translate(-19.06 -114.67)" style="fill: #263238"/>
      </g>
      <path d="M661.88,328.11a19.94,19.94,0,0,1,4.44-1.82,22.14,22.14,0,0,1,11.44.33,15.66,15.66,0,0,1,5.58,2.91,19,19,0,0,1,3.46,3.87c.85,1.22,1.48,2.25,1.94,3a6.67,6.67,0,0,0,.75,1.06,5.88,5.88,0,0,0-.58-1.17c-.4-.73-1-1.79-1.81-3.06a18.44,18.44,0,0,0-3.45-4,15.84,15.84,0,0,0-5.74-3.05,21.39,21.39,0,0,0-11.68-.18,13.79,13.79,0,0,0-3.29,1.4,7.58,7.58,0,0,0-.8.54C662,328,661.87,328.09,661.88,328.11Z" transform="translate(-19.06 -114.67)" style="fill: #263238"/>
      <path d="M615.3,322.06a10.33,10.33,0,0,0,0,1.73c.06,1.2.15,2.79.25,4.71.21,4,.44,9.46.62,15.53s.31,11.49.42,15.55c.07,1.92.12,3.51.17,4.71a12,12,0,0,0,.13,1.72,10.19,10.19,0,0,0,.07-1.73c0-1.19,0-2.78,0-4.71,0-4-.09-9.48-.27-15.56s-.46-11.56-.76-15.54c-.15-2-.3-3.59-.42-4.69A12.06,12.06,0,0,0,615.3,322.06Z" transform="translate(-19.06 -114.67)" style="fill: #263238"/>
      <path d="M619.76,306a5.9,5.9,0,0,0-1.22,1.49,21.36,21.36,0,0,0-3.34,8.61,5.54,5.54,0,0,0-.1,1.93,62.86,62.86,0,0,1,1.78-6.23C618.16,308.46,619.9,306.09,619.76,306Z" transform="translate(-19.06 -114.67)" style="fill: #263238"/>
      <path d="M642,390.48l-10.63-13.76c-2.88-3.77-5.48-7.19-7.45-9.78l-2.22-3a7.27,7.27,0,0,1-.76-1.14,6.47,6.47,0,0,1,.92,1l2.35,2.89c2,2.46,4.65,5.88,7.57,9.69s5.55,7.28,7.4,9.82S642.09,390.41,642,390.48Z" transform="translate(-19.06 -114.67)" style="fill: #fafafa"/>
      <path d="M661.14,375.76a7,7,0,0,1-1-1c-.64-.64-1.56-1.6-2.67-2.79-2.24-2.38-5.26-5.73-8.48-9.53s-6.05-7.31-8.05-9.9c-1-1.29-1.79-2.35-2.32-3.09a7.07,7.07,0,0,1-.79-1.18,8.21,8.21,0,0,1,1,1.06l2.45,3c2.07,2.53,4.93,6,8.15,9.8s6.2,7.17,8.36,9.61c1,1.17,1.88,2.15,2.55,2.9A7.16,7.16,0,0,1,661.14,375.76Z" transform="translate(-19.06 -114.67)" style="fill: #fafafa"/>
      <path d="M681,358.94a7.38,7.38,0,0,1-1.13-.87c-.7-.59-1.7-1.47-2.91-2.57-2.42-2.21-5.68-5.37-9.09-9s-6.3-7.16-8.32-9.75c-1-1.29-1.81-2.35-2.34-3.1a7.33,7.33,0,0,1-.79-1.19,8,8,0,0,1,1,1.07l2.46,3c2.09,2.52,5,6,8.42,9.63s6.61,6.85,9,9.12l2.8,2.69A7.35,7.35,0,0,1,681,358.94Z" transform="translate(-19.06 -114.67)" style="fill: #fafafa"/>
      <path d="M612.65,395.47c-.15,0,.31-6.31,1-14.05s1.4-14,1.55-14-.32,6.3-1,14S612.79,395.48,612.65,395.47Z" transform="translate(-19.06 -114.67)" style="fill: #fafafa"/>
      <path d="M602.7,359.71a34.91,34.91,0,0,1-2.3,2.84c-1.44,1.73-3.4,4.14-5.44,6.9s-3.79,5.34-5,7.23a33.12,33.12,0,0,1-2,3s.11-.33.41-.89.74-1.36,1.32-2.33c1.16-1.94,2.86-4.56,4.91-7.34s4.06-5.16,5.58-6.83c.76-.84,1.39-1.5,1.84-1.95S602.67,359.68,602.7,359.71Z" transform="translate(-19.06 -114.67)" style="fill: #fafafa"/>
      <path d="M583.65,347.52a29.67,29.67,0,0,1-2.36,2.45c-1.47,1.5-3.44,3.62-5.46,6.09s-3.7,4.84-4.87,6.58a29.08,29.08,0,0,1-1.93,2.8,3.07,3.07,0,0,1,.38-.83c.27-.53.69-1.27,1.24-2.17A61.93,61.93,0,0,1,581,349.71c.77-.72,1.41-1.28,1.87-1.65A3.12,3.12,0,0,1,583.65,347.52Z" transform="translate(-19.06 -114.67)" style="fill: #fafafa"/>
      <path d="M602.9,354.9c-.1,0-.5-1.84-1.55-4.7a42.82,42.82,0,0,0-2.15-4.89,43.31,43.31,0,0,0-7.66-10.56,43.33,43.33,0,0,0-4-3.56c-2.39-1.89-4-2.84-4-2.93a6.72,6.72,0,0,1,1.18.62c.37.21.83.48,1.33.83s1.09.71,1.7,1.18a38.76,38.76,0,0,1,4.09,3.52,40,40,0,0,1,7.75,10.68,38,38,0,0,1,2.07,5c.27.72.44,1.4.6,2s.29,1.1.38,1.52A7.6,7.6,0,0,1,602.9,354.9Z" transform="translate(-19.06 -114.67)" style="fill: #fafafa"/>
      <path d="M615.37,345.85c-.1,0,.08-1.89-.13-4.92a36.21,36.21,0,0,0-.79-5.26,36.26,36.26,0,0,0-5-11.94,37,37,0,0,0-3.2-4.24c-2-2.27-3.49-3.45-3.42-3.53a6,6,0,0,1,1.06.79,15.16,15.16,0,0,1,1.17,1c.44.43,1,.89,1.46,1.47a33.07,33.07,0,0,1,3.34,4.22,34.61,34.61,0,0,1,5.08,12.1,33.31,33.31,0,0,1,.68,5.34c.07.76,0,1.46,0,2.06s0,1.14-.08,1.56A6.1,6.1,0,0,1,615.37,345.85Z" transform="translate(-19.06 -114.67)" style="fill: #fafafa"/>
      <path d="M642.22,341.13a4,4,0,0,1-1.09,0c-.71,0-1.72-.15-3-.34a54.17,54.17,0,0,1-9.54-2.35,53.28,53.28,0,0,1-9-4c-1.09-.62-2-1.15-2.54-1.55a4.52,4.52,0,0,1-.87-.66c0-.07,1.37.73,3.59,1.89a67.09,67.09,0,0,0,8.95,3.86,66.27,66.27,0,0,0,9.43,2.48C640.69,340.87,642.23,341.05,642.22,341.13Z" transform="translate(-19.06 -114.67)" style="fill: #fafafa"/>
      <path d="M629.41,355.61a6.09,6.09,0,0,1-2-.08,28.11,28.11,0,0,1-4.67-1,27.41,27.41,0,0,1-4.43-1.77,6.13,6.13,0,0,1-1.68-1c.07-.14,2.74,1.24,6.27,2.31S629.42,355.45,629.41,355.61Z" transform="translate(-19.06 -114.67)" style="fill: #fafafa"/>
      <path d="M664.09,325.51a1.43,1.43,0,0,1-.49,0l-1.41,0c-1.22,0-3-.15-5.16-.36a115.69,115.69,0,0,1-33-8.24c-2-.84-3.63-1.56-4.73-2.1l-1.25-.63a2.1,2.1,0,0,1-.43-.25,1.76,1.76,0,0,1,.47.15l1.3.54c1.12.48,2.75,1.16,4.78,1.95a134.16,134.16,0,0,0,16.19,5.17,136.3,136.3,0,0,0,16.72,3c2.17.25,3.92.42,5.14.52l1.39.14A2,2,0,0,1,664.09,325.51Z" transform="translate(-19.06 -114.67)" style="fill: #fafafa"/>
      <path d="M678.46,316.15a23,23,0,0,1-2.75-1.42c-1.68-.89-4-2.07-6.71-3.19s-5.16-2-7-2.56a22.81,22.81,0,0,1-2.93-1,14.78,14.78,0,0,1,3,.62,56.19,56.19,0,0,1,13.76,5.78A14.58,14.58,0,0,1,678.46,316.15Z" transform="translate(-19.06 -114.67)" style="fill: #fafafa"/>
      <path d="M690.62,393.75a12.27,12.27,0,0,1-1.66.2c-1.07.1-2.63.17-4.56.19s-4.22-.07-6.76-.29a77.86,77.86,0,0,1-8.21-1.22,78.88,78.88,0,0,1-8-2.15c-2.42-.81-4.56-1.64-6.32-2.43s-3.16-1.47-4.11-2a10.85,10.85,0,0,1-1.44-.85,10.92,10.92,0,0,1,1.54.67c1,.46,2.38,1.1,4.15,1.83s3.92,1.53,6.33,2.31,5.11,1.49,8,2.1,5.62,1,8.14,1.25,4.81.38,6.72.4,3.48,0,4.55,0A9,9,0,0,1,690.62,393.75Z" transform="translate(-19.06 -114.67)" style="fill: #fafafa"/>
      <path d="M692.77,369.1a3.36,3.36,0,0,1-.89.26c-.58.14-1.42.29-2.47.44a44.81,44.81,0,0,1-8.26.4,46.63,46.63,0,0,1-8.2-1.11c-1-.25-1.86-.47-2.42-.66a3.42,3.42,0,0,1-.86-.33c0-.08,1.29.24,3.35.63a56.51,56.51,0,0,0,16.35.71C691.46,369.23,692.75,369,692.77,369.1Z" transform="translate(-19.06 -114.67)" style="fill: #fafafa"/>
      <path d="M688.42,413.77a3.86,3.86,0,0,1-.74.07l-2.11.1c-.92,0-2.05.07-3.36.07s-2.8,0-4.44,0c-3.3-.05-7.21-.27-11.55-.67s-9.09-1.05-14-1.95-9.6-2-13.81-3.17-7.93-2.37-11-3.49c-1.56-.52-2.94-1.08-4.17-1.55s-2.26-.89-3.11-1.26l-1.94-.84a4.37,4.37,0,0,1-.67-.33,6.18,6.18,0,0,1,.71.23l2,.75c.86.34,1.9.75,3.14,1.18s2.61,1,4.18,1.48c3.1,1.07,6.85,2.22,11,3.36s8.85,2.21,13.78,3.13,9.66,1.53,14,2,8.23.68,11.52.79c1.64.08,3.13.08,4.43.1s2.43,0,3.35,0h2.12A4.76,4.76,0,0,1,688.42,413.77Z" transform="translate(-19.06 -114.67)" style="fill: #fafafa"/>
      <path d="M687.94,430.26a4,4,0,0,1-.92.5c-.61.3-1.51.68-2.65,1.1a43,43,0,0,1-18.59,2.43c-1.2-.12-2.17-.25-2.83-.38a4.34,4.34,0,0,1-1-.25c0-.09,1.48.12,3.88.26a50,50,0,0,0,18.44-2.41C686.53,430.77,687.9,430.18,687.94,430.26Z" transform="translate(-19.06 -114.67)" style="fill: #fafafa"/>
      <path d="M685.75,443.28a5.87,5.87,0,0,1-1.16,1.64,19.68,19.68,0,0,1-8,5.43,5.79,5.79,0,0,1-1.95.49,29.27,29.27,0,0,0,11.06-7.56Z" transform="translate(-19.06 -114.67)" style="fill: #fafafa"/>
      <g style="opacity: 0.30000000000000004">
        <path d="M613.8,397.43c9.05,5.94,21.16,5.48,31.19,1.41s18.43-11.27,26.51-18.47c6.32-5.63,12.86-11.81,15-20,.38-1.45.43-3.35-.9-4.06s-3,.47-4.08,1.58c-10.5,10.43-22.48,19.24-34.41,28-4.66,3.43-9.37,6.88-14.63,9.28s-11.21,3.7-16.89,2.59" transform="translate(-19.06 -114.67)"/>
      </g>
      <g style="opacity: 0.30000000000000004">
        <path d="M602.09,357.52l12.7-8.86a3.52,3.52,0,0,0,1.19-1.14,1.24,1.24,0,0,0-.18-1.52,26.5,26.5,0,0,1-32.22-.22c-2.16-1.68-4.08-3.71-6.47-5s-5.52-1.82-7.8-.3l-1.26.68,1.7,1.14,3-1.82Z" transform="translate(-19.06 -114.67)"/>
      </g>
      <g>
        <g>
          <g>
            <path d="M648.56,316.19h0a14.66,14.66,0,0,1-17.3-12.67c-.33-2.78-.56-4.81-.56-4.81s-11.84.46-14.22-11S611,249.49,611,249.49h0A40.66,40.66,0,0,1,652,246.72l2,1L660.37,300A14.67,14.67,0,0,1,648.56,316.19Z" transform="translate(-19.06 -114.67)" style="fill: #ffbe9d"/>
            <path d="M630.7,298.71a28.22,28.22,0,0,0,14.09-7.33s-2,9-13.71,10.16Z" transform="translate(-19.06 -114.67)" style="fill: #aa6550"/>
          </g>
          <g>
            <path d="M654.9,259.87c.18-.12,7.44-3.87,8.72,4s-6.92,7.55-7,7.33S654.9,259.87,654.9,259.87Z" transform="translate(-19.06 -114.67)" style="fill: #ffbe9d"/>
            <path d="M658.58,267.84s.16.08.41.15a1.44,1.44,0,0,0,1-.15c.78-.44,1.27-1.88,1.08-3.31a4.66,4.66,0,0,0-.71-1.91,1.59,1.59,0,0,0-1.2-.88.7.7,0,0,0-.75.5c-.07.24,0,.39,0,.41s-.19-.1-.18-.44a.9.9,0,0,1,.23-.54,1.06,1.06,0,0,1,.73-.33,2,2,0,0,1,1.64,1,4.86,4.86,0,0,1,.83,2.13c.21,1.6-.37,3.22-1.45,3.73a1.49,1.49,0,0,1-1.3,0C658.63,268,658.56,267.86,658.58,267.84Z" transform="translate(-19.06 -114.67)" style="fill: #aa6550"/>
          </g>
          <g>
            <g>
              <g>
                <path d="M616.93,267.84a1.68,1.68,0,0,0,1.91,1.35,1.6,1.6,0,0,0,1.4-1.81,1.67,1.67,0,0,0-1.9-1.35A1.6,1.6,0,0,0,616.93,267.84Z" transform="translate(-19.06 -114.67)" style="fill: #263238"/>
                <path d="M616.28,265.23c.24.17,1.31-1,3.07-1.33s3.23.29,3.38,0-.2-.46-.85-.76a4.58,4.58,0,0,0-2.76-.3,4.46,4.46,0,0,0-2.39,1.32C616.27,264.73,616.16,265.15,616.28,265.23Z" transform="translate(-19.06 -114.67)" style="fill: #263238"/>
              </g>
              <g>
                <path d="M634.1,264.5a1.66,1.66,0,0,0,1.9,1.34,1.59,1.59,0,0,0,1.4-1.8,1.66,1.66,0,0,0-1.9-1.35A1.59,1.59,0,0,0,634.1,264.5Z" transform="translate(-19.06 -114.67)" style="fill: #263238"/>
                <path d="M633.69,262.17c.25.18,1.31-1,3.07-1.32s3.24.29,3.38,0-.2-.46-.85-.76a4.57,4.57,0,0,0-5.15,1C633.68,261.68,633.57,262.1,633.69,262.17Z" transform="translate(-19.06 -114.67)" style="fill: #263238"/>
              </g>
              <path d="M629.84,276.51a12,12,0,0,0-3,0c-.46,0-.91,0-1-.26a2.29,2.29,0,0,1,0-1.39l.66-3.69c.9-5.25,1.46-9.53,1.25-9.56s-1.11,4.19-2,9.44c-.21,1.29-.42,2.52-.61,3.7a2.66,2.66,0,0,0,.11,1.81,1.21,1.21,0,0,0,.87.52,3.21,3.21,0,0,0,.79-.05A11.8,11.8,0,0,0,629.84,276.51Z" transform="translate(-19.06 -114.67)" style="fill: #263238"/>
              <path d="M635.27,276.72c-.29,0,.08,1.95-1.3,3.63s-3.45,1.87-3.42,2.14.53.28,1.4.14a4.87,4.87,0,0,0,2.87-1.68,4.19,4.19,0,0,0,1-3C635.7,277.12,635.4,276.68,635.27,276.72Z" transform="translate(-19.06 -114.67)" style="fill: #263238"/>
            </g>
            <path d="M631.89,255.35c.26.44,2-.13,4.1-.28s3.91.08,4.1-.4c.08-.23-.3-.63-1.07-1a6.79,6.79,0,0,0-3.18-.46,6.65,6.65,0,0,0-3.06,1C632.08,254.68,631.77,255.13,631.89,255.35Z" transform="translate(-19.06 -114.67)" style="fill: #263238"/>
            <path d="M615.93,260c.39.34,1.52-.31,3-.62s2.76-.25,3-.73c.08-.23-.19-.59-.8-.86a4.4,4.4,0,0,0-4.79,1.08C615.85,259.38,615.76,259.82,615.93,260Z" transform="translate(-19.06 -114.67)" style="fill: #263238"/>
          </g>
        </g>
        <path d="M604,243.33a4.3,4.3,0,0,1,.83-4.09,3.06,3.06,0,0,1,4-.47,3.57,3.57,0,0,1,2.19-4.84c1.85-.48,3.72.62,5.63.76a8.73,8.73,0,0,0,5.24-1.66c1.56-1,3-2.27,4.57-3.23a15,15,0,0,1,20.46,5,6.62,6.62,0,0,1,7.42,1.27,10.84,10.84,0,0,1,3.11,7.21,23.92,23.92,0,0,1-.31,5.41c0,.15.07.29.1.44,1.11,6.34,1.84,13.9-.84,14.46-4.69,1-5.29-8.08-5.29-8.08-6.2-1.1-5.73-10.15-7.43-11.18s-5.3-3.49-16.17,5c-4.22,3.31-10.46,4.45-14,4.34H613l-.11,0a10.79,10.79,0,0,1-3.35-.71,6.22,6.22,0,0,1-3.11-2.33,3.45,3.45,0,0,1,0-3.73A7.46,7.46,0,0,1,604,243.33Z" transform="translate(-19.06 -114.67)" style="fill: #263238"/>
      </g>
    </g>
    <g>
      <path d="M84.73,358.77A52.74,52.74,0,0,1,135,345a91.6,91.6,0,0,1-50.9,15.9" transform="translate(-19.06 -114.67)" style="fill: #e8505b"/>
      <g>
        <path d="M101.79,298.35c-2.09-14.83,3.67-31.5,14.77-42.28.36,14.69-5.84,31.22-14.77,42.28" transform="translate(-19.06 -114.67)" style="fill: #e8505b"/>
        <path d="M92.92,326.35a79.12,79.12,0,0,1,36.35-34.74,50,50,0,0,1-36.49,34.9" transform="translate(-19.06 -114.67)" style="fill: #e8505b"/>
        <path d="M91.08,331.75c9,.25,18-.06,26.67-2.35s17-6.7,22.72-13.56a89.17,89.17,0,0,0-49.26,15" transform="translate(-19.06 -114.67)" style="fill: #e8505b"/>
        <path d="M95.63,314c-4.55-17-12-28.81-25.44-38.36A35.41,35.41,0,0,0,95.63,314" transform="translate(-19.06 -114.67)" style="fill: #e8505b"/>
        <path d="M61.83,343.33A25.19,25.19,0,0,1,77.15,320c-.75,8.79-7.66,19-15.32,23.35" transform="translate(-19.06 -114.67)" style="fill: #e8505b"/>
        <path d="M57.55,329a37.59,37.59,0,0,0-24.61-32.05C36,311.16,44.26,323,57.55,329" transform="translate(-19.06 -114.67)" style="fill: #e8505b"/>
        <path d="M64,354.45c-3.16-4.51-8.31-7.32-13.64-8.72s-10.91-1.51-16.42-1.63a38.36,38.36,0,0,0,29.64,12.34" transform="translate(-19.06 -114.67)" style="fill: #e8505b"/>
        <path d="M70.4,390.76a42,42,0,0,0-51.34,24.32c18.65-3.54,37.05-11.82,51.34-24.32" transform="translate(-19.06 -114.67)" style="fill: #e8505b"/>
        <path d="M90.86,378.14c-3.09,9.16-2.5,20.23,4.39,28.12a33.61,33.61,0,0,0-4.39-28.12" transform="translate(-19.06 -114.67)" style="fill: #e8505b"/>
        <path d="M103,373.06A34.44,34.44,0,0,0,122,401a2.16,2.16,0,0,0,1.68.28c.84-.35.91-1.49.81-2.39-1.35-11.73-10-23.08-21.52-25.84" transform="translate(-19.06 -114.67)" style="fill: #e8505b"/>
        <path d="M110.86,371.87a28.25,28.25,0,0,0,41.27.21c-13.12-1.44-28.25-2.4-41.27-.21" transform="translate(-19.06 -114.67)" style="fill: #e8505b"/>
        <g>
          <path d="M112.82,267a2,2,0,0,1-.12.38c-.09.27-.23.64-.4,1.11l-1.58,4.25c-.7,1.83-1.52,4.1-2.46,6.73l-1.52,4.21-1.64,4.75c-2.32,6.64-4.9,14.62-7.69,23.49S91.8,330.63,89,341s-5.27,20.3-7.37,29.37-3.8,17.27-5.07,24.19c-.33,1.73-.64,3.37-.93,4.93s-.52,3-.75,4.42C74.38,406.65,74,409,73.7,411s-.52,3.43-.69,4.48c-.08.49-.14.88-.19,1.17a1.76,1.76,0,0,1-.08.39,2,2,0,0,1,0-.4l.14-1.17.6-4.5c.24-1.95.62-4.33,1.07-7.09.22-1.38.46-2.86.71-4.42s.59-3.21.9-4.94c1.23-6.94,3-15.15,5-24.24s4.54-19,7.33-29.39,5.72-20.18,8.48-29.08,5.43-16.84,7.8-23.47q.87-2.49,1.67-4.73l1.56-4.2c1-2.63,1.81-4.88,2.54-6.71l1.67-4.22.45-1.09A3.76,3.76,0,0,1,112.82,267Z" transform="translate(-19.06 -114.67)" style="fill: #263238"/>
          <path d="M40.77,304.52s.08.07.23.21l.62.66C42.17,306,43,306.85,44,308a92.64,92.64,0,0,1,7.72,10.3,69.23,69.23,0,0,1,8.08,17.28c2.16,6.88,3.5,14.69,4.84,22.86,2.67,16.36,5.94,31,8.31,41.61,1.19,5.27,2.16,9.55,2.84,12.54.32,1.46.58,2.61.76,3.42l.18.89a1.35,1.35,0,0,1,0,.31,1.61,1.61,0,0,1-.1-.3c-.06-.22-.14-.51-.23-.88-.2-.81-.49-1.94-.85-3.39-.72-3-1.74-7.25-3-12.51-2.46-10.58-5.79-25.23-8.46-41.6-1.33-8.18-2.66-16-4.79-22.82a69.62,69.62,0,0,0-7.93-17.22,100.07,100.07,0,0,0-7.57-10.36c-1-1.17-1.74-2.07-2.26-2.67l-.59-.69C40.83,304.61,40.76,304.53,40.77,304.52Z" transform="translate(-19.06 -114.67)" style="fill: #263238"/>
          <path d="M114.78,371.31a1.53,1.53,0,0,1-.47.09l-1.36.15-1,.09-1.16.18c-.83.12-1.78.24-2.82.47l-1.63.33-1.74.44c-1.22.27-2.47.72-3.81,1.12a55.35,55.35,0,0,0-8.3,3.66A47.12,47.12,0,0,0,85.06,383a37.92,37.92,0,0,0-2.86,2.75,29.67,29.67,0,0,0-2.26,2.6,27,27,0,0,0-1.67,2.31,16.7,16.7,0,0,0-1.15,1.83l-.7,1.17a1.74,1.74,0,0,1-.27.4,2.32,2.32,0,0,1,.18-.45L77,392.4A16,16,0,0,1,78,390.52a24.29,24.29,0,0,1,1.63-2.37,28.14,28.14,0,0,1,2.24-2.68,36.43,36.43,0,0,1,2.86-2.81,44.72,44.72,0,0,1,7.5-5.26,53.94,53.94,0,0,1,8.41-3.66c1.35-.39,2.62-.83,3.85-1.09l1.76-.41,1.65-.3c1-.21,2-.3,2.84-.4l1.17-.14,1,0,1.37-.06A1.81,1.81,0,0,1,114.78,371.31Z" transform="translate(-19.06 -114.67)" style="fill: #263238"/>
        </g>
        <path d="M118.52,304.83a6.68,6.68,0,0,1-1,.91l-2.7,2.35c-2.29,2-5.48,4.64-9,7.58s-6.77,5.58-9.13,7.47l-2.8,2.22a6.39,6.39,0,0,1-1.07.76,6.68,6.68,0,0,1,1-.91l2.7-2.35c2.3-2,5.49-4.64,9-7.58s6.77-5.57,9.12-7.46l2.8-2.22A6.71,6.71,0,0,1,118.52,304.83Z" transform="translate(-19.06 -114.67)" style="fill: #263238"/>
        <path d="M121.74,322.19c0,.13-6.85,2.28-15.38,4.8s-15.49,4.46-15.53,4.33,6.85-2.29,15.39-4.81S121.7,322.05,121.74,322.19Z" transform="translate(-19.06 -114.67)" style="fill: #263238"/>
        <path d="M96.31,315.28a5.85,5.85,0,0,1-.71-1l-1.82-2.77c-1.54-2.33-3.73-5.51-6.31-8.89s-5.08-6.33-6.92-8.44c-.86-1-1.59-1.82-2.18-2.48a6.6,6.6,0,0,1-.76-.95,4.73,4.73,0,0,1,.91.81c.56.55,1.34,1.36,2.3,2.39,1.91,2.05,4.45,5,7.05,8.37s4.74,6.62,6.21,9c.73,1.19,1.31,2.17,1.68,2.86A5.62,5.62,0,0,1,96.31,315.28Z" transform="translate(-19.06 -114.67)" style="fill: #263238"/>
        <path d="M72.39,324.91a23.36,23.36,0,0,1-1.62,2.66c-1,1.61-2.42,3.86-3.87,6.4s-2.67,4.89-3.53,6.61a21,21,0,0,1-1.46,2.74,16.47,16.47,0,0,1,1.14-2.9c.79-1.75,2-4.14,3.41-6.69s2.91-4.79,4-6.36A15.42,15.42,0,0,1,72.39,324.91Z" transform="translate(-19.06 -114.67)" style="fill: #263238"/>
        <path d="M64.2,354.93c0,.07-1.35-.58-3.5-1.54s-5.15-2.24-8.54-3.43-6.54-2.07-8.82-2.65-3.71-.9-3.7-1a4.6,4.6,0,0,1,1,.11c.65.1,1.59.27,2.75.52a77.33,77.33,0,0,1,8.9,2.53,76.36,76.36,0,0,1,8.53,3.58c1.06.52,1.91,1,2.48,1.3A3.79,3.79,0,0,1,64.2,354.93Z" transform="translate(-19.06 -114.67)" style="fill: #263238"/>
        <path d="M70.65,390.82a2.62,2.62,0,0,1-.43.14l-1.24.32-4.58,1.05a151.73,151.73,0,0,0-15,3.95,66.78,66.78,0,0,0-14,6.56c-1.67,1.06-3,2-3.85,2.68a14.54,14.54,0,0,1-1.38,1s.09-.12.3-.32.53-.5,1-.85a39.86,39.86,0,0,1,3.77-2.83,61.79,61.79,0,0,1,14-6.73A124,124,0,0,1,64.33,392l4.61-.91A10.28,10.28,0,0,1,70.65,390.82Z" transform="translate(-19.06 -114.67)" style="fill: #263238"/>
        <path d="M94,399.66c-.14,0-1-4.81-1.84-10.79S90.64,378,90.78,378s1,4.81,1.83,10.79S94.08,399.64,94,399.66Z" transform="translate(-19.06 -114.67)" style="fill: #263238"/>
        <path d="M118.2,390.85a24,24,0,0,1-2.18-2.59c-1.32-1.63-3.13-3.88-5.18-6.33s-4-4.62-5.34-6.19a23.83,23.83,0,0,1-2.18-2.6,3.6,3.6,0,0,1,.69.59c.43.41,1,1,1.75,1.77,1.45,1.51,3.4,3.66,5.46,6.11s3.84,4.74,5.08,6.43c.62.85,1.11,1.54,1.44,2A3.14,3.14,0,0,1,118.2,390.85Z" transform="translate(-19.06 -114.67)" style="fill: #263238"/>
      </g>
      <polygon points="34.95 298.68 34.95 310.67 37.94 310.67 48.6 344.3 72.22 344.3 82.55 311 86.54 310.67 86.54 298.68 34.95 298.68" style="fill: #263238"/>
      <path d="M103.6,425.67c0,.14-10.43.25-23.29.25S57,425.81,57,425.67s10.43-.25,23.31-.25S103.6,425.53,103.6,425.67Z" transform="translate(-19.06 -114.67)" style="fill: #455a64"/>
      <path d="M120.6,348.57a8.94,8.94,0,0,1-1.52.41l-4.14,1c-3.5.87-8.3,2.18-13.51,3.93s-9.82,3.61-13.13,5l-3.91,1.71a9.23,9.23,0,0,1-1.45.59,9,9,0,0,1,1.37-.77c.89-.47,2.21-1.1,3.85-1.86a139.25,139.25,0,0,1,13.11-5.18,135.51,135.51,0,0,1,13.58-3.79c1.77-.4,3.2-.68,4.19-.85A10.67,10.67,0,0,1,120.6,348.57Z" transform="translate(-19.06 -114.67)" style="fill: #263238"/>
      <path d="M95.76,444.34c0,.14-7.32.25-16.35.25s-16.34-.11-16.34-.25,7.31-.25,16.34-.25S95.76,444.2,95.76,444.34Z" transform="translate(-19.06 -114.67)" style="fill: #fafafa"/>
      <path d="M96.68,441.56c0,.14-7.76.25-17.32.25S62,441.7,62,441.56s7.76-.25,17.33-.25S96.68,441.42,96.68,441.56Z" transform="translate(-19.06 -114.67)" style="fill: #fafafa"/>
    </g>
  </g>
</svg>
