<?xml version="1.0" encoding="utf-8"?>
<!-- Generator: Adobe Illustrator 23.0.5, SVG Export Plug-In . SVG Version: 6.00 Build 0)  -->
<svg version="1.1" id="Layer_1" xmlns="http://www.w3.org/2000/svg" xmlns:xlink="http://www.w3.org/1999/xlink" x="0px" y="0px"
	 viewBox="0 0 1000 366.94" style="enable-background:new 0 0 1000 366.94;" xml:space="preserve">
<style type="text/css">
	.st0{fill:#F9A41E;}
	.st1{opacity:0.9;fill:#DDDFC9;}
	.st2{opacity:0.9;fill:#DFDEC7;}
	.st3{opacity:0.9;fill:none;}
	.st4{fill:#74BB44;}
	.st5{fill:#F68621;}
	.st6{fill:#E8B173;}
	.st7{fill:#ECB977;}
	.st8{fill:#E2A569;}
	.st9{fill:#ECB9A1;stroke:#00A8DE;stroke-miterlimit:10;}
	.st10{fill:#DBDCC9;}
	.st11{fill:#DFDEC7;}
	.st12{fill:none;}
	.st13{fill:#D68D71;}
	.st14{fill:#00A1C6;}
	.st15{fill:#00819D;}
	.st16{fill:#00B0E6;}
	.st17{fill:#FFFFFF;}
	.st18{fill:#006C77;}
	.st19{fill:#008DA7;}
	.st20{fill:#00A0CC;}
	.st21{fill:#8A9298;}
	.st22{fill:#E3A286;}
	.st23{fill:#649F45;}
	.st24{fill:#D69772;}
	.st25{fill:#D98B4E;}
	.st26{fill:#202224;}
	.st27{fill:#9AC666;}
	.st28{fill:#434C51;}
	.st29{fill:#009EC1;}
	.st30{fill:#DD9F83;}
	.st31{fill:#CF8C70;}
	.st32{fill:#BDD634;}
	.st33{fill:#FAB317;}
	.st34{fill:#19984A;stroke:#FFFFFF;stroke-width:2;stroke-miterlimit:10;}
	.st35{fill:#9AC666;stroke:#FFFFFF;stroke-width:2;stroke-miterlimit:10;}
</style>
<g>
	<path class="st0" d="M426.1,196.19c-1.14,0.78-2.97,2.22-4.4,4.14c-1.77,2.37-4.47,3.25-9.66,7.06c-3.77,2.77-5.47,6.08-6.12,7.69
		c0.38,0.06,0.84,0.07,1.33,0.04c0.38-0.03,0.82-0.14,1.28-0.32c0.6-0.98,2.37-3.51,5.97-5.92c0.25-0.17,0.49-0.33,0.73-0.49
		l-0.41-1.02l0.84-0.38l0.4,0.85c0.77-0.52,1.47-0.99,2.1-1.4l-0.28-0.92l0.52-0.36l0.33,0.91c0.79-0.5,1.46-0.88,1.99-1.12
		l-0.16-0.96l0.76-0.28l0.21,0.98c0.33-0.04,0.57,0.02,0.71,0.23c0.19,0.28,0.18,0.66,0.08,1.06c0.29-0.08,0.6-0.14,0.92-0.17
		l0.13-2.46c0.41-0.28,0.93-0.02,0.93-0.02l-0.27,2.43c0.55-0.01,1.11,0.03,1.63,0.08l0.54-2.54l0.94,0.21l-0.58,2.45
		c0.8,0.12,1.36,0.26,1.39,0.26c0.16-0.34,1.51-2.98,3.27-4.45C430.61,201.05,427.85,197.93,426.1,196.19z"/>
	<path class="st1" d="M412.05,207.4c5.19-3.81,7.89-4.69,9.66-7.06c1.43-1.92,3.25-3.37,4.4-4.14c-0.21-0.21-0.41-0.4-0.59-0.56
		c-1.84-1.69-4.49,1.47-5.81,3.38c-1.33,1.91-3.97,3.46-5.96,4.71c-1.99,1.25-4.93,3.9-7.58,7.43c-2.07,2.77-1.62,3.72-0.23,3.94
		C406.58,213.48,408.28,210.17,412.05,207.4z"/>
	<path class="st2" d="M414.83,207.37l1.02,2.54c0.28-0.22,0.57-0.44,0.88-0.67l-1.06-2.25L414.83,207.37z"/>
	<path class="st2" d="M417.89,205.52l0.73,2.38c0.21-0.14,0.42-0.28,0.64-0.41l-0.84-2.32L417.89,205.52z"/>
	<path class="st2" d="M420.58,204l0.41,2.52c0.3-0.14,0.59-0.27,0.88-0.37l-0.52-2.42L420.58,204z"/>
	<path class="st2" d="M423.4,203.36l-0.13,2.46c0.26-0.03,0.52-0.04,0.79-0.05l0.27-2.43C424.33,203.34,423.81,203.08,423.4,203.36z
		"/>
	<path class="st2" d="M426.24,203.32l-0.54,2.54c0.32,0.03,0.63,0.08,0.91,0.12l0.58-2.45L426.24,203.32z"/>
	<path class="st3" d="M418.42,205.16l-0.52,0.36l0.28,0.92c0.2-0.13,0.39-0.25,0.57-0.37L418.42,205.16z"/>
	<path class="st3" d="M421.34,203.72l-0.76,0.28l0.16,0.96c0.32-0.14,0.59-0.22,0.82-0.25L421.34,203.72z"/>
	<path class="st3" d="M415.67,206.99l-0.84,0.38l0.41,1.02c0.28-0.19,0.56-0.38,0.83-0.56L415.67,206.99z"/>
	<path class="st0" d="M418.62,207.9l-0.45-1.46c-0.63,0.41-1.33,0.88-2.1,1.4l0.66,1.4C417.33,208.79,417.97,208.33,418.62,207.9z"
		/>
	<path class="st0" d="M422.26,204.93c-0.14-0.21-0.38-0.28-0.71-0.23l0.31,1.45c0.13-0.05,0.25-0.09,0.37-0.13
		c0.04-0.01,0.08-0.02,0.11-0.03C422.44,205.59,422.45,205.21,422.26,204.93z"/>
	<path class="st0" d="M420.99,206.52l-0.25-1.57c-0.53,0.23-1.19,0.62-1.99,1.12l0.51,1.41
		C419.84,207.12,420.42,206.79,420.99,206.52z"/>
	<path class="st0" d="M415.86,209.91l-0.61-1.52c-0.24,0.16-0.48,0.32-0.73,0.49c-3.61,2.42-5.37,4.94-5.97,5.92
		c2.3-0.88,5.36-3.35,6.93-4.59C415.59,210.11,415.72,210.01,415.86,209.91z"/>
</g>
<path class="st4" d="M476.54,197.74c0,0.05-0.03,0.36-0.03,0.4c-0.99,10.56-6.3,14.33-7.86,16.43c-1.56,2.12-1.14,3.42-1.38,4.63
	c-0.24,1.21-1.33,1.33-1.33,1.33s-0.44-0.96-1.66-0.96c-1.21,0-2.06,1.23-2.06,1.23c-0.61-0.72-9.71-5.54-11.31-6.24
	c-1.14-0.5-2.98-1.71-5.41-3.26c-2.43-1.54-12.14-10.76-12.8-11.17c-0.66-0.41-1.51,0.65-1.51,0.65l-0.85,0.97c0,0-2.01,2-2.91,4.5
	c0.03,0.33,0.2,0.65,0.6,1c0.88,0.75,9.96,8.25,11.84,9.13c1.88,0.88,3.86,3.86,5.63,5.85c1.77,1.99,7.17,3.75,14.13,9.16
	c6.95,5.41,10.82,1.32,13.69-2.21c2.14-2.64,11.31-14.45,15.81-20.26c0-0.01,0.01-0.01,0.01-0.02c1.18-1.53,2.04-2.64,2.36-3.05
	C485.15,202.8,476.54,197.74,476.54,197.74z"/>
<path class="st5" d="M474.61,122.58c0,0-3.07,10.41,5.82,18.11c0,0,3.8-1.37,3.57-6.21C483.76,129.63,477.09,122.92,474.61,122.58z"
	/>
<path class="st6" d="M445.36,168.43c0,0-1.7-1.41-0.91-3.3c0.44-1.04,0.92-2.17,1.27-3.14c-0.01,0.01-4.16,3.09-1.2,6.12
	C445.08,168.01,445.07,168.28,445.36,168.43z"/>
<path class="st7" d="M481.83,131.65l-0.2-4.17c-0.81-0.8-1.15-0.57-2.02,0.01c-0.87,0.58-5.45,2.87-7,3.1
	c-1.55,0.24-4,1.89-4.92,3.05c-0.92,1.16-2.79,2.74-4.52,4.31c-1.73,1.57-11.19,9.12-12.19,9.84c-0.42,0.31-0.96,0.74-1.52,1.24
	c-0.75,0.68-1.55,1.49-2.16,2.32c0,0-3.96,2.67-4.63,3.21c-0.67,0.54-1.03,1.01-1.03,1.82c0.01,0.81-0.73,4.38-0.67,5.68
	c0.02,0.42-0.1,0.9-0.27,1.38c0,0.01-0.01,0.04-0.02,0.06c-0.05,0.15-0.11,0.31-0.17,0.46c0,0,0,0,0,0.01
	c-0.11,0.27-0.21,0.52-0.31,0.74c-0.06,0.17-0.12,0.32-0.16,0.44c-0.02,0.06-0.04,0.12-0.05,0.17c-0.14,0.63,0.59,1.94,1.19,2.37
	c0.1,0.07,0.17,0.14,0.36,0.21c0,0,0,0,0,0c0,0,0,0,0,0c0.08,0.04,0.17,0.09,0.27,0.13l0,0c0.09,0.04,0.18,0.07,0.27,0.11
	c0.03,0.01,0.07,0.02,0.1,0.03c0.06,0.02,0.12,0.04,0.19,0.06c0.04,0.01,0.08,0.02,0.12,0.03c0.06,0.01,0.12,0.03,0.18,0.04
	c0.04,0.01,0.09,0.02,0.13,0.02c0.06,0.01,0.12,0.02,0.19,0.02c0.04,0,0.09,0.01,0.13,0.01c0.06,0,0.13,0,0.19,0
	c0.04,0,0.09,0,0.13,0c0.07,0,0.14-0.01,0.21-0.02c0.03-0.01,0.07-0.01,0.11-0.02c0.1-0.02,0.21-0.05,0.31-0.08
	c0.19-0.07,0.34-0.11,0.46-0.13c-2.9-3.07,1.19-6.12,1.2-6.12c0.29-0.79,0.5-1.47,0.53-1.9c0,0-0.11,2.32-0.78,4.21
	c-0.56,1.6-0.03,3.54,1.58,4.89c0.31,0.06,0.61,0.05,0.84-0.1c0.74-0.47-0.05-1.45-0.16-2.37c-0.1-0.92-0.6-3.33,1.22-6.27
	c0.7-1.13,1.17-1.95,1.47-2.58c0,0,0,0,0-0.01c0.49-1,0.56-1.52,0.47-2.04c-0.14-0.84-0.28-2.02-0.64-2.55c0,0,6.96-4.87,9.4-6.07
	c1.56-0.76,4.55-1.72,7.28-2.86c1.55-0.64,3.01-1.34,4.07-2.09c2.93-2.07,11.43-6.86,11.43-6.86L481.83,131.65z"/>
<path class="st8" d="M445.48,164.3c0.66-1.89,0.78-4.21,0.78-4.21c-0.03,0.43-0.24,1.11-0.53,1.9l0,0l0,0
	c-0.36,0.97-0.84,2.11-1.27,3.14c-0.79,1.88,0.91,3.3,0.91,3.3c0.17,0.09,0.59,0.36,1.07,0.55c-0.38-0.49-0.81-1-0.81-1
	s0.43,0.5,0.81,1c0.2,0.08,0.42,0.16,0.62,0.2C445.45,167.84,444.92,165.9,445.48,164.3z"/>
<path class="st5" d="M541.32,68.92c-1.84,1.57-4.03,2.73-6.34,3.59c0.77,2.21,1.23,3.8,1.23,3.8c23.17-6.18,25.65-18.5,25.79-19.33
	C556.03,56.88,550.34,61.24,541.32,68.92z"/>
<path class="st9" d="M523.29,115.97c0.03,0.02,0.06,0.04,0.09,0.06C523.32,115.99,523.29,115.96,523.29,115.97L523.29,115.97z"/>
<path class="st10" d="M566.05,267.98c-0.65,0.77-1.92,1.79-4.35,3.26c-6.25,3.75-11.48,2.8-13.83,4.19
	c-1.82,1.08-5.71,2.47-7.38,3.04c1.27,3.37,3.02,2.06,4.61,1.04c1.81-1.15,3.3-1.98,11.29-3.96c7.99-1.98,10.3-6.26,10.3-6.26
	C566.88,268.77,566.61,268.31,566.05,267.98z"/>
<path class="st11" d="M554.4,272.26l0.92-0.07l-0.1-2.88c-0.36,0.1-0.71,0.2-1.06,0.3L554.4,272.26z"/>
<path class="st11" d="M551.2,273.04l0.61-0.16l0.14-2.69c-0.26,0.07-0.51,0.13-0.75,0.19V273.04z"/>
<path class="st11" d="M548.32,270.74l-0.36,2.67h0.81l0.5-2.68C548.98,270.75,548.66,270.75,548.32,270.74z"/>
<path class="st11" d="M545.02,272.74c0,0,0.4,0.42,0.88,0.3l1.07-2.44c-0.25-0.04-0.5-0.08-0.76-0.14L545.02,272.74z"/>
<path class="st11" d="M543.22,272.12l1.28-2.1c-0.3-0.1-0.59-0.21-0.85-0.33l-1.24,1.92L543.22,272.12z"/>
<path class="st12" d="M548.13,272.17l-0.17,1.24h0.81l0.23-1.22C548.67,272.2,548.38,272.19,548.13,272.17z"/>
<path class="st12" d="M551.2,273.04l0.61-0.16l0.05-1.04c-0.22,0.04-0.45,0.07-0.67,0.11V273.04z"/>
<path class="st12" d="M554.4,272.26l0.92-0.07l-0.04-1.06c-0.32,0.08-0.64,0.16-0.97,0.23L554.4,272.26z"/>
<path class="st0" d="M563.43,267.4c-1.07,1.44-4.49,2.81-8.15,3.73l0.04,1.06l-0.92,0.07l-0.08-0.9c-0.82,0.19-1.65,0.35-2.45,0.49
	l-0.05,1.04l-0.61,0.16v-1.09c-0.26,0.04-0.52,0.08-0.78,0.11c-0.55,0.07-1.02,0.11-1.42,0.12l-0.23,1.22h-0.81l0.17-1.24
	c-1.74-0.16-1.43-1.06-1.13-1.55c-0.01,0-0.02,0-0.04,0l-1.07,2.44c-0.48,0.12-0.88-0.3-0.88-0.3l1.19-2.27
	c-0.6-0.12-1.18-0.28-1.71-0.46l-1.28,2.1l-0.81-0.51l1.24-1.92c-0.72-0.33-1.27-0.71-1.49-1.11c-1.1,0.98-2.32,1.52-3.31,1.82
	c0.02,0.12-0.64,0.39-1.47,0.37c0.02,0.02,1.66,2.01,2.61,6.04c0.16,0.66,0.32,1.21,0.5,1.68c1.67-0.58,5.56-1.96,7.38-3.04
	c2.36-1.4,7.58-0.44,13.83-4.19c2.43-1.46,3.7-2.49,4.35-3.26C565.46,267.62,564.53,267.41,563.43,267.4z"/>
<path class="st0" d="M551.95,270.2l-0.09,1.65c0.8-0.14,1.63-0.3,2.45-0.49l-0.16-1.75C553.37,269.83,552.63,270.03,551.95,270.2z"
	/>
<path class="st0" d="M549.63,270.7c-0.11,0.01-0.23,0.02-0.35,0.03l-0.28,1.46c0.4-0.01,0.87-0.05,1.42-0.12
	c0.26-0.03,0.52-0.07,0.78-0.11v-1.57C550.57,270.54,550.03,270.65,549.63,270.7z"/>
<path class="st0" d="M548.13,272.17l0.19-1.43c-0.42-0.02-0.87-0.06-1.32-0.13C546.7,271.1,546.39,272,548.13,272.17z"/>
<path class="st0" d="M555.22,269.31l0.07,1.82c3.66-0.92,7.08-2.3,8.15-3.73c-0.12,0-0.25,0-0.37,0
	C561.73,267.45,558.35,268.43,555.22,269.31z"/>
<path class="st12" d="M481.28,134.62c-0.17-0.57-0.37-1.2-0.59-1.86C480.91,133.42,481.11,134.05,481.28,134.62z"/>
<path class="st12" d="M480.65,132.66c-0.04-0.12-0.09-0.25-0.13-0.38C480.57,132.41,480.61,132.53,480.65,132.66z"/>
<path class="st12" d="M475.68,123.51c0.11,0.09,0.22,0.2,0.33,0.3C475.9,123.7,475.79,123.6,475.68,123.51z"/>
<path class="st12" d="M481.41,135.07c-0.04-0.13-0.08-0.27-0.12-0.41C481.33,134.8,481.37,134.94,481.41,135.07z"/>
<path class="st12" d="M480.46,132.08c-0.04-0.12-0.09-0.24-0.13-0.36C480.37,131.85,480.41,131.97,480.46,132.08z"/>
<path class="st12" d="M489.72,135.11c0.05-0.01,0.1-0.02,0.15-0.02C489.82,135.09,489.77,135.1,489.72,135.11z"/>
<path class="st12" d="M480.03,130.91c-0.05-0.12-0.09-0.24-0.14-0.36C479.93,130.67,479.98,130.79,480.03,130.91z"/>
<path class="st12" d="M479.79,130.31c-0.05-0.12-0.1-0.24-0.15-0.36C479.7,130.07,479.75,130.19,479.79,130.31z"/>
<path class="st12" d="M479.55,129.72c-0.05-0.13-0.1-0.25-0.16-0.37C479.45,129.47,479.5,129.6,479.55,129.72z"/>
<path class="st12" d="M476.69,146.86c-0.31,0.32-0.61,0.65-0.91,0.99C476.08,147.51,476.38,147.18,476.69,146.86z"/>
<path class="st12" d="M480.25,131.5c-0.04-0.12-0.09-0.24-0.13-0.36C480.16,131.26,480.2,131.38,480.25,131.5z"/>
<path class="st12" d="M481.97,137.15c-0.05-0.22-0.24-0.98-0.56-2.06c0.04,0.14,0.08,0.27,0.11,0.4c0.09,0.32,0.17,0.61,0.23,0.85
	C481.87,136.74,481.94,137.03,481.97,137.15z"/>
<path class="st12" d="M482.4,181.7"/>
<path class="st12" d="M488.1,135.41c0.08-0.02,0.16-0.03,0.24-0.05C488.26,135.37,488.18,135.39,488.1,135.41z"/>
<path class="st12" d="M470.64,176.2c-0.1-0.07-0.2-0.14-0.29-0.21C470.44,176.06,470.54,176.13,470.64,176.2z"/>
<path class="st12" d="M478.29,179.94c0.01,0.02,0.03,0.04,0.04,0.05C478.31,179.97,478.3,179.95,478.29,179.94z"/>
<path class="st12" d="M477.77,180.05c0.1,0.04,0.2,0.08,0.31,0.12c-3.46-1.4-5.85-2.82-7.42-3.95
	C472.18,177.32,474.47,178.69,477.77,180.05z"/>
<path class="st12" d="M488.89,135.25c0.08-0.01,0.15-0.03,0.23-0.04C489.04,135.22,488.97,135.24,488.89,135.25z"/>
<path class="st12" d="M497.87,134.73c0.05,0,0.11,0.01,0.16,0.01C497.98,134.74,497.93,134.73,497.87,134.73z"/>
<path class="st12" d="M477,124.95c-0.13-0.18-0.26-0.35-0.4-0.51C476.73,124.6,476.86,124.77,477,124.95z"/>
<path class="st12" d="M492.72,134.75c0.05,0,0.11-0.01,0.16-0.01C492.83,134.74,492.78,134.75,492.72,134.75z"/>
<path class="st12" d="M496.45,134.66c0.03,0,0.06,0,0.09,0C496.51,134.66,496.48,134.66,496.45,134.66z"/>
<path class="st12" d="M497.03,134.68c0.01,0,0.02,0,0.03,0C497.05,134.68,497.04,134.68,497.03,134.68z"/>
<path class="st12" d="M477.42,125.55c-0.1-0.15-0.2-0.3-0.31-0.45C477.21,125.25,477.31,125.4,477.42,125.55z"/>
<path class="st12" d="M497.46,134.7c0.05,0,0.1,0.01,0.14,0.01C497.56,134.71,497.51,134.71,497.46,134.7z"/>
<path class="st12" d="M495.34,134.64c0.05,0,0.1,0,0.15,0C495.44,134.64,495.39,134.64,495.34,134.64z"/>
<path class="st12" d="M476.57,124.41c-0.14-0.17-0.29-0.33-0.44-0.48C476.28,124.08,476.43,124.24,476.57,124.41z"/>
<path class="st12" d="M494.77,134.65c0.04,0,0.08,0,0.12,0C494.85,134.65,494.81,134.65,494.77,134.65z"/>
<path class="st12" d="M475.53,123.38c-0.11-0.09-0.22-0.16-0.33-0.24C475.31,123.22,475.42,123.3,475.53,123.38z"/>
<path class="st12" d="M492.03,134.81c0.06-0.01,0.12-0.01,0.18-0.02C492.15,134.8,492.09,134.81,492.03,134.81z"/>
<path class="st12" d="M495.9,134.65c0.05,0,0.09,0,0.14,0C495.99,134.65,495.94,134.65,495.9,134.65z"/>
<path class="st12" d="M498.85,134.82c0.13,0.02,0.26,0.03,0.37,0.04C499.11,134.85,498.99,134.84,498.85,134.82z"/>
<path class="st12" d="M478.82,128.08c-0.15-0.32-0.31-0.64-0.48-0.95C478.51,127.44,478.67,127.76,478.82,128.08z"/>
<path class="st12" d="M499.27,134.87c0.07,0.01,0.13,0.02,0.19,0.03C499.4,134.89,499.34,134.88,499.27,134.87z"/>
<path class="st12" d="M479.05,128.56c-0.06-0.13-0.12-0.27-0.19-0.4C478.92,128.29,478.99,128.43,479.05,128.56z"/>
<path class="st12" d="M479.3,129.13c-0.06-0.13-0.11-0.26-0.17-0.38C479.19,128.88,479.25,129.01,479.3,129.13z"/>
<path class="st12" d="M499.49,134.9c0.32,0.05,0.53,0.08,0.61,0.1C500.02,134.98,499.81,134.95,499.49,134.9z"/>
<path class="st12" d="M477.85,126.25c-0.11-0.18-0.22-0.36-0.33-0.53C477.64,125.89,477.75,126.07,477.85,126.25z"/>
<path class="st12" d="M478.31,127.05c-0.13-0.24-0.26-0.47-0.39-0.7C478.05,126.58,478.18,126.82,478.31,127.05z"/>
<path class="st12" d="M498.25,134.76c0.05,0,0.1,0.01,0.15,0.01C498.36,134.77,498.3,134.77,498.25,134.76z"/>
<path class="st12" d="M491.33,134.89c0.05-0.01,0.1-0.01,0.15-0.02C491.43,134.87,491.38,134.88,491.33,134.89z"/>
<path class="st12" d="M498.59,134.79c0.05,0,0.1,0.01,0.15,0.02C498.7,134.8,498.65,134.8,498.59,134.79z"/>
<path class="st12" d="M513.54,119.16c0.01-0.02,0.02-0.05,0.03-0.07C513.56,119.11,513.55,119.13,513.54,119.16z"/>
<path class="st12" d="M513.34,145.32c-0.09,0.13-0.18,0.25-0.27,0.37C513.16,145.58,513.25,145.45,513.34,145.32z"/>
<path class="st12" d="M513.46,119.38c0.01-0.02,0.02-0.05,0.02-0.08C513.48,119.32,513.47,119.35,513.46,119.38z"/>
<path class="st12" d="M513.73,144.74c-0.09,0.14-0.18,0.28-0.27,0.42C513.55,145.03,513.64,144.88,513.73,144.74z"/>
<path class="st12" d="M493.44,134.7c0.03,0,0.06,0,0.09-0.01C493.5,134.7,493.47,134.7,493.44,134.7z"/>
<path class="st12" d="M482.85,136.89c0.09-0.03,0.18-0.06,0.27-0.1C483.03,136.83,482.94,136.86,482.85,136.89z"/>
<path class="st12" d="M513.4,119.61c0-0.03,0.01-0.06,0.02-0.08C513.41,119.55,513.41,119.58,513.4,119.61z"/>
<path class="st12" d="M512.59,146.31C512.59,146.31,512.59,146.31,512.59,146.31c0.13-0.15,0.25-0.31,0.38-0.47
	C512.84,146,512.72,146.16,512.59,146.31z"/>
<path class="st12" d="M470.02,175.74c0.09,0.07,0.19,0.15,0.3,0.23C470.21,175.89,470.11,175.82,470.02,175.74z"/>
<path class="st12" d="M514.18,122.19c-0.05-0.06-0.1-0.11-0.15-0.17C514.07,122.07,514.13,122.13,514.18,122.19z"/>
<path class="st12" d="M485.45,136.05c0.08-0.02,0.16-0.05,0.23-0.07C485.61,136.01,485.53,136.03,485.45,136.05z"/>
<path class="st12" d="M514.53,122.53c-0.1-0.09-0.19-0.17-0.27-0.26C514.34,122.36,514.43,122.45,514.53,122.53z"/>
<path class="st12" d="M513.36,119.85c0-0.03,0.01-0.05,0.01-0.08C513.37,119.8,513.36,119.82,513.36,119.85z"/>
<path class="st12" d="M513.63,118.95c0.01-0.02,0.02-0.04,0.03-0.06C513.64,118.91,513.64,118.93,513.63,118.95z"/>
<path class="st12" d="M513.94,121.91c-0.04-0.05-0.08-0.1-0.11-0.15C513.87,121.81,513.9,121.86,513.94,121.91z"/>
<path class="st12" d="M500.15,135.01c0,0-0.02,0-0.04-0.01C500.13,135.01,500.15,135.01,500.15,135.01z"/>
<path class="st12" d="M513.5,121.13c-0.02-0.05-0.03-0.09-0.05-0.14C513.47,121.04,513.48,121.09,513.5,121.13z"/>
<path class="st12" d="M513.76,121.65c-0.03-0.05-0.06-0.1-0.09-0.15C513.7,121.55,513.73,121.6,513.76,121.65z"/>
<path class="st12" d="M513.42,120.88c-0.01-0.04-0.02-0.09-0.03-0.13C513.4,120.8,513.41,120.84,513.42,120.88z"/>
<path class="st12" d="M513.61,121.39c-0.02-0.05-0.04-0.09-0.06-0.14C513.57,121.3,513.59,121.34,513.61,121.39z"/>
<path class="st12" d="M487.31,135.58c0.07-0.02,0.14-0.03,0.21-0.05C487.45,135.55,487.38,135.56,487.31,135.58z"/>
<path class="st12" d="M483.71,136.59c0.1-0.03,0.2-0.07,0.3-0.1C483.91,136.53,483.81,136.56,483.71,136.59z"/>
<path class="st12" d="M484.57,136.32c0.1-0.03,0.2-0.06,0.29-0.09C484.76,136.26,484.66,136.29,484.57,136.32z"/>
<path class="st12" d="M572.79,134.19c0.32,0.1,0.6,0.1,0.6,0.1S573.1,134.29,572.79,134.19z"/>
<path class="st12" d="M513.33,120.1c0-0.03,0-0.05,0-0.08C513.34,120.05,513.34,120.08,513.33,120.1z"/>
<path class="st12" d="M481.98,137.17c0,0.01,0.01,0.03,0.01,0.04C481.98,137.19,481.98,137.18,481.98,137.17z"/>
<path class="st12" d="M474.58,122.79c0.16,0.07,0.32,0.16,0.48,0.25C474.9,122.95,474.74,122.86,474.58,122.79z"/>
<path class="st12" d="M513.34,120.37c0-0.02,0-0.04,0-0.06C513.34,120.33,513.33,120.35,513.34,120.37z"/>
<path class="st13" d="M514.22,118.03c0,0-0.24,0.26-0.47,0.68c0.03,0.01,0.07,0.01,0.1,0.02L514.22,118.03z"/>
<polygon class="st14" points="499.48,134.9 499.48,134.9 499.48,134.9 "/>
<path class="st14" d="M513.37,119.77c0.01-0.05,0.02-0.11,0.03-0.16C513.39,119.66,513.38,119.71,513.37,119.77z"/>
<path class="st14" d="M513.34,120.03c0.01-0.06,0.01-0.12,0.02-0.18C513.35,119.91,513.34,119.97,513.34,120.03z"/>
<path class="st14" d="M513.42,119.53c0.01-0.05,0.03-0.1,0.04-0.15C513.45,119.43,513.43,119.48,513.42,119.53z"/>
<path class="st14" d="M513.33,120.31c0-0.07,0-0.14,0-0.2C513.33,120.17,513.33,120.24,513.33,120.31z"/>
<path class="st14" d="M513.49,119.3c0.02-0.05,0.04-0.1,0.05-0.14C513.52,119.2,513.5,119.25,513.49,119.3z"/>
<path class="st14" d="M513.74,118.71c-0.03,0.06-0.06,0.12-0.09,0.18C513.68,118.83,513.71,118.77,513.74,118.71z"/>
<path class="st14" d="M513.57,119.09c0.02-0.05,0.04-0.09,0.06-0.14C513.61,118.99,513.58,119.04,513.57,119.09z"/>
<path class="st14" d="M513.34,120.37c0.01,0.09,0.01,0.18,0.03,0.27l0,0C513.35,120.55,513.34,120.46,513.34,120.37z"/>
<polygon class="st15" points="499.48,134.9 499.48,134.9 499.48,134.9 "/>
<path class="st16" d="M512.5,146.42c0.04-0.04,0.07-0.08,0.1-0.11c0,0,0,0,0,0C512.56,146.35,512.53,146.38,512.5,146.42z"/>
<path class="st12" d="M491.12,206.26c0.88,0.43,1.69,0.8,2.38,1.09c-0.72-0.41-1.46-0.84-2.24-1.27
	C491.26,206.07,491.21,206.14,491.12,206.26z"/>
<path class="st17" d="M495.19,208.33c-0.39-0.34-0.94-0.68-1.69-0.99C494.08,207.68,494.64,208,495.19,208.33z"/>
<path class="st12" d="M478.26,180.25c0.11,0.04,0.22,0.09,0.33,0.13c0,0,0,0,0,0C478.48,180.33,478.37,180.29,478.26,180.25z"/>
<path class="st12" d="M482.61,181.77c-0.07-0.02-0.14-0.04-0.21-0.07c0,0,0,0,0,0C482.46,181.73,482.54,181.75,482.61,181.77z"/>
<path class="st18" d="M481.97,137.15c0,0,0,0.01,0,0.02C481.97,137.16,481.97,137.15,481.97,137.15z"/>
<path class="st18" d="M481.98,137.2c0,0.01,0,0.02,0,0.02S481.99,137.21,481.98,137.2z"/>
<path class="st18" d="M477.91,126.35c-0.02-0.03-0.04-0.07-0.06-0.1C477.87,126.29,477.89,126.32,477.91,126.35z"/>
<path class="st18" d="M475.2,123.15c-0.05-0.03-0.1-0.07-0.14-0.1C475.11,123.08,475.15,123.11,475.2,123.15z"/>
<path class="st18" d="M476.6,124.44c-0.01-0.01-0.02-0.02-0.02-0.03C476.58,124.42,476.59,124.43,476.6,124.44z"/>
<path class="st18" d="M477.11,125.1c-0.04-0.05-0.07-0.1-0.11-0.15C477.03,125,477.07,125.05,477.11,125.1z"/>
<path class="st18" d="M476.13,123.93c-0.04-0.04-0.08-0.08-0.12-0.12C476.05,123.85,476.09,123.88,476.13,123.93z"/>
<path class="st18" d="M477.52,125.72c-0.04-0.06-0.07-0.11-0.11-0.17C477.45,125.61,477.49,125.66,477.52,125.72z"/>
<path class="st18" d="M475.53,123.38c0.05,0.04,0.1,0.08,0.15,0.12C475.63,123.46,475.58,123.42,475.53,123.38z"/>
<polygon class="st18" points="478.31,127.05 478.31,127.06 478.31,127.06 "/>
<polygon class="st19" points="499.48,134.9 499.48,134.9 499.48,134.9 "/>
<path class="st19" d="M481.99,137.22c0.29-0.11,0.57-0.22,0.86-0.32C482.56,137,482.28,137.11,481.99,137.22z"/>
<path class="st19" d="M489.12,135.21c0.2-0.04,0.4-0.07,0.6-0.1C489.52,135.14,489.32,135.18,489.12,135.21z"/>
<path class="st19" d="M497.61,134.71c0.09,0.01,0.18,0.01,0.27,0.02C497.79,134.72,497.7,134.72,497.61,134.71z"/>
<path class="st19" d="M498.03,134.74c0.08,0.01,0.15,0.01,0.22,0.02C498.18,134.75,498.11,134.75,498.03,134.74z"/>
<path class="st19" d="M497.06,134.68c0.14,0.01,0.28,0.01,0.41,0.02C497.33,134.69,497.2,134.69,497.06,134.68z"/>
<path class="st19" d="M498.41,134.77c0.07,0.01,0.13,0.01,0.19,0.02C498.53,134.79,498.47,134.78,498.41,134.77z"/>
<path class="st19" d="M496.54,134.66c0.17,0,0.33,0.01,0.48,0.02C496.87,134.67,496.71,134.66,496.54,134.66z"/>
<path class="st19" d="M496.03,134.65c0.14,0,0.28,0.01,0.42,0.01C496.32,134.65,496.18,134.65,496.03,134.65z"/>
<path class="st19" d="M495.49,134.64c0.14,0,0.27,0,0.41,0C495.76,134.64,495.63,134.64,495.49,134.64z"/>
<polygon class="st19" points="499.49,134.9 499.48,134.9 499.48,134.9 "/>
<polygon class="st19" points="499.48,134.9 499.48,134.9 499.48,134.9 499.48,134.9 "/>
<path class="st19" d="M483.12,136.8c0.2-0.07,0.39-0.14,0.59-0.2C483.51,136.66,483.32,136.73,483.12,136.8z"/>
<path class="st19" d="M500.1,135C500.11,135,500.11,135,500.1,135C500.11,135,500.11,135,500.1,135z"/>
<path class="st19" d="M498.75,134.81c0.04,0,0.07,0.01,0.11,0.01C498.82,134.82,498.78,134.81,498.75,134.81z"/>
<path class="st19" d="M499.23,134.86c0.02,0,0.03,0,0.05,0.01C499.26,134.87,499.24,134.87,499.23,134.86z"/>
<path class="st19" d="M499.48,134.9c-0.01,0-0.01,0-0.02,0C499.47,134.9,499.48,134.9,499.48,134.9L499.48,134.9z"/>
<path class="st19" d="M484.86,136.23c0.2-0.06,0.4-0.12,0.59-0.17C485.26,136.11,485.06,136.17,484.86,136.23z"/>
<path class="st19" d="M488.34,135.36c0.19-0.04,0.37-0.07,0.55-0.11C488.71,135.29,488.53,135.32,488.34,135.36z"/>
<path class="st19" d="M484.01,136.49c0.19-0.06,0.37-0.12,0.55-0.18C484.38,136.37,484.2,136.43,484.01,136.49z"/>
<path class="st19" d="M494.89,134.65c0.15,0,0.3,0,0.45,0C495.19,134.64,495.04,134.65,494.89,134.65z"/>
<path class="st19" d="M487.52,135.53c0.2-0.04,0.39-0.09,0.58-0.13C487.91,135.45,487.71,135.49,487.52,135.53z"/>
<path class="st19" d="M491.48,134.87c0.19-0.02,0.37-0.04,0.55-0.06C491.85,134.83,491.67,134.85,491.48,134.87z"/>
<path class="st19" d="M492.89,134.74c0.19-0.01,0.37-0.02,0.55-0.04C493.26,134.71,493.08,134.73,492.89,134.74z"/>
<path class="st19" d="M493.53,134.7c0.43-0.02,0.84-0.04,1.24-0.05C494.37,134.66,493.96,134.67,493.53,134.7z"/>
<path class="st19" d="M485.68,135.99c0.55-0.15,1.09-0.29,1.62-0.41C486.78,135.7,486.23,135.84,485.68,135.99z"/>
<path class="st19" d="M492.21,134.8c0.17-0.02,0.34-0.03,0.51-0.04C492.56,134.76,492.39,134.78,492.21,134.8z"/>
<path class="st19" d="M489.87,135.09c0.5-0.08,0.99-0.14,1.47-0.2C490.86,134.94,490.37,135.01,489.87,135.09z"/>
<path class="st19" d="M500.15,135.01c0,0-0.24,0.03-0.68,0.11C499.7,135.08,499.92,135.04,500.15,135.01z"/>
<polygon class="st19" points="499.48,134.9 499.48,134.9 499.48,134.9 499.48,134.9 "/>
<polygon class="st19" points="499.48,134.9 499.48,134.9 499.48,134.9 499.48,134.9 "/>
<path class="st15" d="M497.96,135.33l1.52-0.43c0,0-0.01,0-0.01,0C499.4,134.92,498.85,135.02,497.96,135.33z"/>
<polygon class="st15" points="499.48,134.9 499.48,134.9 499.48,134.9 499.48,134.9 "/>
<polygon class="st15" points="499.48,134.9 499.48,134.9 499.48,134.9 "/>
<polygon class="st15" points="499.48,134.9 499.47,134.9 499.48,134.9 499.48,134.9 "/>
<path class="st16" d="M513.67,121.5c-0.02-0.04-0.04-0.08-0.06-0.11C513.63,121.43,513.65,121.46,513.67,121.5z"/>
<path class="st16" d="M513.37,120.64c0.01,0.04,0.02,0.08,0.02,0.11C513.38,120.71,513.37,120.68,513.37,120.64L513.37,120.64z"/>
<path class="st16" d="M513.83,121.76c-0.02-0.04-0.05-0.07-0.07-0.11C513.78,121.69,513.81,121.72,513.83,121.76z"/>
<path class="st16" d="M513.55,121.25c-0.02-0.04-0.03-0.08-0.05-0.11C513.51,121.17,513.53,121.21,513.55,121.25z"/>
<path class="st16" d="M514.03,122.02c-0.03-0.03-0.05-0.07-0.08-0.1C513.97,121.95,514,121.98,514.03,122.02z"/>
<path class="st16" d="M513.46,121c-0.01-0.04-0.03-0.08-0.04-0.11C513.43,120.92,513.44,120.96,513.46,121z"/>
<path class="st16" d="M514.26,122.28c-0.03-0.03-0.05-0.06-0.08-0.09C514.2,122.22,514.23,122.25,514.26,122.28z"/>
<path class="st16" d="M513.45,145.16c-0.04,0.05-0.07,0.11-0.11,0.16C513.38,145.27,513.42,145.22,513.45,145.16z"/>
<path class="st16" d="M513.07,145.7c-0.03,0.05-0.07,0.1-0.1,0.14C513,145.79,513.04,145.74,513.07,145.7z"/>
<path class="st16" d="M513.81,144.62c-0.03,0.04-0.05,0.08-0.08,0.13C513.75,144.7,513.78,144.66,513.81,144.62z"/>
<path class="st16" d="M496.78,135.61c0.8-0.16,1.62-0.31,2.45-0.45c0.09-0.02,0.17-0.03,0.25-0.05
	C498.97,135.21,497.74,135.38,496.78,135.61z"/>
<path class="st16" d="M499.23,135.16c0.31-0.05,0.61-0.11,0.92-0.15c-0.23,0.04-0.45,0.07-0.68,0.11
	C499.4,135.13,499.32,135.15,499.23,135.16z"/>
<path class="st20" d="M496.78,135.61c-0.22,0.02-0.43,0.04-0.62,0.07c-0.05,0.01-0.1,0.03-0.15,0.04
	C496.35,135.66,496.62,135.62,496.78,135.61z"/>
<path class="st0" d="M518.84,121.97c-0.58,0.78-1.17,1.71-2.22,1.65c-0.55-0.03-1.22-0.34-2.08-1.09c-0.1-0.09-0.19-0.17-0.27-0.26
	c-0.03-0.03-0.05-0.06-0.08-0.09c-0.05-0.06-0.1-0.11-0.15-0.17c-0.03-0.03-0.05-0.07-0.08-0.1c-0.04-0.05-0.08-0.1-0.11-0.15
	c-0.02-0.04-0.05-0.07-0.07-0.11c-0.03-0.05-0.06-0.1-0.09-0.15c-0.02-0.04-0.04-0.08-0.06-0.11c-0.02-0.05-0.04-0.09-0.06-0.14
	c-0.02-0.04-0.03-0.08-0.05-0.11c-0.02-0.05-0.03-0.09-0.05-0.14c-0.01-0.04-0.03-0.08-0.04-0.11c-0.01-0.04-0.02-0.09-0.03-0.13
	c-0.01-0.04-0.02-0.08-0.02-0.11l-5.62,2.77c0,0,0.98,6.96-7.6,11.6c-0.31,0.05-0.62,0.1-0.92,0.15c-0.83,0.14-1.65,0.29-2.45,0.45
	c-0.16,0.01-0.43,0.05-0.77,0.11c-0.57,0.1-1.35,0.28-2.17,0.54c-6.48,1.55-11.44,3.56-13.41,4.42c-0.13,0.23-0.35,0.56-0.35,0.56
	c-1.67,1.92-3.09,4.19-4.3,6.6c-0.43,0.85-0.82,1.73-1.2,2.62c-1.78,4.97-5.04,21.11-5.18,28.21c0,0,4.85,3.15,8.03,3.76
	c0.56,0.48,4.73,1.33,4.73,1.33c0.07,0.02,0.14,0.04,0.21,0.05c0.12,0.03,0.23,0.05,0.35,0.08c0.23,0.05,0.46,0.1,0.7,0.15
	c0.13,0.03,0.27,0.05,0.4,0.08c0.23,0.05,0.46,0.1,0.7,0.14c0.15,0.03,0.3,0.06,0.45,0.09c0.23,0.04,0.46,0.09,0.69,0.13
	c0.17,0.03,0.34,0.06,0.51,0.09c0.23,0.04,0.45,0.08,0.68,0.12c0.19,0.03,0.38,0.06,0.57,0.09c0.22,0.03,0.44,0.07,0.67,0.1
	c0.2,0.03,0.42,0.06,0.62,0.09c0.22,0.03,0.44,0.06,0.66,0.09c0.23,0.03,0.46,0.06,0.69,0.09c0.21,0.03,0.42,0.05,0.64,0.08
	c0.25,0.03,0.52,0.06,0.78,0.08c0.2,0.02,0.4,0.04,0.6,0.07c0.29,0.03,0.59,0.05,0.88,0.08c0.18,0.02,0.36,0.04,0.55,0.05
	c0.34,0.03,0.68,0.06,1.03,0.08c0.15,0.01,0.3,0.02,0.46,0.04c0.5,0.04,1.01,0.07,1.53,0.1l2.3-0.16
	c-2.08-15.63,6.88-31.62,8.12-32.78c1.04-0.97,4.46-5.06,5.55-6.37c0.03-0.04,0.06-0.07,0.09-0.11c0.13-0.15,0.25-0.31,0.38-0.47
	c0.03-0.05,0.07-0.09,0.1-0.14c0.09-0.12,0.18-0.25,0.27-0.37c0.04-0.05,0.07-0.11,0.11-0.16c0.09-0.14,0.19-0.28,0.27-0.42
	c0.03-0.04,0.05-0.08,0.08-0.13c3.66-5.91,5.84-16.91,5.84-16.91C519.56,126.91,518.84,121.97,518.84,121.97z"/>
<path class="st20" d="M470.66,176.22c-0.01,0-0.02-0.01-0.02-0.02C470.64,176.21,470.65,176.22,470.66,176.22z"/>
<path class="st20" d="M470.35,175.99c-0.01-0.01-0.02-0.02-0.03-0.02C470.32,175.98,470.34,175.98,470.35,175.99z"/>
<path class="st21" d="M538.87,270.39c-0.08-2.91-7.77-14.98-9.24-17.48C531.05,255.33,538.3,266.98,538.87,270.39z"/>
<path class="st22" d="M480.33,131.72c-0.03-0.07-0.05-0.15-0.08-0.22C480.27,131.58,480.3,131.65,480.33,131.72z"/>
<path class="st22" d="M480.52,132.28c-0.02-0.07-0.04-0.13-0.07-0.19C480.48,132.15,480.5,132.21,480.52,132.28z"/>
<path class="st22" d="M480.11,131.14c-0.03-0.08-0.06-0.15-0.09-0.23C480.06,130.99,480.08,131.07,480.11,131.14z"/>
<path class="st22" d="M480.68,132.75c-0.01-0.03-0.02-0.06-0.03-0.09C480.66,132.69,480.67,132.72,480.68,132.75z"/>
<path class="st22" d="M478.31,127.06c0.01,0.02,0.02,0.05,0.04,0.07C478.33,127.11,478.32,127.08,478.31,127.06L478.31,127.06z"/>
<path class="st22" d="M481.29,134.66c0-0.01-0.01-0.03-0.01-0.04C481.28,134.63,481.29,134.64,481.29,134.66z"/>
<path class="st22" d="M479.13,128.75c-0.03-0.06-0.06-0.13-0.09-0.19C479.08,128.62,479.11,128.69,479.13,128.75z"/>
<path class="st22" d="M479.4,129.35c-0.03-0.07-0.06-0.14-0.09-0.21C479.33,129.21,479.37,129.28,479.4,129.35z"/>
<path class="st22" d="M479.89,130.55c-0.03-0.08-0.06-0.16-0.09-0.23C479.82,130.39,479.86,130.47,479.89,130.55z"/>
<path class="st22" d="M479.65,129.95c-0.03-0.08-0.06-0.15-0.1-0.23C479.58,129.8,479.62,129.87,479.65,129.95z"/>
<path class="st22" d="M478.86,128.16c-0.01-0.03-0.03-0.05-0.04-0.08C478.84,128.11,478.85,128.13,478.86,128.16z"/>
<path class="st22" d="M481.42,135.09c0-0.01,0-0.01-0.01-0.02C481.41,135.08,481.41,135.08,481.42,135.09z"/>
<path class="st22" d="M478.61,180.38c0,0-0.01,0-0.02-0.01c0,0,0,0,0,0C478.6,180.38,478.61,180.38,478.61,180.38
	C478.61,180.39,478.61,180.38,478.61,180.38z"/>
<polygon class="st22" points="482.4,181.71 482.4,181.7 482.4,181.71 "/>
<path class="st22" d="M478.59,180.38c0.14,0.21,0.31,0.45,0.46,0.67c-0.13-0.2-0.28-0.43-0.44-0.66
	C478.61,180.38,478.6,180.38,478.59,180.38z"/>
<g>
	<path class="st23" d="M495.39,63.27c0.31-0.13,0.6-0.26,0.88-0.39c-0.36-0.01-0.74-0.04-1.12-0.07
		C495.23,62.96,495.31,63.11,495.39,63.27z"/>
</g>
<path class="st24" d="M471.12,124.42"/>
<g>
	<g>
		<g>
			<path class="st0" d="M474.58,122.79c0.02,0.01,0.03,0.02,0.05,0.02c-0.01-0.08-0.02-0.16-0.02-0.24
				C474.6,122.65,474.59,122.72,474.58,122.79z"/>
		</g>
		<g>
			<path class="st0" d="M481.99,137.22c0.12-0.05,0.23-0.09,0.35-0.13l-0.35,0.11C481.99,137.21,481.99,137.22,481.99,137.22z"/>
		</g>
		<g>
			<g>
				<path class="st0" d="M505.18,120.66c-9.57-1.57-18.59-0.59-24.32,0.46c-3.89,0.71-6.25,1.46-6.25,1.46
					c0.01,0.08,0.02,0.16,0.02,0.24c0.15,0.07,0.29,0.14,0.43,0.23c0.05,0.03,0.1,0.06,0.14,0.1c0.11,0.07,0.22,0.15,0.33,0.24
					c0.05,0.04,0.1,0.08,0.15,0.12c0.11,0.09,0.22,0.2,0.33,0.3c0.04,0.04,0.08,0.08,0.12,0.12c0.15,0.15,0.29,0.31,0.44,0.48
					c0.01,0.01,0.02,0.02,0.02,0.03c0.14,0.16,0.27,0.33,0.4,0.51c0.04,0.05,0.07,0.1,0.11,0.15c0.1,0.15,0.21,0.29,0.31,0.45
					c0.04,0.06,0.07,0.11,0.11,0.17c0.11,0.17,0.22,0.35,0.33,0.53c0.02,0.03,0.04,0.07,0.06,0.1c0.13,0.23,0.26,0.46,0.39,0.7
					c0,0,0,0,0,0c0.01,0.02,0.02,0.05,0.04,0.07c0.16,0.31,0.32,0.63,0.48,0.95c0.01,0.03,0.03,0.05,0.04,0.08
					c0.06,0.13,0.12,0.27,0.19,0.4c0.03,0.06,0.06,0.13,0.09,0.19c0.06,0.13,0.11,0.26,0.17,0.38c0.03,0.07,0.06,0.14,0.09,0.21
					c0.05,0.12,0.1,0.25,0.16,0.37c0.03,0.08,0.06,0.15,0.1,0.23c0.05,0.12,0.1,0.24,0.15,0.36c0.03,0.08,0.06,0.16,0.09,0.23
					c0.05,0.12,0.1,0.24,0.14,0.36c0.03,0.08,0.06,0.15,0.09,0.23c0.04,0.12,0.09,0.24,0.13,0.36c0.03,0.07,0.05,0.15,0.08,0.22
					c0.04,0.12,0.09,0.24,0.13,0.36c0.02,0.07,0.04,0.13,0.07,0.19c0.04,0.13,0.09,0.25,0.13,0.38c0.01,0.03,0.02,0.06,0.03,0.09
					c0.23,0.67,0.42,1.3,0.59,1.86c0,0.01,0.01,0.03,0.01,0.04c0.04,0.14,0.08,0.28,0.12,0.41c0,0.01,0,0.01,0.01,0.02
					c0.31,1.08,0.5,1.84,0.56,2.06c0,0.01,0,0.01,0,0.02c0,0.02,0.32,1.82-1.48,3.28c0.01,0.01,0.02,0.01,0.02,0.01
					c0.02,0-0.02,0.1-0.1,0.23c1.97-0.86,6.93-2.87,13.41-4.42c0.83-0.26,1.6-0.44,2.17-0.54c0.05-0.01,0.1,0,0.14-0.01
					c0.2-0.03,0.4-0.08,0.63-0.1c1.05-0.2,2.19-0.4,2.69-0.49c0.44-0.08,0.68-0.11,0.68-0.11c8.58-4.64,7.6-11.6,7.6-11.6l5.62-2.77
					c-0.02-0.09-0.02-0.18-0.03-0.27c0-0.02,0-0.04,0-0.06c0-0.07,0-0.14,0-0.2c0-0.03,0-0.05,0-0.08c0.01-0.06,0.01-0.12,0.02-0.18
					c0-0.03,0.01-0.05,0.01-0.08c0.01-0.05,0.02-0.11,0.03-0.16c0-0.03,0.01-0.06,0.02-0.08c0.01-0.05,0.03-0.1,0.04-0.15
					c0.01-0.02,0.02-0.05,0.02-0.08c0.02-0.05,0.04-0.1,0.05-0.14c0.01-0.02,0.02-0.05,0.03-0.07c0.02-0.05,0.04-0.09,0.06-0.14
					c0.01-0.02,0.02-0.04,0.03-0.06c0.03-0.06,0.06-0.12,0.09-0.18C511.72,118.38,505.18,120.66,505.18,120.66z M499.88,134.96
					c0.1,0.02,0.18,0.03,0.22,0.04C500.06,134.99,499.98,134.98,499.88,134.96z M499.71,134.93c0.02,0,0.04,0.01,0.07,0.01
					C499.75,134.94,499.73,134.94,499.71,134.93z"/>
			</g>
		</g>
	</g>
</g>
<path class="st25" d="M521.96,117.76l1.33-1.79c-2.45-1.66-4.25-3.67-5.27-4.99l-0.71,1.32
	C517.73,113.88,518.9,116.51,521.96,117.76z"/>
<path class="st7" d="M517.3,112.31l-1.9,3.53l-1.18,2.19l-0.38,0.7c-0.03-0.01-0.06-0.01-0.1-0.02c-0.03,0.06-0.06,0.12-0.09,0.18
	c-0.01,0.02-0.02,0.04-0.03,0.06c-0.02,0.05-0.04,0.09-0.06,0.14c-0.01,0.02-0.02,0.05-0.03,0.07c-0.02,0.05-0.03,0.09-0.05,0.14
	c-0.01,0.03-0.02,0.05-0.02,0.08c-0.02,0.05-0.03,0.1-0.04,0.15c-0.01,0.03-0.01,0.05-0.02,0.08c-0.01,0.05-0.02,0.11-0.03,0.16
	c0,0.03-0.01,0.05-0.01,0.08c-0.01,0.06-0.01,0.12-0.02,0.18c0,0.03,0,0.05,0,0.08c0,0.07,0,0.13,0,0.2c0,0.02,0,0.04,0,0.06
	c0.01,0.09,0.01,0.18,0.03,0.27c0.01,0.04,0.02,0.08,0.02,0.11c0.01,0.04,0.02,0.09,0.03,0.13c0.01,0.04,0.02,0.08,0.04,0.11
	c0.01,0.05,0.03,0.09,0.05,0.14c0.01,0.04,0.03,0.08,0.05,0.11c0.02,0.05,0.04,0.09,0.06,0.14c0.02,0.04,0.04,0.08,0.06,0.11
	c0.03,0.05,0.06,0.1,0.09,0.15c0.02,0.04,0.05,0.07,0.07,0.11c0.03,0.05,0.07,0.1,0.11,0.15c0.03,0.03,0.05,0.07,0.08,0.1
	c0.05,0.06,0.1,0.11,0.15,0.17c0.03,0.03,0.05,0.06,0.08,0.09c0.08,0.09,0.17,0.17,0.27,0.26c2.5,2.18,3.42,0.63,4.3-0.56l1.51-2.03
	l1.62-2.18C518.9,116.51,517.73,113.88,517.3,112.31z"/>
<path class="st25" d="M533.18,100.65c0,0,3.49,5.94,9.98,8.09c0.43-0.67,0.82-1.34,1.18-2C542.9,106.34,536.13,104.34,533.18,100.65
	z"/>
<path class="st26" d="M511.84,102.13c0.37,1.31,1.15,2.89,1.96,4.23c2.61,0.48,1.95-1.42,1.02-3.31c-0.16-0.33-0.23-0.67-0.25-1.02
	c-0.25,0.05-0.54-0.23-0.83-0.2C513.38,101.87,512.71,102.19,511.84,102.13z"/>
<path class="st26" d="M519.03,74.39c0.01-0.41,0-1.46,0-2.16c-0.55-0.03-1.04-0.06-1.46-0.09c-1.11-0.08-1.75-0.16-1.75-0.16
	c-10.39,7.12-12.72,10.3-12.72,10.3c0.11,0.22,3.76,7.39,4.49,8.71c3.46-1.06,5.44,1.17,6.18,2.38c0.94,1.53,1.51,2.25,2.49,4.88
	c0.09-0.05,0.49-0.46,0.76-1.01c0.09-0.17,0.16-0.36,0.21-0.55c0.21-0.84-1.01-3.7-1.56-7.73c-0.55-4.03-0.11-4.19,0.62-6.04
	C517,81.09,519.02,75.03,519.03,74.39z"/>
<path class="st7" d="M516.47,98.87c-0.08-0.21-0.15-0.42-0.22-0.61c-0.98-2.62-1.47-3.4-2.49-4.88c-2.17-3.13-4.68-2.92-6.18-2.38
	c-0.28,0.1-2.66,1.23-2.51,5.34c0.05,1.43,0.73,3.01,1.86,3.89c0.94,0.74,2.13,1.24,3.27,1.56c1.8,0.5,4.11,0.67,5.86-0.14
	c0.52-0.24,0.82-0.65,0.8-1.24C516.84,99.9,516.65,99.36,516.47,98.87z"/>
<path class="st8" d="M515.48,99.29c-0.8-2.31-2.33-5-5-5.35c-0.37-0.05-0.89-0.09-1.25,0.04c-0.17,0.06-1.76,0.78-1.67,3.27
	c0.06,1.65,1.47,2.77,2.87,3.37c0.45,0.2,0.92,0.37,1.4,0.52c0.78,0.24,1.66,0.34,2.46,0.19c0.38-0.07,0.84-0.18,1.09-0.5
	C515.73,100.37,515.66,99.81,515.48,99.29z"/>
<path class="st7" d="M509.71,97.14c0,0,2.16-0.29,2.65,0.44c0.49,0.73-0.03,0.91-0.33,0.98c-0.3,0.07-0.59,0.42,0.32,1.04
	c0.91,0.62,2.41,0.85,2.44,0.32c0.03-0.52-0.69-0.63-0.97-1.19c-0.28-0.56-0.21-0.73-0.2-1.08c0.02-0.35-1.12-1.3-1.9-1.38
	C510.95,96.19,509.71,97.14,509.71,97.14z"/>
<path class="st12" d="M535.32,74.28"/>
<line class="st12" x1="535.32" y1="74.28" x2="535.2" y2="74.22"/>
<path class="st7" d="M552.11,91.32c-0.83-3.57-4.65-2.92-4.65-2.92c-0.28-9.1-3.64-18.79-4.09-20.04c0.13-0.12,0.23-0.24,0.31-0.33
	l-0.41,0.02l-1.18-4.22c0,0-2.5,1.75-8.08,4.64l-2.38,0.11l-0.31,1.25c-1.47,0.73-3.1,1.5-4.9,2.33c-2.91,0.2-5.51,0.17-7.41,0.09
	c0,0.7,0.01,1.74,0,2.16c0,0.32-0.51,1.99-1.1,3.81c-0.75,1.33-1.24,2.83-1.53,4.44c-0.04,0.1-0.08,0.2-0.11,0.29
	c-0.73,1.84-1.17,2.01-0.62,6.04c0.55,4.03,1.77,6.89,1.56,7.73c-0.2,0.8-0.85,1.51-0.96,1.56c0,0,0,0,0,0
	c0.07,0.19,0.15,0.39,0.22,0.61c0.92,2.65-0.13,2.8-1.9,3.16c0.02,0.35,0.09,0.69,0.25,1.02c0.93,1.89,1.59,3.79-1.02,3.31
	c1.49,2.46,3.2,4.52,3.2,4.52l-0.04,0.07c0.99,1.28,2.73,3.22,5.1,4.83l0-0.01c0,0,0.03,0.02,0.09,0.07
	c0.86,0.57,1.79,1.1,2.81,1.53c1.33,0.54,3.04,0.98,4.97,0.91c0.54,0.01,1.12-0.06,1.74-0.2c0.01,0,0.01,0,0.01,0
	c0.1-0.02,0.2-0.05,0.31-0.07c1.1-0.26,2.24-0.7,3.4-1.4c0.42-0.25,0.8-0.54,1.17-0.84c2.81-1.93,4.96-4.45,6.6-7.02
	c-6.49-2.15-9.98-8.09-9.98-8.09c2.96,3.7,9.73,5.7,11.16,6.08c2.87-5.32,3.68-10.3,3.68-10.3S552.94,94.88,552.11,91.32z"/>
<path class="st27" d="M543.62,61.87c4.13-2.06,3.6-1.42,10.11-3.84c-10.13,2.77-14.95,4.56-16.09,5.08
	c-0.05,0.02-0.07,0.03-0.07,0.03c-0.12-0.28-0.26-0.54-0.4-0.8c-1.92,0.6-5.79,1.86-6.19,2.41
	C530.44,65.48,538.02,64.66,543.62,61.87z"/>
<path class="st5" d="M543.62,61.87c4.13-2.06,3.6-1.42,10.11-3.84c-10.13,2.77-14.95,4.56-16.09,5.08
	c-0.05,0.02-0.07,0.03-0.07,0.03c-0.12-0.28-0.26-0.54-0.4-0.8c-1.92,0.6-5.79,1.86-6.19,2.41
	C530.44,65.48,538.02,64.66,543.62,61.87z"/>
<path class="st0" d="M561.87,56.9c-0.67-0.12-1.52-0.13-2.5-0.03c-1.5,0.01-2.52,0.2-3.64,0.64c-0.64,0.15-1.31,0.32-2,0.51
	c-6.52,2.42-5.98,1.79-10.11,3.84c-5.6,2.79-13.17,3.61-12.63,2.87c0.4-0.55,4.27-1.81,6.19-2.41c-3.23-5.88-12.86-8.81-20.99-7.45
	c-2.54,0.42-4.9,1.62-7,3.18c-1.04,0.77-2.01,1.62-2.92,2.52c-3.4,3.38-5.76,7.35-6.54,9.33c-0.14,0.35-0.21,0.77-0.22,1.24
	c-0.02,0.57,0.05,1.21,0.18,1.89c0.38,2.08,1.32,4.57,2.23,6.66c0.78,1.82,1.55,3.34,1.9,4.03l0,0c0,0,1.83-3.02,9.61-8.77
	c1.05-0.78,2.21-1.6,3.49-2.48c0,0,12.95,1.66,23.5-2.32c5.32-2.01,14.69-13.3,21.59-13.19L561.87,56.9z"/>
<g>
	<path class="st28" d="M545.09,83.72c0.11,1.55-0.57,2.86-1.51,2.93c-0.94,0.07-1.8-1.14-1.91-2.69c-0.11-1.55,0.57-2.86,1.51-2.93
		C544.13,80.97,544.98,82.17,545.09,83.72z"/>
	<path class="st28" d="M538.38,85.19c0.13,1.84-0.68,3.39-1.79,3.47c-1.12,0.08-2.13-1.35-2.26-3.19c-0.13-1.84,0.68-3.39,1.79-3.47
		C537.24,81.93,538.25,83.36,538.38,85.19z"/>
	<path class="st17" d="M543.81,84.3c0.05,0.73-0.27,1.34-0.71,1.37c-0.44,0.03-0.84-0.53-0.89-1.26c-0.05-0.73,0.27-1.34,0.71-1.37
		C543.36,83.02,543.76,83.58,543.81,84.3z"/>
	<path class="st17" d="M536.68,85.6c0.06,0.87-0.32,1.61-0.85,1.65c-0.53,0.04-1.01-0.64-1.07-1.51c-0.06-0.87,0.32-1.61,0.85-1.65
		C536.14,84.05,536.62,84.73,536.68,85.6z"/>
</g>
<path class="st29" d="M534.66,152.38c-0.04,0.06-0.09,0.12-0.14,0.17c0,0,0,0.01,0.01,0.02
	C534.58,152.51,534.62,152.44,534.66,152.38C534.66,152.39,534.66,152.39,534.66,152.38z"/>
<path class="st12" d="M534.54,152.57c0.05-0.07,0.09-0.13,0.12-0.18c0,0,0,0,0-0.01c-0.04,0.06-0.09,0.12-0.14,0.17
	C534.52,152.55,534.52,152.56,534.54,152.57z"/>
<path class="st7" d="M559.29,145.11c-0.37-0.58-0.73-1.17-1.07-1.77c-4.15,1.46-17.33,5.85-20.8,9.01
	c-0.78,0.71-1.43,0.84-1.91,0.76c-0.44-0.07-0.74-0.31-0.89-0.45c-0.03,0.05-0.07,0.09-0.1,0.14c-0.59,0.84-1.39,1.85-2.46,3.08
	c-1.11,1.27-2.08,2.24-2.92,2.96c-0.07,0.06-0.14,0.12-0.21,0.18c0.34,0.13,1.24,0.52,2.4,1.47c0.18,0.14,0.36,0.3,0.55,0.47
	c2.41,2.18,3.38,1.74,4.79,0.56c1.41-1.17,9.25-3.85,19.81-12.69c1.21-1.02,2.24-1.96,3.57-2.6
	C559.78,145.87,559.53,145.49,559.29,145.11z"/>
<path class="st12" d="M565.47,149.72c-0.02,0.01-0.05,0.02-0.07,0.03C565.42,149.74,565.45,149.73,565.47,149.72z"/>
<path class="st12" d="M567.3,149.54c0.16,0.29,0.37,0.48,0.37,0.48S567.46,149.82,567.3,149.54z"/>
<path class="st7" d="M565.43,148.8c0,0,0.34,0.76,0.04,0.92l2.2,0.29c0,0-0.21-0.19-0.37-0.48c-0.28-0.48-0.45-1.24,0.68-1.78
	c-1.26-0.81-3.03-1.85-3.23-1.95C564.73,146.49,564.81,147.64,565.43,148.8z"/>
<path class="st30" d="M567.3,149.54c-0.27-0.47-0.42-1.2,0.68-1.78C566.84,148.3,567.02,149.05,567.3,149.54z"/>
<path class="st7" d="M569.78,149.58c0.14-0.49-0.58-1.03-1.79-1.82c-1.1,0.57-0.95,1.3-0.68,1.78c0.17,0.28,0.37,0.48,0.37,0.48
	l-2.2-0.29c0,0-0.55,0.54-1.32,1.28c-0.77,0.75-0.28,1.51-0.28,1.51s-1.26-0.38-1.81,0.19c-0.56,0.57,0.08,1.16,0.08,1.16
	s-1.67-0.6-2.29-0.04c-0.35,0.32-0.45,0.8-0.47,1.17c0.4,0.14,0.79,0.25,1.13,0.29c2.38,0.34,1.18-1.06,2.16-1.09
	c0.98-0.03,1.61-0.12,2.03-1.13c0.42-1.01,0.69-0.53,1.8-0.82c1.11-0.29,0.93-1.24,1.06-1.69
	C567.68,150.1,569.49,150.61,569.78,149.58z"/>
<path class="st6" d="M562.14,153.85c0,0-0.64-0.59-0.08-1.16c0.56-0.57,1.81-0.19,1.81-0.19s-0.5-0.76,0.28-1.51
	c0.77-0.75,1.32-1.28,1.32-1.28c-0.02,0.02-0.04,0.02-0.07,0.03c-0.75,0.25-2.42-1.21-2.72-1.74c0.01,0.04,0.03,0.08,0.04,0.13
	c0.05,0.13,0.14,0.27,0.25,0.41c0.55,0.67,1.7,1.39,1.7,1.39c-0.02-0.01-0.04-0.02-0.06-0.03c-0.42-0.22-3.22-1.67-3.81-0.94
	c-0.65,0.79-0.1,1.52-0.1,1.52c-1.66-0.46-1.53,0.92-1.53,0.92c-2.24-0.04-1.19,1.91-1.19,1.91l-1.9-2.22c0,0-0.2,1.19-0.5,1.97
	c1.3,0.79,2.64,1.52,3.79,1.92c0.02-0.37,0.13-0.86,0.47-1.17C560.46,153.25,562.14,153.85,562.14,153.85z"/>
<path class="st24" d="M560.24,145.19c-0.14-0.06-0.47-0.11-0.92-0.17c0,0.49,0.02,0.97,0.06,1.46c0.37,0.1,0.75,0.23,1.14,0.4
	c0.66,0.28,1.47,0.64,2.34,1.01C561.64,146.82,561.08,145.52,560.24,145.19z"/>
<path class="st7" d="M564.61,149.89c0.02,0.01,0.04,0.02,0.06,0.03c0,0-1.15-0.72-1.7-1.39c-0.12-0.14-0.21-0.28-0.25-0.41
	c-0.01-0.04-0.03-0.08-0.04-0.13c0,0,0,0,0-0.01c0,0,0,0,0,0c-0.22-0.7-0.32-1.46-0.1-2.12l-2.69-0.3c0,0,0.92,3.77-5.1,3.26
	c0,0,1.5,1.36,1.3,2.26l1.9,2.22c0,0-1.05-1.95,1.19-1.91c0,0-0.12-1.38,1.53-0.92c0,0-0.55-0.73,0.1-1.52
	C561.4,148.22,564.19,149.67,564.61,149.89z"/>
<polygon class="st31" points="562.68,147.99 562.68,148 562.68,148 "/>
<path class="st7" d="M564.75,145.81c-0.02-0.01-0.03-0.01-0.03-0.01c0.07-0.58,0.32-1.57-3.86-2.5c-4.2-0.93-7.95,1.7-9.29,2.8
	c-0.2,0.83-0.39,1.66-0.55,2.5c0.44,0.14,0.75,0.25,0.88,0.33c0.77,0.48,1.08,1.85,2.09,3.13c0.51,0.33,1.04,0.67,1.59,1.01
	c0.3-0.79,0.5-1.97,0.5-1.97c0.2-0.9-1.3-2.26-1.3-2.26c6.02,0.51,5.1-3.26,5.1-3.26l2.69,0.3c0,0.01-0.01,0.02-0.01,0.03l2.19-0.02
	C564.75,145.86,564.75,145.83,564.75,145.81z"/>
<path class="st0" d="M581.23,154.3c0.05-0.66-2.47-7.4-4-8.12l-31.92,1.55c0,0,2.36,17.58,4.08,28.64
	c5.03,6.92,16.64,18.84,33.33,11.58c-1.44-3.39-1.27-9.92-1.17-12.81C581.68,171.86,581.18,154.96,581.23,154.3z M566.23,154.59
	L560.3,155c-1.64,0.12-3.02-0.61-3.1-1.63c-0.03-0.42,0.17-0.82,0.52-1.15c0.29-0.71,1.29-1.28,2.51-1.37l5.42-0.38
	c1.16-0.08,2.19,0.31,2.61,0.92c0.47,0.29,0.77,0.69,0.8,1.15C569.14,153.55,567.87,154.47,566.23,154.59z"/>
<path class="st0" d="M549.39,176.37c0.64,4.12,1.19,7.34,1.5,8.4c1.13,3.91-2.09,7.43-2.05,9.91c0.04,2.47,2.28-0.54,5.68-1.61
	c3.39-1.07,24.52-2.25,27.21-1.58c2.69,0.67,3.83,0.39,1.67-2.34c-0.26-0.33-0.48-0.73-0.68-1.19
	C566.03,195.21,554.42,183.29,549.39,176.37z"/>
<path class="st0" d="M554.97,164.82c0,0,1.61,6.24,7.4,5.55c5.79-0.69,11.35-12.03,11.35-12.03s-1.66,11.82-8.86,14.79
	C557.66,176.11,554.27,169.73,554.97,164.82z"/>
<path class="st0" d="M575.56,174.18c0,0-1.8,5.57-5.65,9.31C569.92,183.48,577.73,183.31,575.56,174.18z"/>
<path class="st12" d="M568.4,151.82c-0.41-0.73-1.5-1.27-2.8-1.31l-6.05-0.18c-1.36-0.04-2.53,0.48-2.93,1.24
	c-0.43,0.33-0.7,0.75-0.71,1.22c-0.03,1.13,1.42,2.1,3.25,2.15l6.62,0.2c1.83,0.06,3.34-0.82,3.37-1.95
	C569.18,152.67,568.89,152.19,568.4,151.82z"/>
<path class="st0" d="M578.01,184.8c0.31-2.24,4.04-26.1,4.43-28.32c0.13-0.72-1.92-8.48-3.53-9.45l-9.05-0.46l-6.41-0.33l-20.1-1.03
	c0,0,0.1,3.02,0.27,7.44c0,0.02,0,0.04,0,0.06c0.26,6.89,0.66,17.14,1.08,24.7c4.81,8.23,16.35,22.73,35.67,16.54
	C579.15,190.04,577.57,187.99,578.01,184.8z M565.79,155.14l-6.62-0.2c-1.83-0.05-3.28-1.02-3.25-2.15
	c0.01-0.47,0.28-0.89,0.71-1.22c0.4-0.75,1.57-1.28,2.93-1.24l6.05,0.18c1.3,0.04,2.39,0.58,2.8,1.31c0.49,0.37,0.78,0.85,0.76,1.36
	C569.13,154.32,567.62,155.19,565.79,155.14z"/>
<path class="st32" d="M543.25,152.81l0.37-0.09c0-0.02,0-0.04,0-0.06C543.38,152.75,543.25,152.81,543.25,152.81z"/>
<path class="st33" d="M544.7,177.42c0.25,4.64,0.51,8.26,0.73,9.48c0.82,4.46-3.15,8.01-3.37,10.76c-0.23,2.75,2.59-0.35,6.47-1.15
	c3.88-0.81,27.44,0.23,30.35,1.27c2.91,1.04,4.21,0.87,2.11-2.41c-0.25-0.39-0.45-0.86-0.62-1.39
	C561.06,200.15,549.51,185.65,544.7,177.42z"/>
<path class="st7" d="M564.75,145.88l-2.19,0.02c-0.21,0.65-0.11,1.4,0.11,2.09c0,0,0,0,0,0c0.1,0.49,1.53,2.06,2.72,1.74
	c0.02-0.01,0.05-0.01,0.07-0.03c0.3-0.16-0.04-0.92-0.04-0.92C564.83,147.68,564.74,146.56,564.75,145.88z"/>
<path class="st7" d="M563.03,153.9c0,0-4.53-2.21-2.92-4c0.69-0.77,4.19,2.24,4.19,2.24"/>
<path class="st7" d="M560.19,154.11c0,0-1.84-1.06-0.64-2.32c0.57-0.6,3.81,2.01,3.81,2.01"/>
<path class="st7" d="M564.55,152.64c0,0-4.68-2.45-3.07-4.25c0.69-0.77,4.19,2.24,4.19,2.24"/>
<path class="st33" d="M582.19,154.25c-0.32-1.68-0.85-2.68-1.56-4.6c-0.71-1.92-1.45-2.22-1.45-2.22l-14.17-0.72
	c0.01,0.05,0.03,0.1,0.03,0.16c0.01,0.3,0.04,0.58,0.07,0.87c0.02,0.03,0.04,0.05,0.05,0.09c0.09,0.23,0.17,0.46,0.25,0.69
	c0.01,0.03,0.03,0.06,0.04,0.1c0,0,0,0.01,0,0.01c0,0.01,0,0.01,0,0.02c0,0,0,0,0,0c0.07,0.21,0.14,0.43,0.2,0.65
	c0.02,0.02,0.03,0.03,0.05,0.04c0.42,0.39-0.02,1.2-0.54,0.94c-0.01,0.04-0.03,0.08-0.04,0.11c0.2,0,0.4,0.1,0.49,0.3
	c0.71-0.01,1.5,0.28,2.06,0.53c0.51,0.23,0.33,0.99-0.19,1.05c-0.07,0.01-0.13,0.01-0.2,0.02c-0.03,0.05-0.07,0.09-0.12,0.13
	c-0.47,0.38-1.37,0.34-1.91,0.65c-0.01,0.01-0.01,0.01-0.02,0.02c0.01,0.1,0,0.19-0.05,0.28c-0.13,0.22-0.3,0.4-0.52,0.54
	c-0.03,0.07-0.07,0.14-0.13,0.2c-0.21,0.24-0.46,0.31-0.72,0.26c-0.21,0.07-0.44,0.1-0.72,0.06c-0.09-0.01-0.16-0.05-0.23-0.09
	c-0.63,0.23-1.46,0.23-2,0.18c-0.06-0.01-0.11-0.02-0.16-0.04c-0.09,0.04-0.18,0.05-0.28,0.04c-0.05,0.02-0.1,0.04-0.16,0.04
	c-0.72,0.01-1.73-0.09-2.03-0.79c-0.16-0.16-0.27-0.36-0.31-0.61c-0.12-0.76,0.47-1.26,1.17-1.52c0.01-0.01,0.02-0.01,0.03-0.01
	c0.29-0.1,0.59-0.16,0.87-0.18c-0.19-0.55,0.15-1.07,0.62-1.29c0.3-0.14,0.6-0.07,0.89,0.1c-0.05-0.07-0.08-0.16-0.08-0.27
	c0-0.05,0.01-0.1,0.01-0.15c0,0,0,0,0,0c0-0.03,0-0.06,0.01-0.09c0-0.03,0.01-0.05,0.01-0.08c0-0.03,0.01-0.05,0.01-0.08
	c-0.01-0.02-0.02-0.04-0.03-0.05c-0.09-0.19-0.03-0.39,0.1-0.54c0.08-0.36,0.48-0.4,0.77-0.24c0.19-0.04,0.39-0.02,0.62,0.08
	c0.15,0.06,0.24,0.1,0.3,0.12c0.01-0.01,0.02-0.02,0.03-0.03c-0.01-0.03-0.02-0.07-0.03-0.1c-0.27-0.37-0.53-0.7-0.57-1.26
	c-0.01-0.17,0.03-0.3,0.11-0.4c-0.04-0.21-0.06-0.4-0.03-0.57l-19.11-0.98l0.43,11.61c0,0,8.42-1.75,13.18-0.37
	c4.76,1.39,13.96,2.76,16.77,1.89c2.81-0.87,5.23-1.84,6.06-1.77c0.82,0.07,2.6,0.29,2.6,0.29S582.51,155.93,582.19,154.25z"/>
<g>
	<g>
		<path class="st0" d="M534.65,152.39C534.66,152.39,534.66,152.39,534.65,152.39c-0.04,0.05-0.09,0.11-0.13,0.16
			c0,0,0,0.01,0.01,0.02C534.58,152.51,534.62,152.44,534.65,152.39z"/>
		<g>
			<g>
				<path class="st0" d="M536.21,149.21c-1.1-0.38-2.08-0.81-2.94-1.27c-5.77-3.04-6.72-7.51-8.28-11.33
					c-1.79-4.4-5.33-8.84-5.33-8.84c0-0.01-0.94,4.68-2.61,9.57c-0.88,2.58-1.97,5.23-3.24,7.26c-0.03,0.04-0.05,0.08-0.08,0.13
					c-0.09,0.14-0.18,0.28-0.27,0.42c-0.04,0.05-0.07,0.11-0.11,0.16c-0.09,0.13-0.18,0.25-0.27,0.37c-0.03,0.05-0.07,0.1-0.1,0.14
					c-0.12,0.16-0.25,0.32-0.38,0.47c0.15-0.18,0.24-0.29,0.24-0.29c3.55,7.02,12.29,15.08,12.29,15.08s1.25,0.08,3.81-2.08
					c0.07-0.06,0.14-0.12,0.21-0.18c0.84-0.73,1.81-1.69,2.92-2.96c1.07-1.23,1.86-2.24,2.46-3.08c0.03-0.05,0.07-0.09,0.1-0.14
					C536.52,149.95,536.21,149.21,536.21,149.21z M534.65,152.39c-0.03,0.06-0.07,0.12-0.12,0.18c-0.01-0.01-0.01-0.02-0.01-0.02
					C534.57,152.5,534.61,152.44,534.65,152.39C534.66,152.39,534.66,152.39,534.65,152.39z"/>
			</g>
		</g>
	</g>
</g>
<g>
	<g>
		<path class="st34" d="M549.28,169.27l-0.02,1.71c0.21-0.22,0.43-0.38,0.65-0.49c0.22-0.11,0.49-0.17,0.81-0.16
			c0.37,0.01,0.7,0.1,0.97,0.28c0.28,0.18,0.49,0.44,0.64,0.77c0.15,0.34,0.22,0.73,0.21,1.19c-0.01,0.34-0.05,0.65-0.14,0.93
			c-0.09,0.28-0.22,0.53-0.38,0.73c-0.17,0.21-0.37,0.36-0.6,0.47c-0.24,0.11-0.49,0.16-0.77,0.16c-0.17,0-0.33-0.03-0.49-0.07
			c-0.15-0.04-0.28-0.1-0.38-0.17c-0.11-0.07-0.2-0.14-0.27-0.21c-0.07-0.07-0.17-0.18-0.29-0.32l0,0.11c0,0.21-0.06,0.37-0.16,0.48
			c-0.1,0.11-0.23,0.16-0.39,0.16c-0.16,0-0.28-0.06-0.38-0.17c-0.09-0.11-0.14-0.27-0.14-0.48l0.07-4.88c0-0.23,0.05-0.4,0.14-0.51
			c0.09-0.11,0.22-0.17,0.39-0.17c0.17,0,0.3,0.06,0.39,0.17C549.24,168.91,549.28,169.07,549.28,169.27z M549.29,172.59
			c-0.01,0.45,0.09,0.79,0.29,1.03c0.2,0.24,0.46,0.36,0.8,0.37c0.28,0,0.52-0.11,0.73-0.36c0.21-0.24,0.31-0.59,0.32-1.05
			c0-0.29-0.03-0.55-0.12-0.76c-0.08-0.21-0.2-0.38-0.35-0.5c-0.15-0.12-0.33-0.18-0.54-0.18c-0.21,0-0.4,0.05-0.57,0.17
			c-0.17,0.11-0.3,0.28-0.4,0.5C549.34,172.03,549.29,172.29,549.29,172.59z"/>
		<path class="st34" d="M556.56,172.94l-2.19-0.03c0,0.25,0.05,0.48,0.15,0.67c0.09,0.2,0.23,0.34,0.39,0.44
			c0.16,0.1,0.35,0.15,0.55,0.16c0.13,0,0.26-0.01,0.37-0.04c0.11-0.03,0.22-0.08,0.32-0.14c0.1-0.06,0.2-0.14,0.29-0.21
			c0.09-0.07,0.2-0.18,0.34-0.31c0.06-0.05,0.14-0.07,0.25-0.07c0.12,0,0.21,0.03,0.28,0.1c0.07,0.07,0.11,0.15,0.1,0.27
			c0,0.1-0.04,0.22-0.13,0.35c-0.08,0.13-0.2,0.26-0.36,0.39c-0.16,0.12-0.36,0.22-0.61,0.3s-0.52,0.12-0.84,0.11
			c-0.72-0.01-1.27-0.22-1.67-0.64c-0.39-0.41-0.58-0.97-0.58-1.67c0-0.33,0.06-0.64,0.16-0.92c0.1-0.28,0.25-0.52,0.44-0.72
			c0.19-0.2,0.43-0.35,0.7-0.46c0.28-0.11,0.58-0.15,0.92-0.15c0.44,0.01,0.81,0.1,1.12,0.29c0.31,0.19,0.54,0.43,0.69,0.72
			c0.15,0.29,0.23,0.59,0.22,0.9c0,0.28-0.09,0.46-0.25,0.54C557.08,172.91,556.85,172.95,556.56,172.94z M554.38,172.28l2.03,0.03
			c-0.02-0.38-0.12-0.67-0.3-0.86c-0.18-0.19-0.41-0.29-0.7-0.29c-0.28,0-0.51,0.09-0.69,0.28
			C554.54,171.62,554.43,171.9,554.38,172.28z"/>
		<path class="st34" d="M558.41,174.29l0.07-4.85c0-0.22,0.05-0.39,0.16-0.51c0.1-0.11,0.24-0.17,0.41-0.17
			c0.17,0,0.3,0.06,0.41,0.18c0.1,0.11,0.15,0.29,0.15,0.51l-0.07,4.85c0,0.23-0.06,0.39-0.17,0.51c-0.11,0.11-0.24,0.16-0.41,0.16
			c-0.16,0-0.3-0.06-0.4-0.18C558.45,174.67,558.4,174.5,558.41,174.29z"/>
		<path class="st34" d="M560.68,174.32l0.07-4.85c0-0.22,0.05-0.39,0.16-0.51c0.1-0.11,0.24-0.17,0.41-0.17
			c0.17,0,0.3,0.06,0.41,0.18c0.1,0.11,0.15,0.29,0.15,0.51l-0.07,4.85c0,0.23-0.06,0.4-0.16,0.51c-0.11,0.11-0.24,0.16-0.41,0.16
			c-0.16,0-0.3-0.06-0.4-0.18C560.73,174.7,560.68,174.54,560.68,174.32z"/>
		<path class="st35" d="M564.05,169.47l-0.02,1.71c0.21-0.22,0.43-0.38,0.65-0.49c0.22-0.11,0.49-0.17,0.81-0.16
			c0.37,0.01,0.7,0.1,0.97,0.28c0.28,0.18,0.49,0.44,0.64,0.77c0.15,0.34,0.22,0.73,0.21,1.19c0,0.34-0.05,0.65-0.14,0.93
			c-0.09,0.28-0.22,0.53-0.38,0.73c-0.17,0.21-0.37,0.36-0.6,0.47c-0.24,0.11-0.49,0.16-0.78,0.16c-0.17,0-0.33-0.02-0.49-0.07
			c-0.15-0.04-0.28-0.1-0.38-0.17c-0.1-0.07-0.2-0.14-0.27-0.21c-0.07-0.07-0.17-0.18-0.29-0.32l0,0.11c0,0.21-0.06,0.37-0.16,0.48
			c-0.1,0.11-0.23,0.16-0.39,0.16c-0.16,0-0.28-0.06-0.38-0.17c-0.09-0.11-0.14-0.27-0.14-0.48l0.07-4.88c0-0.23,0.05-0.4,0.14-0.51
			c0.09-0.11,0.22-0.17,0.39-0.17c0.17,0,0.3,0.06,0.39,0.17C564.01,169.11,564.06,169.27,564.05,169.47z M564.06,172.79
			c-0.01,0.45,0.09,0.79,0.29,1.03c0.2,0.24,0.47,0.36,0.8,0.37c0.28,0,0.53-0.12,0.73-0.36c0.21-0.24,0.31-0.59,0.32-1.05
			c0-0.3-0.03-0.55-0.12-0.77c-0.08-0.21-0.2-0.38-0.35-0.5c-0.15-0.12-0.33-0.18-0.54-0.18c-0.21,0-0.4,0.05-0.57,0.17
			c-0.17,0.11-0.3,0.28-0.4,0.5C564.12,172.23,564.07,172.49,564.06,172.79z"/>
		<path class="st35" d="M572.41,172.88c-0.01,0.33-0.06,0.64-0.17,0.92c-0.11,0.28-0.26,0.52-0.46,0.72
			c-0.2,0.2-0.44,0.35-0.71,0.46c-0.27,0.11-0.58,0.15-0.92,0.15c-0.34-0.01-0.64-0.06-0.91-0.18c-0.27-0.11-0.5-0.27-0.7-0.48
			c-0.2-0.21-0.34-0.45-0.44-0.73c-0.1-0.28-0.14-0.59-0.14-0.92c0-0.34,0.06-0.65,0.17-0.93c0.11-0.28,0.26-0.52,0.46-0.72
			c0.2-0.19,0.43-0.35,0.71-0.45c0.28-0.1,0.58-0.15,0.92-0.15c0.34,0,0.64,0.06,0.92,0.18c0.28,0.11,0.51,0.27,0.7,0.48
			c0.19,0.2,0.34,0.45,0.44,0.73C572.36,172.24,572.41,172.55,572.41,172.88z M571.28,172.87c0.01-0.46-0.09-0.81-0.29-1.07
			c-0.2-0.26-0.47-0.39-0.8-0.39c-0.22,0-0.41,0.05-0.58,0.16c-0.17,0.11-0.3,0.28-0.39,0.5c-0.09,0.22-0.14,0.48-0.14,0.77
			c-0.01,0.29,0.04,0.55,0.12,0.77c0.09,0.22,0.21,0.39,0.38,0.51c0.16,0.12,0.36,0.18,0.58,0.18c0.34,0,0.61-0.12,0.81-0.37
			C571.17,173.67,571.28,173.32,571.28,172.87z"/>
		<path class="st35" d="M574.18,175.32l0.11-0.25l-1.33-3.48c-0.08-0.2-0.12-0.35-0.12-0.44c0-0.1,0.03-0.18,0.08-0.27
			c0.05-0.08,0.12-0.15,0.21-0.19c0.08-0.05,0.18-0.07,0.27-0.07c0.16,0,0.28,0.05,0.36,0.16c0.08,0.1,0.15,0.25,0.21,0.44
			l0.91,2.77l0.93-2.55c0.07-0.2,0.14-0.37,0.2-0.48c0.06-0.12,0.12-0.2,0.19-0.24c0.06-0.04,0.16-0.06,0.27-0.06
			c0.09,0,0.17,0.02,0.24,0.07c0.08,0.05,0.14,0.11,0.18,0.18c0.04,0.08,0.06,0.16,0.06,0.24c-0.01,0.05-0.03,0.12-0.06,0.22
			c-0.03,0.1-0.06,0.19-0.09,0.29l-1.51,3.8c-0.13,0.33-0.26,0.59-0.38,0.79c-0.12,0.19-0.28,0.33-0.48,0.43
			c-0.2,0.1-0.47,0.15-0.8,0.14c-0.33-0.01-0.57-0.04-0.74-0.12c-0.16-0.07-0.24-0.2-0.24-0.39c0-0.13,0.04-0.23,0.12-0.3
			c0.08-0.07,0.2-0.1,0.35-0.1c0.06,0,0.12,0.01,0.18,0.03c0.07,0.02,0.13,0.03,0.18,0.03c0.13,0,0.23-0.02,0.3-0.05
			c0.07-0.04,0.14-0.1,0.2-0.19C574.03,175.64,574.1,175.5,574.18,175.32z"/>
	</g>
</g>
<path class="st0" d="M549.28,169.27l-0.02,1.71c0.21-0.22,0.43-0.38,0.65-0.49c0.22-0.11,0.49-0.17,0.81-0.16
	c0.37,0.01,0.7,0.1,0.97,0.28c0.28,0.18,0.49,0.44,0.64,0.77c0.15,0.34,0.22,0.73,0.21,1.19c-0.01,0.34-0.05,0.65-0.14,0.93
	c-0.09,0.28-0.22,0.53-0.38,0.73c-0.17,0.21-0.37,0.36-0.6,0.47c-0.24,0.11-0.49,0.16-0.77,0.16c-0.17,0-0.33-0.03-0.49-0.07
	c-0.15-0.04-0.28-0.1-0.38-0.17c-0.11-0.07-0.2-0.14-0.27-0.21c-0.07-0.07-0.17-0.18-0.29-0.32l0,0.11c0,0.21-0.06,0.37-0.16,0.48
	c-0.1,0.11-0.23,0.16-0.39,0.16c-0.16,0-0.28-0.06-0.38-0.17c-0.09-0.11-0.14-0.27-0.14-0.48l0.07-4.88c0-0.23,0.05-0.4,0.14-0.51
	c0.09-0.11,0.22-0.17,0.39-0.17c0.17,0,0.3,0.06,0.39,0.17C549.24,168.91,549.28,169.07,549.28,169.27z M549.29,172.59
	c-0.01,0.45,0.09,0.79,0.29,1.03c0.2,0.24,0.46,0.36,0.8,0.37c0.28,0,0.52-0.11,0.73-0.36c0.21-0.24,0.31-0.59,0.32-1.05
	c0-0.29-0.03-0.55-0.12-0.76c-0.08-0.21-0.2-0.38-0.35-0.5c-0.15-0.12-0.33-0.18-0.54-0.18c-0.21,0-0.4,0.05-0.57,0.17
	c-0.17,0.11-0.3,0.28-0.4,0.5C549.34,172.03,549.29,172.29,549.29,172.59z"/>
<path class="st0" d="M556.56,172.94l-2.19-0.03c0,0.25,0.05,0.48,0.15,0.67c0.09,0.2,0.23,0.34,0.39,0.44
	c0.16,0.1,0.35,0.15,0.55,0.16c0.13,0,0.26-0.01,0.37-0.04c0.11-0.03,0.22-0.08,0.32-0.14c0.1-0.06,0.2-0.14,0.29-0.21
	c0.09-0.07,0.2-0.18,0.34-0.31c0.06-0.05,0.14-0.07,0.25-0.07c0.12,0,0.21,0.03,0.28,0.1c0.07,0.07,0.11,0.15,0.1,0.27
	c0,0.1-0.04,0.22-0.13,0.35c-0.08,0.13-0.2,0.26-0.36,0.39c-0.16,0.12-0.36,0.22-0.61,0.3s-0.52,0.12-0.84,0.11
	c-0.72-0.01-1.27-0.22-1.67-0.64c-0.39-0.41-0.58-0.97-0.58-1.67c0-0.33,0.06-0.64,0.16-0.92c0.1-0.28,0.25-0.52,0.44-0.72
	c0.19-0.2,0.43-0.35,0.7-0.46c0.28-0.11,0.58-0.15,0.92-0.15c0.44,0.01,0.81,0.1,1.12,0.29c0.31,0.19,0.54,0.43,0.69,0.72
	c0.15,0.29,0.23,0.59,0.22,0.9c0,0.28-0.09,0.46-0.25,0.54C557.08,172.91,556.85,172.95,556.56,172.94z M554.38,172.28l2.03,0.03
	c-0.02-0.38-0.12-0.67-0.3-0.86c-0.18-0.19-0.41-0.29-0.7-0.29c-0.28,0-0.51,0.09-0.69,0.28
	C554.54,171.62,554.43,171.9,554.38,172.28z"/>
<path class="st0" d="M558.41,174.29l0.07-4.85c0-0.22,0.05-0.39,0.16-0.51c0.1-0.11,0.24-0.17,0.41-0.17c0.17,0,0.3,0.06,0.41,0.18
	c0.1,0.11,0.15,0.29,0.15,0.51l-0.07,4.85c0,0.23-0.06,0.39-0.17,0.51c-0.11,0.11-0.24,0.16-0.41,0.16c-0.16,0-0.3-0.06-0.4-0.18
	C558.45,174.67,558.4,174.5,558.41,174.29z"/>
<path class="st0" d="M560.68,174.32l0.07-4.85c0-0.22,0.05-0.39,0.16-0.51c0.1-0.11,0.24-0.17,0.41-0.17c0.17,0,0.3,0.06,0.41,0.18
	c0.1,0.11,0.15,0.29,0.15,0.51l-0.07,4.85c0,0.23-0.06,0.4-0.16,0.51c-0.11,0.11-0.24,0.16-0.41,0.16c-0.16,0-0.3-0.06-0.4-0.18
	C560.73,174.7,560.68,174.54,560.68,174.32z"/>
<path class="st4" d="M564.05,169.47l-0.02,1.71c0.21-0.22,0.43-0.38,0.65-0.49c0.22-0.11,0.49-0.17,0.81-0.16
	c0.37,0.01,0.7,0.1,0.97,0.28c0.28,0.18,0.49,0.44,0.64,0.77c0.15,0.34,0.22,0.73,0.21,1.19c0,0.34-0.05,0.65-0.14,0.93
	c-0.09,0.28-0.22,0.53-0.38,0.73c-0.17,0.21-0.37,0.36-0.6,0.47c-0.24,0.11-0.49,0.16-0.78,0.16c-0.17,0-0.33-0.02-0.49-0.07
	c-0.15-0.04-0.28-0.1-0.38-0.17c-0.1-0.07-0.2-0.14-0.27-0.21c-0.07-0.07-0.17-0.18-0.29-0.32l0,0.11c0,0.21-0.06,0.37-0.16,0.48
	c-0.1,0.11-0.23,0.16-0.39,0.16c-0.16,0-0.28-0.06-0.38-0.17c-0.09-0.11-0.14-0.27-0.14-0.48l0.07-4.88c0-0.23,0.05-0.4,0.14-0.51
	c0.09-0.11,0.22-0.17,0.39-0.17c0.17,0,0.3,0.06,0.39,0.17C564.01,169.11,564.06,169.27,564.05,169.47z M564.06,172.79
	c-0.01,0.45,0.09,0.79,0.29,1.03c0.2,0.24,0.47,0.36,0.8,0.37c0.28,0,0.53-0.12,0.73-0.36c0.21-0.24,0.31-0.59,0.32-1.05
	c0-0.3-0.03-0.55-0.12-0.77c-0.08-0.21-0.2-0.38-0.35-0.5c-0.15-0.12-0.33-0.18-0.54-0.18c-0.21,0-0.4,0.05-0.57,0.17
	c-0.17,0.11-0.3,0.28-0.4,0.5C564.12,172.23,564.07,172.49,564.06,172.79z"/>
<path class="st4" d="M572.41,172.88c-0.01,0.33-0.06,0.64-0.17,0.92c-0.11,0.28-0.26,0.52-0.46,0.72c-0.2,0.2-0.44,0.35-0.71,0.46
	c-0.27,0.11-0.58,0.15-0.92,0.15c-0.34-0.01-0.64-0.06-0.91-0.18c-0.27-0.11-0.5-0.27-0.7-0.48c-0.2-0.21-0.34-0.45-0.44-0.73
	c-0.1-0.28-0.14-0.59-0.14-0.92c0-0.34,0.06-0.65,0.17-0.93c0.11-0.28,0.26-0.52,0.46-0.72c0.2-0.19,0.43-0.35,0.71-0.45
	c0.28-0.1,0.58-0.15,0.92-0.15c0.34,0,0.64,0.06,0.92,0.18c0.28,0.11,0.51,0.27,0.7,0.48c0.19,0.2,0.34,0.45,0.44,0.73
	C572.36,172.24,572.41,172.55,572.41,172.88z M571.28,172.87c0.01-0.46-0.09-0.81-0.29-1.07c-0.2-0.26-0.47-0.39-0.8-0.39
	c-0.22,0-0.41,0.05-0.58,0.16c-0.17,0.11-0.3,0.28-0.39,0.5c-0.09,0.22-0.14,0.48-0.14,0.77c-0.01,0.29,0.04,0.55,0.12,0.77
	c0.09,0.22,0.21,0.39,0.38,0.51c0.16,0.12,0.36,0.18,0.58,0.18c0.34,0,0.61-0.12,0.81-0.37
	C571.17,173.67,571.28,173.32,571.28,172.87z"/>
<path class="st4" d="M574.18,175.32l0.11-0.25l-1.33-3.48c-0.08-0.2-0.12-0.35-0.12-0.44c0-0.1,0.03-0.18,0.08-0.27
	c0.05-0.08,0.12-0.15,0.21-0.19c0.08-0.05,0.18-0.07,0.27-0.07c0.16,0,0.28,0.05,0.36,0.16c0.08,0.1,0.15,0.25,0.21,0.44l0.91,2.77
	l0.93-2.55c0.07-0.2,0.14-0.37,0.2-0.48c0.06-0.12,0.12-0.2,0.19-0.24c0.06-0.04,0.16-0.06,0.27-0.06c0.09,0,0.17,0.02,0.24,0.07
	c0.08,0.05,0.14,0.11,0.18,0.18c0.04,0.08,0.06,0.16,0.06,0.24c-0.01,0.05-0.03,0.12-0.06,0.22c-0.03,0.1-0.06,0.19-0.09,0.29
	l-1.51,3.8c-0.13,0.33-0.26,0.59-0.38,0.79c-0.12,0.19-0.28,0.33-0.48,0.43c-0.2,0.1-0.47,0.15-0.8,0.14
	c-0.33-0.01-0.57-0.04-0.74-0.12c-0.16-0.07-0.24-0.2-0.24-0.39c0-0.13,0.04-0.23,0.12-0.3c0.08-0.07,0.2-0.1,0.35-0.1
	c0.06,0,0.12,0.01,0.18,0.03c0.07,0.02,0.13,0.03,0.18,0.03c0.13,0,0.23-0.02,0.3-0.05c0.07-0.04,0.14-0.1,0.2-0.19
	C574.03,175.64,574.1,175.5,574.18,175.32z"/>
<g>
	<path class="st17" d="M502.78,137.17c0.29-0.37,0.57-0.74,0.85-1.12c0.09-0.52,0.17-1.03,0.25-1.55c0.02-0.14,0.04-0.25,0.07-0.32
		c0.02-0.08,0.05-0.14,0.08-0.19c0.06-0.08,0.13-0.15,0.22-0.19c0.09-0.05,0.17-0.06,0.25-0.04c0.08,0.02,0.12,0.07,0.13,0.13
		c0,0.07-0.01,0.2-0.04,0.39c-0.06,0.41-0.13,0.83-0.2,1.24c0.44-0.31,0.87-0.63,1.29-0.96c0.08-0.06,0.14-0.11,0.19-0.15
		c0.05-0.04,0.1-0.08,0.16-0.11c0.05-0.03,0.1-0.06,0.15-0.07c0.05-0.01,0.09-0.02,0.14,0c0.07,0.02,0.12,0.06,0.13,0.13
		c0.01,0.07-0.01,0.15-0.06,0.23c-0.04,0.07-0.09,0.13-0.16,0.19c-0.07,0.06-0.17,0.14-0.3,0.24c-0.55,0.41-1.11,0.81-1.69,1.2
		c-0.27,0.38-0.55,0.75-0.84,1.13c-0.11,0.15-0.23,0.25-0.34,0.3c-0.11,0.05-0.22,0.07-0.3,0.04c-0.09-0.03-0.14-0.08-0.14-0.17
		C502.61,137.43,502.67,137.32,502.78,137.17z"/>
	<path class="st17" d="M507.25,137.19c-0.14,0.21-0.29,0.39-0.46,0.56c-0.17,0.16-0.35,0.3-0.54,0.4c-0.19,0.1-0.38,0.17-0.57,0.2
		c-0.19,0.03-0.37,0.03-0.55-0.02c-0.18-0.04-0.31-0.11-0.4-0.22c-0.09-0.1-0.14-0.23-0.15-0.37c-0.01-0.15,0.02-0.31,0.09-0.49
		c0.07-0.18,0.17-0.37,0.32-0.57c0.14-0.2,0.3-0.38,0.47-0.54c0.17-0.16,0.34-0.29,0.52-0.39c0.18-0.1,0.35-0.17,0.54-0.2
		c0.18-0.04,0.35-0.04,0.52,0c0.17,0.04,0.3,0.1,0.4,0.2c0.1,0.1,0.16,0.22,0.18,0.36c0.02,0.15,0,0.31-0.05,0.5
		C507.49,136.79,507.39,136.99,507.25,137.19z M506.67,137.08c0.19-0.28,0.28-0.51,0.28-0.69c0-0.18-0.09-0.29-0.26-0.32
		c-0.11-0.02-0.23-0.01-0.36,0.04c-0.13,0.05-0.26,0.14-0.4,0.26c-0.14,0.13-0.27,0.28-0.39,0.46c-0.12,0.18-0.21,0.34-0.26,0.48
		c-0.05,0.14-0.06,0.26-0.02,0.35c0.03,0.09,0.11,0.15,0.23,0.18c0.17,0.04,0.37,0,0.58-0.14
		C506.29,137.56,506.49,137.35,506.67,137.08z"/>
	<path class="st17" d="M508.57,138.59c0.02-0.03,0.04-0.06,0.06-0.09c-0.14,0.1-0.28,0.17-0.4,0.23c-0.13,0.06-0.25,0.1-0.37,0.12
		c-0.12,0.02-0.24,0.02-0.36-0.01c-0.14-0.03-0.25-0.09-0.31-0.18c-0.07-0.09-0.09-0.21-0.07-0.34c0.03-0.16,0.13-0.38,0.32-0.66
		c0.3-0.46,0.6-0.93,0.88-1.39c0.09-0.14,0.18-0.24,0.27-0.3c0.09-0.06,0.18-0.09,0.27-0.07c0.09,0.01,0.14,0.06,0.15,0.14
		c0.01,0.08-0.02,0.19-0.11,0.33c-0.23,0.38-0.46,0.76-0.7,1.13c-0.1,0.16-0.18,0.3-0.23,0.42c-0.05,0.11-0.07,0.21-0.05,0.28
		c0.02,0.07,0.08,0.12,0.18,0.14c0.1,0.02,0.22,0,0.35-0.06c0.13-0.06,0.26-0.14,0.37-0.25c0.1-0.1,0.25-0.31,0.46-0.66
		c0.18-0.29,0.35-0.58,0.52-0.87c0.08-0.14,0.17-0.25,0.26-0.31c0.1-0.06,0.19-0.09,0.27-0.08c0.09,0.01,0.14,0.06,0.15,0.13
		c0.01,0.08-0.02,0.19-0.1,0.34c-0.4,0.7-0.81,1.4-1.25,2.09c-0.09,0.14-0.18,0.23-0.27,0.29c-0.1,0.06-0.19,0.08-0.27,0.07
		c-0.08-0.01-0.13-0.06-0.13-0.14C508.45,138.82,508.49,138.72,508.57,138.59z"/>
	<path class="st17" d="M510.73,138.21c-0.12,0.2-0.24,0.41-0.37,0.61c-0.09,0.15-0.19,0.25-0.29,0.32c-0.1,0.07-0.2,0.09-0.29,0.08
		c-0.09-0.01-0.14-0.06-0.15-0.14c-0.01-0.08,0.03-0.19,0.12-0.34c0.42-0.67,0.81-1.34,1.19-2.02c0.18-0.33,0.37-0.48,0.56-0.46
		c0.1,0.01,0.15,0.06,0.15,0.14c0,0.08-0.03,0.2-0.11,0.35c0.15-0.14,0.29-0.25,0.4-0.32c0.12-0.07,0.24-0.1,0.36-0.09
		c0.13,0.01,0.23,0.06,0.3,0.15c0.08,0.09,0.08,0.2,0.02,0.32c-0.05,0.09-0.11,0.16-0.19,0.22c-0.08,0.05-0.15,0.08-0.21,0.07
		c-0.02,0-0.07-0.02-0.13-0.06c-0.07-0.04-0.13-0.06-0.19-0.07c-0.09-0.01-0.18,0.01-0.26,0.06c-0.09,0.05-0.18,0.13-0.27,0.24
		c-0.09,0.11-0.19,0.24-0.29,0.39C510.97,137.8,510.86,137.99,510.73,138.21z"/>
	<path class="st17" d="M497.07,138.79c-0.15-0.06-0.31-0.13-0.46-0.2c-0.26,0.25-0.52,0.49-0.78,0.73c-0.11,0.1-0.22,0.17-0.33,0.2
		c-0.11,0.03-0.2,0.03-0.27,0c-0.08-0.03-0.11-0.09-0.09-0.16c0.01-0.07,0.08-0.16,0.19-0.26c0.72-0.65,1.42-1.32,2.09-2.01
		c0.12-0.12,0.22-0.19,0.32-0.22c0.1-0.03,0.2-0.02,0.31,0.02c0.21,0.09,0.42,0.17,0.63,0.26c0.19,0.07,0.32,0.15,0.39,0.22
		c0.07,0.07,0.11,0.15,0.12,0.26c0.01,0.1-0.02,0.21-0.08,0.33c-0.06,0.12-0.15,0.24-0.27,0.38c-0.26,0.28-0.54,0.46-0.84,0.53
		C497.68,138.94,497.38,138.92,497.07,138.79z M498.16,137.51c-0.11-0.05-0.22-0.09-0.33-0.14c-0.26,0.27-0.53,0.54-0.8,0.81
		c0.11,0.05,0.22,0.1,0.34,0.14c0.12,0.05,0.23,0.08,0.34,0.08c0.1,0.01,0.21-0.01,0.31-0.06c0.1-0.04,0.2-0.12,0.3-0.22
		c0.11-0.12,0.18-0.23,0.18-0.33C498.49,137.7,498.38,137.6,498.16,137.51z"/>
	<path class="st17" d="M499.4,139.97c-0.31-0.11-0.63-0.23-0.94-0.35c-0.11,0.12-0.19,0.23-0.23,0.33c-0.04,0.1-0.06,0.19-0.03,0.26
		c0.03,0.07,0.08,0.12,0.17,0.16c0.06,0.02,0.12,0.04,0.18,0.04c0.06,0,0.13,0,0.2-0.02c0.08-0.01,0.15-0.03,0.22-0.05
		c0.07-0.02,0.17-0.05,0.29-0.09c0.05-0.01,0.09-0.01,0.14,0c0.05,0.02,0.08,0.05,0.08,0.09c0,0.04-0.02,0.09-0.07,0.14
		c-0.05,0.05-0.12,0.09-0.21,0.14c-0.09,0.05-0.21,0.09-0.33,0.12c-0.12,0.03-0.26,0.05-0.4,0.04c-0.14,0-0.28-0.03-0.42-0.08
		c-0.31-0.12-0.46-0.31-0.44-0.56c0.02-0.25,0.19-0.53,0.5-0.85c0.15-0.15,0.3-0.28,0.47-0.39c0.16-0.11,0.33-0.2,0.5-0.26
		c0.17-0.06,0.33-0.1,0.49-0.11c0.16-0.01,0.31,0.01,0.46,0.06c0.18,0.07,0.3,0.16,0.36,0.3c0.05,0.13,0.06,0.28,0,0.44
		c-0.06,0.16-0.15,0.31-0.28,0.45c-0.12,0.13-0.24,0.2-0.34,0.22C499.64,140.04,499.53,140.02,499.4,139.97z M498.75,139.34
		c0.29,0.11,0.58,0.21,0.87,0.32c0.15-0.18,0.23-0.33,0.24-0.45c0-0.12-0.05-0.19-0.18-0.24c-0.12-0.04-0.25-0.03-0.41,0.03
		C499.1,139.06,498.93,139.17,498.75,139.34z"/>
	<path class="st17" d="M500.53,140.6c-0.14,0.15-0.27,0.29-0.41,0.44c-0.1,0.11-0.2,0.18-0.3,0.21c-0.1,0.04-0.18,0.04-0.25,0.02
		c-0.07-0.02-0.1-0.07-0.1-0.14c0.01-0.07,0.06-0.15,0.16-0.26c0.46-0.48,0.91-0.97,1.35-1.46c0.21-0.24,0.39-0.33,0.55-0.28
		c0.08,0.02,0.11,0.07,0.1,0.14c-0.01,0.07-0.07,0.16-0.16,0.27c0.15-0.09,0.28-0.16,0.39-0.19c0.11-0.04,0.21-0.04,0.32-0.01
		c0.1,0.03,0.18,0.09,0.23,0.17c0.05,0.09,0.03,0.18-0.05,0.27c-0.06,0.07-0.12,0.11-0.2,0.15c-0.08,0.03-0.14,0.04-0.19,0.02
		c-0.02-0.01-0.05-0.03-0.1-0.08c-0.05-0.04-0.1-0.08-0.15-0.09c-0.07-0.02-0.15-0.02-0.23,0.01c-0.08,0.03-0.17,0.08-0.27,0.15
		c-0.1,0.07-0.2,0.16-0.31,0.27C500.8,140.31,500.67,140.44,500.53,140.6z"/>
	<path class="st17" d="M503.13,141.47c-0.13,0.15-0.28,0.27-0.44,0.36c-0.16,0.09-0.34,0.14-0.52,0.16c-0.18,0.02-0.37,0-0.56-0.06
		c-0.18-0.05-0.31-0.13-0.39-0.23c-0.08-0.1-0.1-0.2-0.08-0.31c0.02-0.11,0.07-0.2,0.15-0.29c0.05-0.06,0.12-0.1,0.19-0.13
		c0.08-0.03,0.14-0.04,0.2-0.02c0.05,0.02,0.08,0.04,0.08,0.08c0,0.04,0,0.08-0.02,0.14c-0.04,0.11-0.04,0.2-0.01,0.27
		c0.03,0.07,0.11,0.12,0.23,0.16c0.1,0.03,0.21,0.03,0.31,0c0.11-0.03,0.19-0.08,0.24-0.14c0.08-0.1,0.11-0.18,0.08-0.24
		c-0.03-0.06-0.1-0.14-0.22-0.22c-0.13-0.1-0.23-0.19-0.29-0.27c-0.06-0.08-0.09-0.18-0.08-0.28c0.01-0.1,0.06-0.21,0.17-0.34
		c0.09-0.11,0.21-0.2,0.35-0.28c0.14-0.08,0.29-0.13,0.46-0.16c0.16-0.03,0.32-0.02,0.49,0.03c0.13,0.03,0.23,0.08,0.31,0.14
		c0.08,0.06,0.13,0.12,0.16,0.19c0.03,0.07,0.04,0.14,0.02,0.21c-0.01,0.07-0.04,0.13-0.09,0.19c-0.05,0.06-0.11,0.11-0.19,0.14
		s-0.14,0.04-0.21,0.02c-0.05-0.01-0.08-0.04-0.09-0.08c-0.01-0.04-0.01-0.1,0-0.18c0.01-0.06,0-0.12-0.03-0.17
		c-0.02-0.05-0.08-0.08-0.17-0.1c-0.09-0.02-0.18-0.02-0.28,0c-0.09,0.03-0.17,0.07-0.22,0.13c-0.05,0.06-0.07,0.11-0.05,0.16
		c0.01,0.05,0.05,0.1,0.1,0.14c0.05,0.05,0.13,0.1,0.23,0.17c0.12,0.08,0.21,0.17,0.26,0.25c0.05,0.08,0.07,0.17,0.05,0.27
		C503.26,141.28,503.21,141.37,503.13,141.47z"/>
	<path class="st17" d="M505.82,141.64c-0.13,0.17-0.28,0.32-0.44,0.46c-0.16,0.13-0.33,0.24-0.51,0.32
		c-0.18,0.08-0.35,0.13-0.53,0.16c-0.17,0.02-0.34,0.02-0.5-0.02c-0.16-0.04-0.27-0.1-0.35-0.19c-0.08-0.09-0.12-0.19-0.13-0.32
		c0-0.12,0.03-0.26,0.1-0.41c0.07-0.15,0.17-0.31,0.31-0.47c0.14-0.17,0.29-0.32,0.45-0.45c0.16-0.13,0.32-0.23,0.49-0.31
		c0.17-0.08,0.33-0.13,0.5-0.16c0.17-0.03,0.33-0.02,0.48,0.01c0.15,0.03,0.27,0.09,0.36,0.17c0.08,0.08,0.13,0.19,0.14,0.31
		c0.01,0.12-0.01,0.26-0.07,0.41C506.05,141.3,505.95,141.47,505.82,141.64z M505.3,141.52c0.18-0.23,0.28-0.42,0.29-0.57
		c0.01-0.15-0.07-0.24-0.22-0.28c-0.1-0.02-0.21-0.01-0.33,0.03c-0.12,0.04-0.25,0.11-0.38,0.21c-0.13,0.1-0.26,0.23-0.38,0.37
		c-0.12,0.15-0.2,0.28-0.25,0.4c-0.05,0.12-0.06,0.22-0.03,0.29c0.03,0.08,0.09,0.13,0.2,0.15c0.16,0.04,0.34,0.01,0.53-0.1
		C504.93,141.92,505.12,141.75,505.3,141.52z"/>
	<path class="st17" d="M507.34,140.96c-0.02,0.02-0.04,0.05-0.05,0.07c0.19-0.12,0.36-0.2,0.51-0.25c0.15-0.05,0.3-0.06,0.44-0.03
		c0.14,0.02,0.24,0.08,0.3,0.16c0.06,0.09,0.08,0.2,0.04,0.33c-0.02,0.08-0.05,0.16-0.1,0.25c-0.05,0.09-0.12,0.19-0.21,0.32
		c-0.26,0.37-0.53,0.73-0.81,1.1c-0.09,0.12-0.18,0.2-0.28,0.25c-0.09,0.05-0.18,0.07-0.26,0.05c-0.08-0.02-0.12-0.06-0.12-0.13
		c0-0.07,0.04-0.16,0.13-0.28c0.25-0.32,0.49-0.65,0.73-0.98c0.14-0.19,0.23-0.35,0.25-0.46c0.03-0.11-0.03-0.18-0.18-0.21
		c-0.09-0.02-0.2,0-0.32,0.05c-0.12,0.05-0.24,0.12-0.36,0.22c-0.09,0.08-0.22,0.24-0.4,0.48c-0.18,0.24-0.37,0.48-0.56,0.72
		c-0.09,0.12-0.19,0.2-0.28,0.25c-0.1,0.05-0.18,0.06-0.26,0.05c-0.08-0.02-0.12-0.06-0.11-0.13c0-0.07,0.04-0.16,0.13-0.27
		c0.44-0.55,0.87-1.11,1.28-1.67c0.08-0.11,0.16-0.19,0.25-0.24c0.08-0.05,0.16-0.06,0.24-0.05c0.05,0.01,0.08,0.03,0.1,0.06
		c0.02,0.03,0.02,0.07,0.01,0.13C507.43,140.82,507.4,140.89,507.34,140.96z"/>
	<path class="st17" d="M509.35,143.24c-0.21,0.09-0.4,0.16-0.57,0.2c-0.16,0.04-0.32,0.04-0.48,0.02c-0.14-0.02-0.24-0.07-0.3-0.15
		c-0.06-0.08-0.08-0.17-0.06-0.28c0.02-0.11,0.07-0.23,0.16-0.35c0.12-0.16,0.27-0.29,0.44-0.39c0.18-0.1,0.36-0.16,0.55-0.17
		c0.04,0,0.14-0.01,0.29-0.02c0.16-0.01,0.29-0.02,0.41-0.04c0.11-0.01,0.24-0.03,0.38-0.05c0.1-0.16,0.15-0.28,0.15-0.36
		c0-0.08-0.08-0.13-0.24-0.15c-0.14-0.02-0.25-0.01-0.35,0.02c-0.1,0.03-0.2,0.09-0.31,0.17c-0.11,0.08-0.18,0.13-0.22,0.15
		c-0.04,0.02-0.09,0.03-0.16,0.02c-0.06-0.01-0.1-0.04-0.11-0.09c-0.01-0.05,0-0.11,0.05-0.18c0.07-0.11,0.18-0.2,0.31-0.29
		c0.14-0.09,0.29-0.16,0.48-0.21c0.18-0.05,0.38-0.06,0.59-0.03c0.23,0.03,0.4,0.08,0.49,0.16c0.09,0.08,0.12,0.19,0.09,0.34
		c-0.03,0.14-0.13,0.33-0.28,0.56c-0.1,0.14-0.18,0.27-0.25,0.37c-0.07,0.1-0.14,0.21-0.23,0.33c-0.08,0.11-0.15,0.24-0.2,0.36
		c-0.05,0.13-0.09,0.21-0.12,0.25c-0.04,0.06-0.11,0.12-0.2,0.16c-0.09,0.04-0.17,0.06-0.24,0.05c-0.06-0.01-0.09-0.04-0.1-0.11
		C509.33,143.45,509.34,143.36,509.35,143.24z M509.94,142.36c-0.1,0.02-0.24,0.04-0.42,0.06c-0.18,0.02-0.3,0.03-0.37,0.04
		c-0.07,0.01-0.15,0.03-0.23,0.07c-0.09,0.04-0.16,0.11-0.23,0.19c-0.06,0.09-0.09,0.17-0.07,0.25c0.01,0.07,0.07,0.12,0.17,0.13
		c0.11,0.02,0.23,0.01,0.35-0.03c0.13-0.04,0.24-0.1,0.34-0.17c0.11-0.09,0.24-0.23,0.39-0.44
		C509.9,142.41,509.92,142.39,509.94,142.36z"/>
	<path class="st17" d="M510.43,143.35c0.61-0.88,1.2-1.78,1.74-2.68c0.08-0.12,0.16-0.22,0.24-0.28c0.09-0.06,0.17-0.09,0.25-0.08
		c0.08,0.01,0.13,0.04,0.14,0.11c0.01,0.07-0.02,0.16-0.1,0.29c-0.54,0.91-1.12,1.81-1.73,2.7c-0.09,0.13-0.18,0.22-0.27,0.27
		c-0.1,0.06-0.18,0.08-0.27,0.07c-0.08-0.01-0.12-0.05-0.13-0.12C510.31,143.56,510.35,143.47,510.43,143.35z"/>
	<path class="st17" d="M492.71,142.3c0.09-0.12,0.18-0.24,0.27-0.35c-0.34-0.17-0.68-0.35-1.02-0.53c-0.17,0.08-0.35,0.15-0.53,0.23
		c-0.21,0.09-0.35,0.14-0.44,0.16c-0.09,0.02-0.17,0.01-0.25-0.03c-0.06-0.04-0.09-0.09-0.08-0.16c0.01-0.07,0.06-0.13,0.13-0.18
		c0.04-0.03,0.09-0.06,0.15-0.08c0.06-0.03,0.14-0.06,0.25-0.1c0.9-0.37,1.78-0.76,2.63-1.17c0.07-0.04,0.16-0.08,0.26-0.13
		c0.1-0.05,0.19-0.09,0.27-0.12c0.08-0.03,0.16-0.04,0.23-0.05c0.08,0,0.15,0.01,0.22,0.04c0.07,0.03,0.11,0.08,0.13,0.12
		c0.02,0.05,0.01,0.1-0.01,0.16c-0.02,0.06-0.05,0.11-0.09,0.17c-0.04,0.06-0.09,0.13-0.15,0.23c-0.42,0.63-0.85,1.25-1.3,1.87
		c-0.1,0.14-0.19,0.24-0.26,0.29c-0.07,0.05-0.16,0.09-0.28,0.11c-0.11,0.02-0.2,0.01-0.27-0.02c-0.04-0.02-0.07-0.05-0.08-0.07
		c-0.01-0.03-0.01-0.06,0-0.09c0.01-0.03,0.04-0.08,0.08-0.14C492.64,142.4,492.68,142.34,492.71,142.3z M492.57,141.13
		c0.25,0.13,0.5,0.26,0.75,0.39c0.3-0.39,0.59-0.78,0.88-1.17C493.66,140.62,493.12,140.88,492.57,141.13z"/>
	<path class="st17" d="M495.53,143.2c-0.16,0.13-0.33,0.22-0.5,0.28c-0.18,0.06-0.37,0.08-0.55,0.07c-0.19-0.01-0.38-0.06-0.56-0.15
		c-0.17-0.08-0.29-0.18-0.35-0.29c-0.06-0.11-0.07-0.21-0.03-0.32c0.04-0.1,0.1-0.19,0.2-0.26c0.06-0.05,0.14-0.08,0.22-0.1
		c0.08-0.02,0.15-0.01,0.21,0.02c0.05,0.02,0.07,0.05,0.07,0.09c0,0.04-0.02,0.08-0.05,0.13c-0.05,0.1-0.07,0.19-0.05,0.26
		c0.02,0.07,0.09,0.14,0.21,0.19c0.1,0.05,0.2,0.06,0.32,0.05c0.11-0.01,0.2-0.04,0.27-0.1c0.1-0.08,0.14-0.15,0.12-0.22
		c-0.02-0.07-0.08-0.15-0.19-0.25c-0.12-0.12-0.2-0.22-0.25-0.31c-0.05-0.09-0.06-0.19-0.04-0.28c0.03-0.1,0.1-0.2,0.23-0.3
		c0.11-0.09,0.25-0.16,0.4-0.22c0.16-0.06,0.32-0.08,0.49-0.08c0.17,0,0.33,0.04,0.49,0.11c0.12,0.05,0.22,0.12,0.29,0.18
		c0.07,0.07,0.11,0.14,0.13,0.21c0.02,0.07,0.01,0.14-0.01,0.21c-0.03,0.07-0.07,0.13-0.13,0.17c-0.06,0.05-0.13,0.09-0.21,0.11
		c-0.08,0.02-0.15,0.01-0.22-0.02c-0.05-0.02-0.08-0.05-0.08-0.1c0-0.04,0.01-0.1,0.03-0.18c0.02-0.06,0.02-0.12,0-0.17
		c-0.02-0.05-0.07-0.09-0.15-0.13c-0.09-0.04-0.18-0.05-0.28-0.04c-0.1,0.01-0.18,0.04-0.25,0.09c-0.06,0.05-0.08,0.1-0.08,0.15
		c0,0.05,0.03,0.1,0.08,0.15c0.05,0.05,0.12,0.12,0.21,0.21c0.11,0.1,0.18,0.2,0.22,0.29c0.04,0.09,0.04,0.18,0.01,0.27
		C495.7,143.03,495.64,143.11,495.53,143.2z"/>
	<path class="st17" d="M497.56,144.04c-0.15,0.13-0.32,0.23-0.5,0.3c-0.18,0.07-0.37,0.1-0.56,0.09c-0.19-0.01-0.38-0.05-0.57-0.13
		c-0.18-0.08-0.3-0.17-0.37-0.27c-0.07-0.11-0.08-0.21-0.05-0.31c0.03-0.1,0.1-0.19,0.19-0.27c0.06-0.05,0.14-0.09,0.22-0.11
		c0.08-0.02,0.15-0.02,0.21,0.01c0.05,0.02,0.08,0.05,0.08,0.09c0,0.04-0.02,0.08-0.04,0.14c-0.05,0.11-0.06,0.19-0.04,0.27
		c0.02,0.07,0.09,0.13,0.22,0.18c0.1,0.04,0.21,0.05,0.32,0.04c0.12-0.02,0.21-0.05,0.27-0.11c0.1-0.08,0.14-0.16,0.12-0.22
		c-0.02-0.07-0.09-0.15-0.2-0.24c-0.12-0.11-0.21-0.21-0.27-0.3c-0.05-0.09-0.07-0.18-0.05-0.28c0.02-0.1,0.09-0.2,0.22-0.31
		c0.11-0.1,0.24-0.17,0.4-0.24c0.16-0.06,0.32-0.09,0.49-0.1c0.17-0.01,0.34,0.02,0.5,0.09c0.13,0.05,0.23,0.11,0.3,0.17
		c0.07,0.07,0.12,0.13,0.14,0.2c0.02,0.07,0.02,0.14,0,0.21c-0.02,0.07-0.06,0.13-0.12,0.18c-0.06,0.06-0.13,0.1-0.21,0.12
		c-0.08,0.02-0.15,0.02-0.22-0.01c-0.05-0.02-0.08-0.05-0.08-0.09c0-0.04,0-0.1,0.02-0.18c0.02-0.06,0.01-0.12-0.01-0.17
		c-0.02-0.05-0.07-0.09-0.16-0.12c-0.09-0.04-0.18-0.05-0.28-0.03c-0.1,0.01-0.18,0.05-0.25,0.1c-0.06,0.05-0.08,0.1-0.08,0.15
		c0.01,0.05,0.04,0.1,0.08,0.15c0.05,0.05,0.12,0.12,0.22,0.2c0.11,0.1,0.19,0.19,0.23,0.28c0.04,0.09,0.05,0.18,0.02,0.27
		C497.73,143.87,497.66,143.95,497.56,144.04z"/>
	<path class="st17" d="M499.69,143.31c-0.51,0.49-1.04,0.97-1.58,1.44c-0.11,0.1-0.22,0.16-0.33,0.19c-0.11,0.03-0.2,0.03-0.27,0
		c-0.07-0.03-0.11-0.08-0.09-0.15c0.01-0.07,0.07-0.15,0.18-0.25c0.54-0.46,1.06-0.93,1.57-1.41c0.11-0.1,0.21-0.17,0.31-0.2
		c0.1-0.03,0.18-0.04,0.26-0.01c0.07,0.03,0.11,0.07,0.1,0.14C499.83,143.14,499.79,143.22,499.69,143.31z M499.98,142.69
		c-0.07-0.02-0.11-0.07-0.11-0.13c-0.01-0.06,0.03-0.13,0.11-0.21c0.07-0.07,0.16-0.12,0.25-0.15c0.1-0.03,0.18-0.03,0.25-0.01
		c0.06,0.02,0.1,0.06,0.11,0.12c0.01,0.06-0.03,0.13-0.11,0.21c-0.08,0.08-0.17,0.13-0.26,0.16
		C500.13,142.72,500.05,142.72,499.98,142.69z"/>
	<path class="st17" d="M500.71,145.16c-0.15,0.14-0.31,0.25-0.49,0.33c-0.18,0.08-0.37,0.12-0.56,0.12c-0.19,0-0.39-0.03-0.59-0.1
		c-0.19-0.07-0.32-0.15-0.39-0.25c-0.07-0.1-0.09-0.21-0.07-0.31c0.03-0.1,0.09-0.2,0.18-0.28c0.06-0.06,0.13-0.09,0.22-0.12
		c0.08-0.02,0.16-0.03,0.22,0c0.05,0.02,0.08,0.05,0.08,0.08c0,0.04-0.01,0.08-0.04,0.14c-0.05,0.11-0.05,0.2-0.03,0.27
		c0.03,0.07,0.1,0.13,0.23,0.17c0.1,0.04,0.22,0.04,0.33,0.02c0.12-0.02,0.21-0.06,0.27-0.12c0.1-0.09,0.13-0.17,0.11-0.23
		c-0.03-0.06-0.1-0.14-0.22-0.23c-0.13-0.1-0.23-0.2-0.29-0.28c-0.06-0.09-0.08-0.18-0.07-0.28c0.02-0.1,0.09-0.21,0.21-0.32
		c0.11-0.1,0.24-0.19,0.39-0.26c0.16-0.07,0.32-0.11,0.49-0.13c0.18-0.02,0.35,0,0.52,0.06c0.13,0.04,0.24,0.09,0.32,0.16
		c0.08,0.06,0.13,0.13,0.15,0.2c0.02,0.07,0.03,0.14,0.01,0.21c-0.02,0.07-0.06,0.13-0.11,0.19c-0.06,0.06-0.13,0.1-0.21,0.13
		c-0.08,0.03-0.15,0.03-0.23,0c-0.05-0.02-0.08-0.05-0.09-0.09c-0.01-0.04,0-0.1,0.01-0.18c0.01-0.06,0.01-0.12-0.02-0.17
		c-0.02-0.05-0.08-0.09-0.17-0.11c-0.09-0.03-0.19-0.04-0.29-0.02c-0.1,0.02-0.18,0.06-0.25,0.12c-0.06,0.05-0.08,0.11-0.07,0.15
		c0.01,0.05,0.04,0.1,0.09,0.15c0.05,0.05,0.13,0.11,0.23,0.19c0.12,0.09,0.2,0.18,0.25,0.27c0.05,0.09,0.06,0.18,0.04,0.27
		C500.87,144.97,500.81,145.07,500.71,145.16z"/>
	<path class="st17" d="M502.59,143.9c0.02,0.01,0.04,0.01,0.06,0.02c0.1-0.11,0.2-0.21,0.3-0.32c0.08-0.09,0.15-0.15,0.2-0.2
		c0.05-0.05,0.1-0.09,0.15-0.12c0.05-0.03,0.11-0.05,0.17-0.07c0.06-0.01,0.11-0.01,0.16,0c0.07,0.02,0.1,0.06,0.11,0.13
		c0,0.04-0.01,0.09-0.05,0.14c-0.04,0.05-0.1,0.12-0.18,0.22c-0.11,0.12-0.23,0.25-0.34,0.37c0.06,0.02,0.13,0.03,0.19,0.05
		c0.08,0.02,0.12,0.05,0.12,0.1c0.01,0.05-0.02,0.1-0.07,0.16c-0.07,0.07-0.14,0.12-0.23,0.13c-0.08,0.01-0.18,0.01-0.28-0.02
		c-0.03-0.01-0.07-0.02-0.1-0.03c-0.32,0.33-0.64,0.65-0.96,0.98c-0.08,0.08-0.14,0.15-0.18,0.19c-0.04,0.05-0.06,0.09-0.06,0.12
		c0,0.04,0.03,0.06,0.08,0.08c0.03,0.01,0.08,0.02,0.14,0.02c0.07,0.01,0.11,0.01,0.14,0.02c0.04,0.01,0.06,0.04,0.06,0.09
		c0,0.04-0.03,0.09-0.08,0.14c-0.09,0.08-0.2,0.14-0.35,0.15c-0.14,0.02-0.3,0-0.48-0.06c-0.17-0.05-0.27-0.12-0.3-0.2
		c-0.03-0.08-0.01-0.17,0.07-0.28c0.07-0.1,0.19-0.24,0.36-0.4c0.34-0.33,0.68-0.67,1.01-1.01c-0.02-0.01-0.05-0.01-0.07-0.02
		c-0.08-0.02-0.12-0.06-0.12-0.11c0-0.05,0.02-0.1,0.08-0.16c0.05-0.06,0.12-0.1,0.19-0.12
		C502.44,143.88,502.51,143.88,502.59,143.9z"/>
	<path class="st17" d="M503.56,146.49c-0.23,0.07-0.44,0.11-0.61,0.13c-0.17,0.02-0.34,0-0.49-0.04c-0.14-0.04-0.24-0.1-0.29-0.18
		c-0.05-0.08-0.06-0.18-0.02-0.29c0.04-0.11,0.11-0.22,0.22-0.32c0.15-0.15,0.32-0.26,0.51-0.34c0.2-0.08,0.39-0.11,0.59-0.11
		c0.04,0,0.14,0.01,0.31,0.01c0.16,0.01,0.3,0.01,0.42,0.01c0.12,0,0.25,0,0.4-0.01c0.13-0.15,0.2-0.26,0.21-0.34
		c0.01-0.08-0.06-0.14-0.22-0.18c-0.14-0.03-0.26-0.04-0.36-0.02c-0.1,0.02-0.22,0.06-0.34,0.13c-0.12,0.06-0.2,0.11-0.25,0.13
		c-0.04,0.02-0.1,0.02-0.17,0c-0.06-0.02-0.09-0.05-0.1-0.1c-0.01-0.05,0.02-0.11,0.08-0.17c0.09-0.1,0.21-0.18,0.36-0.25
		c0.15-0.07,0.32-0.12,0.52-0.15c0.19-0.02,0.4-0.01,0.61,0.04c0.24,0.06,0.39,0.13,0.48,0.22c0.08,0.09,0.1,0.2,0.04,0.34
		c-0.06,0.14-0.18,0.31-0.37,0.52c-0.12,0.13-0.22,0.24-0.3,0.33c-0.08,0.09-0.18,0.19-0.28,0.3c-0.1,0.1-0.18,0.22-0.26,0.34
		c-0.07,0.12-0.12,0.2-0.15,0.23c-0.05,0.06-0.13,0.1-0.23,0.13c-0.1,0.03-0.18,0.04-0.25,0.02c-0.06-0.01-0.09-0.06-0.09-0.12
		C503.51,146.7,503.53,146.6,503.56,146.49z M504.28,145.69c-0.11,0.01-0.25,0.01-0.44,0.01c-0.18-0.01-0.31-0.01-0.38-0.01
		c-0.07,0-0.16,0.02-0.25,0.05c-0.1,0.03-0.18,0.08-0.26,0.16c-0.08,0.08-0.12,0.16-0.11,0.23c0.01,0.07,0.06,0.12,0.16,0.15
		c0.11,0.03,0.23,0.03,0.37,0.01c0.14-0.02,0.26-0.07,0.38-0.13c0.13-0.07,0.28-0.2,0.46-0.39
		C504.23,145.74,504.26,145.72,504.28,145.69z"/>
	<path class="st17" d="M506.62,145.21c-0.02,0.02-0.04,0.05-0.06,0.07c0.21-0.11,0.4-0.19,0.57-0.23c0.17-0.04,0.32-0.05,0.47-0.02
		c0.15,0.03,0.25,0.08,0.31,0.17c0.06,0.09,0.07,0.2,0.02,0.33c-0.02,0.08-0.06,0.16-0.12,0.24c-0.06,0.08-0.14,0.19-0.25,0.32
		c-0.31,0.36-0.62,0.72-0.93,1.07c-0.1,0.11-0.21,0.2-0.31,0.24c-0.11,0.05-0.2,0.06-0.28,0.05c-0.08-0.02-0.13-0.06-0.12-0.13
		c0-0.07,0.05-0.16,0.15-0.27c0.29-0.31,0.57-0.63,0.84-0.95c0.16-0.19,0.26-0.34,0.3-0.45c0.03-0.11-0.02-0.18-0.18-0.21
		c-0.1-0.02-0.21-0.01-0.35,0.04c-0.13,0.04-0.26,0.12-0.39,0.21c-0.1,0.08-0.25,0.23-0.46,0.46c-0.21,0.24-0.43,0.47-0.64,0.7
		c-0.11,0.11-0.21,0.19-0.32,0.24c-0.11,0.04-0.2,0.06-0.28,0.04c-0.08-0.02-0.12-0.06-0.12-0.13c0-0.07,0.06-0.16,0.16-0.27
		c0.5-0.53,0.99-1.07,1.47-1.62c0.09-0.11,0.19-0.18,0.28-0.23c0.09-0.04,0.18-0.06,0.25-0.04c0.05,0.01,0.08,0.03,0.1,0.06
		c0.02,0.03,0.02,0.07,0,0.13C506.72,145.08,506.68,145.14,506.62,145.21z"/>
	<path class="st17" d="M508.87,145.31c0.02,0,0.04,0.01,0.06,0.01c0.1-0.12,0.19-0.24,0.28-0.35c0.08-0.1,0.14-0.17,0.18-0.22
		c0.05-0.05,0.1-0.1,0.15-0.13c0.05-0.04,0.11-0.07,0.17-0.09c0.06-0.02,0.12-0.03,0.17-0.02c0.07,0.01,0.11,0.05,0.12,0.11
		c0.01,0.04,0,0.09-0.03,0.15c-0.03,0.06-0.09,0.13-0.16,0.24c-0.1,0.14-0.21,0.27-0.32,0.41c0.07,0.01,0.14,0.02,0.21,0.03
		c0.08,0.01,0.12,0.04,0.13,0.09c0.01,0.05-0.01,0.1-0.06,0.16c-0.06,0.08-0.14,0.13-0.22,0.16c-0.09,0.02-0.18,0.03-0.29,0.01
		c-0.04,0-0.07-0.01-0.11-0.02c-0.29,0.36-0.59,0.72-0.89,1.08c-0.08,0.09-0.13,0.16-0.17,0.21c-0.04,0.05-0.05,0.09-0.05,0.13
		c0,0.04,0.03,0.06,0.09,0.07c0.03,0.01,0.08,0.01,0.15,0.01c0.07,0,0.12,0,0.15,0c0.05,0.01,0.07,0.03,0.08,0.08
		c0,0.04-0.02,0.09-0.06,0.15c-0.08,0.1-0.19,0.16-0.34,0.19c-0.14,0.03-0.31,0.03-0.5,0c-0.18-0.03-0.29-0.09-0.33-0.17
		c-0.04-0.08-0.02-0.17,0.04-0.28c0.07-0.11,0.18-0.26,0.33-0.44c0.32-0.37,0.63-0.74,0.94-1.12c-0.02,0-0.05-0.01-0.07-0.01
		c-0.08-0.01-0.12-0.04-0.13-0.09c-0.01-0.05,0.01-0.1,0.06-0.16c0.05-0.06,0.11-0.11,0.19-0.14
		C508.71,145.3,508.79,145.29,508.87,145.31z"/>
</g>
<g>
	<g>
		<path class="st17" d="M523.57,58.86l1.03,1.62c0.09-0.29,0.2-0.54,0.36-0.74c0.16-0.2,0.4-0.36,0.73-0.49
			c0.38-0.15,0.77-0.2,1.16-0.14c0.39,0.05,0.77,0.21,1.13,0.46c0.36,0.26,0.68,0.6,0.95,1.04c0.2,0.32,0.34,0.63,0.43,0.94
			c0.08,0.3,0.1,0.59,0.06,0.85c-0.04,0.26-0.15,0.49-0.32,0.7c-0.17,0.2-0.4,0.36-0.69,0.47c-0.18,0.07-0.36,0.11-0.54,0.14
			c-0.18,0.02-0.34,0.02-0.49,0c-0.15-0.02-0.28-0.05-0.4-0.09c-0.12-0.04-0.28-0.1-0.5-0.18l0.07,0.11
			c0.13,0.2,0.17,0.37,0.13,0.51c-0.04,0.14-0.14,0.25-0.3,0.31c-0.16,0.06-0.32,0.06-0.49,0c-0.16-0.06-0.31-0.2-0.43-0.4
			l-2.93-4.63c-0.14-0.22-0.19-0.4-0.17-0.54c0.02-0.15,0.12-0.25,0.29-0.32c0.18-0.07,0.35-0.07,0.51,0
			C523.3,58.53,523.44,58.67,523.57,58.86z M525.62,61.99c0.27,0.42,0.58,0.71,0.93,0.85c0.35,0.14,0.7,0.15,1.04,0.02
			c0.29-0.11,0.46-0.33,0.53-0.64c0.06-0.31-0.04-0.69-0.32-1.12c-0.18-0.28-0.37-0.5-0.59-0.67c-0.22-0.17-0.44-0.28-0.67-0.32
			c-0.23-0.05-0.45-0.03-0.66,0.05c-0.22,0.09-0.38,0.22-0.48,0.39c-0.1,0.18-0.13,0.39-0.1,0.64
			C525.33,61.43,525.43,61.7,525.62,61.99z"/>
		<path class="st17" d="M528.83,56.79l1.03,1.62c0.08-0.29,0.2-0.54,0.36-0.73c0.15-0.2,0.4-0.36,0.73-0.49
			c0.38-0.15,0.77-0.2,1.16-0.14c0.39,0.05,0.77,0.21,1.13,0.46c0.36,0.25,0.68,0.6,0.95,1.04c0.2,0.32,0.35,0.63,0.43,0.94
			c0.08,0.3,0.1,0.59,0.06,0.85c-0.04,0.26-0.15,0.49-0.32,0.7c-0.17,0.2-0.4,0.36-0.69,0.47c-0.18,0.07-0.36,0.12-0.54,0.14
			c-0.18,0.02-0.35,0.02-0.49,0c-0.15-0.02-0.28-0.05-0.4-0.09c-0.12-0.04-0.28-0.1-0.5-0.18l0.07,0.1c0.13,0.2,0.17,0.37,0.13,0.51
			c-0.04,0.14-0.14,0.25-0.3,0.31c-0.16,0.06-0.32,0.06-0.49,0c-0.16-0.06-0.3-0.2-0.43-0.4l-2.93-4.63
			c-0.14-0.21-0.19-0.4-0.17-0.54c0.02-0.15,0.12-0.25,0.29-0.32c0.18-0.07,0.34-0.07,0.51,0C528.57,56.47,528.71,56.6,528.83,56.79
			z M530.88,59.92c0.27,0.42,0.58,0.71,0.93,0.85c0.35,0.14,0.7,0.15,1.04,0.02c0.29-0.11,0.46-0.33,0.53-0.64s-0.04-0.69-0.32-1.12
			c-0.18-0.28-0.37-0.5-0.59-0.67c-0.22-0.17-0.44-0.28-0.67-0.32c-0.23-0.05-0.45-0.03-0.66,0.05c-0.22,0.09-0.38,0.22-0.48,0.39
			c-0.1,0.18-0.14,0.39-0.1,0.64C530.59,59.37,530.7,59.64,530.88,59.92z"/>
	</g>
</g>
<path class="st0" d="M147.15,169.42v33.99c4.18-4.35,8.45-7.67,12.8-9.98c4.35-2.31,9.73-3.46,16.14-3.46
	c7.39,0,13.87,1.75,19.44,5.26c5.57,3.51,9.89,8.59,12.96,15.24c3.07,6.65,4.61,14.55,4.61,23.67c0,6.74-0.86,12.92-2.57,18.54
	c-1.71,5.62-4.2,10.5-7.46,14.63c-3.26,4.13-7.21,7.32-11.86,9.58c-4.65,2.26-9.77,3.38-15.36,3.38c-3.42,0-6.64-0.41-9.66-1.22
	c-3.02-0.82-5.58-1.89-7.7-3.22c-2.12-1.33-3.93-2.7-5.42-4.12c-1.5-1.41-3.46-3.53-5.91-6.36v2.2c0,4.18-1.01,7.35-3.02,9.49
	c-2.01,2.15-4.56,3.22-7.66,3.22c-3.15,0-5.67-1.07-7.54-3.22c-1.87-2.15-2.81-5.31-2.81-9.49V170.4c0-4.51,0.91-7.92,2.73-10.23
	c1.82-2.31,4.36-3.46,7.62-3.46c3.42,0,6.06,1.1,7.91,3.3C146.22,162.21,147.15,165.35,147.15,169.42z M148.21,235.52
	c0,8.86,2.02,15.66,6.07,20.42c4.05,4.75,9.36,7.13,15.93,7.13c5.6,0,10.42-2.43,14.47-7.29c4.05-4.86,6.07-11.83,6.07-20.91
	c0-5.87-0.84-10.92-2.53-15.16c-1.69-4.24-4.08-7.51-7.17-9.82c-3.1-2.31-6.71-3.46-10.84-3.46c-4.24,0-8.01,1.15-11.33,3.46
	c-3.31,2.31-5.92,5.65-7.83,10.02C149.16,224.29,148.21,229.49,148.21,235.52z"/>
<path class="st0" d="M293.04,240.49h-43.52c0.05,5.05,1.07,9.51,3.06,13.37c1.98,3.86,4.62,6.77,7.91,8.72
	c3.29,1.96,6.91,2.93,10.88,2.93c2.66,0,5.09-0.31,7.29-0.93c2.2-0.62,4.33-1.6,6.4-2.94c2.07-1.33,3.97-2.76,5.71-4.28
	c1.74-1.52,3.99-3.59,6.76-6.19c1.14-0.98,2.77-1.47,4.89-1.47c2.28,0,4.13,0.63,5.54,1.88c1.41,1.25,2.12,3.02,2.12,5.3
	c0,2.01-0.79,4.36-2.37,7.05c-1.58,2.69-3.95,5.27-7.13,7.74c-3.18,2.47-7.17,4.52-11.98,6.15c-4.81,1.63-10.34,2.45-16.58,2.45
	c-14.29,0-25.4-4.08-33.33-12.23c-7.93-8.15-11.9-19.21-11.9-33.17c0-6.57,0.98-12.67,2.93-18.3c1.96-5.62,4.81-10.45,8.56-14.46
	c3.75-4.02,8.37-7.11,13.86-9.25c5.49-2.15,11.57-3.22,18.26-3.22c8.69,0,16.15,1.84,22.37,5.5c6.22,3.67,10.88,8.41,13.98,14.22
	c3.1,5.81,4.64,11.74,4.64,17.77c0,5.6-1.6,9.22-4.81,10.88C303.36,239.67,298.85,240.49,293.04,240.49z M249.51,227.86h40.34
	c-0.54-7.61-2.6-13.3-6.15-17.08c-3.56-3.77-8.25-5.66-14.06-5.66c-5.54,0-10.09,1.92-13.65,5.75
	C252.43,214.7,250.27,220.36,249.51,227.86z"/>
<path class="st0" d="M330.12,266.74v-96.5c0-4.45,0.99-7.82,2.97-10.1c1.98-2.28,4.66-3.42,8.03-3.42c3.37,0,6.08,1.13,8.15,3.38
	c2.06,2.25,3.1,5.64,3.1,10.15v96.5c0,4.51-1.05,7.89-3.14,10.15c-2.09,2.26-4.8,3.38-8.11,3.38c-3.26,0-5.91-1.17-7.95-3.5
	C331.14,274.43,330.12,271.08,330.12,266.74z"/>
<path class="st0" d="M375.35,266.74v-96.5c0-4.45,0.99-7.82,2.98-10.1c1.98-2.28,4.66-3.42,8.03-3.42c3.37,0,6.09,1.13,8.15,3.38
	c2.07,2.25,3.1,5.64,3.1,10.15v96.5c0,4.51-1.05,7.89-3.14,10.15c-2.09,2.26-4.8,3.38-8.11,3.38c-3.26,0-5.91-1.17-7.95-3.5
	C376.37,274.43,375.35,271.08,375.35,266.74z"/>
<path class="st4" d="M614.04,169.42v33.99c4.18-4.35,8.45-7.67,12.8-9.98c4.35-2.31,9.73-3.46,16.14-3.46
	c7.39,0,13.87,1.75,19.44,5.26c5.57,3.51,9.89,8.59,12.96,15.24c3.07,6.65,4.61,14.55,4.61,23.67c0,6.74-0.86,12.92-2.57,18.54
	c-1.71,5.62-4.2,10.5-7.46,14.63c-3.26,4.13-7.21,7.32-11.86,9.58c-4.65,2.26-9.77,3.38-15.36,3.38c-3.42,0-6.64-0.41-9.66-1.22
	c-3.01-0.82-5.58-1.89-7.7-3.22c-2.12-1.33-3.92-2.7-5.42-4.12c-1.5-1.41-3.46-3.53-5.91-6.36v2.2c0,4.18-1.01,7.35-3.02,9.49
	c-2.01,2.15-4.56,3.22-7.66,3.22c-3.15,0-5.66-1.07-7.54-3.22c-1.87-2.15-2.81-5.31-2.81-9.49V170.4c0-4.51,0.91-7.92,2.73-10.23
	c1.82-2.31,4.36-3.46,7.62-3.46c3.42,0,6.06,1.1,7.91,3.3C613.12,162.21,614.04,165.35,614.04,169.42z M615.1,235.52
	c0,8.86,2.02,15.66,6.07,20.42c4.05,4.75,9.36,7.13,15.93,7.13c5.6,0,10.42-2.43,14.47-7.29c4.05-4.86,6.07-11.83,6.07-20.91
	c0-5.87-0.84-10.92-2.53-15.16c-1.68-4.24-4.08-7.51-7.17-9.82c-3.1-2.31-6.71-3.46-10.84-3.46c-4.24,0-8.01,1.15-11.33,3.46
	c-3.32,2.31-5.92,5.65-7.83,10.02C616.05,224.29,615.1,229.49,615.1,235.52z"/>
<path class="st4" d="M781.12,235.03c0,6.63-1.03,12.74-3.09,18.34c-2.07,5.6-5.05,10.41-8.97,14.43c-3.91,4.02-8.59,7.11-14.02,9.25
	c-5.43,2.15-11.55,3.22-18.34,3.22c-6.74,0-12.79-1.09-18.18-3.26c-5.38-2.17-10.04-5.28-13.98-9.33
	c-3.94-4.05-6.93-8.83-8.96-14.34c-2.04-5.51-3.06-11.62-3.06-18.3c0-6.74,1.03-12.9,3.1-18.5c2.06-5.6,5.02-10.38,8.88-14.35
	c3.86-3.97,8.53-7.02,14.02-9.17c5.49-2.15,11.54-3.22,18.18-3.22c6.74,0,12.85,1.09,18.34,3.26c5.49,2.17,10.19,5.27,14.1,9.29
	c3.91,4.02,6.89,8.8,8.92,14.34C780.1,222.24,781.12,228.35,781.12,235.03z M758.79,235.03c0-9.07-2-16.14-5.99-21.19
	c-3.99-5.06-9.36-7.58-16.1-7.58c-4.35,0-8.18,1.13-11.49,3.38c-3.31,2.26-5.87,5.58-7.66,9.99c-1.79,4.4-2.69,9.54-2.69,15.4
	c0,5.81,0.88,10.9,2.65,15.24c1.76,4.35,4.29,7.67,7.58,9.98c3.29,2.31,7.16,3.46,11.62,3.46c6.74,0,12.1-2.54,16.1-7.62
	C756.79,251.02,758.79,244,758.79,235.03z"/>
<path class="st4" d="M816.99,283.04l2.04-4.97l-27.38-68.95c-1.69-3.97-2.53-6.85-2.53-8.64c0-1.9,0.49-3.67,1.47-5.3
	c0.98-1.63,2.32-2.93,4.03-3.91c1.71-0.98,3.49-1.47,5.34-1.47c3.21,0,5.63,1.02,7.26,3.06c1.63,2.04,3.07,4.96,4.32,8.76
	l18.83,54.77l17.85-50.94c1.41-4.13,2.69-7.36,3.83-9.7c1.14-2.34,2.35-3.91,3.63-4.73c1.28-0.82,3.08-1.23,5.42-1.23
	c1.68,0,3.3,0.45,4.85,1.35c1.55,0.9,2.75,2.11,3.59,3.63c0.84,1.52,1.26,3.13,1.26,4.81c-0.22,1.03-0.57,2.5-1.06,4.4
	c-0.49,1.9-1.09,3.83-1.79,5.79l-29.01,75.96c-2.5,6.68-4.94,11.93-7.34,15.73c-2.39,3.8-5.55,6.72-9.49,8.76
	c-3.94,2.04-9.25,3.06-15.93,3.06c-6.52,0-11.41-0.71-14.67-2.12c-3.26-1.41-4.89-3.99-4.89-7.74c0-2.55,0.77-4.52,2.32-5.91
	c1.55-1.39,3.84-2.08,6.89-2.08c1.19,0,2.36,0.16,3.5,0.49c1.41,0.32,2.64,0.49,3.67,0.49c2.55,0,4.56-0.38,6.03-1.14
	c1.47-0.76,2.78-2.08,3.95-3.95C814.12,289.44,815.46,286.68,816.99,283.04z"/>
<path class="st4" d="M542.07,268.29c-0.08-1.48-9.23-21.93-11.12-26.06c-1.89-4.12-5.44-13.52-6.1-16.9
	c-0.66-3.38-2.14-6.68-2.72-7.26c-0.58-0.58-10.71-11.3-11.62-12.86c-0.91-1.57-5.52-4.12-7.75-6.27c-2.23-2.14-2.72-4.49-4-4.91
	c-1.28-0.41-2.51-0.7-2.51-0.7c0.08-0.82,0.33-8.66,0.33-8.66c-0.52-0.07-1.02-0.13-1.52-0.2c-0.15-0.02-0.3-0.05-0.45-0.07
	c-0.34-0.05-0.68-0.1-1.02-0.15c-0.18-0.03-0.36-0.06-0.54-0.09c-0.29-0.05-0.59-0.09-0.87-0.14c-0.2-0.04-0.4-0.07-0.6-0.11
	c-0.26-0.05-0.52-0.09-0.77-0.14c-0.21-0.04-0.42-0.08-0.63-0.12c-0.23-0.04-0.46-0.09-0.68-0.13c-0.22-0.04-0.43-0.09-0.65-0.14
	c-0.21-0.04-0.41-0.09-0.62-0.13c-0.22-0.05-0.44-0.1-0.66-0.15c-0.19-0.04-0.38-0.09-0.56-0.13c-0.23-0.05-0.45-0.11-0.67-0.16
	c-0.17-0.04-0.34-0.08-0.5-0.12c-0.23-0.06-0.45-0.12-0.68-0.18c-0.15-0.04-0.3-0.08-0.44-0.12c-0.23-0.06-0.46-0.13-0.68-0.19
	c-0.13-0.04-0.26-0.07-0.39-0.11c-0.23-0.07-0.46-0.14-0.69-0.2c-0.12-0.03-0.23-0.07-0.34-0.1c-0.07-0.02-3.87-1.19-4.01-1.39
	c-0.11-0.04-0.22-0.09-0.33-0.13c-0.03-0.01-0.06-0.03-0.09-0.04c-0.03-0.01-0.06-0.02-0.09-0.04c-0.1-0.04-0.21-0.08-0.31-0.12
	c-3.3-1.36-5.59-2.73-7.11-3.83c-0.01,0-0.02-0.01-0.02-0.02c-0.1-0.07-0.2-0.14-0.29-0.21c-0.01-0.01-0.02-0.02-0.03-0.02
	c-0.1-0.08-0.2-0.15-0.3-0.23c-0.23,2.89-0.67,6.32-1.46,7.86c-1.4,2.72-1.4,5.6,0,7.95c0.95,1.6,4.09,4.17,6.02,5.67l0,0
	c0,0,10.19,5.99,16.54,9.06c0.09-0.12,0.14-0.18,0.14-0.18c0.78,0.43,1.52,0.85,2.24,1.27c0.75,0.31,1.29,0.64,1.69,0.99
	c16.18,9.62,16.31,14.26,16.16,15.23c-0.17,1.05,0.26,1.93,1.51,2.26c1.25,0.33,2.48,1.09,2.26,2.26c-0.22,1.18-0.94,2.32,1.42,3.79
	c2.35,1.47,2.06,4.12,2.8,8.98c0.74,4.86,5.44,13.55,7.21,14.58c1.77,1.03,6.77,8.42,8.26,11.85c1.49,3.42,2.59,3.51,2.59,3.51l0,0
	c0.83,0.03,1.47-0.37,1.47-0.37c-0.56-3.41-7.81-15.07-9.24-17.49c1.47,2.5,9.15,14.58,9.24,17.49c0.99-0.3,2.21-0.84,3.31-1.82
	C542.11,268.53,542.07,268.41,542.07,268.29z"/>
<path class="st17" d="M567.73,151.25c0.12,0.17,0.2,0.36,0.23,0.56c0.11,0.92-0.92,1.79-2.3,1.95l-5,0.56
	c-1.38,0.15-2.59-0.47-2.7-1.39c-0.02-0.17,0-0.34,0.05-0.5c-0.31,0.34-0.48,0.75-0.43,1.16c0.12,1.01,1.44,1.69,2.96,1.52
	l5.48-0.61c1.51-0.17,2.64-1.12,2.52-2.13C568.49,151.91,568.19,151.52,567.73,151.25z"/>
<path class="st6" d="M563.87,153.96c0,0,2.09-0.09,2.84-0.49c0,0,0.8-0.36,1.05-0.82c0,0,0.22-0.34,0.22-0.57
	c0.01-0.23-0.05-0.76-0.3-0.89l-0.3-0.12c0,0-0.05,1.04-1.23,1.18c0,0-1.34-0.11-1.44,0.6C564.6,153.55,563.87,153.96,563.87,153.96
	z"/>
</svg>
