<svg xmlns="http://www.w3.org/2000/svg" width="290.01" height="240" viewBox="0 0 290.01 240">
  <title>Design</title>
  <g>
    <path d="M105,240c0-66.28,54-120,120.57-120a120.44,120.44,0,0,1,77.84,28.35C354.76,153,395,196,395,248.28c0,55.42-45.15,100.34-100.83,100.34a103.19,103.19,0,0,1-15-1.1A120.52,120.52,0,0,1,225.57,360C159,360,105,306.28,105,240Z" transform="translate(-105 -120)" style="fill: #ff9797"/>
    <g>
      <path d="M337,159c-1.3,24.35-43.27,64-74.47,90.06l-2.58-.12L229.4,218.43c-.06-1-.1-1.62-.16-2.62,24.8-31.82,62.33-74.14,86.54-76.69C328.17,137.82,337.62,146.82,337,159Z" transform="translate(-105 -120)" style="fill: #ee3616"/>
      <path d="M337,159c-1.3,24.35-43.27,64-74.47,90.06l-2.58-.12-15.33-15.33c2-2,86.22-86.22,88.1-88.1A19.12,19.12,0,0,1,337,159Z" transform="translate(-105 -120)" style="fill: #cb0010"/>
      <path d="M262.5,249.07c-9.63,8.05-19.28,15.58-24.6,19.59a32.39,32.39,0,0,0-27.67-27.22c.23-.35,7.9-11.41,19-25.63Z" transform="translate(-105 -120)" style="fill: #e0f4fe"/>
      <path d="M262.5,249.07c-9.66,8.08-20.1,16.21-24.6,19.59A33.16,33.16,0,0,0,228.17,250l17.65-17.64Z" transform="translate(-105 -120)" style="fill: #bcdcfe"/>
      <path d="M229.71,249.09c-15.4-15.4-41.24-11.43-54.27,4.85-15.36,19.2-2.5,36.34-17,51.63A5.26,5.26,0,0,0,160.2,314c24,10.28,54.23,3.6,68.24-11.16C241.61,289,245.69,265.07,229.71,249.09Z" transform="translate(-105 -120)" style="fill: #fed941"/>
      <path d="M228.44,302.88c-13.46,14.19-41.9,20.9-65.4,12.29l66.37-66.37C244.38,262.73,243.16,287.35,228.44,302.88Z" transform="translate(-105 -120)" style="fill: #fcbe29"/>
    </g>
  </g>
</svg>
