<svg xmlns="http://www.w3.org/2000/svg" width="280" height="280" viewBox="0 0 280 280">
  <title>Development</title>
  <g>
    <circle cx="140" cy="140" r="140" style="fill: #ff9797"/>
    <g>
      <path d="M349.56,243.56A51.64,51.64,0,1,1,328.32,239,51.64,51.64,0,0,1,349.56,243.56Z" transform="translate(-111 -101)" style="fill: #00efd1"/>
      <path d="M349.56,184.17v59.39a51.64,51.64,0,0,0-70.85,61.36H167.78V184.17A18.17,18.17,0,0,1,185.94,166H331.39a18.16,18.16,0,0,1,18.17,18.17Z" transform="translate(-111 -101)" style="fill: #00acea"/>
      <g>
        <path d="M224.86,139l22,27H185.94a18.17,18.17,0,0,0-18.16,18.17V304.91h-6.3a18.15,18.15,0,0,1-18.16-18.16h0V150.5a18.16,18.16,0,0,1,18.16-18.16h49.3A18.13,18.13,0,0,1,224.85,139Z" transform="translate(-111 -101)" style="fill: #fedb41"/>
        <path d="M316.89,311.33a3,3,0,0,1-1.79-.6L291.67,293a3,3,0,0,1-.57-4.15,2.61,2.61,0,0,1,.57-.58l23.43-17.72a3,3,0,0,1,3.67,4.67l-.09.06-20.3,15.36L318.68,306a3,3,0,0,1-1.79,5.33Z" transform="translate(-111 -101)" style="fill: #fedb41"/>
        <path d="M339.75,311.33A3,3,0,0,1,338,306l20.31-15.35L338,275.29a3,3,0,0,1,3.47-4.82l.11.09L365,288.28a3,3,0,0,1,.57,4.15,2.85,2.85,0,0,1-.57.58l-23.44,17.72a3,3,0,0,1-1.79.6Z" transform="translate(-111 -101)" style="fill: #fedb41"/>
        <path d="M324.32,320.18a3,3,0,0,1-3-3,2.28,2.28,0,0,1,0-.45l8-52.85a3,3,0,1,1,5.86.89l-8,52.85A3,3,0,0,1,324.32,320.18Z" transform="translate(-111 -101)" style="fill: #fedb41"/>
      </g>
    </g>
  </g>
</svg>
