<svg id="Layer_1" data-name="Layer 1" xmlns="http://www.w3.org/2000/svg" viewBox="0 0 155.02 155.02"><title>Instagram</title><path d="M250,216.05a14.17,14.17,0,1,0,14.18,14.18A14.19,14.19,0,0,0,250,216.05Z" transform="translate(-172.49 -152.72)"/><path d="M283.14,205.17a14,14,0,0,0-8.08-8.08,23.4,23.4,0,0,0-7.88-1.45c-4.47-.2-5.82-.25-17.18-.25s-12.68.05-17.16.25a23.73,23.73,0,0,0-7.9,1.45,13.32,13.32,0,0,0-4.88,3.18,13.15,13.15,0,0,0-3.18,4.9,24.09,24.09,0,0,0-1.47,7.88c-.2,4.48-.25,5.83-.25,17.18s.05,12.68.25,17.16a24.26,24.26,0,0,0,1.47,7.91,13,13,0,0,0,3.18,4.87,12.72,12.72,0,0,0,4.88,3.18,23.33,23.33,0,0,0,7.9,1.47c4.48.2,5.83.26,17.16.26s12.71-.06,17.18-.26a23,23,0,0,0,7.88-1.47,12.79,12.79,0,0,0,4.9-3.18,13.28,13.28,0,0,0,3.18-4.87,23.34,23.34,0,0,0,1.45-7.91c.23-4.48.25-5.8.25-17.16s0-12.7-.25-17.18A23.18,23.18,0,0,0,283.14,205.17ZM250,252a21.82,21.82,0,1,1,21.83-21.81A21.79,21.79,0,0,1,250,252Zm22.69-39.39a5.1,5.1,0,1,1,5.1-5.1A5.12,5.12,0,0,1,272.69,212.65Z" transform="translate(-172.49 -152.72)"/><path d="M304.8,175.43a77.47,77.47,0,1,0,22.71,54.8A77.2,77.2,0,0,0,304.8,175.43Zm-12.56,72.31a31.1,31.1,0,0,1-2,10.33,20.76,20.76,0,0,1-4.9,7.53,21,21,0,0,1-7.53,4.9,30.94,30.94,0,0,1-10.31,2c-4.52.2-6,.25-17.53.25s-13-.05-17.51-.25a31.07,31.07,0,0,1-10.33-2,21.56,21.56,0,0,1-7.53-4.9,21.3,21.3,0,0,1-4.9-7.53,31.62,31.62,0,0,1-2-10.33c-.2-4.53-.25-6-.25-17.51s.05-13,.25-17.53a31.42,31.42,0,0,1,2-10.3A21.7,21.7,0,0,1,222.16,190a30.82,30.82,0,0,1,10.33-2c4.53-.2,6-.25,17.51-.25s13,0,17.53.25a30.69,30.69,0,0,1,10.31,2,21.7,21.7,0,0,1,12.43,12.43,30.9,30.9,0,0,1,2,10.3c.23,4.55.25,6,.25,17.53S292.47,243.21,292.24,247.74Z" transform="translate(-172.49 -152.72)"/></svg>