<svg xmlns="http://www.w3.org/2000/svg" width="329.68" height="247.39" viewBox="0 0 329.68 247.39">
  <title>Launch</title>
  <g>
    <path d="M306,302.29a109.89,109.89,0,0,1-30.26,13.23c-32.1,8.61-64.92,2-91.58-15.46-41.6,8.78-83.9-18.61-95.76-62.87s11.06-89.14,51.48-102.34c14.34-28.48,39.46-50.58,71.57-59.19,53.53-14.35,109,13.48,134.7,63.8,30.32,5.82,56.7,29.65,65.67,63.12,12.24,45.68-12.57,92-55.43,103.51A76.72,76.72,0,0,1,306,302.29Z" transform="translate(-85.22 -71.9)" style="fill: #ff9797"/>
    <g>
      <g>
        <path d="M176.41,237.59c-13.52.71-36.63,8.38-34.4,24.4,5.65,40.66-38.8,53.71,20.35,53.71,29.75,0,48.51-13.05,51.34-40.45l-8-31.06Z" transform="translate(-85.22 -71.9)" style="fill: #fe636e;fill-rule: evenodd"/>
        <path d="M187.05,248.35c-6.27.33-17,3.88-16,11.33,2.63,18.89-18,24.94,9.45,24.94,13.83,0,22.55-6.05,23.86-18.79l-3-15.34Z" transform="translate(-85.22 -71.9)" style="fill: #ffd659;fill-rule: evenodd"/>
        <path d="M200.62,276.45c-8,14.62-24,21.67-45.83,21.67a167.32,167.32,0,0,1-19.64-.86c-6.32,13.44-9.4,18.44,27.21,18.44,29.76,0,48.51-13.05,51.35-40.45L207,268.44l-2.3-2.33c-.2.79-.42,1.56-.66,2.33a20.06,20.06,0,0,1-3.36,8Z" transform="translate(-85.22 -71.9)" style="fill: #fb2a39;fill-rule: evenodd"/>
        <path d="M198.09,259.49c-3,9.13-11,13.5-22.76,13.5-2.36,0-4.35,0-6-.13-3.46,8.67-8.41,11.76,11.23,11.76,9.17,0,16.09-2.65,20.1-8.17a20.06,20.06,0,0,0,3.36-8c.17-.84.3-1.7.4-2.61Z" transform="translate(-85.22 -71.9)" style="fill: #ffbf00;fill-rule: evenodd"/>
        <path d="M192.77,215.31l-17.64,10.36c-3.54,2.08-2.95,7.66-.13,10.52l1.41,1.41,10.64,10.75,17.33,17.49,9.32,9.42,4.86,4.91c2.84,2.85,8.36,3.43,10.43-.14l10.24-17.81-11.6-45.1Z" transform="translate(-85.22 -71.9)" style="fill: #838383;fill-rule: evenodd"/>
        <path d="M335.66,111.39c-8.48-1.57-23.93.08-42.75,6.5l8.47,31.42,34.39,11.74c6.39-19.12,8-34.78,6.38-43.28-.94-5-1.55-5.46-6.49-6.38Z" transform="translate(-85.22 -71.9)" style="fill: #838383;fill-rule: evenodd"/>
        <path d="M238.78,146.36c-23.54-8.58-41.78-4.67-60.27,12.23-8.57,8.33-22.84,19.27-11.06,31.17l14.65,14.79,42.12-21.48Z" transform="translate(-85.22 -71.9)" style="fill: #03bed7;fill-rule: evenodd"/>
        <path d="M307.54,215.76,268,232.29l-18,40.7,14.65,14.79c11.79,11.9,22.63-2.5,30.88-11.16C304,267.07,319.22,248.89,307.54,215.76Z" transform="translate(-85.22 -71.9)" style="fill: #03bed7;fill-rule: evenodd"/>
        <path d="M335.76,161q-1.49,4.49-3.33,9.19a216.42,216.42,0,0,1-24.89,45.53A241.88,241.88,0,0,1,249.9,273l-2.9-2.93-7.77-7.84-21-21.17L216,238.76l-2.27-2.28-21-21.17-10.66-10.76a241.86,241.86,0,0,1,56.67-58.19,208.19,208.19,0,0,1,54.13-28.46Z" transform="translate(-85.22 -71.9)" style="fill: #ececec;fill-rule: evenodd"/>
        <path d="M290.43,163.88c-11.37-11.46-30-11.22-41.66.54s-11.9,30.59-.54,42.06,30,11.22,41.66-.54S301.79,175.35,290.43,163.88Z" transform="translate(-85.22 -71.9)" style="fill: #a6e7f0;fill-rule: evenodd"/>
        <path d="M333,111c.83,8.91-1,23.27-6.77,40.4l9.54,9.62c6.4-19.12,8-34.78,6.38-43.28-.94-5-1.54-5.46-6.49-6.38-.83-.15-1.71-.28-2.66-.36Z" transform="translate(-85.22 -71.9)" style="fill: #595959;fill-rule: evenodd"/>
        <path d="M322.87,160.62A216.25,216.25,0,0,1,298,206.16a234.29,234.29,0,0,1-16.27,20.38,244,244,0,0,1-20.07,20,251.89,251.89,0,0,1-21.28,16.86l6.62,6.69L249.9,273a241.66,241.66,0,0,0,57.64-57.22,216.25,216.25,0,0,0,24.88-45.54c1.23-3.13,2.36-6.2,3.34-9.18l-9.54-9.62q-.93,2.79-2,5.67C323.79,158.26,323.34,159.44,322.87,160.62Z" transform="translate(-85.22 -71.9)" style="fill: #cecece;fill-rule: evenodd"/>
        <path d="M227.61,250.49,217.37,268.3c-2.06,3.57-7.59,3-10.42.14l6.75,6.81,4.87,4.91c2.83,2.85,8.35,3.44,10.42-.13l10.24-17.82Z" transform="translate(-85.22 -71.9)" style="fill: #595959;fill-rule: evenodd"/>
        <path d="M279.65,157.06c9.22,11.56,8.31,28.74-2.59,39.75a29.7,29.7,0,0,1-30.89,7.35,28.41,28.41,0,0,0,2.07,2.31c11.36,11.47,30,11.23,41.66-.53s11.89-30.59.53-42.06A28.42,28.42,0,0,0,279.65,157.06Z" transform="translate(-85.22 -71.9)" style="fill: #6bd9e7;fill-rule: evenodd"/>
        <path d="M307.54,215.76q-2.91,4.11-6.1,8.21c2.75,23.22-8.86,37-15.93,44.89-6.78,7.1-15.28,18.07-24.63,15.21l3.68,3.71c11.78,11.9,22.63-2.5,30.88-11.16C304,267.07,319.22,248.89,307.54,215.76Z" transform="translate(-85.22 -71.9)" style="fill: #0099b1;fill-rule: evenodd"/>
        <path d="M223.86,142.5a242.23,242.23,0,0,0-51,52.76l9.2,9.29a241.9,241.9,0,0,1,56.68-58.19A74.05,74.05,0,0,0,223.86,142.5Z" transform="translate(-85.22 -71.9)" style="fill: #0099b1;fill-rule: evenodd"/>
      </g>
      <path d="M234.72,224.45,218.28,241l0,0L216,238.77l-2.27-2.29,16.42-16.56a3.21,3.21,0,1,1,4.63,4.46l-.06.07Z" transform="translate(-85.22 -71.9)" style="fill: #cecece"/>
    </g>
  </g>
</svg>
