<svg id="Layer_1" data-name="Layer 1" xmlns="http://www.w3.org/2000/svg" viewBox="0 0 1920 714.06"><title>slider 1</title><rect width="1920" height="669.89" style="fill:#ff9797"/><rect x="1132.32" y="150.23" width="198.21" height="132.71" style="fill:#fff"/><path d="M1330.54,481.48s0-.83,0-2.42,0-3.93,0-7c0-6.14,0-15.15-.07-26.69,0-23.06-.09-56.2-.15-96.61l.29.29-198.2.07h0l.36-.36c0,47.28,0,92.24,0,132.72l-.33-.33,142.8.16,40.8.09,10.85,0,2.8,0,1,0-.93,0-2.76,0-10.79,0-40.72.08-143,.16H1132v-.32c0-40.48,0-85.44,0-132.72v-.35h.37l198.2.07h.28v.28c-.06,40.48-.11,73.69-.15,96.79,0,11.51-.06,20.5-.07,26.63,0,3,0,5.36,0,6.94S1330.54,481.48,1330.54,481.48Z" transform="translate(0 -198.53)" style="fill:#e1e1e1"/><path d="M1132.32,360.61c0-.2,44.34-.36,99-.36s99,.16,99,.36-44.33.35-99,.35S1132.32,360.8,1132.32,360.61Z" transform="translate(0 -198.53)" style="fill:#e1e1e1"/><g style="opacity:0.30000000000000004"><path d="M1140.14,354.63a1.59,1.59,0,1,1-1.58-1.59A1.59,1.59,0,0,1,1140.14,354.63Z" transform="translate(0 -198.53)" style="fill:#e1e1e1"/></g><g style="opacity:0.30000000000000004"><circle cx="1144" cy="156.1" r="1.59" style="fill:#e1e1e1"/></g><g style="opacity:0.30000000000000004"><path d="M1151,354.63a1.59,1.59,0,1,1-1.59-1.59A1.59,1.59,0,0,1,1151,354.63Z" transform="translate(0 -198.53)" style="fill:#e1e1e1"/></g><rect x="1149.36" y="175.92" width="52.87" height="52.87" style="fill:#e1e1e1"/><path d="M1303.35,389.39c0,.2-20.62.36-46,.36s-46.06-.16-46.06-.36,20.62-.35,46.06-.35S1303.35,389.2,1303.35,389.39Z" transform="translate(0 -198.53)" style="fill:#e1e1e1"/><path d="M1303.35,399.22c0,.19-20.62.35-46,.35s-46.06-.16-46.06-.35,20.62-.36,46.06-.36S1303.35,399,1303.35,399.22Z" transform="translate(0 -198.53)" style="fill:#e1e1e1"/><path d="M1303.35,409c0,.2-20.62.36-46,.36s-46.06-.16-46.06-.36,20.62-.35,46.06-.35S1303.35,408.85,1303.35,409Z" transform="translate(0 -198.53)" style="fill:#e1e1e1"/><path d="M1265.68,418.87a13.1,13.1,0,0,1-2.14.14l-5.83.11c-4.93.06-11.73.1-19.24.1s-14.33,0-19.25-.1l-5.84-.11a13.25,13.25,0,0,1-2.14-.14,11.93,11.93,0,0,1,2.14-.14l5.84-.11c4.92-.07,11.73-.11,19.25-.11s14.31,0,19.24.11l5.83.11A11.8,11.8,0,0,1,1265.68,418.87Z" transform="translate(0 -198.53)" style="fill:#e1e1e1"/><rect x="1152.67" y="246.61" width="24.85" height="24.85" style="fill:#e1e1e1"/><rect x="1197.74" y="246.61" width="24.85" height="24.85" style="fill:#e1e1e1"/><rect x="1242.8" y="246.61" width="24.85" height="24.85" style="fill:#e1e1e1"/><rect x="1287.86" y="246.61" width="24.85" height="24.85" style="fill:#e1e1e1"/><path d="M1701.17,391.9a23.26,23.26,0,0,1-4.21,4.42l1.09,5.56-8.56,3.8-3.38-4.55a23.1,23.1,0,0,1-6.11.16l-3.15,4.7-8.74-3.37.82-5.6a23,23,0,0,1-4.43-4.21L1659,393.9l-3.8-8.56,4.54-3.38a22.69,22.69,0,0,1-.15-6.11l-4.7-3.15,3.36-8.74,5.6.82a22.72,22.72,0,0,1,4.22-4.42l-1.1-5.56,8.56-3.8,3.39,4.54a23,23,0,0,1,6.1-.15l3.15-4.7,8.75,3.37-.82,5.6a22.94,22.94,0,0,1,4.42,4.21l5.56-1.1,3.79,8.57-4.54,3.38a23,23,0,0,1,.16,6.1l4.7,3.16-3.37,8.74-5.6-.82Zm-9.46-9.55a10,10,0,1,0-13,5.76A10,10,0,0,0,1691.71,382.35Z" transform="translate(0 -198.53)" style="fill:none"/><path d="M1691.71,382.35a7.4,7.4,0,0,1-1.08,2.24,10,10,0,0,1-5.44,4,10.17,10.17,0,0,1-9.62-2.06,10.31,10.31,0,0,1-3.2-5.07,10.26,10.26,0,0,1,4.4-11.39,10.18,10.18,0,0,1,5.77-1.62,10.26,10.26,0,0,1,5.2,1.56,10.15,10.15,0,0,1,4.67,10,7.61,7.61,0,0,1-.7,2.39c-.07,0,.3-.84.48-2.42a10,10,0,0,0-1.48-6.35,9.79,9.79,0,0,0-3.22-3.18,10,10,0,0,0-5-1.44,9.26,9.26,0,0,0-2.79.36,9.14,9.14,0,0,0-2.67,1.2,9.72,9.72,0,0,0-4.15,10.77,9.74,9.74,0,0,0,3,4.82,9.81,9.81,0,0,0,9.16,2.07,10,10,0,0,0,5.36-3.72A22.34,22.34,0,0,0,1691.71,382.35Z" transform="translate(0 -198.53)" style="fill:#e1e1e1"/><path d="M1701.17,391.9l.35,0,1.06.13,4.2.57-.1.05,3.32-8.76.06.18-4.72-3.13-.08-.06v-.1a23,23,0,0,0-.17-6.06l0-.11.09-.07,4.53-3.4-.06.25-3.82-8.55.25.13-5.55,1.1-.15,0-.09-.11a22.09,22.09,0,0,0-4.38-4.16l-.12-.09,0-.15c.25-1.74.53-3.65.81-5.6l.16.28-8.74-3.36.32-.1-3.15,4.7-.09.14-.17,0a22.77,22.77,0,0,0-6,.16l-.17,0-.1-.13-3.38-4.54.34.09-8.56,3.8.16-.32c.35,1.76.72,3.65,1.1,5.56l0,.17-.13.11a22.46,22.46,0,0,0-4.16,4.36h0c-.12.05.27-.12-.28.11h-.17l-.17,0-.36-.05-.7-.1-1.41-.21-2.79-.41.31-.18-3.37,8.74-.11-.34,4.7,3.16.15.09,0,.17a22.49,22.49,0,0,0,.15,6l0,.17-.13.1-4.55,3.38.09-.33,3.79,8.57-.29-.16,5.55-1.09.16,0,.1.13a22.59,22.59,0,0,0,4.36,4.17l.13.09,0,.15c-.28,1.92-.56,3.78-.82,5.6l-.16-.26,8.74,3.38-.26.09,3.16-4.7.07-.1h.12a23,23,0,0,0,6.06-.13l.11,0,.07.09c1.22,1.66,2.32,3.15,3.37,4.55l-.21-.05,8.58-3.76-.07.14c-.43-2.22-.77-4-1.06-5.56v-.06l0,0a23.29,23.29,0,0,0,3.3-3.19l.73-.87a2,2,0,0,1,.24-.29,3,3,0,0,1-.21.32c-.14.2-.36.51-.68.91a22.68,22.68,0,0,1-3.26,3.26l0-.09,1.13,5.55,0,.1-.09,0-8.55,3.84-.12.06-.09-.11c-1-1.4-2.16-2.89-3.4-4.53l.19.07a22.8,22.8,0,0,1-6.16.17l.19-.09c-1,1.5-2,3.06-3.14,4.71l-.1.15-.16-.06-8.75-3.36-.18-.06,0-.19c.26-1.82.53-3.68.81-5.61l.1.24a23.33,23.33,0,0,1-4.48-4.25l.25.09-5.55,1.1-.21,0-.08-.2-3.81-8.56-.09-.2.18-.13,4.53-3.39-.11.27a23.2,23.2,0,0,1-.15-6.18l.12.27-4.7-3.15-.19-.13.08-.21,3.37-8.74.08-.22.23,0,2.79.41,1.4.21.71.1.35.05.18,0h.17l-.28.12h0a23.33,23.33,0,0,1,4.27-4.47l-.11.28c-.37-1.91-.74-3.8-1.09-5.56l0-.22.2-.09,8.57-3.8.21-.09.13.18,3.38,4.55-.27-.11a23,23,0,0,1,6.18-.15l-.26.12,3.16-4.7.12-.18.2.08,8.74,3.38.19.07,0,.2c-.29,2-.57,3.87-.83,5.6l-.1-.23a23.06,23.06,0,0,1,4.47,4.26l-.24-.08,5.56-1.09.18,0,.07.16,3.78,8.57.07.15-.13.1-4.55,3.37.07-.18a22.81,22.81,0,0,1,.13,6.15l-.07-.16,4.69,3.17.1.07,0,.11c-1.39,3.55-2.54,6.49-3.42,8.72l0,.07h-.07l-4.15-.66-1.07-.18A2.41,2.41,0,0,1,1701.17,391.9Z" transform="translate(0 -198.53)" style="fill:#e1e1e1"/><path d="M1751,365.25a19.32,19.32,0,0,1-3.49,3.67l.91,4.61-7.11,3.15-2.81-3.77a18.6,18.6,0,0,1-5.06.13l-2.62,3.9-7.25-2.79.68-4.65a19.32,19.32,0,0,1-3.67-3.49l-4.61.9-3.15-7.1,3.77-2.81a19,19,0,0,1-.13-5.06l-3.9-2.62,2.8-7.25,4.64.68a19.06,19.06,0,0,1,3.5-3.67l-.91-4.61,7.1-3.15,2.81,3.77a19,19,0,0,1,5.06-.13l2.62-3.9,7.25,2.8-.68,4.64a19.06,19.06,0,0,1,3.67,3.5l4.61-.91,3.15,7.1-3.77,2.81a18.61,18.61,0,0,1,.13,5.06l3.9,2.62-2.79,7.25-4.65-.68Zm-7.85-7.92a8.34,8.34,0,1,0-10.77,4.78A8.33,8.33,0,0,0,1743.13,357.33Z" transform="translate(0 -198.53)" style="fill:#e1e1e1;fill-rule:evenodd"/><path d="M1720.37,322a30,30,0,0,1-5.48,5.76l1.43,7.23-11.15,4.94-4.4-5.91a29.66,29.66,0,0,1-7.94.2l-4.1,6.12-11.37-4.39,1.06-7.28a29.64,29.64,0,0,1-5.75-5.48l-7.23,1.42-4.94-11.14,5.9-4.4a29.68,29.68,0,0,1-.19-7.94l-6.12-4.1,4.38-11.38,7.29,1.07a29.64,29.64,0,0,1,5.48-5.75l-1.43-7.23,11.14-4.94,4.4,5.9a30.17,30.17,0,0,1,8-.2l4.1-6.11,11.37,4.38-1.06,7.29a29.93,29.93,0,0,1,5.75,5.48l7.23-1.43,4.94,11.14-5.91,4.4a29.75,29.75,0,0,1,.2,7.95l6.12,4.1L1727.65,323l-7.28-1.07Zm-12.31-12.42a13.07,13.07,0,1,0-16.9,7.5A13.07,13.07,0,0,0,1708.06,309.53Z" transform="translate(0 -198.53)" style="fill:#e1e1e1;fill-rule:evenodd"/><path d="M1608.62,261.61a5.75,5.75,0,0,1,.83-.94l2.41-2.42c2-2,4.9-4.78,8.08-7.81l.07-.07v.41c-3.2-3-6.07-5.69-8.13-7.67l-2.42-2.37a5.58,5.58,0,0,1-.84-.92,4.67,4.67,0,0,1,1,.76l2.54,2.24c2.13,1.91,5,4.57,8.25,7.54l.22.21-.22.2-.07.07c-3.18,3-6.08,5.75-8.19,7.7l-2.53,2.29A4.89,4.89,0,0,1,1608.62,261.61Z" transform="translate(0 -198.53)" style="fill:#e1e1e1"/><path d="M1583.92,239.82a5.75,5.75,0,0,1-.83.94l-2.41,2.42c-2,2-4.9,4.78-8.08,7.81l-.07.07v-.41c3.2,3,6.07,5.69,8.13,7.67l2.42,2.37a6.25,6.25,0,0,1,.84.92,4.85,4.85,0,0,1-1-.76c-.68-.61-1.53-1.36-2.54-2.24-2.12-1.91-5-4.57-8.24-7.54l-.22-.21.22-.2.07-.07c3.18-3,6.07-5.75,8.19-7.7l2.53-2.29A4.89,4.89,0,0,1,1583.92,239.82Z" transform="translate(0 -198.53)" style="fill:#e1e1e1"/><path d="M1590.26,266.75c-.15-.06,2.45-7.35,5.79-16.28s6.17-16.14,6.31-16.09-2.45,7.34-5.79,16.28S1590.4,266.8,1590.26,266.75Z" transform="translate(0 -198.53)" style="fill:#e1e1e1"/><path d="M1636.7,282.34s0-.42,0-1.22,0-2,0-3.5c0-3.08,0-7.57-.06-13.28,0-11.44-.08-27.78-.13-47.48l.24.23-80.36,0h0l.28-.28c0,23.67,0,46,0,65.48l-.25-.25,58,.13,16.45.06,4.37,0,1.13,0h.39l-.37,0h-1.1l-4.31,0-16.4.07-58.19.12h-.25v-.25c0-19.45,0-41.81,0-65.48v-.28h.29l80.36,0h.23v.23c0,19.76-.09,36.15-.12,47.62,0,5.7,0,10.16-.06,13.23,0,1.51,0,2.66,0,3.46S1636.7,282.34,1636.7,282.34Z" transform="translate(0 -198.53)" style="fill:#e1e1e1"/><path d="M1637.33,226.58c0,.15-18.14.28-40.52.28s-40.51-.13-40.51-.28,18.13-.28,40.51-.28S1637.33,226.42,1637.33,226.58Z" transform="translate(0 -198.53)" style="fill:#e1e1e1"/><path d="M1562.89,221.8a1.08,1.08,0,1,1-1.08-1.09A1.08,1.08,0,0,1,1562.89,221.8Z" transform="translate(0 -198.53)" style="fill:#e1e1e1"/><ellipse cx="1565.75" cy="23.27" rx="1.08" ry="1.09" style="fill:#e1e1e1"/><path d="M1570.78,221.8a1.08,1.08,0,1,1-1.08-1.09A1.08,1.08,0,0,1,1570.78,221.8Z" transform="translate(0 -198.53)" style="fill:#e1e1e1"/><rect x="1295.53" y="49.91" width="185.81" height="75.47" style="fill:#fff"/><path d="M1481.35,323.92s0-.46,0-1.35,0-2.2,0-3.91c0-3.45,0-8.51,0-15,0-13-.06-31.87-.11-55.19l.21.2-185.8.09h0l.3-.29c0,26.43,0,51.94,0,75.47l-.28-.28,133.23.13,38.64.08,10.35,0,2.68,0,.92,0-.89,0h-2.64l-10.29,0-38.58.08-133.42.13h-.28v-.28c0-23.53,0-49,0-75.47v-.3h.31l185.8.09h.2v.21c0,23.37-.08,42.25-.11,55.31,0,6.5,0,11.54,0,15,0,1.7,0,3,0,3.88S1481.35,323.92,1481.35,323.92Z" transform="translate(0 -198.53)" style="fill:#e1e1e1"/><path d="M1295.72,258.62c0-.16,41.53-.29,92.75-.29s92.77.13,92.77.29-41.53.3-92.77.3S1295.72,258.79,1295.72,258.62Z" transform="translate(0 -198.53)" style="fill:#e1e1e1"/><g style="opacity:0.30000000000000004"><path d="M1303.5,254.07a1.35,1.35,0,1,1-1.35-1.35A1.35,1.35,0,0,1,1303.5,254.07Z" transform="translate(0 -198.53)" style="fill:#ececec"/></g><g style="opacity:0.30000000000000004"><path d="M1308.12,254.07a1.35,1.35,0,1,1-1.35-1.35A1.35,1.35,0,0,1,1308.12,254.07Z" transform="translate(0 -198.53)" style="fill:#ececec"/></g><g style="opacity:0.30000000000000004"><circle cx="1311.32" cy="55.54" r="1.35" style="fill:#ececec"/></g><rect x="1311.32" y="72.36" width="44.88" height="44.88" style="fill:#e1e1e1"/><path d="M1468.49,282.92c0,.16-23.1.29-51.58.29s-51.58-.13-51.58-.29,23.09-.3,51.58-.3S1468.49,282.76,1468.49,282.92Z" transform="translate(0 -198.53)" style="fill:#e1e1e1"/><path d="M1468.49,292.06c0,.16-23.1.3-51.58.3s-51.58-.14-51.58-.3,23.09-.29,51.58-.29S1468.49,291.9,1468.49,292.06Z" transform="translate(0 -198.53)" style="fill:#e1e1e1"/><path d="M1431.74,301.2a3,3,0,0,1-.68.06l-1.93.06-7.12.09-23.48.09-23.48-.09-7.11-.09-1.94-.06a2.94,2.94,0,0,1-.67-.06,2.69,2.69,0,0,1,.67-.05l1.94-.06,7.11-.09,23.48-.09L1422,301l7.12.09,1.93.06A2.74,2.74,0,0,1,1431.74,301.2Z" transform="translate(0 -198.53)" style="fill:#e1e1e1"/><path d="M1772,869c0,.22-158,.41-352.76.41s-352.8-.19-352.8-.41,157.92-.42,352.8-.42S1772,868.81,1772,869Z" transform="translate(0 -198.53)" style="fill:#1a2e35"/><rect x="1490.55" y="180.29" width="221.82" height="180.71" style="fill:#e1e1e1"/><rect x="1474.78" y="191.78" width="221.82" height="180.71" style="fill:#ececec"/><rect x="1453.05" y="204.36" width="227.74" height="185.53" style="fill:#fff"/><path d="M1680.78,588.42s0-1.17,0-3.42,0-5.57,0-9.9c0-8.68,0-21.39-.09-37.6,0-32.38-.11-78.72-.18-134.61l.34.35-227.71.06h0l.41-.41c0,67.09,0,130.44,0,185.53l-.36-.36,164.56.18,46.57.1,12.33,0,3.18,0,1.09,0s-.34,0-1,0l-3.14,0-12.27,0-46.48.1-164.8.18h-.37v-.37c0-55.09,0-118.44,0-185.53v-.41h.44l227.71.07h.35v.34c-.08,56-.14,102.39-.18,134.83,0,16.17-.07,28.86-.09,37.52,0,4.3,0,7.6,0,9.84S1680.78,588.42,1680.78,588.42Z" transform="translate(0 -198.53)" style="fill:#1a2e35"/><path d="M1480.8,429.7l-2.44.9,2.44.89v.91l-3.49-1.32v-1l3.49-1.33Z" transform="translate(0 -198.53)" style="fill:#ff4f5b"/><path d="M1486.57,428v5.14h-1.19v-2.11h-2.33v2.11h-1.19V428h1.19v2h2.33v-2Z" transform="translate(0 -198.53)" style="fill:#ff4f5b"/><path d="M1488.85,429h-1.65v-1h4.48v1H1490v4.17h-1.19Z" transform="translate(0 -198.53)" style="fill:#ff4f5b"/><path d="M1497,433.17v-3.09l-1.52,2.55h-.53l-1.51-2.48v3h-1.11V428h1l1.92,3.19,1.9-3.19h1l0,5.14Z" transform="translate(0 -198.53)" style="fill:#ff4f5b"/><path d="M1499.32,428h1.19v4.17h2.58v1h-3.77Z" transform="translate(0 -198.53)" style="fill:#ff4f5b"/><path d="M1507.09,430.12v1l-3.49,1.32v-.91l2.44-.89-2.44-.9v-.91Z" transform="translate(0 -198.53)" style="fill:#ff4f5b"/><path d="M1478.73,570.4l-2.45.89,2.45.89v.92l-3.5-1.33v-.95l3.5-1.33Z" transform="translate(0 -198.53)" style="fill:#ff4f5b"/><path d="M1481.35,567.68h1L1480,574.6h-1Z" transform="translate(0 -198.53)" style="fill:#ff4f5b"/><path d="M1487.37,568.72v5.14h-1.19v-2.1h-2.33v2.1h-1.2v-5.14h1.2v2h2.33v-2Z" transform="translate(0 -198.53)" style="fill:#ff4f5b"/><path d="M1489.65,569.69H1488v-1h4.48v1h-1.64v4.17h-1.19Z" transform="translate(0 -198.53)" style="fill:#ff4f5b"/><path d="M1497.79,573.86v-3.08l-1.52,2.54h-.53l-1.51-2.47v3h-1.11v-5.14h1l1.92,3.2,1.9-3.2h1v5.14Z" transform="translate(0 -198.53)" style="fill:#ff4f5b"/><path d="M1500.12,568.72h1.19v4.17h2.58v1h-3.77Z" transform="translate(0 -198.53)" style="fill:#ff4f5b"/><path d="M1507.89,570.82v.95l-3.49,1.33v-.92l2.44-.89-2.44-.89v-.91Z" transform="translate(0 -198.53)" style="fill:#ff4f5b"/><path d="M1496.93,443.77l-2.61,1,2.61,1v.61l-3.29-1.3v-.63l3.29-1.3Z" transform="translate(0 -198.53)"/><path d="M1502.61,442.21v5.14h-.73v-2.29h-3v2.29h-.74v-5.14h.74v2.21h3v-2.21Z" transform="translate(0 -198.53)"/><path d="M1507.88,446.71v.64h-3.73v-5.14h3.62v.64h-2.89v1.58h2.58v.62h-2.58v1.66Z" transform="translate(0 -198.53)"/><path d="M1512.34,446.06h-2.74l-.56,1.29h-.76l2.33-5.14h.73l2.33,5.14h-.77Zm-.26-.58L1511,443l-1.11,2.52Z" transform="translate(0 -198.53)"/><path d="M1514.43,442.21h2.17a2.58,2.58,0,1,1,0,5.14h-2.17Zm2.12,4.5a1.94,1.94,0,1,0,0-3.86h-1.39v3.86Z" transform="translate(0 -198.53)"/><path d="M1523.5,444.46v.63l-3.29,1.3v-.61l2.61-1-2.61-1v-.61Z" transform="translate(0 -198.53)"/><path d="M1496.93,461.38l-2.61,1,2.61,1V464l-3.29-1.3v-.63l3.29-1.3Z" transform="translate(0 -198.53)"/><path d="M1499.21,460.45h-1.76v-.64h4.25v.64h-1.76V465h-.73Z" transform="translate(0 -198.53)"/><path d="M1502.5,459.81h.73V465h-.73Z" transform="translate(0 -198.53)"/><path d="M1505.79,460.45H1504v-.64h4.25v.64h-1.76V465h-.73Z" transform="translate(0 -198.53)"/><path d="M1509.08,459.81h.73v4.5h2.78V465h-3.51Z" transform="translate(0 -198.53)"/><path d="M1517.16,464.31V465h-3.73v-5.14h3.63v.64h-2.89V462h2.57v.63h-2.57v1.65Z" transform="translate(0 -198.53)"/><path d="M1521.36,462.07v.63l-3.29,1.3v-.61l2.61-1-2.61-1v-.61Z" transform="translate(0 -198.53)"/><path d="M1524.59,459.81h.73v4.5h2.79V465h-3.52Z" transform="translate(0 -198.53)"/><path d="M1528.43,463a2,2,0,1,1,2,2A1.94,1.94,0,0,1,1528.43,463Zm3.34,0a1.31,1.31,0,1,0-1.31,1.37A1.28,1.28,0,0,0,1531.77,463Z" transform="translate(0 -198.53)"/><path d="M1535.54,461v.69h-.16a1.16,1.16,0,0,0-1.22,1.32V465h-.71v-3.89h.68v.66A1.47,1.47,0,0,1,1535.54,461Z" transform="translate(0 -198.53)"/><path d="M1539.87,463.24h-3.16a1.32,1.32,0,0,0,1.41,1.14,1.45,1.45,0,0,0,1.13-.47l.39.46a2,2,0,0,1-1.54.63,2,2,0,0,1-2.09-2,1.91,1.91,0,0,1,2-2,1.88,1.88,0,0,1,1.93,2A1.49,1.49,0,0,1,1539.87,463.24Zm-3.16-.5h2.5a1.21,1.21,0,0,0-1.25-1.12A1.23,1.23,0,0,0,1536.71,462.74Z" transform="translate(0 -198.53)"/><path d="M1547.32,462.71V465h-.71v-2.16c0-.76-.36-1.13-1-1.13s-1.17.44-1.17,1.29v2h-.7v-2.16c0-.76-.37-1.13-1-1.13a1.13,1.13,0,0,0-1.17,1.29v2h-.7v-3.89h.67v.58a1.61,1.61,0,0,1,1.35-.62,1.44,1.44,0,0,1,1.35.73,1.74,1.74,0,0,1,1.5-.73A1.5,1.5,0,0,1,1547.32,462.71Z" transform="translate(0 -198.53)"/><path d="M1550.46,459.86a.46.46,0,0,1,.48-.46.45.45,0,0,1,.47.44.45.45,0,0,1-.47.47A.46.46,0,0,1,1550.46,459.86Zm.12,1.2h.71V465h-.71Z" transform="translate(0 -198.53)"/><path d="M1556.66,463a1.89,1.89,0,0,1-2,2,1.67,1.67,0,0,1-1.36-.63v2h-.71v-5.32h.68v.62a1.66,1.66,0,0,1,1.39-.66A1.89,1.89,0,0,1,1556.66,463Zm-.71,0a1.31,1.31,0,1,0-1.31,1.37A1.29,1.29,0,0,0,1556,463Z" transform="translate(0 -198.53)"/><path d="M1557.14,464.54l.3-.56a2.46,2.46,0,0,0,1.36.41c.65,0,.93-.2.93-.53,0-.87-2.46-.12-2.46-1.67,0-.7.62-1.17,1.62-1.17a2.84,2.84,0,0,1,1.42.36l-.3.56a2.06,2.06,0,0,0-1.13-.31c-.61,0-.92.22-.92.53,0,.92,2.47.17,2.47,1.68,0,.71-.64,1.16-1.68,1.16A2.8,2.8,0,0,1,1557.14,464.54Z" transform="translate(0 -198.53)"/><path d="M1564.94,461.06V465h-.67v-.58a1.59,1.59,0,0,1-1.32.63,1.53,1.53,0,0,1-1.68-1.7v-2.24h.71v2.16c0,.76.38,1.15,1,1.15a1.15,1.15,0,0,0,1.2-1.3v-2Z" transform="translate(0 -198.53)"/><path d="M1572.74,462.71V465H1572v-2.16c0-.76-.36-1.13-1-1.13s-1.17.44-1.17,1.29v2h-.71v-2.16c0-.76-.36-1.13-1-1.13s-1.17.44-1.17,1.29v2h-.7v-3.89h.67v.58a1.61,1.61,0,0,1,1.35-.62,1.44,1.44,0,0,1,1.35.73,1.72,1.72,0,0,1,1.49-.73A1.5,1.5,0,0,1,1572.74,462.71Z" transform="translate(0 -198.53)"/><path d="M1579.11,461.38l-2.6,1,2.6,1V464l-3.28-1.3v-.63l3.28-1.3Z" transform="translate(0 -198.53)"/><path d="M1581.82,458.77h.64l-2.42,6.92h-.64Z" transform="translate(0 -198.53)"/><path d="M1584.2,460.45h-1.77v-.64h4.26v.64h-1.77V465h-.72Z" transform="translate(0 -198.53)"/><path d="M1587.48,459.81h.74V465h-.74Z" transform="translate(0 -198.53)"/><path d="M1590.78,460.45H1589v-.64h4.26v.64h-1.77V465h-.72Z" transform="translate(0 -198.53)"/><path d="M1594.06,459.81h.74v4.5h2.78V465h-3.52Z" transform="translate(0 -198.53)"/><path d="M1602.15,464.31V465h-3.73v-5.14h3.63v.64h-2.9V462h2.58v.63h-2.58v1.65Z" transform="translate(0 -198.53)"/><path d="M1606.34,462.07v.63l-3.29,1.3v-.61l2.62-1-2.62-1v-.61Z" transform="translate(0 -198.53)"/><path d="M1496.93,479l-2.61,1,2.61,1v.61l-3.29-1.3v-.63l3.29-1.3Z" transform="translate(0 -198.53)"/><path d="M1499.64,476.38h.64l-2.43,6.91h-.64Z" transform="translate(0 -198.53)"/><path d="M1505.19,477.42v5.14h-.73v-2.29h-3v2.29h-.74v-5.14h.74v2.21h3v-2.21Z" transform="translate(0 -198.53)"/><path d="M1510.46,481.92v.64h-3.73v-5.14h3.63v.64h-2.9v1.58H1510v.62h-2.58v1.66Z" transform="translate(0 -198.53)"/><path d="M1514.92,481.27h-2.73l-.57,1.29h-.76l2.33-5.14h.73l2.33,5.14h-.77Zm-.26-.58-1.11-2.52-1.11,2.52Z" transform="translate(0 -198.53)"/><path d="M1517,477.42h2.17a2.58,2.58,0,1,1,0,5.14H1517Zm2.12,4.5a1.94,1.94,0,1,0,0-3.86h-1.38v3.86Z" transform="translate(0 -198.53)"/><path d="M1526.08,479.67v.63l-3.29,1.3V481l2.62-1-2.62-1v-.61Z" transform="translate(0 -198.53)"/><path d="M1483.29,494.26l-2.6,1,2.6,1v.61l-3.28-1.3V495l3.28-1.3Z" transform="translate(0 -198.53)"/><path d="M1489,496.45c0,.88-.66,1.39-2,1.39h-2.46V492.7h2.31c1.18,0,1.84.5,1.84,1.33a1.21,1.21,0,0,1-.69,1.14A1.24,1.24,0,0,1,1489,496.45Zm-3.68-3.16v1.65h1.5c.75,0,1.18-.28,1.18-.83s-.43-.82-1.18-.82Zm2.94,3.1c0-.6-.44-.86-1.25-.86h-1.69v1.71H1487C1487.79,497.24,1488.23,497,1488.23,496.39Z" transform="translate(0 -198.53)"/><path d="M1489.69,495.27a2.73,2.73,0,1,1,2.74,2.63A2.61,2.61,0,0,1,1489.69,495.27Zm4.73,0a2,2,0,1,0-2,2A1.93,1.93,0,0,0,1494.42,495.27Z" transform="translate(0 -198.53)"/><path d="M1496.27,492.7h2.17a2.58,2.58,0,1,1,0,5.14h-2.17Zm2.12,4.5a1.94,1.94,0,1,0,0-3.87H1497v3.87Z" transform="translate(0 -198.53)"/><path d="M1504.08,496.06v1.78h-.73V496l-2-3.34h.78l1.65,2.71,1.65-2.71h.73Z" transform="translate(0 -198.53)"/><path d="M1509.86,495v.63l-3.29,1.3v-.61l2.62-1-2.62-1v-.61Z" transform="translate(0 -198.53)"/><path d="M1483.29,511.86l-2.6,1,2.6,1v.61l-3.28-1.3v-.63l3.28-1.3Z" transform="translate(0 -198.53)"/><path d="M1489,510.3v5.14h-.73v-2.29h-3v2.29h-.74V510.3h.74v2.21h3V510.3Z" transform="translate(0 -198.53)"/><path d="M1491.69,510.3v5.14H1491v-4.5h-1.16v-.64Z" transform="translate(0 -198.53)"/><path d="M1496.23,512.56v.63l-3.29,1.3v-.61l2.62-1-2.62-1v-.6Z" transform="translate(0 -198.53)"/><path d="M1499.53,510.3h.55V515H1503v.47h-3.42Z" transform="translate(0 -198.53)"/><path d="M1503.3,513.51a2,2,0,1,1,2,2A1.89,1.89,0,0,1,1503.3,513.51Zm3.39,0a1.44,1.44,0,1,0-1.43,1.51A1.41,1.41,0,0,0,1506.69,513.51Z" transform="translate(0 -198.53)"/><path d="M1510.23,511.55v.51h-.13a1.25,1.25,0,0,0-1.3,1.42v2h-.52v-3.86h.5v.75A1.46,1.46,0,0,1,1510.23,511.55Z" transform="translate(0 -198.53)"/><path d="M1514.49,513.67h-3.23a1.44,1.44,0,0,0,1.52,1.35,1.51,1.51,0,0,0,1.18-.51l.3.34a2,2,0,0,1-3.52-1.34,1.88,1.88,0,1,1,3.76,0S1514.49,513.61,1514.49,513.67Zm-3.23-.39H1514a1.37,1.37,0,0,0-2.74,0Z" transform="translate(0 -198.53)"/><path d="M1521.93,513.2v2.24h-.52v-2.19c0-.81-.41-1.23-1.11-1.23a1.24,1.24,0,0,0-1.29,1.39v2h-.52v-2.19c0-.81-.41-1.23-1.12-1.23a1.24,1.24,0,0,0-1.29,1.39v2h-.52v-3.86h.5v.7a1.56,1.56,0,0,1,1.42-.73,1.39,1.39,0,0,1,1.37.81,1.68,1.68,0,0,1,1.53-.81A1.45,1.45,0,0,1,1521.93,513.2Z" transform="translate(0 -198.53)"/><path d="M1525.15,510.36a.38.38,0,0,1,.76,0,.38.38,0,0,1-.76,0Zm.11,1.22h.52v3.86h-.52Z" transform="translate(0 -198.53)"/><path d="M1531.15,513.51a1.87,1.87,0,0,1-1.92,2,1.69,1.69,0,0,1-1.47-.77v2.16h-.52v-5.29h.5v.76a1.68,1.68,0,0,1,1.49-.79A1.86,1.86,0,0,1,1531.15,513.51Zm-.52,0a1.44,1.44,0,1,0-1.44,1.51A1.42,1.42,0,0,0,1530.63,513.51Z" transform="translate(0 -198.53)"/><path d="M1531.67,515l.24-.41a2.35,2.35,0,0,0,1.37.43c.74,0,1-.25,1-.63,0-1-2.51-.21-2.51-1.74,0-.63.55-1.1,1.53-1.1a2.65,2.65,0,0,1,1.37.36l-.23.42a2,2,0,0,0-1.14-.33c-.7,0-1,.27-1,.64,0,1,2.5.25,2.5,1.74,0,.66-.59,1.1-1.59,1.1A2.63,2.63,0,0,1,1531.67,515Z" transform="translate(0 -198.53)"/><path d="M1539.28,511.58v3.86h-.5v-.7a1.53,1.53,0,0,1-1.39.74,1.5,1.5,0,0,1-1.63-1.66v-2.24h.52v2.19a1.08,1.08,0,0,0,1.16,1.24,1.26,1.26,0,0,0,1.32-1.4v-2Z" transform="translate(0 -198.53)"/><path d="M1547.11,513.2v2.24h-.52v-2.19c0-.81-.41-1.23-1.11-1.23a1.24,1.24,0,0,0-1.29,1.39v2h-.53v-2.19c0-.81-.41-1.23-1.11-1.23a1.24,1.24,0,0,0-1.29,1.39v2h-.53v-3.86h.5v.7a1.59,1.59,0,0,1,1.42-.73,1.38,1.38,0,0,1,1.37.81,1.68,1.68,0,0,1,1.53-.81A1.46,1.46,0,0,1,1547.11,513.2Z" transform="translate(0 -198.53)"/><path d="M1554,510v5.45h-.5v-.76a1.67,1.67,0,0,1-1.49.8,2,2,0,0,1,0-3.93,1.68,1.68,0,0,1,1.47.76V510Zm-.51,3.52A1.44,1.44,0,1,0,1552,515,1.42,1.42,0,0,0,1553.45,513.51Z" transform="translate(0 -198.53)"/><path d="M1555,513.51a2,2,0,1,1,2,2A1.9,1.9,0,0,1,1555,513.51Zm3.4,0A1.44,1.44,0,1,0,1557,515,1.41,1.41,0,0,0,1558.42,513.51Z" transform="translate(0 -198.53)"/><path d="M1560,510h.52v5.45H1560Z" transform="translate(0 -198.53)"/><path d="M1561.6,513.51a2,2,0,1,1,2,2A1.89,1.89,0,0,1,1561.6,513.51Zm3.4,0a1.44,1.44,0,1,0-1.44,1.51A1.42,1.42,0,0,0,1565,513.51Z" transform="translate(0 -198.53)"/><path d="M1568.53,511.55v.51h-.13a1.24,1.24,0,0,0-1.29,1.42v2h-.53v-3.86h.5v.75A1.46,1.46,0,0,1,1568.53,511.55Z" transform="translate(0 -198.53)"/><path d="M1570.91,515l.24-.41a2.3,2.3,0,0,0,1.37.43c.73,0,1-.25,1-.63,0-1-2.5-.21-2.5-1.74,0-.63.54-1.1,1.53-1.1a2.59,2.59,0,0,1,1.36.36l-.22.42a2,2,0,0,0-1.14-.33c-.7,0-1,.27-1,.64,0,1,2.51.25,2.51,1.74,0,.66-.59,1.1-1.6,1.1A2.59,2.59,0,0,1,1570.91,515Z" transform="translate(0 -198.53)"/><path d="M1574.92,510.36a.38.38,0,0,1,.76,0,.38.38,0,0,1-.76,0Zm.11,1.22h.52v3.86H1575Z" transform="translate(0 -198.53)"/><path d="M1579,515.21a1.24,1.24,0,0,1-.81.27,1,1,0,0,1-1.14-1.13V512h-.69v-.44h.69v-.85h.53v.85h1.17V512h-1.17v2.31a.61.61,0,0,0,.66.7.89.89,0,0,0,.58-.2Z" transform="translate(0 -198.53)"/><path d="M1584.82,513.05v2.39h-.5v-.6a1.44,1.44,0,0,1-1.33.64c-.87,0-1.41-.46-1.41-1.13s.39-1.09,1.49-1.09h1.23V513c0-.67-.37-1-1.09-1a2,2,0,0,0-1.29.46l-.23-.39a2.45,2.45,0,0,1,1.57-.52A1.37,1.37,0,0,1,1584.82,513.05Zm-.52,1.23v-.63h-1.21c-.75,0-1,.29-1,.69s.36.73,1,.73A1.23,1.23,0,0,0,1584.3,514.28Z" transform="translate(0 -198.53)"/><path d="M1592.61,513.2v2.24h-.52v-2.19c0-.81-.42-1.23-1.11-1.23a1.23,1.23,0,0,0-1.29,1.39v2h-.53v-2.19c0-.81-.41-1.23-1.11-1.23a1.24,1.24,0,0,0-1.29,1.39v2h-.53v-3.86h.5v.7a1.56,1.56,0,0,1,1.42-.73,1.38,1.38,0,0,1,1.37.81,1.68,1.68,0,0,1,1.53-.81A1.46,1.46,0,0,1,1592.61,513.2Z" transform="translate(0 -198.53)"/><path d="M1597.39,513.67h-3.23a1.44,1.44,0,0,0,1.52,1.35,1.54,1.54,0,0,0,1.19-.51l.29.34a2,2,0,0,1-3.52-1.34,1.86,1.86,0,0,1,1.89-2,1.84,1.84,0,0,1,1.87,2S1597.39,513.61,1597.39,513.67Zm-3.23-.39h2.74a1.37,1.37,0,0,0-2.74,0Z" transform="translate(0 -198.53)"/><path d="M1600.5,515.21a1.28,1.28,0,0,1-.82.27,1,1,0,0,1-1.13-1.13V512h-.69v-.44h.69v-.85h.52v.85h1.18V512h-1.18v2.31a.62.62,0,0,0,.67.7.88.88,0,0,0,.57-.2Z" transform="translate(0 -198.53)"/><path d="M1602,515.07a1.27,1.27,0,0,1-.1.43l-.31,1h-.35l.25-1.06a.37.37,0,0,1-.27-.38.38.38,0,0,1,.39-.39A.38.38,0,0,1,1602,515.07Z" transform="translate(0 -198.53)"/><path d="M1604.6,513.51a1.9,1.9,0,0,1,2-2,1.69,1.69,0,0,1,1.51.76l-.39.27a1.3,1.3,0,0,0-1.12-.58,1.51,1.51,0,0,0,0,3,1.29,1.29,0,0,0,1.12-.57l.39.26a1.7,1.7,0,0,1-1.51.77A1.91,1.91,0,0,1,1604.6,513.51Z" transform="translate(0 -198.53)"/><path d="M1608.66,513.51a2,2,0,1,1,2,2A1.9,1.9,0,0,1,1608.66,513.51Zm3.4,0a1.44,1.44,0,1,0-1.43,1.51A1.41,1.41,0,0,0,1612.06,513.51Z" transform="translate(0 -198.53)"/><path d="M1617.21,513.2v2.24h-.52v-2.19a1.08,1.08,0,0,0-1.16-1.23,1.26,1.26,0,0,0-1.35,1.39v2h-.53v-3.86h.5v.71a1.62,1.62,0,0,1,1.47-.74A1.48,1.48,0,0,1,1617.21,513.2Z" transform="translate(0 -198.53)"/><path d="M1618.08,515l.24-.41a2.35,2.35,0,0,0,1.37.43c.74,0,1-.25,1-.63,0-1-2.51-.21-2.51-1.74,0-.63.55-1.1,1.53-1.1a2.65,2.65,0,0,1,1.37.36l-.23.42a2,2,0,0,0-1.14-.33c-.7,0-1,.27-1,.64,0,1,2.51.25,2.51,1.74,0,.66-.59,1.1-1.59,1.1A2.63,2.63,0,0,1,1618.08,515Z" transform="translate(0 -198.53)"/><path d="M1625.57,513.67h-3.23a1.43,1.43,0,0,0,1.52,1.35,1.51,1.51,0,0,0,1.18-.51l.29.34a2,2,0,0,1-3.51-1.34,1.88,1.88,0,1,1,3.76,0S1625.57,513.61,1625.57,513.67Zm-3.23-.39h2.74a1.37,1.37,0,0,0-2.74,0Z" transform="translate(0 -198.53)"/><path d="M1626.25,513.51a1.9,1.9,0,0,1,2-2,1.7,1.7,0,0,1,1.51.76l-.39.27a1.3,1.3,0,0,0-1.12-.58,1.51,1.51,0,0,0,0,3,1.29,1.29,0,0,0,1.12-.57l.39.26a1.71,1.71,0,0,1-1.51.77A1.91,1.91,0,0,1,1626.25,513.51Z" transform="translate(0 -198.53)"/><path d="M1632.84,515.21a1.24,1.24,0,0,1-.81.27,1,1,0,0,1-1.13-1.13V512h-.69v-.44h.69v-.85h.52v.85h1.17V512h-1.17v2.31a.62.62,0,0,0,.67.7.88.88,0,0,0,.57-.2Z" transform="translate(0 -198.53)"/><path d="M1637,513.67h-3.23a1.44,1.44,0,0,0,1.52,1.35,1.51,1.51,0,0,0,1.18-.51l.3.34a2,2,0,0,1-3.52-1.34,1.88,1.88,0,1,1,3.76,0S1637,513.61,1637,513.67Zm-3.23-.39h2.74a1.37,1.37,0,0,0-2.74,0Z" transform="translate(0 -198.53)"/><path d="M1640.11,515.21a1.24,1.24,0,0,1-.81.27,1,1,0,0,1-1.13-1.13V512h-.69v-.44h.69v-.85h.52v.85h1.18V512h-1.18v2.31a.62.62,0,0,0,.67.7.88.88,0,0,0,.57-.2Z" transform="translate(0 -198.53)"/><path d="M1644.54,511.58v3.86h-.5v-.7a1.53,1.53,0,0,1-1.39.74,1.5,1.5,0,0,1-1.63-1.66v-2.24h.52v2.19a1.08,1.08,0,0,0,1.16,1.24,1.26,1.26,0,0,0,1.32-1.4v-2Z" transform="translate(0 -198.53)"/><path d="M1649.36,513.67h-3.23a1.42,1.42,0,0,0,1.52,1.35,1.52,1.52,0,0,0,1.18-.51l.29.34a1.89,1.89,0,0,1-1.49.63,1.92,1.92,0,0,1-2-2,1.86,1.86,0,0,1,1.89-2,1.84,1.84,0,0,1,1.87,2Zm-3.23-.39h2.74a1.35,1.35,0,0,0-1.38-1.28A1.33,1.33,0,0,0,1646.13,513.28Z" transform="translate(0 -198.53)"/><path d="M1652.37,511.55v.51h-.12a1.25,1.25,0,0,0-1.3,1.42v2h-.52v-3.86h.49v.75A1.47,1.47,0,0,1,1652.37,511.55Z" transform="translate(0 -198.53)"/><path d="M1483.16,521.85v2.39h-.5v-.6a1.45,1.45,0,0,1-1.33.64c-.88,0-1.41-.45-1.41-1.12s.38-1.1,1.49-1.1h1.22v-.23c0-.66-.37-1-1.09-1a1.93,1.93,0,0,0-1.28.45l-.24-.39a2.45,2.45,0,0,1,1.57-.52A1.38,1.38,0,0,1,1483.16,521.85Zm-.53,1.23v-.63h-1.21c-.75,0-1,.3-1,.69s.36.73,1,.73A1.22,1.22,0,0,0,1482.63,523.08Z" transform="translate(0 -198.53)"/><path d="M1488.11,518.8v5.44h-.5v-.76a1.68,1.68,0,0,1-1.49.8,2,2,0,0,1,0-3.93,1.71,1.71,0,0,1,1.47.77V518.8Zm-.52,3.51a1.44,1.44,0,1,0-1.43,1.51A1.41,1.41,0,0,0,1487.59,522.31Z" transform="translate(0 -198.53)"/><path d="M1489.44,519.16a.38.38,0,0,1,.76,0,.37.37,0,0,1-.38.38A.38.38,0,0,1,1489.44,519.16Zm.12,1.22h.52v3.86h-.52Z" transform="translate(0 -198.53)"/><path d="M1495.44,522.31a1.87,1.87,0,0,1-1.92,2,1.69,1.69,0,0,1-1.47-.76v2.15h-.52v-5.29h.5v.76a1.68,1.68,0,0,1,1.49-.79A1.86,1.86,0,0,1,1495.44,522.31Zm-.52,0a1.44,1.44,0,1,0-1.44,1.51A1.42,1.42,0,0,0,1494.92,522.31Z" transform="translate(0 -198.53)"/><path d="M1496.39,519.16a.38.38,0,0,1,.76,0,.37.37,0,0,1-.38.38A.38.38,0,0,1,1496.39,519.16Zm.11,1.22h.53v3.86h-.53Z" transform="translate(0 -198.53)"/><path d="M1497.94,523.8l.24-.41a2.3,2.3,0,0,0,1.37.44c.73,0,1-.26,1-.64,0-1-2.5-.21-2.5-1.74,0-.63.54-1.1,1.53-1.1a2.59,2.59,0,0,1,1.36.36l-.23.42a1.91,1.91,0,0,0-1.13-.33c-.7,0-1,.27-1,.64,0,1,2.5.26,2.5,1.74,0,.67-.58,1.1-1.59,1.1A2.59,2.59,0,0,1,1497.94,523.8Z" transform="translate(0 -198.53)"/><path d="M1501.68,522.31a1.9,1.9,0,0,1,2-2,1.69,1.69,0,0,1,1.52.77l-.39.26a1.32,1.32,0,0,0-1.13-.57,1.51,1.51,0,0,0,0,3,1.32,1.32,0,0,0,1.13-.57l.39.27a1.71,1.71,0,0,1-1.52.76A1.9,1.9,0,0,1,1501.68,522.31Z" transform="translate(0 -198.53)"/><path d="M1506.07,519.16a.39.39,0,1,1,.39.38A.38.38,0,0,1,1506.07,519.16Zm.12,1.22h.52v3.86h-.52Z" transform="translate(0 -198.53)"/><path d="M1511.72,522v2.24h-.52v-2.18a1.08,1.08,0,0,0-1.16-1.24,1.27,1.27,0,0,0-1.35,1.4v2h-.52v-3.86h.5v.71a1.62,1.62,0,0,1,1.46-.74A1.48,1.48,0,0,1,1511.72,522Z" transform="translate(0 -198.53)"/><path d="M1516.72,520.38v3.39a1.69,1.69,0,0,1-1.93,1.93,2.72,2.72,0,0,1-1.8-.59l.27-.4a2.28,2.28,0,0,0,1.52.53c1,0,1.42-.45,1.42-1.4v-.49a1.74,1.74,0,0,1-1.51.75,1.88,1.88,0,1,1,0-3.75,1.75,1.75,0,0,1,1.53.77v-.74Zm-.5,1.84a1.47,1.47,0,1,0-1.47,1.41A1.38,1.38,0,0,0,1516.22,522.22Z" transform="translate(0 -198.53)"/><path d="M1523.46,522.47h-3.23a1.44,1.44,0,0,0,1.52,1.35,1.54,1.54,0,0,0,1.19-.51l.29.34a2,2,0,0,1-3.52-1.34,1.86,1.86,0,0,1,1.89-2,1.84,1.84,0,0,1,1.87,2C1523.47,522.36,1523.46,522.42,1523.46,522.47Zm-3.23-.39H1523a1.37,1.37,0,0,0-2.74,0Z" transform="translate(0 -198.53)"/><path d="M1524.53,518.8h.52v5.44h-.52Z" transform="translate(0 -198.53)"/><path d="M1526.39,519.16a.36.36,0,0,1,.38-.36.37.37,0,0,1,.38.36.38.38,0,0,1-.76,0Zm.11,1.22h.52v3.86h-.52Z" transform="translate(0 -198.53)"/><path d="M1530.51,524a1.24,1.24,0,0,1-.81.27,1,1,0,0,1-1.13-1.12v-2.34h-.69v-.44h.69v-.84h.52v.84h1.17v.44h-1.17v2.31a.62.62,0,0,0,.67.7.83.83,0,0,0,.57-.2Z" transform="translate(0 -198.53)"/><path d="M1532,523.88a1.08,1.08,0,0,1-.11.42l-.31,1h-.35l.25-1.07a.36.36,0,0,1-.26-.37.39.39,0,0,1,.39-.4A.39.39,0,0,1,1532,523.88Z" transform="translate(0 -198.53)"/><path d="M1534.47,523.8l.23-.41a2.36,2.36,0,0,0,1.38.44c.73,0,1-.26,1-.64,0-1-2.5-.21-2.5-1.74,0-.63.54-1.1,1.53-1.1a2.59,2.59,0,0,1,1.36.36l-.23.42a1.91,1.91,0,0,0-1.13-.33c-.7,0-1,.27-1,.64,0,1,2.5.26,2.5,1.74,0,.67-.58,1.1-1.59,1.1A2.59,2.59,0,0,1,1534.47,523.8Z" transform="translate(0 -198.53)"/><path d="M1542,522.47h-3.24a1.44,1.44,0,0,0,1.52,1.35,1.54,1.54,0,0,0,1.19-.51l.29.34a1.89,1.89,0,0,1-1.49.63,1.92,1.92,0,0,1-2-2,1.86,1.86,0,0,1,1.89-2,1.84,1.84,0,0,1,1.87,2Zm-3.24-.39h2.74a1.37,1.37,0,0,0-2.74,0Z" transform="translate(0 -198.53)"/><path d="M1546.55,518.8v5.44h-.5v-.76a1.68,1.68,0,0,1-1.49.8,2,2,0,0,1,0-3.93,1.71,1.71,0,0,1,1.47.77V518.8Zm-.52,3.51a1.44,1.44,0,1,0-1.43,1.51A1.41,1.41,0,0,0,1546,522.31Z" transform="translate(0 -198.53)"/><path d="M1553.44,518.8v5.44h-.5v-.76a1.67,1.67,0,0,1-1.49.8,2,2,0,0,1,0-3.93,1.69,1.69,0,0,1,1.47.77V518.8Zm-.51,3.51a1.44,1.44,0,1,0-1.43,1.51A1.41,1.41,0,0,0,1552.93,522.31Z" transform="translate(0 -198.53)"/><path d="M1554.77,519.16a.39.39,0,0,1,.77,0,.38.38,0,0,1-.39.38A.38.38,0,0,1,1554.77,519.16Zm.12,1.22h.52v3.86h-.52Z" transform="translate(0 -198.53)"/><path d="M1559.78,521.85v2.39h-.5v-.6a1.44,1.44,0,0,1-1.33.64c-.87,0-1.41-.45-1.41-1.12s.38-1.1,1.49-1.1h1.23v-.23c0-.66-.38-1-1.1-1a1.93,1.93,0,0,0-1.28.45l-.24-.39a2.47,2.47,0,0,1,1.57-.52A1.38,1.38,0,0,1,1559.78,521.85Zm-.52,1.23v-.63h-1.21c-.75,0-1,.3-1,.69s.36.73,1,.73A1.24,1.24,0,0,0,1559.26,523.08Z" transform="translate(0 -198.53)"/><path d="M1567.57,522v2.24H1567v-2.18c0-.82-.41-1.24-1.1-1.24a1.25,1.25,0,0,0-1.3,1.4v2h-.52v-2.18c0-.82-.41-1.24-1.11-1.24a1.25,1.25,0,0,0-1.3,1.4v2h-.52v-3.86h.5v.71a1.55,1.55,0,0,1,1.42-.74,1.37,1.37,0,0,1,1.37.82,1.69,1.69,0,0,1,1.53-.82A1.46,1.46,0,0,1,1567.57,522Z" transform="translate(0 -198.53)"/><path d="M1572,520.67l-2.61,1,2.61,1v.61l-3.29-1.3v-.63l3.29-1.3Z" transform="translate(0 -198.53)"/><path d="M1574.74,518.06h.63L1573,525h-.64Z" transform="translate(0 -198.53)"/><path d="M1580.29,519.1v5.14h-.73V522h-3v2.29h-.73V519.1h.73v2.21h3V519.1Z" transform="translate(0 -198.53)"/><path d="M1583,519.1v5.14h-.73v-4.5h-1.16v-.64Z" transform="translate(0 -198.53)"/><path d="M1587.55,521.36V522l-3.29,1.3v-.61l2.62-1-2.62-1v-.61Z" transform="translate(0 -198.53)"/><path d="M1483.29,538.27l-2.6,1,2.6,1v.61l-3.28-1.3V539l3.28-1.3Z" transform="translate(0 -198.53)"/><path d="M1488.7,538.5c0,1.12-.8,1.79-2.14,1.79h-1.27v1.56h-.74v-5.14h2C1487.9,536.71,1488.7,537.38,1488.7,538.5Zm-.73,0c0-.73-.49-1.15-1.43-1.15h-1.25v2.3h1.25C1487.48,539.65,1488,539.23,1488,538.5Z" transform="translate(0 -198.53)"/><path d="M1492.86,539v.63l-3.29,1.3v-.61l2.62-1-2.62-1v-.61Z" transform="translate(0 -198.53)"/><path d="M1499.1,538.27l-2.6,1,2.6,1v.61l-3.29-1.3V539l3.29-1.3Z" transform="translate(0 -198.53)"/><path d="M1500.36,536.71h.74v5.14h-.74Z" transform="translate(0 -198.53)"/><path d="M1507.4,541.85V538.1l-1.85,3.12h-.34l-1.86-3.09v3.72h-.7v-5.14h.6l2.14,3.61,2.12-3.61h.6v5.14Z" transform="translate(0 -198.53)"/><path d="M1513.2,539.25h.71v2a3,3,0,0,1-2,.66,2.63,2.63,0,1,1,0-5.26,2.58,2.58,0,0,1,2,.79l-.46.46a2,2,0,0,0-1.49-.6,2,2,0,1,0,0,4,2.13,2.13,0,0,0,1.2-.33Z" transform="translate(0 -198.53)"/><path d="M1516.81,541.26l.27-.57a2.65,2.65,0,0,0,1.69.59c.89,0,1.27-.34,1.27-.79,0-1.26-3.11-.46-3.11-2.37,0-.79.62-1.47,2-1.47a3,3,0,0,1,1.65.45l-.24.59a2.73,2.73,0,0,0-1.41-.42c-.88,0-1.25.37-1.25.82,0,1.25,3.11.47,3.11,2.36,0,.78-.63,1.46-2,1.46A3,3,0,0,1,1516.81,541.26Z" transform="translate(0 -198.53)"/><path d="M1525.27,541.85l-1.11-1.58h-1.59v1.57h-.74v-5.14h2c1.33,0,2.14.67,2.14,1.79a1.61,1.61,0,0,1-1.13,1.62l1.22,1.73Zm0-3.35c0-.73-.5-1.15-1.44-1.15h-1.24v2.31h1.24C1524.75,539.66,1525.25,539.23,1525.25,538.5Z" transform="translate(0 -198.53)"/><path d="M1526.75,539.28a2.6,2.6,0,0,1,2.72-2.63,2.53,2.53,0,0,1,2,.8l-.47.46a1.92,1.92,0,0,0-1.45-.61,2,2,0,1,0,0,4,1.92,1.92,0,0,0,1.45-.61l.47.46a2.55,2.55,0,0,1-2,.81A2.6,2.6,0,0,1,1526.75,539.28Z" transform="translate(0 -198.53)"/><path d="M1532.19,538.12h3.29v.58h-3.29Zm0,1.74h3.29v.58h-3.29Z" transform="translate(0 -198.53)"/><path d="M1538.4,536.71h.62l0,2h-.53Zm1.33,0h.62l0,2h-.53Z" transform="translate(0 -198.53)"/><path d="M1541.58,536.71h.73v4.5h2.79v.64h-3.52Z" transform="translate(0 -198.53)"/><path d="M1545.42,539.9a2,2,0,1,1,2,2A1.94,1.94,0,0,1,1545.42,539.9Zm3.33,0a1.27,1.27,0,0,0-1.3-1.36,1.28,1.28,0,0,0-1.32,1.36,1.3,1.3,0,0,0,1.32,1.38A1.28,1.28,0,0,0,1548.75,539.9Z" transform="translate(0 -198.53)"/><path d="M1552.53,537.92v.68h-.16a1.16,1.16,0,0,0-1.23,1.31v1.94h-.7V538h.67v.65A1.5,1.5,0,0,1,1552.53,537.92Z" transform="translate(0 -198.53)"/><path d="M1556.86,540.14h-3.16a1.32,1.32,0,0,0,1.41,1.14,1.49,1.49,0,0,0,1.13-.47l.39.45a2,2,0,0,1-1.54.63,2,2,0,0,1-2.09-2,1.9,1.9,0,0,1,2-2,1.87,1.87,0,0,1,1.92,2A1.7,1.7,0,0,1,1556.86,540.14Zm-3.16-.51h2.5a1.26,1.26,0,0,0-2.5,0Z" transform="translate(0 -198.53)"/><path d="M1564.31,539.61v2.24h-.71v-2.16c0-.76-.36-1.14-1-1.14a1.13,1.13,0,0,0-1.17,1.29v2h-.7v-2.16c0-.76-.37-1.14-1-1.14a1.13,1.13,0,0,0-1.17,1.29v2h-.7V538h.67v.58a1.58,1.58,0,0,1,1.35-.62,1.46,1.46,0,0,1,1.35.72,1.74,1.74,0,0,1,1.49-.72A1.49,1.49,0,0,1,1564.31,539.61Z" transform="translate(0 -198.53)"/><path d="M1567.45,536.75a.47.47,0,0,1,.48-.46.46.46,0,1,1,0,.92A.46.46,0,0,1,1567.45,536.75Zm.12,1.21h.71v3.89h-.71Z" transform="translate(0 -198.53)"/><path d="M1573.65,539.9a1.89,1.89,0,0,1-2,2,1.64,1.64,0,0,1-1.35-.63v2h-.71V538h.68v.61a1.64,1.64,0,0,1,1.38-.65A1.89,1.89,0,0,1,1573.65,539.9Zm-.71,0a1.31,1.31,0,1,0-1.31,1.38A1.28,1.28,0,0,0,1572.94,539.9Z" transform="translate(0 -198.53)"/><path d="M1574.13,541.44l.29-.56a2.57,2.57,0,0,0,1.37.4c.65,0,.93-.2.93-.53,0-.87-2.46-.11-2.46-1.66,0-.7.62-1.17,1.62-1.17a2.87,2.87,0,0,1,1.42.35l-.3.56a2.06,2.06,0,0,0-1.13-.31c-.62,0-.92.23-.92.54,0,.92,2.47.17,2.47,1.68,0,.7-.65,1.15-1.68,1.15A2.85,2.85,0,0,1,1574.13,541.44Z" transform="translate(0 -198.53)"/><path d="M1581.93,538v3.89h-.67v-.59a1.59,1.59,0,0,1-1.32.63,1.53,1.53,0,0,1-1.68-1.69V538h.7v2.16c0,.76.39,1.14,1.06,1.14a1.14,1.14,0,0,0,1.2-1.29v-2Z" transform="translate(0 -198.53)"/><path d="M1589.73,539.61v2.24H1589v-2.16c0-.76-.37-1.14-1-1.14a1.13,1.13,0,0,0-1.16,1.29v2h-.71v-2.16c0-.76-.36-1.14-1-1.14a1.13,1.13,0,0,0-1.17,1.29v2h-.71V538h.68v.58a1.57,1.57,0,0,1,1.34-.62,1.46,1.46,0,0,1,1.36.72,1.74,1.74,0,0,1,1.49-.72A1.49,1.49,0,0,1,1589.73,539.61Z" transform="translate(0 -198.53)"/><path d="M1590.81,536.71h.62l0,2h-.52Zm1.33,0h.62l0,2h-.52Z" transform="translate(0 -198.53)"/><path d="M1597,539v.63l-3.29,1.3v-.61l2.61-1-2.61-1v-.61Z" transform="translate(0 -198.53)"/><path d="M1601.27,538.27l-2.61,1,2.61,1v.61l-3.29-1.3V539l3.29-1.3Z" transform="translate(0 -198.53)"/><path d="M1604,535.67h.64l-2.42,6.91h-.64Z" transform="translate(0 -198.53)"/><path d="M1609.26,538.5c0,1.12-.81,1.79-2.15,1.79h-1.27v1.56h-.73v-5.14h2C1608.45,536.71,1609.26,537.38,1609.26,538.5Zm-.74,0c0-.73-.49-1.15-1.43-1.15h-1.25v2.3h1.25C1608,539.65,1608.52,539.23,1608.52,538.5Z" transform="translate(0 -198.53)"/><path d="M1613.41,539v.63l-3.29,1.3v-.61l2.62-1-2.62-1v-.61Z" transform="translate(0 -198.53)"/><path d="M1483.29,555.88l-2.6,1,2.6,1v.61l-3.28-1.3v-.63l3.28-1.3Z" transform="translate(0 -198.53)"/><path d="M1486,553.27h.64l-2.42,6.92h-.64Z" transform="translate(0 -198.53)"/><path d="M1491.56,558.07c0,.88-.67,1.38-2,1.38h-2.45v-5.14h2.3c1.18,0,1.84.5,1.84,1.33a1.21,1.21,0,0,1-.69,1.15A1.24,1.24,0,0,1,1491.56,558.07Zm-3.69-3.16v1.64h1.51c.74,0,1.17-.28,1.17-.82s-.43-.82-1.17-.82Zm2.94,3.1c0-.6-.43-.86-1.25-.86h-1.69v1.71h1.69C1490.38,558.86,1490.81,558.6,1490.81,558Z" transform="translate(0 -198.53)"/><path d="M1492.27,556.88a2.73,2.73,0,1,1,2.74,2.63A2.62,2.62,0,0,1,1492.27,556.88Zm4.73,0a2,2,0,1,0-2,2A1.93,1.93,0,0,0,1497,556.88Z" transform="translate(0 -198.53)"/><path d="M1498.85,554.31H1501a2.58,2.58,0,1,1,0,5.14h-2.17Zm2.12,4.5a1.94,1.94,0,1,0,0-3.86h-1.38v3.86Z" transform="translate(0 -198.53)"/><path d="M1506.66,557.68v1.77h-.73v-1.79l-2-3.35h.78l1.65,2.71,1.65-2.71h.73Z" transform="translate(0 -198.53)"/><path d="M1512.45,556.57v.63l-3.29,1.3v-.61l2.61-1-2.61-1v-.61Z" transform="translate(0 -198.53)"/><path d="M1680.78,418.33c0,.23-50.8.41-113.45.41s-113.47-.18-113.47-.41,50.79-.41,113.47-.41S1680.78,418.1,1680.78,418.33Z" transform="translate(0 -198.53)" style="fill:#1a2e35"/><path d="M1460.66,410.23a1.46,1.46,0,1,1-1.46-1.46A1.46,1.46,0,0,1,1460.66,410.23Z" transform="translate(0 -198.53)" style="fill:#1a2e35"/><circle cx="1464.81" cy="211.69" r="1.46" style="fill:#1a2e35"/><path d="M1471.88,410.23a1.46,1.46,0,1,1-1.46-1.46A1.47,1.47,0,0,1,1471.88,410.23Z" transform="translate(0 -198.53)" style="fill:#1a2e35"/><path d="M1468.27,590c-.23,0-.41-38.52-.41-86s.18-86,.41-86,.41,38.51.41,86S1468.5,590,1468.27,590Z" transform="translate(0 -198.53)" style="fill:#e1e1e1"/><rect x="1150.49" y="52.66" width="93.79" height="66.86" style="fill:#ff4f5b"/><path d="M1245,261.11c0,.23-21.17.42-47.28.42s-47.29-.19-47.29-.42,21.17-.41,47.29-.41S1245,260.89,1245,261.11Z" transform="translate(0 -198.53)" style="fill:#fff"/><path d="M1158.15,256.24a1.28,1.28,0,1,1-1.27-1.11A1.19,1.19,0,0,1,1158.15,256.24Z" transform="translate(0 -198.53)" style="fill:#fff"/><path d="M1162.75,256.24a1.28,1.28,0,1,1-1.26-1.11A1.19,1.19,0,0,1,1162.75,256.24Z" transform="translate(0 -198.53)" style="fill:#fff"/><ellipse cx="1166.09" cy="57.7" rx="1.26" ry="1.11" style="fill:#fff"/><path d="M1185.18,287.78c0,4-2.91,6.44-7.7,6.44h-5.07v5.95h-2V281.32h7.06C1182.27,281.32,1185.18,283.74,1185.18,287.78Zm-2,0c0-3-2-4.74-5.77-4.74h-5v9.43h5C1181.19,292.47,1183.19,290.74,1183.19,287.78Z" transform="translate(0 -198.53)" style="fill:#fff"/><path d="M1205.24,281.32v18.85h-2v-8.7h-11.8v8.7h-2V281.32h2v8.4h11.8v-8.4Z" transform="translate(0 -198.53)" style="fill:#fff"/><path d="M1226.13,287.78c0,4-2.91,6.44-7.7,6.44h-5.07v5.95h-2V281.32h7.06C1223.22,281.32,1226.13,283.74,1226.13,287.78Zm-2,0c0-3-2-4.74-5.77-4.74h-5v9.43h5C1222.14,292.47,1224.14,290.74,1224.14,287.78Z" transform="translate(0 -198.53)" style="fill:#fff"/><rect x="1660.49" y="308.35" width="84.79" height="60.44" style="fill:#ff4f5b"/><path d="M1689.08,535v12h-2.78V542h-5.44v4.92h-2.78V535h2.78v4.73h5.44V535Z" transform="translate(0 -198.53)" style="fill:#fff"/><path d="M1694.41,537.21h-3.84V535H1701v2.26h-3.84v9.73h-2.78Z" transform="translate(0 -198.53)" style="fill:#fff"/><path d="M1702.52,535h2.78v9.73h6v2.26h-8.79Z" transform="translate(0 -198.53)" style="fill:#fff"/><path d="M1723.79,546.94l0-7.19-3.53,5.93H1719l-3.52-5.78v7h-2.6V535h2.3l4.49,7.45,4.42-7.45h2.28l0,12Z" transform="translate(0 -198.53)" style="fill:#fff"/><path d="M1745.94,515.85c0,.15-19.14.27-42.74.27s-42.75-.12-42.75-.27,19.13-.27,42.75-.27S1745.94,515.7,1745.94,515.85Z" transform="translate(0 -198.53)" style="fill:#fff"/><path d="M1667.41,511.44a1.16,1.16,0,0,1-2.29,0,1.16,1.16,0,0,1,2.29,0Z" transform="translate(0 -198.53)" style="fill:#fff"/><path d="M1671.57,511.44a1.16,1.16,0,1,1-1.14-1A1.08,1.08,0,0,1,1671.57,511.44Z" transform="translate(0 -198.53)" style="fill:#fff"/><path d="M1675.73,511.44a1.16,1.16,0,1,1-1.14-1A1.08,1.08,0,0,1,1675.73,511.44Z" transform="translate(0 -198.53)" style="fill:#fff"/><rect x="1105.48" y="307.48" width="62.5" height="44.56" style="fill:#ff4f5b"/><path d="M1168.48,512.62c0,.11-14.11.2-31.51.2s-31.51-.09-31.51-.2,14.1-.19,31.51-.19S1168.48,512.51,1168.48,512.62Z" transform="translate(0 -198.53)" style="fill:#fff"/><path d="M1110.58,509.37a.85.85,0,1,1-.84-.74A.79.79,0,0,1,1110.58,509.37Z" transform="translate(0 -198.53)" style="fill:#fff"/><path d="M1113.65,509.37a.85.85,0,1,1-.84-.74A.79.79,0,0,1,1113.65,509.37Z" transform="translate(0 -198.53)" style="fill:#fff"/><path d="M1116.72,509.37a.85.85,0,1,1-.84-.74A.8.8,0,0,1,1116.72,509.37Z" transform="translate(0 -198.53)" style="fill:#fff"/><path d="M1477.91,334.31c0-6.82,5.19-11.88,12.15-11.88a11.19,11.19,0,0,1,8.33,3.25l-1.07,1.1a9.81,9.81,0,0,0-7.19-2.77,10.3,10.3,0,1,0,0,20.6,9.81,9.81,0,0,0,7.19-2.81l1.07,1.11a11.21,11.21,0,0,1-8.33,3.28C1483.1,346.19,1477.91,341.14,1477.91,334.31Z" transform="translate(0 -198.53)" style="fill:#ff4f5b"/><path d="M1501.6,343l.77-1.27a11.13,11.13,0,0,0,7.73,2.94c4.68,0,6.75-2,6.75-4.58,0-7-14.61-2.81-14.61-11.44,0-3.32,2.54-6.23,8.29-6.23a12.6,12.6,0,0,1,7.06,2.11l-.63,1.37a11.65,11.65,0,0,0-6.43-2c-4.55,0-6.59,2.11-6.59,4.68,0,7,14.62,2.88,14.62,11.38,0,3.31-2.64,6.19-8.43,6.19C1506.65,346.19,1503.31,344.88,1501.6,343Z" transform="translate(0 -198.53)" style="fill:#ff4f5b"/><path d="M1522,343l.77-1.27a11.15,11.15,0,0,0,7.73,2.94c4.68,0,6.76-2,6.76-4.58,0-7-14.62-2.81-14.62-11.44,0-3.32,2.54-6.23,8.29-6.23a12.6,12.6,0,0,1,7.06,2.11l-.63,1.37a11.65,11.65,0,0,0-6.43-2c-4.55,0-6.59,2.11-6.59,4.68,0,7,14.62,2.88,14.62,11.38,0,3.31-2.64,6.19-8.43,6.19C1527,346.19,1523.68,344.88,1522,343Z" transform="translate(0 -198.53)" style="fill:#ff4f5b"/><path d="M1558.87,364.76s0-.44,0-1.25,0-2,0-3.56c0-3.14,0-7.71-.08-13.55,0-11.7-.1-28.5-.17-49l.33.33-104.3.08h0l.41-.41c0,23.92,0,46.7,0,67.36l-.38-.37,75,.18,21.52.1,5.75,0,1.49,0,.52,0-.48,0-1.45,0-5.66.05-21.44.1-75.28.18h-.38v-.39c0-20.66,0-43.44,0-67.36V297h.42l104.3.08h.32v.32c-.07,20.59-.13,37.46-.17,49.21,0,5.81-.06,10.35-.08,13.48,0,1.51,0,2.68,0,3.5S1558.87,364.76,1558.87,364.76Z" transform="translate(0 -198.53)" style="fill:#ff4f5b"/><path d="M1558.87,307.39c0,.22-23.36.41-52.17.41s-52.18-.19-52.18-.41,23.36-.42,52.18-.42S1558.87,307.16,1558.87,307.39Z" transform="translate(0 -198.53)" style="fill:#ff4f5b"/><path d="M1462.27,302.47a1.28,1.28,0,1,1-1.27-1.12A1.2,1.2,0,0,1,1462.27,302.47Z" transform="translate(0 -198.53)" style="fill:#ff4f5b"/><path d="M1466.91,302.47a1.28,1.28,0,1,1-1.27-1.12A1.2,1.2,0,0,1,1466.91,302.47Z" transform="translate(0 -198.53)" style="fill:#ff4f5b"/><path d="M1471.55,302.47a1.28,1.28,0,1,1-1.27-1.12A1.2,1.2,0,0,1,1471.55,302.47Z" transform="translate(0 -198.53)" style="fill:#ff4f5b"/><path d="M1257.62,595,1299,734.56A14.61,14.61,0,0,0,1313,745l167.79.46a15.5,15.5,0,0,0,15.53-16.33h0a15.51,15.51,0,0,0-15.49-14.7h-64.16l-51.39-143.17h-89.93A18.44,18.44,0,0,0,1257.62,595Z" transform="translate(0 -198.53)" style="fill:#375a64"/><path d="M1399.57,725.91c0,.33-17.11.59-38.21.59s-38.21-.26-38.21-.59,17.11-.59,38.21-.59S1399.57,725.58,1399.57,725.91Z" transform="translate(0 -198.53)" style="fill:#1a2e35"/><path d="M1270,575.71c.31-.11,11.74,33.32,25.52,74.64s24.71,74.92,24.4,75-11.74-33.31-25.52-74.65S1269.64,575.81,1270,575.71Z" transform="translate(0 -198.53)" style="fill:#1a2e35"/><polygon points="1392.59 670.5 1382.37 670.26 1382.37 546.47 1392.59 546.47 1392.59 670.5" style="fill:#375a64"/><polygon points="1339.89 669.94 1435.07 669.94 1391.95 654.95 1381.73 654.95 1339.89 669.94" style="fill:#375a64"/><path d="M1315.81,539.27,1331.56,618l-2.81,59,105.87-17.61-4.16-51.64-.08-42.72,26,50.3,20.21-39-37-67h0a62.48,62.48,0,0,0-24.21-15.67,49.87,49.87,0,0,0-15.17-2.91h0a60.72,60.72,0,0,1-36.65,0c-1.49.19-3.55.39-6.15.69l-.48.06a46.8,46.8,0,0,0-40.85,44Z" transform="translate(0 -198.53)" style="fill:#ff4f5b"/><path d="M1357.36,491.31s-43.5.33-48.89,46.28l-.73,33.68,37.46-.32Z" transform="translate(0 -198.53)" style="fill:#ff4f5b"/><path d="M1461.28,550.41c0,.33-34.23.59-76.45.59s-76.45-.26-76.45-.59,34.23-.59,76.45-.59S1461.28,550.09,1461.28,550.41Z" transform="translate(0 -198.53)" style="fill:#fafafa"/><path d="M1461.28,557.7c0,.32-34.23.59-76.45.59s-76.45-.27-76.45-.59,34.23-.59,76.45-.59S1461.28,557.37,1461.28,557.7Z" transform="translate(0 -198.53)" style="fill:#fafafa"/><path d="M1458.83,544.38c0,.32-33.68.59-75.22.59s-75.23-.27-75.23-.59,33.68-.59,75.23-.59S1458.83,544.05,1458.83,544.38Z" transform="translate(0 -198.53)" style="fill:#fafafa"/><path d="M1429.82,615.25c-.33,0-.18-18.62.32-41.58s1.18-41.57,1.51-41.56.18,18.62-.33,41.59S1430.14,615.26,1429.82,615.25Z" transform="translate(0 -198.53)" style="fill:#1a2e35"/><path d="M1414.94,585.06s20.58,1.47,24.29,6.91,9.34,20.95,7.21,21.06a5.83,5.83,0,0,1-3.7-1.16l-5.64-10s.91,9.66-2.46,9.85-20.08,3.53-20.08,3.53Z" transform="translate(0 -198.53)" style="fill:#ffbf9d"/><path d="M1307.75,562.31l-.08,53a20.15,20.15,0,0,0,24.42,18.6l83-17.09-.18-34-71.58,13.74-1-36Z" transform="translate(0 -198.53)" style="fill:#ff4f5b"/><path d="M1355.08,629.7a5.81,5.81,0,0,1,1.1-.3l3.21-.73,12.2-2.58,43.18-8.82-.43.51c0-10.68,0-22.48,0-34.94l.69.58-14.58,2.8-57,10.85-.62.12,0-.62c.54-15.79,1-28.94,1.31-38.25.19-4.53.34-8.12.45-10.68.06-1.17.11-2.1.15-2.81a4.45,4.45,0,0,1,.11-1,4.52,4.52,0,0,1,0,1c0,.71,0,1.64,0,2.81,0,2.57-.09,6.16-.16,10.69-.22,9.31-.53,22.46-.89,38.25l-.6-.5,57-11,14.58-2.79.7-.14v.71c0,12.46,0,24.26-.06,34.94v.44l-.42.08-43.27,8.41L1359.46,629l-3.25.56A5.58,5.58,0,0,1,1355.08,629.7Z" transform="translate(0 -198.53)" style="fill:#1a2e35"/><path d="M1402.67,491.31s.15.26.34.78a15.22,15.22,0,0,1,.64,2.35,19.08,19.08,0,0,1-.39,8.93,23.46,23.46,0,0,1-7.2,11.11,22.38,22.38,0,0,1-15.1,5.7,20.51,20.51,0,0,1-14.93-6.06,21.08,21.08,0,0,1-5.55-12,18.94,18.94,0,0,1,1-8.88,12.49,12.49,0,0,1,1.06-2.19c.29-.48.45-.71.49-.69s-.51,1-1.12,3a19.73,19.73,0,0,0-.65,8.62,20.58,20.58,0,0,0,5.51,11.36A19.65,19.65,0,0,0,1381,519a21.49,21.49,0,0,0,14.38-5.34,23.09,23.09,0,0,0,7.12-10.53,20.16,20.16,0,0,0,.74-8.62C1402.93,492.46,1402.55,491.35,1402.67,491.31Z" transform="translate(0 -198.53)" style="fill:#1a2e35"/><path d="M1406.68,619.67c-.17,0-.11-2,0-5.23s.28-7.67.31-12.58-.07-9.36-.16-12.58-.12-5.22.05-5.23.49,2,.79,5.18.53,7.7.5,12.64-.32,9.41-.65,12.62S1406.83,619.69,1406.68,619.67Z" transform="translate(0 -198.53)" style="fill:#fafafa"/><path d="M1402.39,620.54c-.16,0-.18-2-.15-5.2,0-3.65.09-7.86.14-12.5s0-8.84,0-12.5c0-3.2,0-5.18.2-5.19s.41,2,.63,5.17.38,7.63.36,12.53-.23,9.33-.48,12.53S1402.55,620.55,1402.39,620.54Z" transform="translate(0 -198.53)" style="fill:#fafafa"/><path d="M1485.47,831.3l15.68,43.18,22.25,30.57a4.72,4.72,0,0,1-1.3,6.76h0a4.71,4.71,0,0,1-4.3.37c-9-3.73-41.9-17.58-42.87-20.81-1.13-3.73-22.39-50.17-22.39-50.17Z" transform="translate(0 -198.53)" style="fill:#ff4f5b"/><g style="opacity:0.6000000000000001"><path d="M1522.1,911.81l-48.3-23.33.71,1.82a7.11,7.11,0,0,0,3.23,3.67c4,2.13,15,7.79,39.93,18.26a4.72,4.72,0,0,0,4.43-.42Z" transform="translate(0 -198.53)" style="fill:#fff"/></g><g style="opacity:0.6000000000000001"><path d="M1477.21,871.25a2.87,2.87,0,0,1,2.08,3.19,2.74,2.74,0,0,1-3.14,2.08,3,3,0,0,1-2.18-3.38c.42-1.34,2.25-2.43,3.5-1.81" transform="translate(0 -198.53)" style="fill:#fff"/></g><path d="M1505,896.91c.29,0,.38-2.59,2.46-4.79s4.61-2.57,4.56-2.86c0-.12-.68-.24-1.73,0a7.47,7.47,0,0,0-5.43,5.92C1504.73,896.26,1504.91,896.92,1505,896.91Z" transform="translate(0 -198.53)" style="fill:#1a2e35"/><path d="M1510.31,901.46c.28.1,1.11-1.82,3.08-3.32s4-1.87,4-2.17-2.38-.37-4.59,1.37S1510,901.43,1510.31,901.46Z" transform="translate(0 -198.53)" style="fill:#1a2e35"/><path d="M1496.49,891.77c.28.13,1.55-2.84,4.41-5.44s5.87-3.66,5.77-4-3.43.39-6.46,3.21S1496.24,891.73,1496.49,891.77Z" transform="translate(0 -198.53)" style="fill:#1a2e35"/><path d="M1490.63,879.05c.22.21,2.2-1.7,5.23-3s5.76-1.52,5.75-1.82-2.91-.55-6.16.9S1490.42,878.9,1490.63,879.05Z" transform="translate(0 -198.53)" style="fill:#1a2e35"/><path d="M1485.71,866.49c.23.19,2-2.16,5.36-3.28s6.17-.48,6.23-.78c0-.12-.64-.47-1.85-.66a10.25,10.25,0,0,0-8.71,3.05C1485.92,865.72,1485.61,866.42,1485.71,866.49Z" transform="translate(0 -198.53)" style="fill:#1a2e35"/><path d="M1490.06,860.85a3.84,3.84,0,0,0-.57-1.64,12,12,0,0,0-2.94-3.74,5.32,5.32,0,0,0-3.06-1.55,1.9,1.9,0,0,0-1.84,1.17,3.06,3.06,0,0,0,.08,2.19,6.64,6.64,0,0,0,7.66,3.62,7.7,7.7,0,0,0,5.6-6.51,2.66,2.66,0,0,0-.69-2.12,1.86,1.86,0,0,0-2.16-.21,6.58,6.58,0,0,0-2.25,2.56,13.46,13.46,0,0,0-1.63,4.47,3.92,3.92,0,0,0-.08,1.73c.19.06.26-2.52,2.32-5.82a6,6,0,0,1,2-2.19,1,1,0,0,1,1.18.11,1.8,1.8,0,0,1,.37,1.42,6.89,6.89,0,0,1-4.92,5.59,5.79,5.79,0,0,1-6.55-3,2.26,2.26,0,0,1-.11-1.54,1,1,0,0,1,1-.65,4.84,4.84,0,0,1,2.62,1.26C1489.13,858.46,1489.89,861,1490.06,860.85Z" transform="translate(0 -198.53)" style="fill:#1a2e35"/><path d="M1551.66,820l-1.35,35.1s35.21,13.16,35.59,19.67l-68.13-.19-.13-54.76Z" transform="translate(0 -198.53)" style="fill:#ff4f5b"/><g style="opacity:0.6000000000000001"><path d="M1529.25,852.09a2.77,2.77,0,0,0-1.93,3.17,2.67,2.67,0,0,0,3.12,1.94,2.93,2.93,0,0,0,2-3.37c-.45-1.29-2.27-2.3-3.48-1.66" transform="translate(0 -198.53)" style="fill:#fff"/></g><g style="opacity:0.6000000000000001"><path d="M1517.77,874.58l0-5.46,65.47,2.18s3,1.33,2.68,3.47Z" transform="translate(0 -198.53)" style="fill:#fff"/></g><path d="M1551.41,854.75c0,.33-1.67.48-3.31,1.55s-2.52,2.46-2.82,2.33.19-2.06,2.2-3.31S1551.49,854.45,1551.41,854.75Z" transform="translate(0 -198.53)" style="fill:#1a2e35"/><path d="M1558.55,857.73c.08.32-1.36.88-2.5,2.29s-1.46,2.89-1.79,2.87-.54-1.9.9-3.61S1558.55,857.41,1558.55,857.73Z" transform="translate(0 -198.53)" style="fill:#1a2e35"/><path d="M1562.59,866.29c-.3.07-.76-1.59.1-3.41s2.41-2.54,2.55-2.27-.82,1.25-1.5,2.76S1562.92,866.26,1562.59,866.29Z" transform="translate(0 -198.53)" style="fill:#1a2e35"/><path d="M1550.84,846.72c-.14.3-1.67-.16-3.55,0s-3.35.71-3.52.43,1.24-1.47,3.46-1.58S1551,846.46,1550.84,846.72Z" transform="translate(0 -198.53)" style="fill:#1a2e35"/><g style="opacity:0.30000000000000004"><polygon points="1551.39 628.42 1551.15 634.68 1517.67 634.28 1517.64 628.64 1551.39 628.42"/></g><path d="M1551,839.64c0,.13-1.31.34-3.41,0a16,16,0,0,1-5.53-2.15,4.58,4.58,0,0,1-1-.81,1.46,1.46,0,0,1-.14-1.77,1.83,1.83,0,0,1,1.46-.76,4.82,4.82,0,0,1,1.28.18,12.34,12.34,0,0,1,5.26,2.81c1.57,1.47,2.11,2.72,2,2.78s-.91-.94-2.52-2.15a13.44,13.44,0,0,0-3-1.72,11.68,11.68,0,0,0-2-.61c-.73-.19-1.34-.2-1.53.12-.06.12-.07.17.08.38a3.26,3.26,0,0,0,.75.59,18,18,0,0,0,5.1,2.31C1549.7,839.36,1551,839.46,1551,839.64Z" transform="translate(0 -198.53)" style="fill:#1a2e35"/><path d="M1550.54,840.11c-.11,0-.77-1.14-.89-3.3a11,11,0,0,1,.48-3.73A11.72,11.72,0,0,1,1551,831a2.83,2.83,0,0,1,2.18-1.72,1.61,1.61,0,0,1,1.43,1,4.7,4.7,0,0,1,.34,1.25,7.39,7.39,0,0,1,0,2.3,7.9,7.9,0,0,1-1.47,3.52c-1.33,1.76-2.72,2.15-2.75,2s1-.8,2.07-2.5a7.71,7.71,0,0,0,1.09-3.2,6.9,6.9,0,0,0-.06-2c-.1-.73-.37-1.31-.64-1.24s-.92.54-1.2,1.11a11.71,11.71,0,0,0-.85,1.85,12.27,12.27,0,0,0-.67,3.4C1550.37,838.81,1550.72,840.06,1550.54,840.11Z" transform="translate(0 -198.53)" style="fill:#1a2e35"/><path d="M1517.7,651.78c-40.25,4.17-93.61,9.63-93.61,9.63l7.28,65.52s78.4-20.72,77.84-19,3.63,139.4,3.63,139.4h47.21l.89-156A39.21,39.21,0,0,0,1517.7,651.78Z" transform="translate(0 -198.53)" style="fill:#1a2e35"/><path d="M1327.77,678.21v20.32c0,13.83,15.76,28.5,29.59,28.5h10.69c8.43,0,21.63-6.14,28.43-11.11l4.09-3,49.16,152.3S1506,855.14,1506,853.37s-38.09-124.74-55.68-181.81c-7.18-23.3-32.14-36.85-55.21-28.94-.78.27-1.57.56-2.36.87C1367.53,653.57,1327.77,678.21,1327.77,678.21Z" transform="translate(0 -198.53)" style="fill:#1a2e35"/><path d="M1506,853.37a2.74,2.74,0,0,1-.25-.54c-.16-.44-.37-1-.62-1.63-.54-1.44-1.31-3.56-2.23-6.33-1.89-5.5-4.47-13.52-7.61-23.44-6.28-19.84-14.68-47.34-23.83-77.74-4.56-15.21-8.89-29.69-12.84-42.88-2-6.59-3.82-12.86-5.57-18.73l-2.52-8.48a74.69,74.69,0,0,0-2.56-7.7,31.58,31.58,0,0,0-7.94-11.25,67.23,67.23,0,0,0-8.32-6.48c-2.41-1.62-4.33-2.81-5.64-3.6l-1.48-.92a2.3,2.3,0,0,1-.48-.35,2,2,0,0,1,.54.24l1.54.82c1.35.73,3.31,1.86,5.77,3.43a63.14,63.14,0,0,1,8.52,6.37,32.05,32.05,0,0,1,8.26,11.41,77.53,77.53,0,0,1,2.66,7.76l2.59,8.47,5.68,18.69c4,13.18,8.33,27.66,12.92,42.86,9.16,30.35,17.46,57.83,23.5,77.83l7.25,23.55c.85,2.71,1.53,4.84,2,6.39.2.68.37,1.22.5,1.67A2.2,2.2,0,0,1,1506,853.37Z" transform="translate(0 -198.53)" style="fill:#375a64"/><path d="M1517.85,688.24c.29.21-2.39,4.23-4.63,9.68S1510,708.1,1509.64,708s.15-5,2.49-10.56S1517.62,688.05,1517.85,688.24Z" transform="translate(0 -198.53)" style="fill:#375a64"/><path d="M1526.86,694.58c.14.32-3.92,2.1-8.14,5.45s-7,6.84-7.23,6.63,2.08-4.11,6.5-7.56S1526.78,694.29,1526.86,694.58Z" transform="translate(0 -198.53)" style="fill:#375a64"/><path d="M1450.26,865.22c-.31.1-13.59-40.65-29.66-91s-28.85-91.29-28.54-91.39,13.59,40.65,29.66,91S1450.57,865.13,1450.26,865.22Z" transform="translate(0 -198.53)" style="fill:#375a64"/><polygon points="1389.93 429.11 1550.84 430.66 1580.85 345.85 1463.81 346.64 1436.64 422.91 1389.93 423.6 1389.93 429.11" style="fill:#375a64"/><path d="M1511.93,594.09a6.52,6.52,0,1,1,7.36-5.54A6.5,6.5,0,0,1,1511.93,594.09Z" transform="translate(0 -198.53)" style="fill:#fff"/><path d="M1376.8,398.07c1.52-5.64,5.76-8.42,11.29-10.31a18.26,18.26,0,0,1,16.63,2.7c3.11,2.37,5.54,5.81,9.23,7.09,6.08,2.12,13.21-2.43,19,.29a8.3,8.3,0,0,1-3.93,15.81c4,1.45,5.21,7.11,2.89,10.64s-7.08,4.87-11.23,4.09-7.77-3.29-10.91-6.11-6-6-9.32-8.59-7.42-4.5-11.64-4.27c-5.71.3-10.61,4.61-13.15,9.73s-3.14,11-3.45,16.68-.42,11.51-2.12,17c-.19.64-.5,1.36-1.14,1.56-.92.28-1.71-.7-2.17-1.55a83.84,83.84,0,0,1-9.59-31.2c-.65-6.33-.48-12.32,3-17.64s12.27-9.25,16.58-5.89" transform="translate(0 -198.53)" style="fill:#1a2e35"/><path d="M1365.76,424.56l-2.92,64.05c-.5,10.89,1,27,18.25,27h0c15-1.13,19.4-15.12,19.85-25.29.22-4.82.41-8.84.46-9.34,0,0,16.38-.79,18.29-16.87.92-7.77,1.52-23.94,1.9-38.57a30.17,30.17,0,0,0-27-30.75l-1.55-.17C1376.2,393.82,1366.09,407.69,1365.76,424.56Z" transform="translate(0 -198.53)" style="fill:#ffbf9d"/><path d="M1401.45,480.76a37.69,37.69,0,0,1-20.36-8.21s3.73,12.12,20,12.38Z" transform="translate(0 -198.53)" style="fill:#ff9a6c"/><path d="M1415.75,435.83a2.33,2.33,0,0,1-2.47,2.09,2.22,2.22,0,0,1-2.15-2.33,2.33,2.33,0,0,1,2.47-2.09A2.22,2.22,0,0,1,1415.75,435.83Z" transform="translate(0 -198.53)" style="fill:#1a2e35"/><path d="M1417.29,433.08c-.32.27-1.92-1.21-4.4-1.46s-4.42.79-4.66.45c-.12-.14.23-.65,1.08-1.15a6.37,6.37,0,0,1,3.77-.73,6.07,6.07,0,0,1,3.46,1.54C1417.24,432.39,1417.44,433,1417.29,433.08Z" transform="translate(0 -198.53)" style="fill:#1a2e35"/><path d="M1391.39,434.09a2.31,2.31,0,0,1-2.47,2.08,2.2,2.2,0,0,1-2.15-2.32,2.32,2.32,0,0,1,2.46-2.09A2.22,2.22,0,0,1,1391.39,434.09Z" transform="translate(0 -198.53)" style="fill:#1a2e35"/><path d="M1392.91,431c-.32.27-1.92-1.2-4.4-1.46s-4.42.79-4.66.46c-.11-.15.23-.66,1.09-1.15a6.35,6.35,0,0,1,3.77-.74,6.1,6.1,0,0,1,3.46,1.54C1392.86,430.26,1393.06,430.83,1392.91,431Z" transform="translate(0 -198.53)" style="fill:#1a2e35"/><path d="M1399.94,450.26c0-.14,1.57-.24,4.1-.29.64,0,1.25-.06,1.4-.48a3.28,3.28,0,0,0-.22-1.92c-.44-1.6-.89-3.26-1.36-5-1.87-7.13-3.15-13-2.86-13s2,5.65,3.9,12.78c.45,1.75.87,3.43,1.28,5a3.7,3.7,0,0,1,.06,2.51,1.6,1.6,0,0,1-1.14.82,4.07,4.07,0,0,1-1.09,0C1401.49,450.56,1399.93,450.4,1399.94,450.26Z" transform="translate(0 -198.53)" style="fill:#1a2e35"/><path d="M1392.47,451.2c.41,0,.13,2.71,2.22,4.86s5,2.16,5,2.54c0,.17-.69.45-1.9.35a6.75,6.75,0,0,1-4.17-2,5.94,5.94,0,0,1-1.69-4.06C1391.92,451.8,1392.29,451.16,1392.47,451.2Z" transform="translate(0 -198.53)" style="fill:#1a2e35"/><path d="M1394.58,421.32c-.31.65-2.75.07-5.69.11s-5.38.58-5.7-.06c-.14-.31.34-.9,1.35-1.45a9.92,9.92,0,0,1,8.68,0C1394.24,420.43,1394.72,421,1394.58,421.32Z" transform="translate(0 -198.53)" style="fill:#1a2e35"/><path d="M1417.14,425.82c-.5.52-2.14-.25-4.19-.49s-3.82,0-4.16-.66c-.14-.3.19-.84,1-1.29a6.09,6.09,0,0,1,6.73.93C1417.18,425,1417.36,425.57,1417.14,425.82Z" transform="translate(0 -198.53)" style="fill:#1a2e35"/><path d="M1365.8,436.63c-.26-.15-10.71-4.45-11.53,6.6s10.44,9.59,10.48,9.27S1365.8,436.63,1365.8,436.63Z" transform="translate(0 -198.53)" style="fill:#ffbf9d"/><path d="M1361.68,448.07s-.2.12-.53.24a2,2,0,0,1-1.44-.07c-1.14-.52-2-2.44-1.89-4.44a6.52,6.52,0,0,1,.74-2.72,2.26,2.26,0,0,1,1.56-1.37,1,1,0,0,1,1.1.62c.12.32,0,.53.09.56s.25-.17.2-.64a1.21,1.21,0,0,0-.39-.72,1.43,1.43,0,0,0-1-.36,2.72,2.72,0,0,0-2.14,1.56,6.6,6.6,0,0,0-.89,3c-.1,2.23.89,4.4,2.45,5a2,2,0,0,0,1.78-.16C1361.65,448.33,1361.72,448.09,1361.68,448.07Z" transform="translate(0 -198.53)" style="fill:#ff9a6c"/><path d="M1425.35,422.56a23.37,23.37,0,0,1-20.16-6.85c-3.57-3.74-6.08-8.84-10.83-10.87a13.15,13.15,0,0,0-10.15.3,25.45,25.45,0,0,0-8.33,6.17c2.24,8.51-.82,17.43-3.84,25.7a4.44,4.44,0,0,1-1.55,2.4c-1.41.86-3.28-.13-4.29-1.44-1.61-2.09-2-4.85-2.22-7.49a45.47,45.47,0,0,1,2-17.85A30.91,30.91,0,0,1,1376.12,398a29.38,29.38,0,0,1,21.31-5.57,36.14,36.14,0,0,1,20,9.66,21.16,21.16,0,0,1,5.93,8.51" transform="translate(0 -198.53)" style="fill:#1a2e35"/><path d="M1115.84,763c5.64-2.91,12.28-3.29,18.55-2.25,3.36.55,6.87,1.56,9.16,4.09s2.73,7,.1,9.15c-1.57,1.29-3.75,1.49-5.78,1.46-4.9,0-10.35-.92-14.26,2-2.24,1.69-3.73,4.48-6.4,5.31s-5.57-.73-7-3.09a10.82,10.82,0,0,1-.79-8A12.16,12.16,0,0,1,1115.84,763Z" transform="translate(0 -198.53)" style="fill:#ff4f5b"/><path d="M1102.91,738c3.45,4.93,10.16,3.3,13.26.29s4.43-7.37,5.62-11.53c2.74-9.49,5.49-19.46,3.46-29.13a16.24,16.24,0,0,0-3.72-7.93,8.45,8.45,0,0,0-8-2.66c-3.39.89-5.49,4.2-7,7.35a69.46,69.46,0,0,0-6.86,29.81c0,4.8.55,9.84,3.26,13.8" transform="translate(0 -198.53)" style="fill:#ff4f5b"/><path d="M1093.43,745.07c3.75-4.44,4.46-10.93,2.79-16.5s-5.43-10.31-9.77-14.18a52.69,52.69,0,0,0-17.5-10.32,18.59,18.59,0,0,0-7.88-1.34,8.23,8.23,0,0,0-6.6,4c-1.84,3.51-.08,7.77,1.83,11.25a134.3,134.3,0,0,0,11.5,17.5c3.44,4.44,7.39,8.83,12.64,10.83s10.71,1.77,13.49-1.87" transform="translate(0 -198.53)" style="fill:#ff4f5b"/><path d="M1102.67,812.35a10.64,10.64,0,0,0,.32-2.24c.15-1.63.35-3.68.59-6.12a88.23,88.23,0,0,1,1.38-9,69.07,69.07,0,0,1,3.25-10.58,39,39,0,0,1,5.41-9.57,19.88,19.88,0,0,1,6.83-5.68,18.88,18.88,0,0,1,5.75-1.79,10.12,10.12,0,0,0,2.23-.33,11,11,0,0,0-2.27,0,17.42,17.42,0,0,0-6,1.56,20.13,20.13,0,0,0-7.2,5.73,38.07,38.07,0,0,0-5.6,9.76,64.34,64.34,0,0,0-3.24,10.76,74.71,74.71,0,0,0-1.19,9.07c-.19,2.6-.27,4.7-.3,6.15A10.59,10.59,0,0,0,1102.67,812.35Z" transform="translate(0 -198.53)" style="fill:#1a2e35"/><path d="M1103.1,807.64a4.68,4.68,0,0,0,.06-1c0-.78,0-1.76,0-3,0-2.58,0-6.31.13-10.92.23-9.21,1-19.13,2.55-33.12,1.46-13.15,3.4-28.45,5.46-38.4.44-2.26.88-4.3,1.3-6.08s.74-3.33,1.07-4.58l.69-2.88a4.88,4.88,0,0,0,.19-1,4.11,4.11,0,0,0-.36,1c-.23.75-.52,1.69-.87,2.85s-.77,2.77-1.22,4.55-1,3.81-1.44,6.06a336.79,336.79,0,0,0-5.73,35.64c-1.54,14-2.23,26.77-2.29,36-.06,4.62,0,8.36.16,10.94.07,1.21.13,2.19.18,3A3.66,3.66,0,0,0,1103.1,807.64Z" transform="translate(0 -198.53)" style="fill:#1a2e35"/><path d="M1103.16,783a21,21,0,0,0,0-3.1c-.12-2-.39-4.88-1-8.41a108.76,108.76,0,0,0-2.73-12.25,101.28,101.28,0,0,0-5.12-14.5,77.25,77.25,0,0,0-15-23.43,38,38,0,0,0-3.54-3.29c-.54-.46-1-.92-1.51-1.28l-1.38-.95a19,19,0,0,0-2.61-1.67c-.15.2,3.7,2.47,8.57,7.64a81.51,81.51,0,0,1,14.67,23.35,113.83,113.83,0,0,1,5.15,14.36,124.21,124.21,0,0,1,2.91,12.13c.64,3.5,1,6.35,1.24,8.33A18.14,18.14,0,0,0,1103.16,783Z" transform="translate(0 -198.53)" style="fill:#1a2e35"/><polygon points="1079.37 627.91 1081.84 661.7 1125.24 661.7 1127.7 627.91 1079.37 627.91" style="fill:#1a2e35"/><rect x="1075.18" y="614.6" width="57.7" height="13.32" style="fill:#1a2e35"/><polygon points="1075.18 660.4 1075.18 664.1 1077.89 664.1 1131.93 664.1 1131.93 660.4 1075.18 660.4" style="fill:#375a64"/><polygon points="1080.55 670.59 1077.89 664.1 1129.86 664.1 1126.76 670.59 1080.55 670.59" style="fill:#375a64"/><path d="M1126.9,837.49a1.92,1.92,0,0,1-.2.31c-.18.22-.39.51-.65.86l-2.53,3.23-.11.15-.11-.15-6.21-8.6h.35c-1.84,2.62-3.9,5.53-6.11,8.66l-.19.27-.22-.25-7.25-8.63h.42c-.13.15-.27.32-.4.5L1097.2,842l-.21.27-.2-.28-6.12-8.66.35,0-7.53,8.58-.13.15-.11-.17c-1-1.67-1.78-3-2.36-4l-.6-1.06a2.91,2.91,0,0,1-.19-.37s.1.1.26.33.39.6.67,1l2.47,3.89-.23,0,7.41-8.69.19-.22.17.24c1.87,2.62,4,5.51,6.17,8.61h-.41c2-2.58,4.22-5.32,6.47-8.14l.39-.5.21-.26.21.25c2.54,3,5,6,7.24,8.65l-.41,0,6.18-8.62.18-.25.17.25,6.08,8.68h-.22l2.63-3.16.71-.81C1126.8,837.57,1126.89,837.48,1126.9,837.49Z" transform="translate(0 -198.53)" style="fill:#e1e1e1"/><path d="M1128.31,826.22c0,.15-10.88.27-24.29.27s-24.29-.12-24.29-.27S1090.6,826,1104,826,1128.31,826.07,1128.31,826.22Z" transform="translate(0 -198.53)" style="fill:#375a64"/><path d="M1130.5,863c0,.15-11.82.27-26.39.27s-26.4-.12-26.4-.27,11.81-.27,26.4-.27S1130.5,862.84,1130.5,863Z" transform="translate(0 -198.53)" style="fill:#1a2e35"/><polygon points="1643.58 275.52 1613.43 401.62 1621.86 401.62 1651.56 275.52 1643.58 275.52" style="fill:#1a2e35"/><path d="M1632,557.11c-.54,2.31,13.65,71,13.65,71h-6.83l-10.72-54.47Z" transform="translate(0 -198.53)" style="fill:#1a2e35"/><rect x="1591.17" y="520.5" width="141.24" height="149.73" style="fill:#ff4f5b"/><rect x="1732.41" y="542.38" width="6.94" height="6.94" style="fill:#1a2e35"/><rect x="1732.41" y="564.4" width="6.94" height="6.94" style="fill:#1a2e35"/><rect x="1732.41" y="586.42" width="6.94" height="6.94" style="fill:#1a2e35"/><rect x="1732.41" y="608.44" width="6.94" height="6.94" style="fill:#1a2e35"/><path d="M1739.6,787a9.9,9.9,0,0,1,2.13-.47,34.47,34.47,0,0,1,5.94-.56,16,16,0,0,1,8.59,2.26,9.91,9.91,0,0,1,4.76,9.5,11.91,11.91,0,0,1-1.8,5.44,14.21,14.21,0,0,1-3.65,3.86,18.72,18.72,0,0,1-8.26,3.26,27,27,0,0,1-6,.2,9.07,9.07,0,0,1-2.16-.3,14.61,14.61,0,0,1,2.17,0,30.79,30.79,0,0,0,5.86-.46,18.63,18.63,0,0,0,7.91-3.29,12.17,12.17,0,0,0,5.08-8.75,9.22,9.22,0,0,0-4.35-8.8,15.79,15.79,0,0,0-8.19-2.32,44.73,44.73,0,0,0-5.89.3A11.67,11.67,0,0,1,1739.6,787Z" transform="translate(0 -198.53)" style="fill:#1a2e35"/><path d="M1737.87,765.09a2.59,2.59,0,0,1,.66-.4,14.51,14.51,0,0,1,2.06-.83,16.25,16.25,0,0,1,8.11-.45,7.13,7.13,0,0,1,2.58,1,4.46,4.46,0,0,1,1.83,2.46,7.51,7.51,0,0,1-4.51,8.47,4.54,4.54,0,0,1-3.82-.21,3.88,3.88,0,0,1-2.2-3.32,4,4,0,0,1,2.24-3.43,6.18,6.18,0,0,1,4-.43,8.38,8.38,0,0,1,3.53,1.68,9.56,9.56,0,0,1,3.52,6.29,8.91,8.91,0,0,1-1.81,6.28,12.76,12.76,0,0,1-4.34,3.66,20.73,20.73,0,0,1-7.87,2.05c-1,.08-1.7.11-2.2.11a2.41,2.41,0,0,1-.78,0c0-.06,1.06-.14,2.94-.38a22.09,22.09,0,0,0,7.63-2.25,12.35,12.35,0,0,0,4.07-3.56,8.19,8.19,0,0,0,1.6-5.78,8.75,8.75,0,0,0-3.26-5.74,7.48,7.48,0,0,0-3.19-1.51,5.32,5.32,0,0,0-3.5.35,3.19,3.19,0,0,0-1.8,2.7,3.1,3.1,0,0,0,1.76,2.61,3.75,3.75,0,0,0,3.17.18,6.35,6.35,0,0,0,2.61-1.9,6.48,6.48,0,0,0,1.52-5.64c-.5-1.85-2.3-2.77-3.89-3.11a16.61,16.61,0,0,0-7.89.19C1738.85,764.66,1737.9,765.16,1737.87,765.09Z" transform="translate(0 -198.53)" style="fill:#1a2e35"/><path d="M1737.94,743.6a4,4,0,0,1,1.54-.28,11.33,11.33,0,0,1,4.24.59,12.07,12.07,0,0,1,5.28,3.56,12,12,0,0,1,.45,14.72,12.12,12.12,0,0,1-5,3.87,11.21,11.21,0,0,1-4.19.85,3.93,3.93,0,0,1-1.56-.19,15.67,15.67,0,0,0,5.52-1.2,11.9,11.9,0,0,0,4.67-3.78,11.57,11.57,0,0,0-.42-13.79,12,12,0,0,0-4.9-3.49A15.64,15.64,0,0,0,1737.94,743.6Z" transform="translate(0 -198.53)" style="fill:#1a2e35"/><path d="M1633.11,639.48a14.11,14.11,0,0,1,1.18,2.79,53.23,53.23,0,0,1,1.88,8.51c.58,3.74,1.08,8.34,1.57,13.68s.94,11.45,1.8,18.13c.22,1.67.48,3.38.83,5.1a22.63,22.63,0,0,0,1.52,5.1,18.75,18.75,0,0,0,3.46,4.28,27.47,27.47,0,0,0,4.57,3.52,27,27,0,0,0,11.4,3.88,22.43,22.43,0,0,0,12.48-2.16,15.08,15.08,0,0,0,8.06-10.12,11.64,11.64,0,0,0-.47-6.73,12,12,0,0,0-4.39-5.3,13.23,13.23,0,0,0-6.68-2.22,10.56,10.56,0,0,0-6.76,2,7.35,7.35,0,0,0-2.29,2.7,5.57,5.57,0,0,0-.45,3.46,8.38,8.38,0,0,0,4.38,5.57,20.32,20.32,0,0,0,7.22,2,65.5,65.5,0,0,0,7.51.52,117.45,117.45,0,0,0,14.74-.83c9.64-1.08,18.94-2.62,27.92-2.72s17.63,1.15,24.86,4.69a29.18,29.18,0,0,1,9.25,6.91,21.3,21.3,0,0,1,4.8,9.5,25.59,25.59,0,0,1-2.74,17.81,30,30,0,0,1-9.39,10,35.57,35.57,0,0,1-7.75,4,24.88,24.88,0,0,1-2.91.87s.24-.1.72-.26,1.2-.42,2.13-.77a36.61,36.61,0,0,0,7.63-4.06,30.17,30.17,0,0,0,9.17-10,25.2,25.2,0,0,0,2.58-17.46,20.89,20.89,0,0,0-4.72-9.2,28.33,28.33,0,0,0-9.07-6.71c-7.11-3.45-15.68-4.72-24.55-4.55s-18.17,1.67-27.84,2.76a116.83,116.83,0,0,1-14.84.85,67.4,67.4,0,0,1-7.61-.52,21,21,0,0,1-7.5-2.09,9.2,9.2,0,0,1-4.8-6.14,6.49,6.49,0,0,1,.51-4,8.19,8.19,0,0,1,2.55-3,11.37,11.37,0,0,1,7.28-2.15,14.12,14.12,0,0,1,7.1,2.37,12.76,12.76,0,0,1,4.68,5.68,12.38,12.38,0,0,1,.5,7.19,15.87,15.87,0,0,1-8.48,10.63,23.18,23.18,0,0,1-12.9,2.2,27.81,27.81,0,0,1-16.35-7.65,19,19,0,0,1-3.58-4.47,23.15,23.15,0,0,1-1.55-5.26c-.34-1.75-.6-3.46-.81-5.14-.83-6.72-1.22-12.82-1.68-18.16s-.9-10-1.43-13.68a59.65,59.65,0,0,0-1.71-8.51,21.84,21.84,0,0,0-.75-2.12C1633.19,639.73,1633.11,639.48,1633.11,639.48Z" transform="translate(0 -198.53)" style="fill:#1a2e35"/><path d="M1724.37,862.51s0-.23,0-.67,0-1.08,0-1.91c0-1.7,0-4.19,0-7.42,0-6.5,0-16-.09-28,0-24.1-.11-58.45-.19-99.54l.36.36-127.67.05h0l.41-.41c0,50.58,0,97.85-.06,137.58l-.35-.35,92.52.18,25.94.09,6.85.05c1.55,0,2.37,0,2.37,0s-.76,0-2.29,0l-6.79,0-25.86.1-92.74.18h-.35v-.36c0-39.73,0-87-.06-137.58v-.42h.42l127.67.06h.37v.36c-.08,41.18-.14,75.61-.19,99.77,0,12-.07,21.48-.09,28,0,3.2,0,5.66,0,7.35,0,.81,0,1.43,0,1.87S1724.37,862.51,1724.37,862.51Z" transform="translate(0 -198.53)" style="fill:#1a2e35"/><path d="M1688.42,741.84a.66.66,0,1,1-.66-.66A.67.67,0,0,1,1688.42,741.84Z" transform="translate(0 -198.53)" style="fill:#1a2e35"/><path d="M1692,741.84a.66.66,0,1,1-.65-.66A.66.66,0,0,1,1692,741.84Z" transform="translate(0 -198.53)" style="fill:#1a2e35"/><path d="M1695.63,741.84a.66.66,0,1,1-.66-.66A.66.66,0,0,1,1695.63,741.84Z" transform="translate(0 -198.53)" style="fill:#1a2e35"/><path d="M1699.24,741.84a.66.66,0,1,1-.66-.66A.66.66,0,0,1,1699.24,741.84Z" transform="translate(0 -198.53)" style="fill:#1a2e35"/><path d="M1702.85,741.84a.66.66,0,1,1-.66-.66A.67.67,0,0,1,1702.85,741.84Z" transform="translate(0 -198.53)" style="fill:#1a2e35"/><path d="M1706.45,741.84a.66.66,0,1,1-.65-.66A.66.66,0,0,1,1706.45,741.84Z" transform="translate(0 -198.53)" style="fill:#1a2e35"/><path d="M1710.06,741.84a.66.66,0,1,1-.66-.66A.66.66,0,0,1,1710.06,741.84Z" transform="translate(0 -198.53)" style="fill:#1a2e35"/><circle cx="1707.74" cy="545.73" r="0.66" style="fill:#1a2e35"/><circle cx="1704.05" cy="545.73" r="0.66" style="fill:#1a2e35"/><path d="M1701,744.26a.66.66,0,1,1-.66-.65A.66.66,0,0,1,1701,744.26Z" transform="translate(0 -198.53)" style="fill:#1a2e35"/><circle cx="1696.67" cy="545.73" r="0.66" style="fill:#1a2e35"/><circle cx="1692.98" cy="545.73" r="0.66" style="fill:#1a2e35"/><path d="M1689.94,744.26a.66.66,0,1,1-.65-.65A.65.65,0,0,1,1689.94,744.26Z" transform="translate(0 -198.53)" style="fill:#1a2e35"/><path d="M1688.42,747a.66.66,0,1,1-.66-.66A.66.66,0,0,1,1688.42,747Z" transform="translate(0 -198.53)" style="fill:#1a2e35"/><path d="M1692,747a.66.66,0,1,1-.65-.66A.65.65,0,0,1,1692,747Z" transform="translate(0 -198.53)" style="fill:#1a2e35"/><path d="M1695.63,747a.66.66,0,1,1-.66-.66A.65.65,0,0,1,1695.63,747Z" transform="translate(0 -198.53)" style="fill:#1a2e35"/><path d="M1699.24,747a.66.66,0,1,1-.66-.66A.65.65,0,0,1,1699.24,747Z" transform="translate(0 -198.53)" style="fill:#1a2e35"/><path d="M1702.85,747a.66.66,0,1,1-.66-.66A.66.66,0,0,1,1702.85,747Z" transform="translate(0 -198.53)" style="fill:#1a2e35"/><path d="M1706.45,747a.66.66,0,1,1-.65-.66A.65.65,0,0,1,1706.45,747Z" transform="translate(0 -198.53)" style="fill:#1a2e35"/><path d="M1710.06,747a.66.66,0,1,1-.66-.66A.65.65,0,0,1,1710.06,747Z" transform="translate(0 -198.53)" style="fill:#1a2e35"/><path d="M1708.4,749.43a.67.67,0,0,1-.66.66.66.66,0,0,1,0-1.32A.67.67,0,0,1,1708.4,749.43Z" transform="translate(0 -198.53)" style="fill:#1a2e35"/><path d="M1704.71,749.43a.66.66,0,1,1-.66-.66A.67.67,0,0,1,1704.71,749.43Z" transform="translate(0 -198.53)" style="fill:#1a2e35"/><path d="M1701,749.43a.66.66,0,1,1-.66-.66A.67.67,0,0,1,1701,749.43Z" transform="translate(0 -198.53)" style="fill:#1a2e35"/><path d="M1697.33,749.43a.66.66,0,1,1-.66-.66A.67.67,0,0,1,1697.33,749.43Z" transform="translate(0 -198.53)" style="fill:#1a2e35"/><path d="M1693.63,749.43a.66.66,0,0,1-.65.66.66.66,0,1,1,0-1.32A.66.66,0,0,1,1693.63,749.43Z" transform="translate(0 -198.53)" style="fill:#1a2e35"/><path d="M1689.94,749.43a.66.66,0,1,1-.65-.66A.66.66,0,0,1,1689.94,749.43Z" transform="translate(0 -198.53)" style="fill:#1a2e35"/><path d="M1688.42,752.18a.66.66,0,1,1-.66-.66A.66.66,0,0,1,1688.42,752.18Z" transform="translate(0 -198.53)" style="fill:#1a2e35"/><path d="M1692,752.18a.66.66,0,1,1-.65-.66A.65.65,0,0,1,1692,752.18Z" transform="translate(0 -198.53)" style="fill:#1a2e35"/><path d="M1695.63,752.18a.66.66,0,1,1-.66-.66A.65.65,0,0,1,1695.63,752.18Z" transform="translate(0 -198.53)" style="fill:#1a2e35"/><path d="M1699.24,752.18a.66.66,0,1,1-.66-.66A.65.65,0,0,1,1699.24,752.18Z" transform="translate(0 -198.53)" style="fill:#1a2e35"/><path d="M1702.85,752.18a.66.66,0,1,1-.66-.66A.66.66,0,0,1,1702.85,752.18Z" transform="translate(0 -198.53)" style="fill:#1a2e35"/><path d="M1706.45,752.18a.66.66,0,1,1-.65-.66A.65.65,0,0,1,1706.45,752.18Z" transform="translate(0 -198.53)" style="fill:#1a2e35"/><path d="M1710.06,752.18a.66.66,0,1,1-.66-.66A.65.65,0,0,1,1710.06,752.18Z" transform="translate(0 -198.53)" style="fill:#1a2e35"/><circle cx="1707.74" cy="556.07" r="0.66" style="fill:#1a2e35"/><circle cx="1704.05" cy="556.07" r="0.66" style="fill:#1a2e35"/><path d="M1701,754.6a.66.66,0,1,1-.66-.66A.67.67,0,0,1,1701,754.6Z" transform="translate(0 -198.53)" style="fill:#1a2e35"/><circle cx="1696.67" cy="556.07" r="0.66" style="fill:#1a2e35"/><circle cx="1692.98" cy="556.07" r="0.66" style="fill:#1a2e35"/><path d="M1689.94,754.6a.66.66,0,1,1-.65-.66A.66.66,0,0,1,1689.94,754.6Z" transform="translate(0 -198.53)" style="fill:#1a2e35"/><path d="M1638.49,593.93a8,8,0,0,1,2.58.45,14.38,14.38,0,0,1,6.23,4.07,27,27,0,0,1,5.52,10.45,101.93,101.93,0,0,1,3.47,15.3c1.77,11.51,2,25.42,1,40.76-.38,3.82-1.2,7.88-3.54,11.31a14.38,14.38,0,0,1-4.46,4.32,10,10,0,0,1-6.18,1.46,9.54,9.54,0,0,1-5.86-2.73,7.23,7.23,0,0,1-1.74-2.87,6.05,6.05,0,0,1,0-3.4,7.24,7.24,0,0,1,4.42-5,5.19,5.19,0,0,1,3.5,0,6.29,6.29,0,0,1,2.78,2.1,8.62,8.62,0,0,1,1.54,6.57,17.77,17.77,0,0,1-2.28,6.22,24.49,24.49,0,0,1-9,9.09,24.2,24.2,0,0,1-23.44.33,27.68,27.68,0,0,1-8.55-7.37,35.83,35.83,0,0,1-5.19-9.29,60.94,60.94,0,0,1-3.47-18.68c-.31-5.82,0-11.08-.56-15.63a26.37,26.37,0,0,0-1.47-6.19,17.89,17.89,0,0,0-2.65-4.62,13.18,13.18,0,0,0-5.87-4.34,18,18,0,0,0-2.52-.61,8.34,8.34,0,0,1,2.57.45,13.14,13.14,0,0,1,6.07,4.3,17.69,17.69,0,0,1,2.76,4.68,26.51,26.51,0,0,1,1.57,6.27c.62,4.61.33,9.88.69,15.65a60.64,60.64,0,0,0,3.52,18.48,35.12,35.12,0,0,0,5.12,9.08,26.9,26.9,0,0,0,8.34,7.15,23.45,23.45,0,0,0,22.67-.36,23.7,23.7,0,0,0,8.71-8.79,17.24,17.24,0,0,0,2.18-5.94,7.8,7.8,0,0,0-1.38-6,5.51,5.51,0,0,0-2.42-1.83,4.43,4.43,0,0,0-2.94,0,6.49,6.49,0,0,0-3.9,4.41,5.69,5.69,0,0,0,1.57,5.51,8.79,8.79,0,0,0,5.36,2.49,9.17,9.17,0,0,0,5.69-1.35,13.77,13.77,0,0,0,4.22-4.07c2.23-3.26,3.05-7.18,3.44-10.94,1-15.26.85-29.15-.83-40.61a103.45,103.45,0,0,0-3.34-15.24,27,27,0,0,0-5.31-10.37,14.67,14.67,0,0,0-6.06-4.14A16.8,16.8,0,0,0,1638.49,593.93Z" transform="translate(0 -198.53)" style="fill:#e1e1e1"/><rect x="1573.48" y="418.3" width="52.59" height="10.02" style="fill:#e1e1e1"/><rect x="1177.9" y="521.88" width="68.59" height="147.65" style="fill:#1a2e35"/><path d="M1240.59,852.51s0-.23,0-.64,0-1,0-1.84c0-1.63,0-4,0-7.06,0-6.17-.06-15.13-.1-26.38-.05-22.5-.12-54.19-.19-91.07l.39.39-57.38,0h0l.41-.41c0,49.33-.08,94.12-.11,127l-.3-.3,41.9.16,11.45.07,3,0,1,0s-.32,0-1,0l-2.94,0-11.39.07-42.08.17h-.3v-.3c0-32.87-.07-77.66-.11-127v-.41h.42l57.38,0h.39v.39c-.07,37-.14,68.77-.18,91.34,0,11.21-.09,20.13-.11,26.28,0,3,0,5.37,0,7,0,.77,0,1.36,0,1.79S1240.59,852.51,1240.59,852.51Z" transform="translate(0 -198.53)" style="fill:#375a64"/><path d="M1237.05,736.27a15.3,15.3,0,0,1-.08-1.54c0-1.05-.06-2.47-.1-4.28l.18.18c-8.88.14-27.9.23-49.9.23h0c.18-.18-.42.41.41-.41h0v2.94c0,1,0,1.93,0,2.86l-.41-.41c14,0,26.37.09,35.34.18l10.62.12,2.9.05a7.82,7.82,0,0,1,1,.06,5.25,5.25,0,0,1-.94.06l-2.81,0-10.52.12c-9,.09-21.51.17-35.64.18h-.4v-6.21h0l.42-.41h0c22,0,41,.09,49.9.23h.18v.18c0,1.85-.08,3.3-.1,4.38A14.26,14.26,0,0,1,1237.05,736.27Z" transform="translate(0 -198.53)" style="fill:#375a64"/><path d="M1192.17,740.45c0,.23-1,.41-2.3.41s-2.3-.18-2.3-.41,1-.41,2.3-.41S1192.17,740.22,1192.17,740.45Z" transform="translate(0 -198.53)" style="fill:#375a64"/><path d="M1235.71,748.07c0,.23-10.62.41-23.72.41s-23.72-.18-23.72-.41,10.62-.41,23.72-.41S1235.71,747.84,1235.71,748.07Z" transform="translate(0 -198.53)" style="fill:#375a64"/><path d="M1235.92,757.27c0,.23-10.44.41-23.31.41s-23.32-.18-23.32-.41,10.44-.41,23.32-.41S1235.92,757,1235.92,757.27Z" transform="translate(0 -198.53)" style="fill:#375a64"/><circle cx="1211.99" cy="580.24" r="3.77" style="fill:#ff4f5b"/><path d="M1201.35,778.6c0,.23-2.26.41-5,.41s-5-.18-5-.41,2.26-.41,5-.41S1201.35,778.37,1201.35,778.6Z" transform="translate(0 -198.53)" style="fill:#375a64"/><path d="M1232,777.63c0,.22-2.15.41-4.81.41s-4.8-.19-4.8-.41,2.15-.42,4.8-.42S1232,777.4,1232,777.63Z" transform="translate(0 -198.53)" style="fill:#375a64"/><path d="M1180.25,794.51a14.71,14.71,0,0,1-2.56-.48,22.24,22.24,0,0,1-6.8-3.14,29,29,0,0,1-8.18-8.54,49.11,49.11,0,0,1-6-14.5,59.27,59.27,0,0,1-1.9-18.92,39,39,0,0,1,7.2-20.47,32.72,32.72,0,0,1,8.6-8.17,29.57,29.57,0,0,1,5.52-2.74,30.23,30.23,0,0,1,6.11-1.46c4.19-.58,8.47-.5,12.75-.75a31.7,31.7,0,0,0,12.53-2.89,14,14,0,0,0,7.77-9.56,13.35,13.35,0,0,0-13.32-16.3,9.5,9.5,0,0,0-5.29,2,5.74,5.74,0,0,0-2.21,4.78,7.66,7.66,0,0,0,7.06,6.82,11.58,11.58,0,0,0,9-4.07,21.81,21.81,0,0,0,4.38-8.59,75.06,75.06,0,0,0,1.83-8.88c1.61-11.48,1.06-20.93.83-27.4-.16-3.2-.28-5.71-.37-7.46,0-.83-.07-1.47-.09-1.94a4.84,4.84,0,0,1,0-.67,2.83,2.83,0,0,1,.09.66c0,.47.1,1.12.17,1.94.14,1.7.34,4.21.54,7.46a140.72,140.72,0,0,1-.59,27.49,72.94,72.94,0,0,1-1.79,9,22.17,22.17,0,0,1-4.48,8.88,12.28,12.28,0,0,1-9.61,4.33,8.39,8.39,0,0,1-7.77-7.5,6.5,6.5,0,0,1,2.48-5.42,10.2,10.2,0,0,1,5.72-2.14,14.12,14.12,0,0,1,14.18,17.26,13.8,13.8,0,0,1-2.9,6,16.48,16.48,0,0,1-5.3,4.14,32.54,32.54,0,0,1-12.85,3c-4.33.25-8.58.16-12.69.73a29.39,29.39,0,0,0-5.94,1.41,28.83,28.83,0,0,0-5.37,2.65,31.64,31.64,0,0,0-8.41,8,38.18,38.18,0,0,0-7.14,20.08,59.15,59.15,0,0,0,1.78,18.72,49.16,49.16,0,0,0,5.8,14.4,28.9,28.9,0,0,0,8,8.52,23,23,0,0,0,6.65,3.24c.82.24,1.45.4,1.88.48A2.8,2.8,0,0,1,1180.25,794.51Z" transform="translate(0 -198.53)" style="fill:#1a2e35"/><rect x="1156.88" y="292.84" width="162.42" height="111.53" style="fill:#1a2e35"/><rect x="1225.53" y="389.17" width="22.11" height="42.07" style="fill:#1a2e35"/><polygon points="1173.05 429.62 1173.05 444.76 1256.84 444.76 1256.84 670.26 1264.56 670.26 1264.56 444.76 1614.54 446.49 1614.54 670.26 1622.1 670.26 1622.1 446.07 1676.11 446.5 1676.11 428.32 1173.05 429.62" style="fill:#1a2e35"/><polygon points="1226.67 441.82 1259.71 465.61 1256.84 468.37 1223.53 443.27 1226.67 441.82" style="fill:#1a2e35"/><polygon points="1653.24 444.04 1614.9 471.34 1617.78 474.1 1656.39 445.49 1653.24 444.04" style="fill:#1a2e35"/><rect x="1294.91" y="424.05" width="86.61" height="6.37" style="fill:#1a2e35"/></svg>