<svg xmlns="http://www.w3.org/2000/svg" width="360.8" height="368.64" viewBox="0 0 360.8 368.64">
  <title>designing</title>
  <g>
    <path d="M226.61,375.67c-5-16.83-10.75-36-19.89-52.72-8.8-16.09-20.91-30.12-38.87-37.79L160.32,282l4.09-7.09L238.84,146V273.27c0,4.85,3.25,8.79,7.26,8.79s7.27-3.94,7.27-8.79V146l74.42,128.91,4.09,7.09-7.52,3.21c-18,7.67-30.07,21.7-38.88,37.79-9.14,16.7-14.89,35.89-19.88,52.72l-13.9-4.08H240.51Z" transform="translate(-65.86 -62.42)" style="fill: #424242"/>
    <polygon points="155.16 303.95 205.33 303.95 212.59 303.95 212.59 311.21 212.59 361.38 212.59 368.64 205.33 368.64 155.16 368.64 147.9 368.64 147.9 361.38 147.9 311.21 147.9 303.95 155.16 303.95" style="fill: #424242"/>
    <rect x="136.34" y="303.95" width="87.8" height="14.52" style="fill: #424242"/>
    <path d="M81,242.75A165.23,165.23,0,0,1,226.37,78.81l3.82-.45,2.7,22.87-3.81.45A142,142,0,0,0,104,242.75v3.84H81v-3.84ZM265.83,78.81a165.23,165.23,0,0,1,145.4,163.94v3.84H388.18v-3.84a142,142,0,0,0-125-141.07l-3.81-.45L262,78.36Z" transform="translate(-65.86 -62.42)" style="fill: #424242;fill-rule: evenodd"/>
    <path d="M246.1,62.42a26.14,26.14,0,1,1-18.48,7.66A26.05,26.05,0,0,1,246.1,62.42Z" transform="translate(-65.86 -62.42)" style="fill: #424242"/>
    <path d="M92,227.39A26.14,26.14,0,1,1,73.52,235,26.06,26.06,0,0,1,92,227.39Z" transform="translate(-65.86 -62.42)" style="fill: #424242"/>
    <path d="M400.52,227.39A26.12,26.12,0,1,1,382,235,26,26,0,0,1,400.52,227.39Z" transform="translate(-65.86 -62.42)" style="fill: #424242"/>
  </g>
</svg>
