<?xml version="1.0" encoding="UTF-8"?>
<!DOCTYPE svg PUBLIC "-//W3C//DTD SVG 1.1//EN" "http://www.w3.org/Graphics/SVG/1.1/DTD/svg11.dtd">
<!-- Creator: CorelDRAW -->
<svg xmlns="http://www.w3.org/2000/svg" xml:space="preserve" width="2048px" height="2048px" style="shape-rendering:geometricPrecision; text-rendering:geometricPrecision; image-rendering:optimizeQuality; fill-rule:evenodd; clip-rule:evenodd"
viewBox="0 0 2048 2048"
 xmlns:xlink="http://www.w3.org/1999/xlink">
 <defs>
  <style type="text/css">
   <![CDATA[
    .fil2 {fill:none}
    .fil1 {fill:#424242}
    .fil0 {fill:#424242;fill-rule:nonzero}
   ]]>
  </style>
 </defs>
 <g id="Layer_x0020_1">
  <metadata id="CorelCorpID_0Corel-Layer"/>
  <g id="_344743544">
   <polygon id="_344736080" class="fil0" points="1222.47,1135.17 1222.47,1135.39 1213.44,1158.45 901.256,1503.4 890.885,1514.86 890.383,1514.86 890.383,1152.43 890.383,1135.17 907.642,1135.17 "/>
   <path id="_344736488" class="fil1" d="M255.999 341.285l0 1139.06 0 34.5177 34.5177 0 565.348 0 0 -362.426 0 -34.5177 0 -17.2595 17.2595 0 34.5177 0 314.831 0 0 -759.37 0 -34.5177 -34.5177 0 -897.439 0 -34.5177 0 0 34.5177zm138.069 138.064l690.337 0 0 69.0355 -690.337 0 0 -69.0355zm0 172.59l690.337 0 0 69.0355 -690.337 0 0 -69.0355zm0 172.589l690.337 0 0 69.0355 -690.337 0 0 -69.0355zm0 172.59l690.337 0 0 69.0355 -690.337 0 0 -69.0355zm0 172.59l414.202 0 0 69.0355 -414.202 0 0 -69.0355z"/>
   <polygon id="_344736320" class="fil0" points="1792,1442.55 1792,1442.72 1784.89,1460.85 1539.31,1732.22 1531.15,1741.23 1530.76,1741.23 1530.76,1456.12 1530.76,1442.55 1544.33,1442.55 "/>
   <path id="_344743760" class="fil1" d="M1031.71 859.044l0 0.00236221 18.1819 0 0 -0.00236221 -18.1819 0zm0 172.59l0 0.00236221 18.1819 0 0 -0.00236221 -18.1819 0zm0 379.062l0 303.384 0 27.1536 27.1536 0 444.742 0 0 -285.11 0 -27.1536 0 -13.5756 13.5756 0 27.1559 0 247.667 0 0 -597.374 0 -27.1547 -27.1536 0 -507.857 0 0 135.764 426.397 0 0 54.3071 -426.397 0 0 81.4642 426.397 0 0 54.3071 -426.397 0 0 18.463 0 6.73819 -13.7185 35.0126 -19.2319 21.2492 459.348 0 0 54.3083 -508.497 0 -143.184 158.216zm108.613 -76.754l543.068 0 0 54.3083 -543.068 0 0 -54.3083zm0 135.771l325.842 0 0 54.3095 -325.842 0 0 -54.3095z"/>
  </g>
 </g>
 <rect class="fil2" width="2048" height="2048"/>
</svg>
