<svg xmlns="http://www.w3.org/2000/svg" width="297.13" height="368.64" viewBox="0 0 297.13 368.64">
  <title>idea and design</title>
  <path d="M141.33,100.82Zm-24,36.71c-5.58,14.55-8.19,31.8-6.15,53.12v0c.41,4.07,2,7.45,3.86,11.18,2.59,5.34,5.72,11.77,1.54,19.89-1.62,2.86-18.26,32.49-18.94,40.71l0,.64v.8l0,.24a17.19,17.19,0,0,0,4.09,10.25c2.76,3.22,7.37,6.28,15,7.15-.61,0-1.09.2-1.14.55l-.06.85-.19,12.48.06,1.15s.64,4.94,6,8.95c-.85,3.83-.53,9.57,4.59,16.75l.06.06c.42.58.54.74.65.88,1.25,1.67,2.9,3.87,1.83,7.66l-.18.75c0,.06-3.75,20,6.3,26.91,3.47,2.78,14.75,9.45,40.51,6.27h0c1.21-.14,2.56-.35,4-.56,8.23-1.23,20.4-3,27.23,4.7,3,5.7,25,47.94,26.63,57.63l14.37,2.55c.12-.22,42.35-75.38,92.7-86.71l9.08-2-3.65-8.54c0-.07-11.37-25.59,12.76-60.25,2.62-3.49,34.18-46,35.66-71.7,1-5.48,6.54-47.21-34.74-93.25-10.61-11.84-22.95-23.26-41.41-31.85-18.16-8.45-42.13-14-76.07-14.27l0,0h-2.43l-.06,0c-15.33.13-34.8,2.46-54.5,10.54a123.86,123.86,0,0,0-43.44,29.78c-9.81,10.34-18.35,22.1-24,36.71Zm86.91-.31-11.36-25.61a7.75,7.75,0,0,1,14.19-6.25L218.48,131a7.75,7.75,0,1,1-14.19,6.24Zm-1.08,20.86a61.49,61.49,0,0,1,86,0,59.41,59.41,0,0,1,17.9,42.48c0,23.72-7.64,30.93-16.12,38.93-7.81,7.36-16.59,15.63-16.59,51.86v7.76H218v-7.76c0-36.23-8.78-44.5-16.58-51.86-8.49-8-16.13-15.21-16.13-38.93a59.41,59.41,0,0,1,17.9-42.48Zm35.25-32.68v-28a7.77,7.77,0,0,1,15.53,0v28a7.77,7.77,0,0,1-15.53,0ZM274,131l11.36-25.62a7.75,7.75,0,1,1,14.19,6.25l-11.36,25.61A7.75,7.75,0,1,1,274,131ZM216.41,304.34H276v15.53H216.41V304.34Zm8.57,20h42.49v15.53H225Z" transform="translate(-97.66 -60.47)" style="fill: #424242;fill-rule: evenodd"/>
</svg>
