<svg xmlns="http://www.w3.org/2000/svg" width="368.64" height="359.74" viewBox="0 0 368.64 359.74">
  <title>launch</title>
  <g>
    <polygon points="167.91 352.06 160.23 352.06 152.55 352.06 152.55 287.82 160.23 287.82 167.91 287.82 216.09 287.82 216.09 352.06 167.91 352.06" style="fill: #424242"/>
    <path d="M92.56,90.08H215.23l-2.29,3.8A39.53,39.53,0,0,0,207.33,114v.76l0,.23.7,31.64-14.69,16.53a46.45,46.45,0,0,0-11.69,30.71v68.77l33.79-38a22.06,22.06,0,0,0,1.71,3.57c.16.28.33.56.51.83l.19,1.94.16,3.36h.18l.07.76A142.7,142.7,0,0,0,221,252.18a95.9,95.9,0,0,0,9,24.68,18.51,18.51,0,0,0,32.53,0,96,96,0,0,0,9-24.67,142.7,142.7,0,0,0,2.73-17.09l.07-.76h.18l.16-3.36.19-1.94c.18-.27.35-.55.51-.83a22.06,22.06,0,0,0,1.71-3.57l33.79,38V193.87a46.45,46.45,0,0,0-11.69-30.71l-14.69-16.53.7-31.64.05-.23V114a39.27,39.27,0,0,0-5.61-20.11l-2.29-3.8H400.75l.39,0h.39l.39,0h0l.39,0h0l.39,0h0l.38,0h0l.39,0h0l.38,0h0l.38,0h0l.38.06h0l.38.06h0l.38.06h0l.37.07h0l.38.08h0l.37.08h0l.37.08h0l.37.09h0l.36.09h0l.37.1h0l.36.1h0l.37.11h0l.36.11h0l.35.11h0l.36.12h0l.35.12h0l.36.13h0l.35.13h0l.35.14h0l.34.13h0l.35.14h0l.34.15h0l.34.15h0l.34.15h0l.33.16h0l.34.17h0l.33.16h0l.33.17h0l.32.17h0l.33.18h0l.32.18h0a3.37,3.37,0,0,0,.32.19h0l.31.19h0l.32.19h0l.31.2h0l.31.2h0l.31.21h0l.3.21h0l.3.21h0l.3.21h0l.3.21h0l.29.23h0l.29.22h0l.29.23h0l.29.23h0l.28.24h0l.28.24h0l.27.24h0l.28.25h0l.27.25h0l.27.25h0l.26.25h0l.26.26h0l.26.26h0l.26.27h0l.25.27h0l.25.27h0l.24.27h0l.24.28h0l.24.28h0l.24.28h0l.23.28h0l.23.29h0l.23.29h0l.22.3h0l.22.29h0l.22.3h0l.21.3h0l.21.31h0l.2.3h0l.2.31h0l.2.32h0l.19.31h0l.19.32h0l.19.32h0l.18.32h0l.18.32h0l.18.33h0l.17.33h0l.17.33h0l.16.33h0c.06.11.11.23.16.34h0l.16.34h0l.15.34h0l.15.34h0l.14.34h0l.14.35h0l.13.35h0l.14.35h0l.12.35h0l.13.35h0l.11.36h0l.12.36h0l.11.36h0l.1.36h0l.11.36h0l.09.37h0l.09.37h0c0,.12.06.24.09.37h0l.09.37h0c0,.12.05.24.08.37h0l.07.37h0l.07.38h0l.07.38h0l.06.37h0c0,.13,0,.26,0,.38h0c0,.13,0,.26.05.39h0c0,.12,0,.25.05.38h0c0,.13,0,.25,0,.38h0l0,.39h0l0,.39h0l0,.38h0c0,.13,0,.26,0,.39h0c0,.13,0,.26,0,.39h0c0,.14,0,.27,0,.4h0c0,.13,0,.26,0,.39h0v.39h0V302H61.94V120.7h0v-.39h0c0-.13,0-.26,0-.39h0c0-.13,0-.26,0-.4h0c0-.13,0-.26,0-.39h0c0-.13,0-.26,0-.39h0l0-.38h0l0-.39h0c0-.13,0-.26,0-.39h0c0-.13,0-.25,0-.38h0c0-.13,0-.26,0-.38h0c0-.13,0-.26.05-.39h0c0-.12,0-.25,0-.38h0l.07-.37h0l.06-.38h0l.07-.38h0l.07-.37h0c0-.13.06-.25.08-.37h0l.09-.37h0l.09-.37h0l.09-.37h0l.09-.37h0c0-.12.07-.24.11-.36h0l.1-.36h0l.11-.36h0l.12-.36h0l.11-.36h0l.13-.35h0l.12-.35h0l.14-.35h0l.13-.35h0l.14-.35h0l.14-.34h0l.15-.34h0l.15-.34h0c0-.12.11-.23.16-.34h0l.16-.34h0l.16-.33h0l.17-.33h0l.17-.33h0l.18-.33h0l.18-.32h0l.18-.32h0l.19-.32h0l.19-.32h0l.19-.31h0l.2-.32h0l.2-.31h0l.2-.3h0l.21-.31h0l.22-.3h0l.21-.3h0l.22-.29h0l.22-.3h0l.23-.29h0l.23-.29h0l.23-.28h0l.24-.28h0l.24-.28h0l.24-.28h0l.24-.27h0l.25-.27h0l.26-.27h0l.25-.27h0c.09-.08.17-.17.26-.26h0l.26-.26h0l.26-.25h0l.27-.25h0l.27-.25h0l.28-.25h0l.27-.24h0l.28-.24h0l.28-.24h0l.29-.23h0l.29-.23h0l.29-.22h0l.29-.23h0l.3-.21h0l.3-.21h0l.3-.21h0l.3-.21h0l.31-.21h0l.31-.2h0l.31-.2h0l.32-.19h0l.31-.19h0a3.37,3.37,0,0,0,.32-.19h0l.32-.18h0l.33-.18h0l.32-.17h0l.33-.17h0l.33-.16h0l.34-.17h0l.33-.16h0L80,92.8h0l.34-.15h0l.34-.15h0l.35-.14h0l.34-.13h0l.35-.14h0l.35-.13h0l.36-.13h0l.35-.12h0l.36-.12h0l.35-.11h0l.36-.11h0l.37-.11h0l.36-.1h0l.37-.1h0l.36-.09h0l.37-.09h0l.37-.08h0l.38-.08h0l.37-.08h0l.37-.07h0l.38-.06h0l.38-.06h0l.38-.06h0l.38,0h0l.38,0h0l.39,0h0l.38,0h0l.39,0h0l.39,0h0l.39,0h.39l.39,0h.79Z" transform="translate(-61.94 -66.87)" style="fill: #424242"/>
    <path d="M194.07,411.25a7.68,7.68,0,0,0,0,15.36H298.45a7.68,7.68,0,0,0,0-15.36Z" transform="translate(-61.94 -66.87)" style="fill: #424242"/>
    <path d="M229.57,197.23l-26.78,30.12-13.41,15.09V193.87a38.81,38.81,0,0,1,9.75-25.61l19-21.34,11.46,10.2Z" transform="translate(-61.94 -66.87)" style="fill: #424242"/>
    <path d="M263,157.12l11.46-10.2,19,21.34a38.81,38.81,0,0,1,9.75,25.61v48.57l-13.41-15.09L263,197.23Z" transform="translate(-61.94 -66.87)" style="fill: #424242"/>
    <path d="M266.56,234.33A133.66,133.66,0,0,1,264,250.49a88.76,88.76,0,0,1-8.21,22.7,11,11,0,0,1-4,4.15,10.83,10.83,0,0,1-15-4.15,88.76,88.76,0,0,1-8.21-22.7A133.66,133.66,0,0,1,226,234.33Z" transform="translate(-61.94 -66.87)" style="fill: #424242"/>
    <path d="M273,97.85,258.38,73.64l-.06-.09a14,14,0,0,0-5.18-4.89,14.4,14.4,0,0,0-6.88-1.79,14.21,14.21,0,0,0-6.71,1.71,14.36,14.36,0,0,0-5.13,4.64l-.15.21c-3.07,4.93-6.5,10.66-9.91,16.38l-4.84,8A31.56,31.56,0,0,0,215,114l0,.15.79,35.33,1.27,56.78,1.24,3.6.32.9a18,18,0,0,0,3.14,3.2V217a14.17,14.17,0,0,0,2,7.25,14.59,14.59,0,0,0,1.58,2.16v.2h41.74v-.2a14.59,14.59,0,0,0,1.58-2.16,14.17,14.17,0,0,0,2-7.25V214a18,18,0,0,0,3.14-3.2l.32-.9,1.24-3.6,1.27-56.78.79-35.34,0-.15A31.68,31.68,0,0,0,273,97.85Zm-26.75,7.36a13.3,13.3,0,1,1-9.38,22.7h0a13.28,13.28,0,0,1,0-18.8h0A13.24,13.24,0,0,1,246.26,105.21Z" transform="translate(-61.94 -66.87)" style="fill: #424242;fill-rule: evenodd"/>
    <path d="M61.94,309.72v23.22l0,.39,0,.39,0,.38,0,.39,0,.39,0,.38,0,.38.05.39,0,.38.07.37.06.38.07.38.07.37.08.37.09.37.09.37.09.37.09.37.11.36.1.36.11.36.12.36.11.36.13.35.12.35.14.35.13.35.14.35.14.34.15.34.15.34.16.34L65,345l.16.33.17.33.17.33.18.33.18.32L66,347l.19.32.19.32.19.31.2.32.2.31.2.3.21.31.22.3.21.3.22.29.22.3.23.29.23.29.23.28.24.28.24.28.24.28.24.27.25.27.26.27.25.27.26.26.26.26.26.25.27.25.27.25.28.25.27.24.28.24.28.24.29.23.29.23.29.22.29.23.3.21.3.22.3.21.3.21.31.21.31.2.31.2.32.19.31.19.32.19.32.18.33.18.32.17.33.17.33.17.34.17.33.16.34.15.34.15.34.15.35.14.34.14.35.14.35.13.36.13.35.12.36.12.35.11.36.11.37.11.36.1.37.1.36.09.37.09.37.08.38.08.37.08.37.07.38.06.38.06.38.06.38.05.38.05.39,0,.38,0,.39,0,.39,0,.39,0h.39l.39,0h309l.39,0h.39l.39,0,.39,0,.39,0,.38,0,.39-.05.38,0,.38-.05.38-.06L405,362l.38-.06.37-.07.38-.08.37-.08.37-.08.37-.09.36-.09.37-.1.36-.1.37-.11.36-.11.35-.11.36-.12.35-.12.36-.13.35-.13.35-.14.34-.14.35-.14.34-.15.34-.15.34-.15.33-.16.34-.17.33-.17.33-.17.32-.17.33-.18.32-.18.32-.19.31-.19.32-.19.31-.2.31-.2.31-.21.3-.21.3-.21.3-.22.3-.21.29-.23.29-.22.29-.23.29-.23.28-.24.28-.24.27-.24.28-.25.27-.25.27-.25.26-.25.26-.26.26-.26.26-.27.25-.27.25-.27.24-.27.24-.28.24-.28.24-.28.23-.28.23-.29.23-.29.22-.3.22-.29.22-.3.21-.3.21-.31.2-.3.2-.31.2-.32.19-.31.19-.32.19-.32.18-.32.18-.32.18-.33.17-.33.17-.33.16-.33.16-.34.16-.34L428,344l.15-.34.14-.34.14-.35.13-.35.14-.35.12-.35.13-.35.11-.36.12-.36.11-.36.1-.36.11-.36.09-.37.09-.37.09-.37.09-.37.08-.37.07-.37.07-.38.07-.38.06-.37,0-.38.05-.39.05-.38,0-.38,0-.39,0-.39,0-.38,0-.39,0-.39V309.72Zm184.32,16a10.34,10.34,0,1,1-10.34,10.34A10.34,10.34,0,0,1,246.26,325.71Z" transform="translate(-61.94 -66.87)" style="fill: #424242;fill-rule: evenodd"/>
  </g>
</svg>
