<svg xmlns="http://www.w3.org/2000/svg" width="546.362" height="642.401" viewBox="0 0 546.362 642.401"><g transform="translate(-80.782 -34.854)"><g transform="translate(136.914 99.585)"><path d="M332.18,100.148H433.134S424.213,83.9,398.219,86.329c-24.812,2.257-26.1-8-38.693-9.213S336.387,85.423,332.18,100.148Z" transform="translate(-2.309 -77.012)" fill="#e0e0e0"/><path d="M161.5,266.383s-10.118,5.466,4.606,26.594,24.306,31.261,24.306,31.261,2.795,4.99-1.535,6.418-14.326,1.228-15.554,6.925c-1.274,5.927,3.562,10.748,12.5,14.2s28.252,11.946,29.987,12.713,3.639,2.994.844,4.437-24.459,6.771-21.327,16.89,29.664,15.846,32.551,16.521,3.7,1.75,3.685,3.286-7.462,2.641-13.573,4.407-12.867,4.9-10.564,10.594,18.978,16.03,55.8,14.571l17.013-1.781,7.247-15.585c13.466-34.286,9.213-53.433,4.606-57.486s-9.8,1.32-13.466,6.51-7.17,11.853-8.629,11.362-2.2-1.612-1.889-4.606,3.639-29.879-4.9-36.175-20.7,12.406-23.031,14.571-3.762-.384-3.915-2.257-1.766-22.893-2.15-32.5-3.286-15.723-9.289-16.46-8.875,8.783-11.654,12.406-6.572-.66-6.572-.66-6.433-12.376-21.5-33.227-23.8-12.775-23.8-12.775" transform="translate(-95.51 23.64)" fill="#ebebeb"/><path d="M275.894,430.222c-11.04-15.354-30.186-42.992-46.754-66.622s-31.568-45-42.531-60.419c-5.481-7.677-9.9-13.911-12.99-18.225l-3.531-4.975-.906-1.29c-.2-.292-.292-.461-.292-.461s.123.138.338.43l.952,1.259,3.608,4.913c3.071,4.253,7.677,10.456,13.128,18.133,11.04,15.354,26.1,36.7,42.654,60.327s35.668,51.3,46.631,66.7" transform="translate(-89.739 30.725)" fill="#e0e0e0"/><path d="M177.12,312.83a6.5,6.5,0,0,1,1.228.169c.783.138,1.9.368,3.3.676,2.779.6,6.587,1.535,10.748,2.641l10.748,2.871,3.255.86a5.085,5.085,0,0,1,1.182.353,5.574,5.574,0,0,1-1.228-.153c-.783-.138-1.9-.369-3.3-.691-2.764-.629-6.572-1.535-10.748-2.718l-10.748-2.794L178.3,313.2a4.607,4.607,0,0,1-1.182-.368Z" transform="translate(-85.332 49.25)" fill="#e0e0e0"/><path d="M197.624,329.342c-.154,0,1.428-7.984,3.516-17.75s3.915-17.673,4.054-17.642-1.428,7.969-3.531,17.749S197.762,329.342,197.624,329.342Z" transform="translate(-74.36 39.141)" fill="#e0e0e0"/><path d="M213.12,351.385a5.145,5.145,0,0,1,.537-1.136l1.628-3.071c1.367-2.549,3.255-6.142,5.174-10.072s3.578-7.677,4.729-10.272l1.382-3.148a4.347,4.347,0,0,1,.568-1.136,6.878,6.878,0,0,1-.369,1.213c-.276.768-.691,1.858-1.228,3.209-1.075,2.7-2.656,6.387-4.606,10.38s-3.885,7.493-5.328,10.011c-.737,1.244-1.351,2.257-1.781,2.933a6.815,6.815,0,0,1-.706,1.09Z" transform="translate(-66.057 54.455)" fill="#e0e0e0"/><path d="M193.76,342.041a3.871,3.871,0,0,1,1.152-.138l3.178-.184c2.672-.138,6.372-.276,10.456-.415s7.785-.215,10.472-.246H222.2a6.742,6.742,0,0,1,1.167,0,4.327,4.327,0,0,1-1.167.154l-3.163.184c-2.687.123-6.387.276-10.472.4s-7.785.215-10.472.246h-3.163a5,5,0,0,1-1.167,0Z" transform="translate(-76.423 64.351)" fill="#e0e0e0"/><path d="M204.71,365.567a7.051,7.051,0,0,1,1.535-.169l4.069-.246c3.424-.184,8.168-.415,13.4-.63s9.98-.369,13.4-.461l4.069-.092a9.645,9.645,0,0,1,1.535,0,9.45,9.45,0,0,1-1.535.169l-4.069.246c-3.424.184-8.168.415-13.4.63s-9.98.369-13.4.461l-4.069.092a9.339,9.339,0,0,1-1.535,0Z" transform="translate(-70.56 76.616)" fill="#e0e0e0"/><path d="M228.81,376.7a9.477,9.477,0,0,1,.645-1.459l1.935-3.915c1.628-3.3,3.839-7.861,6.142-12.974s4.3-9.781,5.712-13.189l1.674-4.023a10.6,10.6,0,0,1,.66-1.443,7.952,7.952,0,0,1-.476,1.535c-.338.983-.845,2.38-1.535,4.084-1.32,3.439-3.255,8.153-5.574,13.266s-4.606,9.673-6.311,12.928c-.86,1.628-1.535,2.948-2.088,3.839a10.454,10.454,0,0,1-.783,1.351Z" transform="translate(-57.656 63.637)" fill="#e0e0e0"/><path d="M326.851,262.634c-18.272-20.5-16.521-50.086-9.6-75.4,1.152-4.238,1.75-8.844,4.606-12.1s8.261-4.7,11.654-2c2.81,2.242,3.316,6.249,4.361,9.719a25.627,25.627,0,0,0,7.677,11.915c2.38,2.057,5.528,3.7,8.568,2.871,4.161-1.167,5.789-6.142,6.771-10.395q2.718-11.869,5.466-23.738a41.213,41.213,0,0,1,4.253-12.283c2.272-3.716,6.142-6.756,10.379-6.925s8.737,3.332,8.6,7.677a40.392,40.392,0,0,1-1.121,5.313,4.606,4.606,0,0,0,1.612,4.806c1.535.906,3.547.107,5.113-.844,5.389-3.24,9.673-8.046,13.742-12.882s8.092-9.8,13.174-13.527,11.439-6.142,17.6-5.036,11.731,6.387,11.853,12.7-4.791,11.592-9.735,15.523a97.3,97.3,0,0,1-24.075,14.111,7.953,7.953,0,0,0-4.13,2.764c-1.535,2.61.415,6.05,2.979,7.677,2.917,1.8,6.418,2.288,9.642,3.455s6.449,3.485,6.955,6.894c.706,4.744-3.992,8.429-8.261,10.564a83.575,83.575,0,0,1-27.238,8.138c-3.393.4-6.909.63-9.95,2.211s-5.451,5.052-4.606,8.4,4.483,5.236,7.892,5.389,6.756-.906,10.149-1.336c6.341-.829,13.819,1.351,16.306,7.278a13.819,13.819,0,0,1-1.382,12.283A31.692,31.692,0,0,1,407.2,254.8a83.834,83.834,0,0,1-40.6,16.214c-14.617,1.535-27.453-.215-39.721-8.307" transform="translate(-12.917 -48.891)" fill="#f5f5f5"/><path d="M324.22,263.1c3.317-9.888-.154-4.929,6.679-16.89a390.451,390.451,0,0,1,24.766-37.342q3.531-4.79,6.986-9.443c2.3-3.071,4.606-6.142,7-9.044A197.339,197.339,0,0,1,384.5,174.716c4.959-4.76,9.842-9.09,14.448-13.113s8.967-7.677,13.082-10.825a155.938,155.938,0,0,1,20.529-13.466c2.533-1.4,4.606-2.411,5.911-3.071l1.535-.752.537-.23a2.968,2.968,0,0,1-.507.307l-1.535.829c-1.351.722-3.332,1.781-5.835,3.209a162.533,162.533,0,0,0-20.3,13.681c-4.084,3.178-8.414,6.848-12.99,10.871s-9.427,8.383-14.372,13.143a201.5,201.5,0,0,0-14.755,15.631c-2.4,2.856-4.606,5.911-6.955,9.013l-6.986,9.443a401.811,401.811,0,0,0-24.751,37.173c-6.848,11.93-3.409,6.894-6.787,16.721" transform="translate(-6.571 -46.896)" fill="#e0e0e0"/><path d="M354.016,187.255a9.629,9.629,0,0,1,0-1.9c0-1.228.2-3.071.4-5.174.4-4.376,1.167-10.379,2.027-17s1.535-12.621,1.858-16.982c.169-2.18.292-3.931.368-5.159a8.3,8.3,0,0,1,.2-1.889,9.353,9.353,0,0,1,.108,1.9c0,1.213,0,3.071-.108,5.174-.184,4.391-.768,10.426-1.643,17.059s-1.643,12.437-2.242,16.89c-.261,2.042-.476,3.762-.645,5.144a8.86,8.86,0,0,1-.322,1.935Z" transform="translate(9.357 -43.742)" fill="#e0e0e0"/><path d="M410.859,173.568a10.855,10.855,0,0,1-2.226-.246c-1.428-.215-3.5-.522-6.065-.829-5.113-.645-12.283-1.274-20.083-1.643s-15-.369-20.175-.23c-2.579,0-4.606.154-6.142.215a13.481,13.481,0,0,1-2.257,0,12.194,12.194,0,0,1,2.242-.338c1.443-.154,3.531-.338,6.142-.461,5.174-.292,12.283-.368,20.237,0a201.159,201.159,0,0,1,20.129,1.889c2.549.384,4.606.783,6.034,1.075A11.655,11.655,0,0,1,410.859,173.568Z" transform="translate(9.326 -27.338)" fill="#e0e0e0"/><path d="M332.968,232.8a2.394,2.394,0,0,1-.215-.752c-.123-.6-.276-1.32-.476-2.2-.384-1.9-.891-4.606-1.459-8.107-1.152-6.863-2.441-16.4-3.731-26.947s-2.487-20.083-3.485-26.962c-.491-3.347-.906-6.142-1.213-8.138-.123-.891-.23-1.628-.322-2.226a4.248,4.248,0,0,1,0-.783,2.889,2.889,0,0,1,.23.752l.461,2.2q.6,2.856,1.459,8.107c1.152,6.863,2.441,16.4,3.731,26.947s2.487,20.083,3.485,26.962c.507,3.347.906,6.142,1.213,8.153.138.875.23,1.612.323,2.211A3.076,3.076,0,0,1,332.968,232.8Z" transform="translate(-7.734 -34.351)" fill="#e0e0e0"/><path d="M407.135,202.238a2.58,2.58,0,0,1-.783.123l-2.272.215-8.353.676c-7.048.568-16.782,1.535-27.53,2.487s-20.513,1.827-27.638,2.257c-3.531.215-6.387.353-8.368.415h-2.272a2.7,2.7,0,0,1-.8,0,3.147,3.147,0,0,1,.783-.123l2.272-.215,8.353-.676c7.048-.568,16.782-1.535,27.53-2.487s20.5-1.827,27.638-2.242c3.547-.215,6.4-.368,8.383-.43h2.272a3.211,3.211,0,0,1,.783,0Z" transform="translate(-3.948 -9.976)" fill="#e0e0e0"/><path d="M450.033,304a3.3,3.3,0,0,1-.246.722l-.844,2.042c-.783,1.842-1.889,4.437-3.27,7.677l-11.838,27.377-.077.154h-.169L396.4,348.113l-12.468,2.042-.568.092.138-.553c3.071-11.961,5.819-23.031,8.2-32.321l.169.353-21.849-9.765-6.034-2.748-1.535-.737a2.746,2.746,0,0,1-.522-.292l.553.2,1.612.66,6.142,2.595,21.957,9.52.246.107v.246c-2.334,9.366-5.082,20.391-8.061,32.367l-.43-.461,12.468-2.057,37.2-6.05-.261.2,12.084-27.254c1.459-3.255,2.626-5.835,3.455-7.677l.921-2.011a5.1,5.1,0,0,1,.215-.568Z" transform="translate(13.62 44.523)" fill="#e0e0e0"/><path d="M381.7,331.587l-1.029,2.672,1.628,2.365-2.856-.138-1.735,2.272-.752-2.764-2.7-.952,2.4-1.566.077-2.856,2.226,1.8Z" transform="translate(20.216 58.776)" fill="#e0e0e0"/><path d="M363.76,303.171l-.507,1.336.8,1.167-1.413-.077-.86,1.136-.384-1.367-1.336-.476,1.182-.783.046-1.428,1.105.891Z" transform="translate(12.619 43.816)" fill="#e0e0e0"/><path d="M410.73,327.726l-.507,1.336.8,1.167-1.413-.061-.86,1.136-.384-1.382-1.336-.461,1.182-.783.031-1.428,1.121.891Z" transform="translate(37.767 56.971)" fill="#e0e0e0"/><path d="M383.62,312.141l-.507,1.32.814,1.182-1.428-.077-.86,1.136-.369-1.382-1.351-.461,1.2-.783.031-1.428,1.106.891Z" transform="translate(23.252 48.619)" fill="#e0e0e0"/><path d="M421.73,303.3l-.507,1.336.814,1.167-1.428-.061-.86,1.136-.368-1.382-1.351-.476,1.2-.768.031-1.428,1.106.891Z" transform="translate(43.657 43.891)" fill="#e0e0e0"/><path d="M117.34,382.365h80.395s-7.109-12.944-27.807-11.055c-19.761,1.8-20.759-6.372-30.816-7.37S120.7,370.635,117.34,382.365Z" transform="translate(-117.34 76.57)" fill="#e0e0e0"/><path d="M127.74,176.24h80.379s-7.109-12.928-27.807-11.055c-19.746,1.812-20.759-6.357-30.8-7.355S131.087,164.525,127.74,176.24Z" transform="translate(-111.772 -33.787)" fill="#f5f5f5"/><path d="M393.62,211.5h66.023s-5.835-10.625-22.832-9.09c-16.245,1.535-17.074-5.22-25.319-6.05S396.368,201.878,393.62,211.5Z" transform="translate(30.587 -13.147)" fill="#f5f5f5"/></g><g transform="translate(196.134 34.854)"><path d="M374.457,358.785c3.286-24.736-14.111-45.157-35.852-57.425s-46.969-16.414-70.983-23.2c-22.648-6.433-45.172-15.83-61.939-32.351s-26.839-41.349-20.82-64.1c1.535-5.712,4.222-11.454,9.136-14.755s12.391-3.209,16.061,1.428c7.8,9.888-7.4,27.638,2.119,35.837,2.18,1.9,5.19,2.595,7.447,4.391,6,4.806,4.069,14.126,4.913,21.772C226.211,245.5,240.4,256,254.325,262.13c18.655,8.2,38.862,12.053,58.638,16.89s39.752,10.994,56.227,23.031,30.8,30.708,30.708,51.114c0,5.7-.752,12.7-4.33,17.12s-8.122,5.359-13.281,2.933-8.752-6.142-7.8-14.4" transform="translate(-141.347 34.647)" fill="#ff725e"/><g transform="translate(41.76 199.305)" opacity="0.8"><path d="M374.457,358.785c3.286-24.736-14.111-45.157-35.852-57.425s-46.969-16.414-70.983-23.2c-22.648-6.433-45.172-15.83-61.939-32.351s-26.839-41.349-20.82-64.1c1.535-5.712,4.222-11.454,9.136-14.755s12.391-3.209,16.061,1.428c7.8,9.888-7.4,27.638,2.119,35.837,2.18,1.9,5.19,2.595,7.447,4.391,6,4.806,4.069,14.126,4.913,21.772C226.211,245.5,240.4,256,254.325,262.13c18.655,8.2,38.862,12.053,58.638,16.89s39.752,10.994,56.227,23.031,30.8,30.708,30.708,51.114c0,5.7-.752,12.7-4.33,17.12s-8.122,5.359-13.281,2.933-8.752-6.142-7.8-14.4" transform="translate(-183.107 -164.658)" fill="#fff"/></g><path d="M239.251,228.6c-.783-9.213,6.05-17.151,13.819-21.419s16.675-6.019,24.674-9.811c19.884-9.428,32.52-31.614,33.457-54.354s-8.936-45.495-24.352-62.2c-6.28-6.787-13.988-13.911-14.08-23.17-.092-9.673,9.213-17.289,18.64-17.166s18,6.4,23.6,14.279,8.69,17.227,11.715,26.44c-2.15-3.869,2.257-8.644,6.526-8.23s7.677,3.961,10.241,7.493a80,80,0,0,1,15.354,53.51,75.389,75.389,0,0,1-23.8,49.041c-15.155,13.819-35.192,20.283-54.63,26.425l-40.551,12.79" transform="translate(-111.318 -31.842)" fill="#ff725e"/><g transform="translate(127.872 8.637)" opacity="0.8"><path d="M239.251,228.6c-.783-9.213,6.05-17.151,13.819-21.419s16.675-6.019,24.674-9.811c19.884-9.428,32.52-31.614,33.457-54.354s-8.936-45.495-24.352-62.2c-6.28-6.787-13.988-13.911-14.08-23.17-.092-9.673,9.213-17.289,18.64-17.166s18,6.4,23.6,14.279,8.69,17.227,11.715,26.44c-2.15-3.869,2.257-8.644,6.526-8.23s7.677,3.961,10.241,7.493a80,80,0,0,1,15.354,53.51,75.389,75.389,0,0,1-23.8,49.041c-15.155,13.819-35.192,20.283-54.63,26.425l-40.551,12.79" transform="translate(-239.19 -40.479)" fill="#fff"/></g><path d="M233.742,37.748a8.629,8.629,0,1,0,1.413-.445" transform="translate(-117.094 -33.654)" fill="#ff725e"/><g transform="translate(111.308 3.44)" opacity="0.8"><path d="M233.742,37.748a8.629,8.629,0,1,0,1.413-.445" transform="translate(-228.402 -37.094)" fill="#fff"/></g><path d="M274.505,483.641c-4.975-10.3-.63-23.154,7.293-31.415s18.732-12.974,29.173-17.581c23.123-10.2,47.6-22.325,59.344-44.681,3.961-7.539,6.218-15.83,8.445-24.06,4.315-15.907,8.368-33.979-.307-48-2.5-4.038-6.249-7.677-10.917-8.445-5.328-.952-10.748,1.981-14.065,6.264a31.064,31.064,0,0,0-5.359,15.093c-1.29,10.18-.215,20.544-1.29,30.708s-4.775,21.02-13.128,26.824c-10.241,7.14-24.843,5.543-34.777,13.082-8.03,6.142-11.086,16.644-17.35,24.567-5.282,6.618-12.667,11.132-19.423,16.229s-13.3,11.3-15.6,19.454a23.031,23.031,0,0,0,32.075,27.07" transform="translate(-107.848 112.082)" fill="#ff725e"/><g transform="translate(137.822 421.365)" opacity="0.8"><path d="M274.505,483.641c-4.975-10.3-.63-23.154,7.293-31.415s18.732-12.974,29.173-17.581c23.123-10.2,47.6-22.325,59.344-44.681,3.961-7.539,6.218-15.83,8.445-24.06,4.315-15.907,8.368-33.979-.307-48-2.5-4.038-6.249-7.677-10.917-8.445-5.328-.952-10.748,1.981-14.065,6.264a31.064,31.064,0,0,0-5.359,15.093c-1.29,10.18-.215,20.544-1.29,30.708s-4.775,21.02-13.128,26.824c-10.241,7.14-24.843,5.543-34.777,13.082-8.03,6.142-11.086,16.644-17.35,24.567-5.282,6.618-12.667,11.132-19.423,16.229s-13.3,11.3-15.6,19.454a23.031,23.031,0,0,0,32.075,27.07" transform="translate(-245.671 -309.283)" fill="#fff"/></g><path d="M168.839,110.1a32.014,32.014,0,0,1,.921-52.066c4.729-3.24,10.318-5.236,14.525-9.213,3.731-3.47,6.142-8.276,10.333-11.193a15.047,15.047,0,0,1,22.847,17.412c-1.919,5.389-6.756,9.335-8.783,14.679-2.18,5.773-.768,12.283-1.535,18.333a25.319,25.319,0,0,1-33.9,20.39" transform="translate(-155.909 -34.854)" fill="#ff725e"/><g opacity="0.8"><path d="M168.839,110.1a32.014,32.014,0,0,1,.921-52.066c4.729-3.24,10.318-5.236,14.525-9.213,3.731-3.47,6.142-8.276,10.333-11.193a15.047,15.047,0,0,1,22.847,17.412c-1.919,5.389-6.756,9.335-8.783,14.679-2.18,5.773-.768,12.283-1.535,18.333a25.319,25.319,0,0,1-33.9,20.39" transform="translate(-155.909 -34.854)" fill="#fff"/></g><path d="M164.71,62.42h18.87v38.892a8.307,8.307,0,0,1-8.307,8.307h-2.242a8.307,8.307,0,0,1-8.307-8.307V62.42Z" transform="translate(-151.197 -20.094)" fill="#ff725e"/><path d="M164.71,68.454l9.428-17.3,9.443,17.3Z" transform="translate(-151.197 -26.129)" fill="#ffbe9d"/><path d="M168.42,58s2.871,4.315,7.477,0l-3.731-6.848Z" transform="translate(-149.21 -26.129)" fill="#ff725e"/><path d="M183.857,86.671a59.878,59.878,0,0,1-9.6.384,59.649,59.649,0,0,1-9.581-.384,59.654,59.654,0,0,1,9.581-.384A59.882,59.882,0,0,1,183.857,86.671Z" transform="translate(-151.213 -7.341)" fill="#263238"/><path d="M183.554,84.774a57.439,57.439,0,0,1-9.4.384,57.437,57.437,0,0,1-9.4-.384,60.8,60.8,0,0,1,9.4-.368,60.8,60.8,0,0,1,9.4.368Z" transform="translate(-151.17 -8.347)" fill="#263238"/><path d="M168.454,62.6c.2,0,.384,7.524.384,16.813s-.184,16.89-.384,16.89-.384-7.539-.384-16.89S168.239,62.6,168.454,62.6Z" transform="translate(-149.398 -19.998)" fill="#fafafa"/><path d="M173.424,62.6c.215,0,.384,7.524.384,16.813s-.169,16.89-.384,16.89-.384-7.539-.384-16.89S173.209,62.6,173.424,62.6Z" transform="translate(-146.737 -19.998)" fill="#fafafa"/></g><g transform="translate(434.694 295.525)"><path d="M374.491,204.663a83.8,83.8,0,0,0-12.7.583A52.8,52.8,0,0,0,315.73,257.9,94.12,94.12,0,0,0,319,283c7.385,26.194,9.658,49.272,8.813,60.527l24.72,13.281s11.439-16.444,22.494-23.538,47.844-26.1,62.415-45.525c9.381-12.56,11.193-38.386-11.193-60.9A75.9,75.9,0,0,0,374.491,204.663Z" transform="translate(-308.898 -204.625)" fill="#ff725e"/><path d="M318.374,313.71,340.7,325.778l-14.525,18.456-14.894-6.756Z" transform="translate(-311.28 -146.219)" fill="#455a64"/><path d="M316.614,324.432c-.2-.077,2.011-6.71,4.944-14.8s5.466-14.617,5.666-14.54-2.011,6.694-4.944,14.8S316.814,324.494,316.614,324.432Z" transform="translate(-308.431 -156.189)" fill="#263238"/><path d="M329.532,330.638c-.184-.107,3.317-6.372,7.8-13.988S345.608,303,345.808,303s-3.317,6.372-7.815,13.988S329.7,330.714,329.532,330.638Z" transform="translate(-301.511 -151.953)" fill="#263238"/><g transform="translate(26.746 0.717)" opacity="0.4"><path d="M374.917,205.119c-1,0-13.281,14.433-18.717,24.168-18.287,32.751-19.116,64.611-24.183,101.768-.722,5.313-3.363,16.752-3.316,16.49,2.7,2.119,11.792,6.341,11.792,6.341s8.583-10.349,11.992-15.554c13.635-20.836,28.451-37.1,40.136-59.1s22.924-41.456,12.115-63.966C404.734,215.268,385.972,204.49,374.917,205.119Z" transform="translate(-328.7 -205.093)"/></g><path d="M437.716,278.819a4.112,4.112,0,0,1-.323-.706c-.2-.461-.445-1.182-.86-2.073a37.106,37.106,0,0,0-4.315-7.263,37.771,37.771,0,0,0-9.474-8.844,36.266,36.266,0,0,0-15.554-5.758h-.184l-.092-.123a87.726,87.726,0,0,0-9.965-11.454,50.271,50.271,0,0,0-13.619-9.366,34.993,34.993,0,0,0-16.107-3.071,26.578,26.578,0,0,0-14.08,4.7l-.23.154-.2-.184a27.637,27.637,0,0,0-15.047-6.679,27.131,27.131,0,0,0-12.79,1.628,28.714,28.714,0,0,0-7.339,4.13c-.768.614-1.351,1.105-1.72,1.443a3.866,3.866,0,0,1-.6.491,6.706,6.706,0,0,1,.522-.568c.353-.368.906-.891,1.658-1.535a26.945,26.945,0,0,1,7.339-4.345,27.285,27.285,0,0,1,13.005-1.812,28.083,28.083,0,0,1,15.431,6.741h-.43a27.192,27.192,0,0,1,14.448-4.867,35.806,35.806,0,0,1,16.444,3.071,50.668,50.668,0,0,1,13.819,9.535,85.676,85.676,0,0,1,10.011,11.592l-.23-.138a36.282,36.282,0,0,1,15.784,5.958,37.908,37.908,0,0,1,9.5,9.074,34.913,34.913,0,0,1,4.176,7.431c.384.906.6,1.643.768,2.119a5.952,5.952,0,0,1,.246.722Z" transform="translate(-309.17 -192.414)" fill="#263238"/><path d="M389.325,293.781a15.936,15.936,0,0,0-2.134-5.359,14.585,14.585,0,0,0-4.744-4.606,13.281,13.281,0,0,0-8.184-1.935h-.307v-.307a21.538,21.538,0,0,0-31.4-15.661l-.23.123-.184-.2a15.661,15.661,0,0,0-8.583-4.606,17.3,17.3,0,0,0-7.677.246,18.009,18.009,0,0,0-6.142,3.071,1.936,1.936,0,0,1,.322-.338c.23-.2.568-.522,1.044-.875a15.49,15.49,0,0,1,4.606-2.226,17.351,17.351,0,0,1,7.908-.4,16.03,16.03,0,0,1,8.982,4.744l-.415-.077A22.341,22.341,0,0,1,351,262.826a22.633,22.633,0,0,1,9.919,1.535,21.8,21.8,0,0,1,9.474,7.4,22.064,22.064,0,0,1,4.115,9.873l-.353-.276a13.819,13.819,0,0,1,8.522,2.134,14.8,14.8,0,0,1,4.79,4.806,12.87,12.87,0,0,1,1.628,4.054,10.223,10.223,0,0,1,.169,1.136,1.789,1.789,0,0,1,.061.292Z" transform="translate(-306.75 -174.747)" fill="#263238"/><path d="M334.768,328.872a2.218,2.218,0,0,0-.814-.553,4.038,4.038,0,0,0-2.61.092,7.889,7.889,0,0,1-1.981.353,3.071,3.071,0,0,1-2.211-.967c-1.182-1.244-1.628-3.071-2.748-4.253a2.58,2.58,0,0,0-2.057-.875,12.858,12.858,0,0,0-2.334.476,5.234,5.234,0,0,1-2.334.123,4.468,4.468,0,0,1-3.3-3.424,1.781,1.781,0,0,1,0-1.044,2.807,2.807,0,0,0,.261.983,4.514,4.514,0,0,0,1.535,2.134,3.531,3.531,0,0,0,1.612.722,4.606,4.606,0,0,0,2.042-.184,12.28,12.28,0,0,1,2.472-.522,3.286,3.286,0,0,1,2.641,1.09c1.305,1.535,1.7,3.224,2.7,4.284a2.5,2.5,0,0,0,1.72.829,7.094,7.094,0,0,0,1.827-.261,4.023,4.023,0,0,1,2.871.184C334.706,328.427,334.8,328.872,334.768,328.872Z" transform="translate(-309.663 -143.493)" fill="#263238"/><path d="M336.775,326.984a94.367,94.367,0,0,1-10.886-5.374,99.656,99.656,0,0,1-10.548-6.05,98.421,98.421,0,0,1,10.9,5.374A100.313,100.313,0,0,1,336.775,326.984Z" transform="translate(-309.106 -145.228)" fill="#263238"/><path d="M333.252,329.678s-.307.154-.845.4c-.276.123-.583.307-1.013.491a3.778,3.778,0,0,1-1.535.2,6.387,6.387,0,0,1-3.685-1.428,5.051,5.051,0,0,1-1.4-1.919,6.988,6.988,0,0,0-1.09-2.011,5.174,5.174,0,0,0-4.038-1.167,9.3,9.3,0,0,1-3.885-.369,3.623,3.623,0,0,1-1.965-1.8c-.246-.6-.154-.983-.123-.967a5.324,5.324,0,0,0,.4.829,3.5,3.5,0,0,0,1.889,1.428,9.213,9.213,0,0,0,3.654.169,5.742,5.742,0,0,1,4.606,1.351,7.68,7.68,0,0,1,1.2,2.226,4.607,4.607,0,0,0,1.182,1.7,6.234,6.234,0,0,0,3.27,1.413,4.607,4.607,0,0,0,2.4-.43C332.9,329.632,333.252,329.632,333.252,329.678Z" transform="translate(-310.021 -142.257)" fill="#263238"/></g><g transform="translate(186.956 130.298)"><path d="M218.825,244.4l38.616-5.727-18.425-26.1-9.888.583a17.642,17.642,0,0,0-15.185,10.625h0a17.7,17.7,0,0,0-1.121,10.349Z" transform="translate(-116.43 -35.144)" fill="#ff725e"/><path d="M218.825,244.4l38.616-5.727-18.425-26.1-9.888.583a17.642,17.642,0,0,0-15.185,10.625h0a17.7,17.7,0,0,0-1.121,10.349Z" transform="translate(-116.43 -35.144)" opacity="0.4"/><path d="M338.657,297.5c.4,1.105.829,2.411,1.274,3.977a12.592,12.592,0,0,1,.415,4.146,19.224,19.224,0,0,1-.875,5.1c-.63,1.536.844,2.948,2.088,2.211s3.071-4.729,3.071-9.857,5.128,1.013,7.078,3.224,8.307,8.767,9.458,8.706c1.689-.092,1.9-1.919-.092-4.084s-7.539-9.059-6.326-10.042,10.978,10.426,10.978,10.426,1.689,2.779,3.071,1.7c2.61-1.95-8.675-13.3-9.781-14.341-.752-.737.522-1.843,1.305-1.013s9.489,11.592,12.161,9.627c2.042-1.535-9.213-9.412-9.765-12.637s7.923,6.863,9.811,5.359c.722-.568,1.167-1.09-4.606-6.142-2.764-2.487-13.3-9.857-13.3-9.857L322.935,193.28,298.46,207.3Z" transform="translate(-70.406 -45.472)" fill="#ffbe9d"/><path d="M229.526,169.588l-35.407-42.255h0a24.657,24.657,0,0,0-1.735-4.222,13.281,13.281,0,0,0-8.353-6.971c-2.242-.491-4.821-.246-6.587-1.72-.783-.66-1.305-1.535-2.134-2.211a1.886,1.886,0,0,0-2.733.138,2.411,2.411,0,0,0,.154,2.119,19.7,19.7,0,0,0,6.142,7.923c-3.317,1.013-8.061,2.549-8.061,2.549s-7.478-8.122-11.316-8.107,3.071,7.263,3.071,7.263-6.142-5.681-8.046-4.084,2.979,5.819,2.979,5.819a8.138,8.138,0,0,0-4.99-1.4c-1.735.292-3.224,2.334-2.288,3.823a3.992,3.992,0,0,0,1.535,1.244l9.428,5.251a11.408,11.408,0,0,0,5.036,1.843c4.79.154,8.429-2.81,13.2-2.687,0,0,26.7,56.212,29.4,59.114s61.417,6.848,61.417,6.848l33.948-29.25Z" transform="translate(-149.932 -89.155)" fill="#ffbe9d"/><path d="M274.4,348.83l36.159,15.738-19.346,45.1c-4.207-2.1-2.825-29.173-2.825-29.173L264.8,371.355Z" transform="translate(-88.428 37.813)" fill="#ff725e"/><g transform="translate(203.59 402.827)" opacity="0.6"><path d="M282.9,360.091a2.012,2.012,0,0,1,2.656-.384,1.935,1.935,0,0,1,.384,2.626,2.1,2.1,0,0,1-2.795.384,2,2,0,0,1-.108-2.779" transform="translate(-282.527 -359.371)" fill="#fff"/></g><path d="M301.882,359.583l-3.716-1.443L281,401.915s0,2.4,1.535,2.764Z" transform="translate(-79.754 42.798)" fill="#fff" opacity="0.6"/><path d="M279.811,370.978c.23.077.8-.983,1.981-1.75s2.334-.967,2.334-1.2-1.413-.461-2.81.507S279.6,370.932,279.811,370.978Z" transform="translate(-80.423 47.985)" fill="#263238"/><path d="M279.752,374.181c.2.154.983-.645,2.242-1s2.318-.138,2.411-.353-1.105-.906-2.656-.445S279.553,374.088,279.752,374.181Z" transform="translate(-80.441 50.341)" fill="#263238"/><path d="M284.259,377.162c.138-.184-.844-.967-2.288-.921s-2.365.875-2.226,1.044,1.059-.184,2.257-.2S284.136,377.408,284.259,377.162Z" transform="translate(-80.434 52.488)" fill="#263238"/><path d="M276.518,369.733c.246,0,.368-1.152,1-2.349s1.428-2.011,1.29-2.211-1.336.4-2.042,1.827S276.3,369.764,276.518,369.733Z" transform="translate(-82.273 46.543)" fill="#263238"/><path d="M273.8,368.714a4.8,4.8,0,0,0,.952-2.257,10.531,10.531,0,0,0,.292-2.672,11.706,11.706,0,0,0-.123-1.535,2.978,2.978,0,0,0-.246-.906,1.029,1.029,0,0,0-1.121-.6,1.275,1.275,0,0,0-.921.737,3.346,3.346,0,0,0-.246.906,8.614,8.614,0,0,0,.353,4.284c.507,1.459,1.182,2.165,1.259,2.1s-.353-.875-.706-2.272a10.2,10.2,0,0,1-.261-2.5,10.019,10.019,0,0,1,.154-1.535c.077-.522.246-.937.522-.967s.123,0,.23.154a3.073,3.073,0,0,1,.169.676,12.629,12.629,0,0,1,.169,1.535,13.114,13.114,0,0,1-.108,2.533,17.312,17.312,0,0,0-.368,2.318Z" transform="translate(-84.434 44.184)" fill="#263238"/><path d="M276.3,366.652a4.833,4.833,0,0,0-1.919-1.535,7.829,7.829,0,0,0-2.61-.752,7.03,7.03,0,0,0-1.535,0,2.073,2.073,0,0,0-1.766.952,1.167,1.167,0,0,0,.23,1.213,3.5,3.5,0,0,0,.737.583,5.509,5.509,0,0,0,1.535.66,5.682,5.682,0,0,0,2.733,0c1.535-.384,2.211-1.182,2.15-1.228a20.727,20.727,0,0,1-2.257.645,5.619,5.619,0,0,1-2.426-.184,5.2,5.2,0,0,1-1.29-.614c-.445-.276-.752-.614-.629-.768a1.366,1.366,0,0,1,1.075-.476,7.943,7.943,0,0,1,1.536,0,8.857,8.857,0,0,1,2.441.522C275.469,366.161,276.221,366.745,276.3,366.652Z" transform="translate(-86.507 46.108)" fill="#263238"/><path d="M252.91,391.911l14.955,31.338,4.683,28.283a3.547,3.547,0,0,0,4.33,2.871h0a3.516,3.516,0,0,0,2.472-2.119c2.748-6.8,12.744-31.906,11.516-34.133-1.413-2.579-13.589-34.1-13.589-34.1Z" transform="translate(-94.794 56.671)" fill="#ff725e"/><path d="M268.52,443.206l13.02-38.386.614,1.336a5.359,5.359,0,0,1,.261,3.685c-.952,3.271-3.762,12.283-11.331,31.2a3.532,3.532,0,0,1-2.564,2.165Z" transform="translate(-86.436 67.791)" fill="#fff" opacity="0.6"/><g transform="translate(183.738 464.352)" opacity="0.6"><path d="M269.878,400.407a2.134,2.134,0,0,0,.614,2.794,2.073,2.073,0,0,0,2.795-.583,2.288,2.288,0,0,0-.676-2.963,2.134,2.134,0,0,0-2.825.937" transform="translate(-269.597 -399.44)" fill="#fff"/></g><path d="M271.916,419.382a7.677,7.677,0,0,0-7.846-.276,2.479,2.479,0,0,1,.921-.921,5.5,5.5,0,0,1,3.071-.783,5.573,5.573,0,0,1,2.994.983C271.732,418.876,271.977,419.321,271.916,419.382Z" transform="translate(-88.819 74.525)" fill="#263238"/><path d="M271.334,422.449a26.493,26.493,0,0,0-3.409-.092,29.421,29.421,0,0,0-3.27.983c-.169-.123,1.059-1.536,3.163-1.75A3.931,3.931,0,0,1,271.334,422.449Z" transform="translate(-88.514 76.71)" fill="#263238"/><path d="M273.961,414.369a34.613,34.613,0,0,0-5.251-.507,32.621,32.621,0,0,0-5.19,1.013,9.688,9.688,0,0,1,10.441-.507Z" transform="translate(-89.113 72.215)" fill="#263238"/><path d="M270.814,407.54c0,.23-2.073.276-4.391,1.228s-3.869,2.288-4.023,2.119a6.91,6.91,0,0,1,3.746-2.841,6.833,6.833,0,0,1,4.668-.507Z" transform="translate(-89.713 69.141)" fill="#263238"/><path d="M268.078,401.513a17.672,17.672,0,0,0-4.606,1.167,17.01,17.01,0,0,0-3.716,2.933c-.077,0,.077-.6.63-1.336a7.492,7.492,0,0,1,2.764-2.288,7.568,7.568,0,0,1,3.485-.8C267.556,401.221,268.094,401.436,268.078,401.513Z" transform="translate(-91.138 65.848)" fill="#263238"/><path d="M264.1,403.679a3.577,3.577,0,0,1-.583-1.182,9.289,9.289,0,0,1-.445-3.562,4.038,4.038,0,0,1,.783-2.472,1.428,1.428,0,0,1,1.535-.384,2.4,2.4,0,0,1,1.151,1.213,5.021,5.021,0,0,1-2.119,6.05,5.85,5.85,0,0,1-6.479-.43,2.012,2.012,0,0,1-.768-1.535,1.4,1.4,0,0,1,1.029-1.274,5.051,5.051,0,0,1,2.58.154,9.919,9.919,0,0,1,3.27,1.535c.691.476,1,.829.967.875a15.358,15.358,0,0,0-4.361-1.842,4.5,4.5,0,0,0-2.257-.077.752.752,0,0,0-.568.691,1.443,1.443,0,0,0,.568.952,5.2,5.2,0,0,0,5.62.322,4.361,4.361,0,0,0,1.935-5.174,1.612,1.612,0,0,0-.768-.875.752.752,0,0,0-.875.184,3.563,3.563,0,0,0-.706,2.088A13.621,13.621,0,0,0,264.1,403.679Z" transform="translate(-92.508 63.067)" fill="#263238"/><path d="M336.376,418.205l-41.011-27.638,13.573-133.26L270.092,234.63l-35.514-8.23s-14.832,30.862-21.5,50.669c-14.034,42.025-23.876,57.087-21.619,87.519.706,9.642,36.3,33.779,58.776,47.153a73.052,73.052,0,0,0,1.2,7.969c7.677,34.731,31.138,80.917,31.138,80.917L318.2,484.06l-11.485-39.384,11.976,6.986Zm-88.149-85.984,4.79-21.358c-1.013,13.589-1.935,27.76-2.595,41.349a42.439,42.439,0,0,1-2.2-19.945Z" transform="translate(-127.868 -27.739)" fill="#263238"/><path d="M262.794,487.29a3.39,3.39,0,0,1-.276-.568l-.752-1.674-2.748-6.495c-2.365-5.666-5.758-13.819-9.827-24.029s-8.89-22.31-13.819-35.975c-1.213-3.424-2.4-6.94-3.516-10.579-.491-1.843-1.121-3.654-1.443-5.6-.092-.476-.2-.967-.276-1.443l-.169-1.459-.322-2.917q-.645-5.9-1.029-12.007c-.123-2.027-.23-4.084-.322-6.142a53.29,53.29,0,0,1,0-6.265c.614-16.736,2.011-32.612,3.178-47.061s2.288-27.438,3.209-38.386,1.535-19.761,1.842-25.887c.2-3.071.307-5.435.369-7.032l.107-1.842a2.322,2.322,0,0,1,0-.614,3.647,3.647,0,0,1,0,.614v1.842c0,1.612-.077,3.992-.215,7.048-.261,6.142-.8,14.986-1.612,25.918s-1.9,23.937-3.071,38.386-2.5,30.325-3.071,47.015c-.123,2.088,0,4.146,0,6.218s.184,4.1.322,6.142q.369,6.142,1,11.961l.322,2.933.169,1.443c.077.476.184.937.276,1.413.307,1.873.921,3.7,1.413,5.528,1.09,3.608,2.272,7.124,3.47,10.548,4.821,13.65,9.6,25.8,13.589,36.006s7.324,18.425,9.612,24.106c1.121,2.825,2.011,5.021,2.626,6.556.276.722.507,1.29.66,1.7A2.2,2.2,0,0,0,262.794,487.29Z" transform="translate(-108.025 -14.402)" fill="#455a64"/><path d="M234.409,258.564a6.3,6.3,0,0,1-.921-.752,9.687,9.687,0,0,1-1.735-2.794A29.848,29.848,0,0,1,230,244.454a89.424,89.424,0,0,1,.507-10.748,24.41,24.41,0,0,1,.614-4.376,25.962,25.962,0,0,1,0,4.422c-.138,2.718-.353,6.48-.292,10.625a34.347,34.347,0,0,0,1.535,10.395,11.868,11.868,0,0,0,1.459,2.779A5.926,5.926,0,0,1,234.409,258.564Z" transform="translate(-107.064 -26.17)" fill="#455a64"/><path d="M227.452,227.72a8.937,8.937,0,0,1,.307,3.716,17.2,17.2,0,0,1-9.811,14.4,9.074,9.074,0,0,1-3.578,1.075c0-.123,1.336-.491,3.332-1.535a18.179,18.179,0,0,0,9.52-13.957C227.483,229.148,227.314,227.72,227.452,227.72Z" transform="translate(-115.43 -27.032)" fill="#455a64"/><path d="M267.743,278.18v.4a6.13,6.13,0,0,1-.092,1.182q-.184,1.658-.461,4.606c-.445,4.007-1.059,9.7-1.827,16.705-1.535,14.172-3.808,33.626-6.234,55.137a100.371,100.371,0,0,0,2.011,30.248,104.417,104.417,0,0,0,3.7,12.744c1.382,3.931,2.656,7.6,3.839,10.963,2.319,6.664,4.192,12.084,5.512,15.892.614,1.843,1.106,3.286,1.535,4.33l.368,1.136a1.227,1.227,0,0,1,.092.384.843.843,0,0,0-.169-.369,6.4,6.4,0,0,1-.43-1.105c-.4-1.029-.921-2.457-1.535-4.284l-5.742-15.8c-1.2-3.347-2.518-7.017-3.931-10.932a103.738,103.738,0,0,1-3.793-12.821,99.71,99.71,0,0,1-2.1-30.463c2.4-21.573,4.791-41.011,6.464-55.122.875-7,1.535-12.7,2.073-16.69.246-1.935.445-3.439.6-4.606a6.581,6.581,0,0,1,.169-1.167,1.3,1.3,0,0,1-.046-.369Z" transform="translate(-92.001 -0.015)" fill="#455a64"/><path d="M219.43,231.856l6.3-16.076,14.356,21.4-19.147-4.775" transform="translate(-112.72 -33.425)" fill="#ffbe9d"/><path d="M374.041,221.03l-17.028-38.186c-2.042-6.142-5.865-7.094-9.059-10.656l-42.669-24.06c-31.108-12.744-48.044,29.972-48.044,29.972l-28.267,64.488c-33.242,11.009-9.7,36.543-9.7,36.543s-9.044-15.723-.138-21.388c9.3-5.942,19.623,9.7,29.542,24.567,11.715,17.534,49.763,28.927,49.763,28.927,4.453-4.7,3.209-21.112,6.694-29.925,1.106-2.779,27.453-63.812,27.453-63.812l10.211,24.736s13.082-15.354,19.439-17.78A72.357,72.357,0,0,1,374.041,221.03Z" transform="translate(-117.136 -70.919)" fill="#ff725e"/><path d="M280.636,214.411a6.37,6.37,0,0,1-1.29.906,24.95,24.95,0,0,1-3.885,1.827,27.776,27.776,0,0,1-26.962-4.161,23.9,23.9,0,0,1-3.148-2.917,5,5,0,0,1-.952-1.244c.108-.107,1.535,1.628,4.422,3.731a28.851,28.851,0,0,0,26.455,4.084C278.686,215.5,280.636,214.288,280.636,214.411Z" transform="translate(-99.351 -37.154)" fill="#263238"/><path d="M222.15,187.96h0l26.333,2.487,42.132-44.527-24.782-.86-44.113,4.361a114.452,114.452,0,0,1,.43,38.539Z" transform="translate(-111.494 -71.291)" fill="#ff725e"/><path d="M258.085,157.74a2.78,2.78,0,0,1-.323.814l-1.059,2.272c-.952,2.057-2.288,4.9-3.9,8.337-3.27,7.063-7.677,16.89-12.283,27.791s-9,20.774-12.283,27.853c-1.612,3.547-2.948,6.387-3.9,8.353l-1.121,2.242a3.747,3.747,0,0,1-.445.768,5.083,5.083,0,0,1,.307-.829l.983-2.3,3.685-8.445c3.071-7.232,7.355-17.074,12.022-27.945s9.213-20.7,12.544-27.714c1.7-3.5,3.071-6.311,4.13-8.245.491-.891.875-1.628,1.182-2.211A4.065,4.065,0,0,1,258.085,157.74Z" transform="translate(-110.932 -64.501)" fill="#263238"/><path d="M303,166.17c.077.138-1.535.983-3.793,2.887a27.233,27.233,0,0,0-3.547,3.67,30.073,30.073,0,0,0-3.347,5.3,31.318,31.318,0,0,0-2.088,5.9,26.821,26.821,0,0,0-.676,5.082c-.108,2.917.23,4.729.077,4.744a4.454,4.454,0,0,1-.307-1.244,9.054,9.054,0,0,1-.215-1.535A15.971,15.971,0,0,1,289,188.94a24.077,24.077,0,0,1,.537-5.22,29.171,29.171,0,0,1,2.073-6.142,29.492,29.492,0,0,1,3.485-5.4,24.845,24.845,0,0,1,3.762-3.639,14.493,14.493,0,0,1,1.643-1.167,9.4,9.4,0,0,1,1.305-.783A4.024,4.024,0,0,1,303,166.17Z" transform="translate(-75.471 -59.988)" fill="#263238"/><path d="M322.509,140.791l-24.7,46.186a16.306,16.306,0,0,1-21.02,7.186h0a16.291,16.291,0,0,1-7.677-22.479l4.253-8.015s-10.748-6.955-5.712-18.563c4.483-10.349,20.943-39.583,24.429-45.756l20.82,9.32a23.385,23.385,0,0,1,9.612,32.121Z" transform="translate(-87.622 -95.765)" fill="#ffbe9d"/><path d="M271.376,141.13a29.465,29.465,0,0,0,16.966,2.457s-7.278,6.71-18.333.522Z" transform="translate(-85.638 -73.395)" fill="#eb996e"/><path d="M276.128,117.4a1.812,1.812,0,0,0,.844,2.38,1.735,1.735,0,0,0,2.365-.722,1.812,1.812,0,0,0-.844-2.38,1.735,1.735,0,0,0-2.365.722Z" transform="translate(-82.451 -86.597)" fill="#263238"/><path d="M276.132,116.384c.107.307,1.766,0,3.547.737s2.672,2.257,2.963,2.134.092-.537-.276-1.2a5.037,5.037,0,0,0-2.257-1.981,4.821,4.821,0,0,0-2.948-.322C276.439,115.924,276.071,116.185,276.132,116.384Z" transform="translate(-82.364 -87.035)" fill="#263238"/><path d="M286.939,122.727a1.8,1.8,0,0,0,.844,2.38,1.735,1.735,0,0,0,2.365-.737,1.812,1.812,0,0,0-.844-2.365,1.72,1.72,0,0,0-2.365.722Z" transform="translate(-76.665 -83.75)" fill="#263238"/><path d="M287.392,121.671c.107.307,1.766,0,3.547.737s2.672,2.272,2.963,2.15.108-.537-.276-1.213a5.02,5.02,0,0,0-2.257-1.965,4.714,4.714,0,0,0-2.948-.322C287.7,121.225,287.331,121.532,287.392,121.671Z" transform="translate(-76.335 -84.199)" fill="#263238"/><path d="M280.795,133.138a13.359,13.359,0,0,0-2.641-1.8c-.43-.261-.829-.537-.768-.875a3.008,3.008,0,0,1,.906-1.213l2.887-2.856a65.642,65.642,0,0,0,7.048-7.677,63.906,63.906,0,0,0-7.677,7.078l-2.841,2.9a2.871,2.871,0,0,0-1.029,1.674,1.305,1.305,0,0,0,.445,1,3.546,3.546,0,0,0,.722.445A11.761,11.761,0,0,0,280.795,133.138Z" transform="translate(-82.067 -85.394)" fill="#263238"/><path d="M285.113,130.432c-.276-.138-1.136,1.781-3.393,2.411s-4.222-.491-4.361-.23.292.568,1.152.983a5.2,5.2,0,0,0,3.577.307,4.514,4.514,0,0,0,2.733-2.073C285.251,131.062,285.251,130.494,285.113,130.432Z" transform="translate(-81.717 -79.126)" fill="#263238"/><path d="M289.12,116.921c0,.568,1.827,1.121,3.793,2.3s3.409,2.5,3.869,2.2c.215-.154.123-.737-.338-1.535a7.8,7.8,0,0,0-5.85-3.424C289.7,116.46,289.135,116.66,289.12,116.921Z" transform="translate(-75.406 -86.604)" fill="#263238"/><path d="M278.053,113.305c.138.553,1.535.676,3.071,1.305s2.595,1.535,3.071,1.2.215-.645-.169-1.259a4.407,4.407,0,0,0-2.134-1.75,4.5,4.5,0,0,0-2.764-.261C278.36,112.66,277.977,113,278.053,113.305Z" transform="translate(-81.337 -88.762)" fill="#263238"/><path d="M299.783,130.85c.246,0,8.982,1.2,5.205,8.982s-10.748,2.38-10.748,2.15S299.783,130.85,299.783,130.85Z" transform="translate(-72.665 -78.899)" fill="#ffbe9d"/><path d="M296.75,138.864s.092.154.261.384a1.535,1.535,0,0,0,1.013.507,3.747,3.747,0,0,0,3.071-2.257,5.037,5.037,0,0,0,.568-2.119,1.75,1.75,0,0,0-.522-1.535.768.768,0,0,0-.983,0c-.2.169-.23.338-.276.338s-.107-.215.107-.507a.982.982,0,0,1,.553-.338,1.152,1.152,0,0,1,.845.169,2.135,2.135,0,0,1,.829,1.889,5.144,5.144,0,0,1-.584,2.4,3.931,3.931,0,0,1-3.608,2.411,1.735,1.735,0,0,1-1.152-.814C296.673,139.064,296.719,138.864,296.75,138.864Z" transform="translate(-71.336 -77.578)" fill="#eb996e"/><path d="M309.384,147.692a4.606,4.606,0,0,0-4.606.261c-1.013.891-1.7,2.119-2.718,3.071a3.071,3.071,0,0,1-3.716.583,2.657,2.657,0,0,1-.829-2.533,7.339,7.339,0,0,1,1.121-2.564c2.1-3.47,4.514-6.787,6.326-10.426a20.713,20.713,0,0,0,2.472-11.777,11.362,11.362,0,0,0-6.909-9.32c-2.533-.891-5.359-.63-7.954-1.367a10.61,10.61,0,0,1-6.817-6.265,18.42,18.42,0,0,0-1.013-1.75c.092-.184,1.013-1.75,1.919-2.057,6.848-2.318,16.107.338,21.772,4.806a25.166,25.166,0,0,1,9.7,18.855c.077,7.216-4.468,15.17-8.691,20.544" transform="translate(-77.752 -93.975)" fill="#263238"/><path d="M311.93,149.887c2.165-3.685,5.666-6.341,8.337-9.658s4.606-8,2.61-11.807c-.645-1.305-1.689-2.4-2.226-3.746a18.568,18.568,0,0,1-.768-4.315,14.986,14.986,0,0,0-7.431-10.748c-2.733-1.535-5.881-2.15-8.66-3.608-4.376-2.3-7.585-6.572-12.283-8.4a5.835,5.835,0,0,0-4.775-.154,2.887,2.887,0,0,0-1.182,4.13,2.5,2.5,0,0,0-3.455-1.658,3.777,3.777,0,0,0-1.95,3.7,8.215,8.215,0,0,0,1.674,4.054,20.789,20.789,0,0,0,11.823,8.153l10.61-.829,8.69,6.433,6.418,10.241-11.654,15.139Z" transform="translate(-80.221 -97.015)" fill="#263238"/></g><g transform="translate(277.555 87.724)"><path d="M283.732,104.314a37.434,37.434,0,1,0-51.084,37.234c.292,4.422.614,9.428.614,9.428L266,148.857s-.138-5.3-.384-10.026a37.4,37.4,0,0,0,18.118-34.516Z" transform="translate(-208.937 -69.288)" fill="#ff725e"/><path d="M247.776,136.242v-1.827c0-1.182.169-2.948.353-5.205s.445-5.036.952-8.215A56.67,56.67,0,0,1,251.8,110.37a36.3,36.3,0,0,1,2.718-5.789,6.956,6.956,0,0,1,2.411-2.457,3.854,3.854,0,0,1,3.547-.107,2.533,2.533,0,0,1,1.274,1.4,2.564,2.564,0,0,1,0,1.935,5.358,5.358,0,0,1-2.718,2.672,10.287,10.287,0,0,1-13.373-5.942,7.861,7.861,0,0,1-.507-4.3,3.363,3.363,0,0,1,3.24-2.81,2.364,2.364,0,0,1,1.981,1.2,3.362,3.362,0,0,1,.445,2.272,7.339,7.339,0,0,1-2.38,3.885,11.117,11.117,0,0,1-8.552,3.071,9.735,9.735,0,0,1-7.57-4.913,5.666,5.666,0,0,1-.537-4.514,2.733,2.733,0,0,1,3.839-1.689,3.808,3.808,0,0,1,1.689,1.535,5.957,5.957,0,0,1,.706,2.119,10.64,10.64,0,0,1-.292,4.3,11.116,11.116,0,0,1-4.867,6.6,11.331,11.331,0,0,1-7.677,1.535,5.973,5.973,0,0,1-3.47-1.535,2.887,2.887,0,0,1-.445-3.578,2.472,2.472,0,0,1,1.628-.937,3.639,3.639,0,0,1,1.812.23,5.343,5.343,0,0,1,2.441,2.426c1.075,1.965,1.95,3.885,2.841,5.712,3.47,7.339,5.988,13.4,7.677,17.611.844,2.1,1.535,3.746,1.9,4.852.2.553.353.983.476,1.274a3.361,3.361,0,0,1,.138.445l-.184-.43-.522-1.244-1.981-4.837c-1.75-4.176-4.315-10.226-7.815-17.535-.891-1.812-1.8-3.762-2.856-5.681a5.051,5.051,0,0,0-2.272-2.257,2.58,2.58,0,0,0-2.994.583,2.533,2.533,0,0,0,.43,3.071,5.558,5.558,0,0,0,3.24,1.428,10.917,10.917,0,0,0,7.385-1.535,10.748,10.748,0,0,0,4.606-6.357,10.133,10.133,0,0,0,.276-4.13,4.038,4.038,0,0,0-2.134-3.3,2.334,2.334,0,0,0-1.95,0,2.38,2.38,0,0,0-1.274,1.535,5.2,5.2,0,0,0,.507,4.146,9.32,9.32,0,0,0,7.217,4.606,10.64,10.64,0,0,0,8.184-2.963,6.925,6.925,0,0,0,2.226-3.593,2.963,2.963,0,0,0-.384-1.981,1.965,1.965,0,0,0-1.612-.983,2.718,2.718,0,0,0-1.827.722,3.071,3.071,0,0,0-.952,1.735,7.354,7.354,0,0,0,.476,4.054,9.873,9.873,0,0,0,12.9,5.727,4.975,4.975,0,0,0,2.518-2.457,2.211,2.211,0,0,0-1.044-2.841,3.485,3.485,0,0,0-3.209.092,6.664,6.664,0,0,0-2.257,2.3,36.285,36.285,0,0,0-2.7,5.712A55.981,55.981,0,0,0,249.4,121c-.537,3.178-.829,5.942-1.044,8.2s-.322,3.992-.43,5.205c0,.568-.092,1.029-.108,1.351A4.172,4.172,0,0,1,247.776,136.242Z" transform="translate(-202.568 -56.059)" fill="#263238"/><path d="M255.3,126.629l-28.1,1.827a2.134,2.134,0,0,1-2.257-1.981h0a2.119,2.119,0,0,1,1.981-2.242l28.114-1.812a2.1,2.1,0,0,1,2.242,1.965h0A2.119,2.119,0,0,1,255.3,126.629Z" transform="translate(-200.37 -40.841)" fill="#263238"/><path d="M255.281,126.36l-28.114,1.827a2.108,2.108,0,1,0,.276,4.207l3.071-.2,4.606,7.539a2.748,2.748,0,0,0,2.5,1.29l10.042-.645a2.779,2.779,0,0,0,2.318-1.628l3.47-8.03,2.1-.138a2.119,2.119,0,0,0-.276-4.222Z" transform="translate(-200.231 -38.73)" fill="#263238"/><g transform="translate(4.191 7.546)" opacity="0.2"><path d="M219.38,81.845a27.207,27.207,0,0,1,7.17-5.451,20.22,20.22,0,0,1,5.589-2.057c1.413-.23,2.226-.154,2.319.138.2.676-2.564,1.858-6.142,4.606a30.8,30.8,0,0,0-12.053,31.077c.814,4.53,2.057,7.263,1.535,7.677-.276.169-.921-.322-1.8-1.443a19.42,19.42,0,0,1-2.795-5.328,27.392,27.392,0,0,1-1.535-8.844,29.172,29.172,0,0,1,1.919-10.978" transform="translate(-211.667 -74.202)" fill="#fff"/></g><g transform="translate(31.254 4.259)" opacity="0.2"><path d="M234.141,76.665c-2.365.123-4.5-.384-4.821-1.628-.138-.614.261-1.305,1.075-1.873a7.585,7.585,0,0,1,7.063-.43c.891.476,1.351,1.121,1.29,1.75" transform="translate(-229.292 -72.062)" fill="#fff"/></g><path d="M245.615,135.325a16.374,16.374,0,0,1-1.981-.476,16.366,16.366,0,0,0-4.806-.292,16.581,16.581,0,0,0-4.606,1.182c-1.136.491-1.812.891-1.843.829a5.7,5.7,0,0,1,1.7-1.121,13.819,13.819,0,0,1,4.76-1.336,13.573,13.573,0,0,1,4.929.43A5.943,5.943,0,0,1,245.615,135.325Z" transform="translate(-196.385 -34.613)" fill="#455a64"/><path d="M251.569,129.272c0,.123-5.067.553-11.347.967s-11.347.63-11.362.491,5.067-.553,11.331-.952S251.554,129.149,251.569,129.272Z" transform="translate(-198.27 -37.188)" fill="#455a64"/><path d="M249.242,131.514a16.89,16.89,0,0,1-2.748.445c-1.7.23-4.069.476-6.694.691s-4.99.322-6.71.369a15.353,15.353,0,0,1-2.779,0,15.475,15.475,0,0,1,2.764-.307l6.694-.507,6.694-.553a16.384,16.384,0,0,1,2.779-.138Z" transform="translate(-197.494 -35.976)" fill="#455a64"/></g><g transform="translate(80.782 264.747)"><path d="M110.8,259l6.142,9.781s26.1-23.968,51.882-17.2C168.778,251.555,145.562,231.871,110.8,259Z" transform="translate(-64.71 -152.413)" fill="#ff725e"/><path d="M148.56,257.225s19.116-20.759,47.153-16.03l7.677,1.152-2.426-4.407S152.153,221.235,148.56,257.225Z" transform="translate(-44.492 -158.083)" fill="#ff725e"/><path d="M144.382,204.117s-38.294-6.587-63.382,7l39.921,75.052s32.643-31.461,63.874-12.084Z" transform="translate(-80.666 -174.974)" fill="#f5f5f5"/><path d="M144.5,204.2a2.64,2.64,0,0,1,.215.307l.568.952,2.211,3.731,8.291,14.218,29.357,50.669a.338.338,0,0,1-.461.461,42.179,42.179,0,0,0-14.694-5.635,46.073,46.073,0,0,0-8.276-.583,52.033,52.033,0,0,0-8.476,1.075,72.78,72.78,0,0,0-31.66,16.89l-.338.307a.368.368,0,0,1-.537,0v-.077L80.825,211.354a.292.292,0,0,1,.123-.415h0a77.216,77.216,0,0,1,25.519-7.6,129.8,129.8,0,0,1,20.437-.891c5.65.2,10.057.645,13.036,1.013,1.535.184,2.641.353,3.409.491l.875.154h-.015l-.875-.107c-.768-.092-1.9-.246-3.409-.4-3.071-.307-7.4-.691-13.036-.829a130.373,130.373,0,0,0-20.344,1.029,77.033,77.033,0,0,0-25.288,7.677l.123-.415L121.3,286.114l-.6-.108.338-.307A80.835,80.835,0,0,1,136.3,274.951a63.72,63.72,0,0,1,16.767-6.357,50.242,50.242,0,0,1,8.614-1.075,44.9,44.9,0,0,1,8.414.6,43.193,43.193,0,0,1,14.924,5.758l-.476.461-29.035-50.669-8.168-14.341-2.134-3.808c-.23-.43-.415-.752-.537-1a2.574,2.574,0,0,1-.169-.322Z" transform="translate(-80.782 -175.056)" fill="#263238"/><path d="M182.3,195.279s-28.958-18.425-59.7,15.354l40.351,70s8.23-28.405,56.412-18.533Z" transform="translate(-58.392 -181.537)" fill="#f5f5f5"/><path d="M182.4,195.381a1.352,1.352,0,0,1,.2.292c.123.23.307.522.522.906l2.042,3.562,7.677,13.573,26.916,48.412a.295.295,0,0,1-.353.445h0l-7.17-1.182a32.843,32.843,0,0,0-3.7-.415l-3.777-.307a32.246,32.246,0,0,0-3.854-.092l-3.885.015c-1.32,0-2.626.261-3.946.384a29.4,29.4,0,0,0-3.961.6l-3.946.891-3.885,1.367a41.1,41.1,0,0,0-3.746,1.735,11.71,11.71,0,0,0-1.812,1.029l-1.766,1.136c-1.167.783-2.211,1.735-3.3,2.61a34.866,34.866,0,0,0-2.9,3.071,24.184,24.184,0,0,0-4.3,7.37h0a.384.384,0,0,1-.491.23.368.368,0,0,1-.2-.169l-1.628-2.81c-14.264-24.8-27.638-47.905-38.677-67.206a.353.353,0,0,1,0-.384,67.927,67.927,0,0,1,21.849-16.429,43.637,43.637,0,0,1,20.621-3.869,42.345,42.345,0,0,1,13.189,2.948,32.646,32.646,0,0,1,3.224,1.535l.8.461.246.184-.276-.138-.814-.415c-.722-.353-1.8-.875-3.24-1.428a43.1,43.1,0,0,0-33.534,1.213,67.682,67.682,0,0,0-21.588,16.383v-.368l38.77,67.252,1.689,2.779-.706.092a25.274,25.274,0,0,1,4.437-7.677,41.67,41.67,0,0,1,2.979-3.178c1.136-.906,2.2-1.889,3.393-2.672l1.8-1.167a12.286,12.286,0,0,1,1.858-1.044c1.29-.6,2.5-1.32,3.823-1.781l3.946-1.367,4.023-.906a27.637,27.637,0,0,1,4.023-.6c1.336-.123,2.656-.369,3.977-.384h3.946a27.26,27.26,0,0,1,3.885.092l3.808.322a29.816,29.816,0,0,1,3.731.415l7.216,1.213-.353.491c-11.009-19.96-20.206-36.681-26.686-48.458-3.209-5.85-5.742-10.487-7.477-13.681l-1.965-3.624c-.2-.4-.368-.706-.491-.937A2.507,2.507,0,0,1,182.4,195.381Z" transform="translate(-58.497 -181.639)" fill="#263238"/><path d="M88,184.62l43.192,83.143s35.084-1.535,49.947,15.569L141.126,213.7S117.664,184.62,88,184.62Z" transform="translate(-76.918 -184.559)" fill="#f5f5f5"/><path d="M88.005,184.641h1.105l3.317.138h1.167l1.274.215,2.887.476a23.28,23.28,0,0,1,3.3.8,37.68,37.68,0,0,1,3.7,1.09c10.318,3.439,24.168,11.761,36.6,26.1h0l40.075,69.585a.384.384,0,0,1-.138.522.368.368,0,0,1-.461,0h0l-1.689-1.689a36.62,36.62,0,0,0-11.055-7.293,62.949,62.949,0,0,0-12.36-4.054,103.178,103.178,0,0,0-24.567-2.426h0a.368.368,0,0,1-.322-.184c-12.59-24.413-23.338-45.28-30.97-60.051-3.716-7.293-6.694-13.128-8.8-17.151-1-1.95-1.781-3.47-2.318-4.606l-.583-1.152-.184-.384a2.166,2.166,0,0,1,.23.415l.645,1.182,2.426,4.606,9,17.227,31.169,59.605-.322-.184a103.163,103.163,0,0,1,24.736,2.4,64.609,64.609,0,0,1,12.5,4.084,37.448,37.448,0,0,1,11.27,7.462l1.75,1.72-.63.445c-14.848-25.872-28.59-49.855-39.921-69.647h0a100.721,100.721,0,0,0-18.9-17.1,72.824,72.824,0,0,0-17.32-9.028,37.944,37.944,0,0,0-3.685-1.121,22.714,22.714,0,0,0-3.27-.829l-2.871-.522-1.244-.23-1.136-.092Z" transform="translate(-76.923 -184.58)" fill="#263238"/></g><g transform="translate(135.102 142.558)"><path d="M178.043,338.2l.921,1.535a10.594,10.594,0,0,0,4.361,4.023l1.535.8-1.535.921a10.749,10.749,0,0,0-4.023,4.361l-.8,1.612-.921-1.535a10.594,10.594,0,0,0-4.361-4.023l-1.612-.8,1.535-.921a10.488,10.488,0,0,0,4.023-4.361Z" transform="translate(-86.471 19.861)" fill="#ff725e"/><path d="M122.609,131.93l.921,1.535a10.564,10.564,0,0,0,4.361,4.007l1.535.8-1.535.937a10.41,10.41,0,0,0-4.023,4.361l-.8,1.535-.921-1.535a10.533,10.533,0,0,0-4.376-4.023l-1.612-.8,1.535-.921a10.748,10.748,0,0,0,4.023-4.376Z" transform="translate(-116.16 -90.581)" fill="#ff725e"/><path d="M379.157,167.52l.921,1.535a10.533,10.533,0,0,0,4.376,4.023l1.612.8-1.535.921a10.594,10.594,0,0,0-4.007,4.376l-.8,1.535-.937-1.535a10.471,10.471,0,0,0-4.361-4.007L372.8,174.4l1.535-.937a10.41,10.41,0,0,0,4.023-4.361Z" transform="translate(21.252 -71.525)" fill="#ff725e"/><path d="M348.851,351.15l.921,1.535a10.594,10.594,0,0,0,4.376,4.007l1.612.8-1.535.937a10.61,10.61,0,0,0-4.023,4.361l-.783,1.612-.937-1.535a10.486,10.486,0,0,0-4.361-4.023l-1.612-.8,1.535-.921a10.533,10.533,0,0,0,4.023-4.376Z" transform="translate(5.034 26.795)" fill="#ff725e"/><path d="M352.5,389.74l.445.184a2.871,2.871,0,0,0,1.535.153l.476-.092-.184.445a2.87,2.87,0,0,0-.154,1.535l.092.476-.445-.184a2.886,2.886,0,0,0-1.535-.154l-.476.092.184-.445a2.871,2.871,0,0,0,.154-1.535Z" transform="translate(10.249 47.457)" fill="#ff725e"/><path d="M369.946,128.81l.43.184a2.917,2.917,0,0,0,1.535.154l.461-.092-.169.445a2.733,2.733,0,0,0-.154,1.535l.092.476-.445-.184a2.917,2.917,0,0,0-1.535-.154l-.461.092.169-.445a2.732,2.732,0,0,0,.154-1.535Z" transform="translate(19.592 -92.252)" fill="#ff725e"/><path d="M131.716,105l.445.169a2.733,2.733,0,0,0,1.535.154h.476l-.184.43a2.918,2.918,0,0,0-.154,1.535l.092.461-.445-.169a2.733,2.733,0,0,0-1.535-.154h-.476l.184-.43a2.917,2.917,0,0,0,.154-1.535Z" transform="translate(-107.963 -105)" fill="#ff725e"/><path d="M161.086,308.16l.445.169a2.61,2.61,0,0,0,1.535.153l.476-.077-.184.445a2.871,2.871,0,0,0-.154,1.535l.092.461-.445-.169a2.733,2.733,0,0,0-1.535-.154l-.476.092.184-.445a2.917,2.917,0,0,0,.154-1.535Z" transform="translate(-92.237 3.777)" fill="#ff725e"/><path d="M225.041,386.69l-.43.445-1.274,1.274-4.959,4.9-18.425,17.765v-.184c.967,19.27,2.2,45.372,3.485,74.545v.645l-.553-.353-6.648-4.453L154.1,453.066h-.092v-.092c-6.3-18.778-11.592-34.624-15.354-45.8-1.843-5.558-3.286-9.95-4.3-12.99l-1.105-3.455q-.184-.553-.276-.875a.681.681,0,0,0-.077-.307l.123.276.322.875c.276.814.676,1.95,1.2,3.424L139,407.065c3.808,11.163,9.213,26.962,15.569,45.71l-.123-.154,42.178,28.16,6.648,4.437-.522.292c-1.244-29.173-2.365-55.275-3.194-74.576v-.107h.077l18.548-17.6,5.052-4.744,1.32-1.213A2.716,2.716,0,0,1,225.041,386.69Z" transform="translate(-107.198 45.824)" fill="#ff725e"/><path d="M183.257,445.25l-.138,4.345,3.516,2.58-4.176,1.213-1.367,4.13-2.457-3.593-4.345-.015,2.672-3.439-1.336-4.146,4.1,1.474Z" transform="translate(-85.036 77.179)" fill="#ff725e"/><path d="M148.971,426.04l.092,2.81,2.365,1.535-2.656.937-.722,2.733-1.72-2.226-2.81.154,1.581-2.334-1.013-2.626,2.7.8Z" transform="translate(-101.511 66.893)" fill="#ff725e"/><path d="M134.265,385.11l2.119,2.733,3.455-.215L137.9,390.5l1.259,3.209-3.317-.952-2.672,2.2-.123-3.455-2.9-1.858,3.24-1.182Z" transform="translate(-108.669 44.978)" fill="#ff725e"/><path d="M192.955,383.34l2.134,2.718,3.439-.2-1.935,2.856,1.259,3.224-3.317-.967-2.672,2.2-.107-3.455-2.917-1.858,3.255-1.182Z" transform="translate(-77.245 44.03)" fill="#ff725e"/><path d="M177.041,400.48l1.351,1.75,2.2-.138-1.228,1.827.8,2.057-2.119-.614-1.7,1.4-.077-2.2-1.858-1.2,2.073-.752Z" transform="translate(-84.977 53.208)" fill="#ff725e"/></g><g transform="translate(95.656 126.93)"><circle cx="30.616" cy="30.616" r="30.616" transform="translate(19.624 291.959)" fill="#ff725e"/><g transform="translate(36.253 327.135)" opacity="0.3"><path d="M124.091,312.87a5.005,5.005,0,1,1-4.99-4.99,5.005,5.005,0,0,1,4.99,4.99Z" transform="translate(-114.08 -307.88)" fill="#fff"/></g><g transform="translate(33.366 314.821)" opacity="0.3"><path d="M118.035,302.762a2.917,2.917,0,1,1-2.917-2.9,2.917,2.917,0,0,1,2.917,2.9Z" transform="translate(-112.2 -299.86)" fill="#fff"/></g><path d="M111,326.53c.138.537-26.21,25.81-19.408,31.2s35.315-8.43,59.713-28.1,46.6-43.56,40.5-49.886-36.528,12.391-36.528,12.391l3.639,2.334s18.425-11.807,24.229-7.232-10.748,22.479-34.194,39.583-46.063,29.081-49.548,24.4,13.051-20.3,13.051-20.3Z" transform="translate(-90.469 3.492)" fill="#ff725e"/><g transform="translate(0 281.932)" opacity="0.3"><path d="M111,326.53c.138.537-26.21,25.81-19.408,31.2s35.315-8.43,59.713-28.1,46.6-43.56,40.5-49.886-36.528,12.391-36.528,12.391l3.639,2.334s18.425-11.807,24.229-7.232-10.748,22.479-34.194,39.583-46.063,29.081-49.548,24.4,13.051-20.3,13.051-20.3Z" transform="translate(-90.469 -278.44)"/></g><g transform="translate(21.876 300.98)" opacity="0.3"><path d="M116.207,290.868c.246.292-1.827,2.057-4.176,5.589a28.175,28.175,0,0,0-.614,30.97c2.211,3.639,4.207,5.482,3.946,5.758s-2.61-1.2-5.343-4.821a26.935,26.935,0,0,1,.66-32.889C113.55,291.973,116.069,290.653,116.207,290.868Z" transform="translate(-104.717 -290.845)" fill="#fff"/></g><circle cx="25.258" cy="25.258" r="25.258" transform="translate(351.978 35.002) rotate(-43.86)" fill="#ff725e"/><g transform="translate(395.925 22.047)" opacity="0.4"><path d="M348.33,113.2a4.1,4.1,0,1,1,1.135,2.941A4.115,4.115,0,0,1,348.33,113.2Z" transform="translate(-348.329 -109.181)"/></g><g transform="translate(404.155 33.317)" opacity="0.4"><path d="M353.69,118.884a2.4,2.4,0,1,1,.663,1.717,2.411,2.411,0,0,1-.663-1.717Z" transform="translate(-353.69 -116.52)"/></g><g transform="translate(400.041 43.05)" opacity="0.4"><path d="M351.916,122.86a.86.86,0,0,1,.86.891.906.906,0,0,1-.906.875.891.891,0,0,1-.86-.906.875.875,0,0,1,.906-.86Z" transform="translate(-351.01 -122.86)"/></g></g></g></svg>