<?xml version="1.0" encoding="utf-8"?>
<!-- Generator: Adobe Illustrator 22.1.0, SVG Export Plug-In . SVG Version: 6.00 Build 0)  -->
<svg version="1.1" id="Layer_1" xmlns="http://www.w3.org/2000/svg" xmlns:xlink="http://www.w3.org/1999/xlink" x="0px" y="0px"
	 viewBox="0 0 200 200" style="enable-background:new 0 0 200 200;" xml:space="preserve">
<style type="text/css">
	.st0{opacity:0.51;fill:#E2E2E2;enable-background:new    ;}
	.st1{fill:#F9A31E;}
	.st2{opacity:0.9;fill:#DBDDC7;enable-background:new    ;}
	.st3{opacity:0.9;fill:#DDDCC5;enable-background:new    ;}
	.st4{fill:none;}
	.st5{fill:#76BB43;}
	.st6{fill:#F58421;}
	.st7{fill:#E6AF73;}
	.st8{fill:#EAB776;}
	.st9{fill:#E1A369;}
	.st10{fill:#E9B69F;stroke:#06A5DA;stroke-width:0.7;stroke-miterlimit:10;}
	.st11{fill:#D9DCC7;}
	.st12{fill:#DDDCC5;}
	.st13{fill:#D48B71;}
	.st14{fill:#009FC4;}
	.st15{fill:#05809B;}
	.st16{fill:#09ACE3;}
	.st17{fill:#FFFFFF;}
	.st18{fill:#026D77;}
	.st19{fill:#048BA5;}
	.st20{fill:#009ECA;}
	.st21{fill:#E2A084;}
	.st22{fill:#629D43;}
	.st23{fill:#D7894E;}
	.st24{fill:#1F2223;}
	.st25{fill:#98C465;}
	.st26{fill:#444C52;}
	.st27{fill:#049CBF;}
	.st28{fill:#DD9E82;}
	.st29{fill:#D39471;}
	.st30{fill:#CD8A70;}
	.st31{fill:#BAD532;}
	.st32{fill:#F5B11A;}
	.st33{fill:#1A9649;stroke:#FFFFFF;stroke-width:1.39;stroke-miterlimit:10;}
	.st34{fill:#98C465;stroke:#FFFFFF;stroke-width:1.39;stroke-miterlimit:10;}
</style>
<title>Cycle copy 3</title>
<g>
	
		<ellipse id="Ellipse_120" transform="matrix(2.094442e-03 -1 1 2.094442e-03 -80.3372 269.9688)" class="st0" cx="95.1" cy="175.2" rx="3.3" ry="33.7"/>
	
		<ellipse id="Ellipse_120-2" transform="matrix(1.116986e-02 -0.9999 0.9999 1.116986e-02 -77.8651 271.9904)" class="st0" cx="98.6" cy="175.4" rx="5.8" ry="78.6"/>
	<path class="st1" d="M44.8,116.4c-1.2,0.8-2.2,1.8-3.1,2.9c-1.2,1.7-3.1,2.3-6.7,4.9c-1.9,1.4-3.4,3.2-4.3,5.4c0.3,0,0.6,0,0.9,0
		c0.3,0,0.6-0.1,0.9-0.2c1.1-1.6,2.5-3.1,4.2-4.1l0.5-0.3l-0.3-0.7l0.6-0.3l0.3,0.6l1.5-1l-0.2-0.6l0.4-0.2l0.2,0.6
		c0.4-0.3,0.9-0.5,1.4-0.8l-0.1-0.7l0.5-0.2l0.1,0.7c0.2-0.1,0.4,0,0.5,0.2c0.1,0.2,0.1,0.5,0.1,0.7c0.2-0.1,0.4-0.1,0.6-0.1
		l0.1-1.7c0.2-0.1,0.4-0.1,0.7,0l-0.2,1.7c0.4,0,0.8,0,1.1,0.1l0.4-1.8l0.7,0.2l-0.4,1.7c0.6,0.1,1,0.2,1,0.2
		c0.6-1.2,1.3-2.2,2.3-3.1C48,119.8,46,117.6,44.8,116.4z"/>
	<path class="st2" d="M35.1,124.2c3.6-2.7,5.5-3.3,6.7-4.9c0.9-1.1,1.9-2.1,3.1-2.9l-0.4-0.4c-1.3-1.2-3.1,1-4,2.4s-2.8,2.4-4.2,3.3
		c-2,1.4-3.8,3.2-5.3,5.2c-1.4,1.9-1.1,2.6-0.2,2.7C31.7,127.4,33.2,125.5,35.1,124.2z"/>
	<path class="st3" d="M37,124.2l0.7,1.8l0.6-0.5l-0.7-1.6L37,124.2z"/>
	<path class="st3" d="M39.1,122.9l0.5,1.7l0.5-0.3l-0.6-1.6L39.1,122.9z"/>
	<path class="st3" d="M41,121.8l0.3,1.8c0.2-0.1,0.4-0.2,0.6-0.3l-0.4-1.7L41,121.8z"/>
	<path class="st3" d="M43,121.4l-0.1,1.7c0.2,0,0.4,0,0.5,0l0.2-1.7C43.4,121.3,43.2,121.3,43,121.4z"/>
	<path class="st3" d="M44.9,121.3l-0.4,1.8l0.6,0.1l0.4-1.7L44.9,121.3z"/>
	<path class="st4" d="M39.5,122.6l-0.4,0.2l0.2,0.6l0.4-0.3L39.5,122.6z"/>
	<path class="st4" d="M41.5,121.6l-0.5,0.2l0.1,0.7c0.2-0.1,0.4-0.1,0.6-0.2L41.5,121.6z"/>
	<path class="st4" d="M37.6,123.9l-0.6,0.3l0.3,0.7l0.6-0.4L37.6,123.9z"/>
	<path class="st1" d="M39.6,124.5l-0.3-1l-1.5,1l0.5,1C38.7,125.2,39.2,124.8,39.6,124.5z"/>
	<path class="st1" d="M42.2,122.5c-0.1-0.2-0.3-0.2-0.5-0.2l0.2,1l0.3-0.1h0.1C42.3,123,42.3,122.7,42.2,122.5z"/>
	<path class="st1" d="M41.3,123.6l-0.2-1.1c-0.5,0.2-0.9,0.5-1.4,0.8l0.4,1C40.5,124,40.9,123.8,41.3,123.6z"/>
	<path class="st1" d="M37.7,125.9l-0.4-1.1l-0.5,0.3c-1.7,1.1-3.1,2.5-4.2,4.1c1.7-0.9,3.4-1.9,4.8-3.2L37.7,125.9z"/>
	<path class="st5" d="M79.9,117.5c0,0,0,0.3,0,0.3c-0.7,7.3-4.4,10-5.5,11.4c-1.1,1.4-0.8,2.4-1,3.2c-0.1,0.5-0.5,0.9-0.9,0.9
		c-0.2-0.4-0.7-0.7-1.2-0.7c-0.6,0.1-1.1,0.4-1.4,0.9c-2.5-1.6-5.2-3-7.9-4.3c-1.3-0.7-2.6-1.4-3.8-2.3c-1.7-1.1-8.4-7.5-8.9-7.8
		s-1,0.5-1,0.5l-0.6,0.7c-0.9,0.9-1.5,2-2,3.1c0,0.3,0.2,0.5,0.4,0.7c0.6,0.5,6.9,5.7,8.2,6.4s2.7,2.7,3.9,4.1s5,2.6,9.8,6.4
		s7.5,0.9,9.5-1.5c1.5-1.8,7.9-10.1,11-14.1l0,0l1.7-2.1C85.9,121,79.9,117.5,79.9,117.5z"/>
	<path class="st6" d="M78.6,65.2c-1.1,4.6,0.4,9.5,4.1,12.6c1.7-0.7,2.7-2.5,2.5-4.3C84.9,70.1,80.3,65.4,78.6,65.2z"/>
	<path class="st7" d="M58.2,97.1c-0.7-0.6-0.9-1.5-0.6-2.3c0.3-0.7,0.6-1.5,0.9-2.2c0,0-2.9,2.1-0.8,4.3C58,96.8,58,97,58.2,97.1z"
		/>
	<path class="st8" d="M83.6,71.5l-0.1-2.9c-0.6-0.6-0.8-0.4-1.4,0c-1.5,0.9-3.2,1.6-4.9,2.2c-1.3,0.4-2.5,1.1-3.4,2.1
		c-1,1.1-2,2.1-3.1,3c-1.2,1.1-7.8,6.3-8.5,6.8c-0.4,0.3-0.7,0.6-1,0.9c-0.6,0.5-1.1,1-1.5,1.6c0,0-2.8,1.8-3.2,2.2
		c-0.4,0.3-0.7,0.8-0.7,1.3c0,0.6-0.5,3-0.5,3.9c0,0.3-0.1,0.7-0.2,1l0,0L54.9,94l0,0c-0.1,0.2-0.2,0.4-0.2,0.5
		c0,0.1-0.1,0.2-0.1,0.3c0,0,0,0.1,0,0.1c0,0.6,0.3,1.2,0.8,1.6c0.1,0.1,0.2,0.1,0.3,0.2l0,0l0.2,0.1l0,0l0.2,0.1h0.1h0.1h0.1h0.1
		h0.1h0.4L57,97h0.1l0.2-0.1l0.3-0.1c-2-2.1,0.8-4.3,0.8-4.3c0.2-0.4,0.3-0.9,0.4-1.3c-0.1,1-0.2,2-0.5,2.9
		c-0.4,1.3,0.1,2.6,1.1,3.4c0.2,0.1,0.4,0,0.6-0.1c0.5-0.3,0-1-0.1-1.7c-0.3-1.5,0-3.1,0.8-4.4c0.5-0.8,0.8-1.4,1-1.8l0,0
		c0.3-0.4,0.4-0.9,0.3-1.4c0-0.6-0.2-1.2-0.4-1.8c0,0,4.8-3.4,6.5-4.2c1.1-0.5,3.2-1.2,5.1-2c1-0.4,1.9-0.9,2.8-1.4
		c2-1.4,8-4.8,8-4.8L83.6,71.5z"/>
	<path class="st9" d="M58.3,94.2c0.3-0.9,0.5-1.9,0.5-2.9c-0.1,0.5-0.2,0.9-0.4,1.3l0,0c-0.3,0.7-0.6,1.5-0.9,2.2
		c-0.3,0.8,0,1.7,0.6,2.3c0.2,0.1,0.5,0.3,0.8,0.4c-0.3-0.3-0.6-0.7-0.6-0.7s0.3,0.3,0.6,0.7c0.1,0.1,0.3,0.1,0.4,0.1
		C58.4,96.8,57.9,95.5,58.3,94.2z"/>
	<path class="st6" d="M125,27.9c-1.3,1.1-2.8,1.9-4.4,2.5c0.5,1.5,0.9,2.6,0.9,2.6c16.1-4.3,17.8-12.9,17.9-13.4
		C135.2,19.5,131.2,22.5,125,27.9z"/>
	<path class="st10" d="M112.4,60.6L112.4,60.6L112.4,60.6z"/>
	<path class="st11" d="M142.2,166.3c-0.9,0.9-1.9,1.7-3,2.3c-4.4,2.6-8,1.9-9.6,2.9c-1.7,0.8-3.4,1.5-5.1,2.1
		c0.9,2.3,2.1,1.4,3.2,0.7c1.3-0.8,2.3-1.4,7.9-2.8s7.2-4.4,7.2-4.4C142.7,166.9,142.6,166.5,142.2,166.3z"/>
	<path class="st12" d="M134.1,169.3l0.6-0.1l-0.1-2l-0.7,0.2L134.1,169.3z"/>
	<path class="st12" d="M131.8,169.8l0.4-0.1l0.1-1.9l-0.5,0.1L131.8,169.8z"/>
	<path class="st12" d="M129.8,168.2l-0.3,1.9h0.6l0.4-1.9H129.8z"/>
	<path class="st12" d="M127.5,169.6c0.2,0.2,0.4,0.2,0.6,0.2l0.8-1.7c-0.2,0-0.4,0-0.5-0.1L127.5,169.6z"/>
	<path class="st12" d="M126.3,169.2l0.9-1.5c-0.2-0.1-0.4-0.1-0.6-0.2l-0.9,1.3L126.3,169.2z"/>
	<path class="st4" d="M129.7,169.2l-0.1,0.9h0.6l0.2-0.9C130.1,169.2,129.9,169.2,129.7,169.2z"/>
	<path class="st4" d="M131.8,169.8l0.4-0.1V169l-0.5,0.1L131.8,169.8z"/>
	<path class="st4" d="M134.1,169.3l0.6-0.1v-0.7l-0.7,0.2L134.1,169.3z"/>
	<path class="st1" d="M140.3,165.9c-0.8,1-3.1,1.9-5.7,2.6v0.7l-0.6,0.1l-0.1-0.6c-0.6,0.1-1.1,0.2-1.7,0.3v0.7l-0.4,0.1v-0.8
		l-0.5,0.1c-0.4,0-0.7,0.1-1,0.1l-0.2,0.9h-0.6l0.1-0.9c-1.2-0.1-1-0.7-0.8-1.1l0,0l-0.8,1.7c-0.2,0-0.5,0-0.6-0.2l0.8-1.6
		c-0.4-0.1-0.8-0.2-1.2-0.3l-0.9,1.5l-0.6-0.4l0.9-1.3c-0.4-0.2-0.7-0.4-1-0.8c-0.7,0.6-1.5,1-2.3,1.3c0,0.1-0.4,0.3-1,0.3
		c0.9,1.3,1.5,2.7,1.8,4.2c0.1,0.4,0.2,0.8,0.3,1.2c1.8-0.6,3.5-1.3,5.1-2.1c1.6-1,5.3-0.3,9.6-2.9c1.1-0.6,2.1-1.4,3-2.3
		C141.6,166,141,165.9,140.3,165.9z"/>
	<path class="st1" d="M132.4,167.9l-0.1,1.1c0.6-0.1,1.1-0.2,1.7-0.3l-0.1-1.2L132.4,167.9z"/>
	<path class="st1" d="M130.7,168.2h-0.3l-0.2,1c0.3,0,0.6,0,1-0.1l0.5-0.1v-1C131.4,168.1,131,168.2,130.7,168.2z"/>
	<path class="st1" d="M129.7,169.2l0.1-1c-0.3,0-0.6,0-0.9-0.1C128.7,168.5,128.5,169.1,129.7,169.2z"/>
	<path class="st1" d="M134.6,167.2v1.3c2.5-0.6,4.9-1.6,5.7-2.6H140C138.2,166.2,136.4,166.7,134.6,167.2z"/>
	<path class="st4" d="M83.2,73.6c-0.1-0.4-0.3-0.8-0.4-1.3C83,72.7,83.1,73.2,83.2,73.6z"/>
	<path class="st4" d="M82.8,72.2l-0.1-0.3L82.8,72.2z"/>
	<path class="st4" d="M79.3,65.8l0.2,0.2L79.3,65.8z"/>
	<path class="st4" d="M83.3,73.9l-0.1-0.3L83.3,73.9z"/>
	<path class="st4" d="M82.6,71.8l-0.1-0.3L82.6,71.8z"/>
	<path class="st4" d="M89.1,73.9L89.1,73.9z"/>
	<path class="st4" d="M82.3,71c0-0.1-0.1-0.2-0.1-0.3C82.3,70.8,82.3,70.9,82.3,71z"/>
	<path class="st4" d="M82.2,70.6c0-0.1-0.1-0.2-0.1-0.3C82.1,70.4,82.1,70.5,82.2,70.6z"/>
	<path class="st4" d="M82,70.2c0-0.1-0.1-0.2-0.1-0.3C81.9,70,82,70.1,82,70.2z"/>
	<path class="st4" d="M80,82.1c-0.2,0.2-0.4,0.5-0.6,0.7C79.6,82.5,79.8,82.3,80,82.1z"/>
	<path class="st4" d="M82.5,71.4l-0.1-0.3L82.5,71.4z"/>
	<path class="st4" d="M83.7,75.3c0-0.2-0.2-0.7-0.4-1.4c0,0.1,0.1,0.2,0.1,0.3c0.1,0.2,0.1,0.4,0.2,0.6S83.7,75.2,83.7,75.3z"/>
	<path class="st4" d="M88,74.1h0.2H88z"/>
	<path class="st4" d="M75.8,102.5l-0.2-0.2L75.8,102.5z"/>
	<path class="st4" d="M81.1,105.1L81.1,105.1C81.1,105.1,81.1,105.1,81.1,105.1z"/>
	<path class="st4" d="M80.8,105.2l0.2,0.1c-1.8-0.7-3.6-1.6-5.2-2.8C77.4,103.6,79,104.5,80.8,105.2z"/>
	<path class="st4" d="M88.5,74h0.2H88.5z"/>
	<path class="st4" d="M94.8,73.7L94.8,73.7z"/>
	<path class="st4" d="M80.2,66.8c-0.1-0.1-0.2-0.2-0.3-0.4C80.1,66.6,80.1,66.7,80.2,66.8z"/>
	<path class="st4" d="M91.2,73.7L91.2,73.7z"/>
	<path class="st4" d="M93.8,73.6L93.8,73.6z"/>
	<path class="st4" d="M94.2,73.6L94.2,73.6z"/>
	<path class="st4" d="M80.5,67.3L80.3,67L80.5,67.3z"/>
	<path class="st4" d="M94.5,73.6L94.5,73.6z"/>
	<path class="st4" d="M93,73.6L93,73.6z"/>
	<path class="st4" d="M79.9,66.5c-0.1-0.1-0.2-0.2-0.3-0.3C79.7,66.2,79.8,66.3,79.9,66.5z"/>
	<path class="st4" d="M92.6,73.6L92.6,73.6z"/>
	<path class="st4" d="M79.2,65.8L79,65.6L79.2,65.8z"/>
	<path class="st4" d="M90.7,73.7h0.1H90.7z"/>
	<path class="st4" d="M93.4,73.6L93.4,73.6z"/>
	<path class="st4" d="M95.4,73.7h0.3H95.4z"/>
	<path class="st4" d="M81.5,69l-0.3-0.7L81.5,69z"/>
	<path class="st4" d="M95.7,73.8L95.7,73.8z"/>
	<path class="st4" d="M81.7,69.4l-0.1-0.3L81.7,69.4z"/>
	<path class="st4" d="M81.8,69.8c0-0.1-0.1-0.2-0.1-0.3C81.8,69.6,81.8,69.7,81.8,69.8z"/>
	<path class="st4" d="M95.9,73.8c0.1,0,0.3,0,0.4,0.1C96.2,73.8,96,73.8,95.9,73.8z"/>
	<path class="st4" d="M80.8,67.8l-0.2-0.4L80.8,67.8z"/>
	<path class="st4" d="M81.1,68.3l-0.3-0.5L81.1,68.3z"/>
	<path class="st4" d="M95,73.7L95,73.7z"/>
	<path class="st4" d="M90.2,73.8L90.2,73.8z"/>
	<path class="st4" d="M95.3,73.7L95.3,73.7z"/>
	<path class="st4" d="M105.6,62.8L105.6,62.8z"/>
	<path class="st4" d="M105.5,81l-0.2,0.3L105.5,81z"/>
	<path class="st4" d="M105.6,63L105.6,63L105.6,63z"/>
	<path class="st4" d="M105.8,80.6l-0.2,0.3C105.6,80.8,105.7,80.7,105.8,80.6z"/>
	<path class="st4" d="M91.7,73.6L91.7,73.6z"/>
	<path class="st4" d="M84.3,75.2l0.2-0.1L84.3,75.2z"/>
	<path class="st4" d="M105.5,63.1L105.5,63.1L105.5,63.1z"/>
	<path class="st4" d="M105,81.7L105,81.7c0.1-0.1,0.2-0.2,0.3-0.3C105.2,81.5,105.1,81.6,105,81.7z"/>
	<path class="st4" d="M75.4,102.2l0.2,0.2L75.4,102.2z"/>
	<path class="st4" d="M106.1,64.9l-0.1-0.1L106.1,64.9z"/>
	<path class="st4" d="M86.1,74.6h0.2H86.1z"/>
	<path class="st4" d="M106.3,65.2l-0.2-0.2L106.3,65.2z"/>
	<path class="st4" d="M105.5,63.3L105.5,63.3z"/>
	<path class="st4" d="M105.7,62.7L105.7,62.7z"/>
	<path class="st4" d="M105.9,64.7c0,0-0.1-0.1-0.1-0.1C105.9,64.7,105.9,64.7,105.9,64.7z"/>
	<path class="st4" d="M96.3,73.8L96.3,73.8z"/>
	<path class="st4" d="M105.6,64.2L105.6,64.2L105.6,64.2z"/>
	<path class="st4" d="M105.8,64.6L105.8,64.6L105.8,64.6z"/>
	<path class="st4" d="M105.6,64C105.6,64,105.6,63.9,105.6,64C105.6,63.9,105.6,64,105.6,64z"/>
	<path class="st4" d="M105.7,64.4C105.7,64.3,105.7,64.3,105.7,64.4C105.7,64.3,105.7,64.3,105.7,64.4z"/>
	<path class="st4" d="M87.4,74.2h0.2H87.4z"/>
	<path class="st4" d="M84.9,74.9l0.2-0.1L84.9,74.9z"/>
	<path class="st4" d="M85.5,74.8l0.2-0.1L85.5,74.8z"/>
	<path class="st4" d="M146.8,73.3c0.1,0,0.3,0.1,0.4,0.1C147.1,73.3,147,73.3,146.8,73.3z"/>
	<path class="st4" d="M105.5,63.5L105.5,63.5z"/>
	<path class="st4" d="M83.7,75.3L83.7,75.3z"/>
	<path class="st4" d="M78.6,65.3c0.1,0.1,0.2,0.1,0.3,0.2C78.8,65.5,78.7,65.4,78.6,65.3z"/>
	<path class="st4" d="M105.5,63.7L105.5,63.7z"/>
	<path class="st13" d="M106.1,62c-0.1,0.1-0.2,0.3-0.3,0.5h0.1L106.1,62z"/>
	<polygon class="st14" points="95.9,73.8 95.9,73.8 95.9,73.8 	"/>
	<path class="st14" d="M105.5,63.2c0,0,0-0.1,0-0.1C105.5,63.2,105.5,63.2,105.5,63.2z"/>
	<path class="st14" d="M105.5,63.4c0,0,0-0.1,0-0.1C105.5,63.3,105.5,63.4,105.5,63.4z"/>
	<path class="st14" d="M105.6,63.1V63V63.1z"/>
	<path class="st14" d="M105.5,63.6L105.5,63.6z"/>
	<path class="st14" d="M105.6,62.9C105.6,62.9,105.6,62.9,105.6,62.9C105.6,62.9,105.6,62.9,105.6,62.9z"/>
	<path class="st14" d="M105.8,62.5l-0.1,0.1L105.8,62.5z"/>
	<path class="st14" d="M105.7,62.8L105.7,62.8L105.7,62.8z"/>
	<path class="st14" d="M105.5,63.7c0,0.1,0,0.1,0,0.2l0,0C105.5,63.8,105.5,63.7,105.5,63.7z"/>
	<polygon class="st15" points="95.9,73.8 95.9,73.8 95.9,73.8 	"/>
	<path class="st16" d="M104.9,81.8L104.9,81.8L104.9,81.8L104.9,81.8z"/>
	<path class="st4" d="M90.1,123.4c0.6,0.3,1.2,0.6,1.7,0.8l-1.6-0.9L90.1,123.4z"/>
	<path class="st17" d="M92.9,124.8c-0.3-0.3-0.7-0.5-1.2-0.7L92.9,124.8z"/>
	<path class="st4" d="M81.1,105.3l0.2,0.1l0,0L81.1,105.3z"/>
	<path class="st4" d="M84.1,106.4H84l0,0H84.1z"/>
	<path class="st18" d="M83.7,75.3L83.7,75.3z"/>
	<path class="st18" d="M83.7,75.4L83.7,75.4z"/>
	<path class="st18" d="M80.9,67.8C80.9,67.8,80.9,67.8,80.9,67.8L80.9,67.8z"/>
	<path class="st18" d="M79,65.6L79,65.6L79,65.6z"/>
	<path class="st18" d="M80,66.5L80,66.5z"/>
	<path class="st18" d="M80.3,67L80.3,67L80.3,67z"/>
	<path class="st18" d="M79.6,66.1L79.6,66.1L79.6,66.1z"/>
	<path class="st18" d="M80.6,67.4l-0.1-0.1L80.6,67.4z"/>
	<path class="st18" d="M79.2,65.8l0.1,0.1L79.2,65.8z"/>
	<polygon class="st18" points="81.1,68.3 81.1,68.3 81.1,68.3 	"/>
	<path class="st19" d="M83.7,75.4l0.6-0.2L83.7,75.4z"/>
	<path class="st19" d="M88.7,74l0.4-0.1L88.7,74z"/>
	<path class="st19" d="M94.6,73.6L94.6,73.6z"/>
	<path class="st19" d="M94.9,73.7L94.9,73.7z"/>
	<path class="st19" d="M94.2,73.6h0.3H94.2z"/>
	<path class="st19" d="M95.1,73.7L95.1,73.7z"/>
	<path class="st19" d="M93.8,73.6L93.8,73.6z"/>
	<path class="st19" d="M93.5,73.6L93.5,73.6z"/>
	<path class="st19" d="M93.1,73.6L93.1,73.6z"/>
	<polygon class="st19" points="95.9,73.8 95.9,73.8 95.9,73.8 	"/>
	<path class="st19" d="M84.5,75.1l0.4-0.2L84.5,75.1z"/>
	<path class="st19" d="M96.3,73.8"/>
	<path class="st19" d="M95.3,73.7L95.3,73.7z"/>
	<path class="st19" d="M95.7,73.7L95.7,73.7z"/>
	<path class="st19" d="M95.9,73.8L95.9,73.8z"/>
	<path class="st19" d="M85.7,74.7l0.4-0.1L85.7,74.7z"/>
	<path class="st19" d="M88.1,74.1l0.4-0.1L88.1,74.1z"/>
	<path class="st19" d="M85.1,74.9l0.4-0.1L85.1,74.9z"/>
	<path class="st19" d="M92.7,73.6L92.7,73.6z"/>
	<path class="st19" d="M87.6,74.2l0.4-0.1L87.6,74.2z"/>
	<path class="st19" d="M90.3,73.8h0.4H90.3z"/>
	<path class="st19" d="M91.3,73.7h0.4H91.3z"/>
	<path class="st19" d="M91.7,73.6h0.9H91.7z"/>
	<path class="st19" d="M86.3,74.5c0.4-0.1,0.8-0.2,1.1-0.3C87,74.3,86.7,74.4,86.3,74.5z"/>
	<path class="st19" d="M90.8,73.7h0.4H90.8z"/>
	<path class="st19" d="M89.2,73.9c0.3-0.1,0.7-0.1,1-0.1C89.9,73.8,89.5,73.8,89.2,73.9z"/>
	<path class="st19" d="M96.3,73.8l-0.5,0.1L96.3,73.8z"/>
	<path class="st15" d="M94.8,74.1l1-0.3l0,0C95.5,73.8,95.1,73.9,94.8,74.1z"/>
	<polygon class="st15" points="95.9,73.8 95.9,73.8 95.9,73.8 95.9,73.8 	"/>
	<polygon class="st15" points="95.9,73.8 95.9,73.8 95.9,73.8 95.9,73.8 	"/>
	<path class="st16" d="M105.7,64.4L105.7,64.4L105.7,64.4z"/>
	<path class="st16" d="M105.5,63.8C105.5,63.9,105.5,63.9,105.5,63.8C105.5,63.9,105.5,63.9,105.5,63.8z"/>
	<path class="st16" d="M105.8,64.6C105.8,64.6,105.8,64.6,105.8,64.6C105.8,64.6,105.8,64.6,105.8,64.6z"/>
	<path class="st16" d="M105.7,64.3L105.7,64.3L105.7,64.3z"/>
	<path class="st16" d="M106,64.8L106,64.8L106,64.8z"/>
	<path class="st16" d="M105.6,64.1C105.6,64.1,105.6,64,105.6,64.1C105.6,64,105.6,64.1,105.6,64.1z"/>
	<path class="st16" d="M106.1,65L106.1,65L106.1,65z"/>
	<path class="st16" d="M105.6,80.9c0,0,0,0.1-0.1,0.1C105.5,81,105.6,80.9,105.6,80.9z"/>
	<path class="st16" d="M105.3,81.3L105.3,81.3L105.3,81.3z"/>
	<path class="st16" d="M105.8,80.5L105.8,80.5L105.8,80.5z"/>
	<path class="st16" d="M94,74.3l1.7-0.3h0.2C95.5,74,94.7,74.1,94,74.3z"/>
	<path class="st16" d="M95.7,74l0.6-0.1L95.9,74L95.7,74z"/>
	<path class="st20" d="M94,74.3h-0.4h-0.1C93.6,74.2,93.8,74.2,94,74.3z"/>
	<path class="st1" d="M109.3,64.8c-0.4,0.5-0.8,1.2-1.5,1.1c-0.6-0.1-1.1-0.3-1.4-0.8l-0.2-0.2l-0.1-0.1l-0.1-0.1l-0.1-0.1
		c0,0-0.1-0.1-0.1-0.1c0,0,0-0.1,0-0.1l-0.1-0.1v-0.1c0,0,0-0.1,0-0.1v-0.1v-0.1c0,0,0-0.1,0-0.1c0,0,0-0.1,0-0.1c0,0,0-0.1,0-0.1
		l-3.9,1.9c0,0,0.7,4.8-5.3,8.1L96,73.9l-1.7,0.3c-0.2,0-0.4,0-0.5,0.1c-0.5,0.1-1,0.2-1.5,0.4c-3.2,0.8-6.3,1.8-9.3,3.1l-0.3,0.4
		c-1.2,1.4-2.2,2.9-3,4.6c-0.3,0.6-0.6,1.2-0.8,1.8c-1.5,3.4-3.7,14.7-3.8,19.6c1.7,1.1,3.6,2,5.6,2.6c1.1,0.4,2.2,0.7,3.3,0.9H84
		h0.2l0.5,0.1L85,108l0.5,0.1l0.3,0.1l0.5,0.1l0.3,0.1l0.5,0.1l0.4,0.1l0.5,0.1l0.4,0.1l0.5,0.1l0.5,0.1l0.4,0.1l0.5,0.1l0.4,0.1
		l0.6,0.1h0.4l0.7,0.1h0.3l1.1,0.1l1.6-0.1c-1.4-10.9,4.8-22,5.7-22.8c0.7-0.7,3.1-3.5,3.9-4.4l0.1-0.1c0.1-0.1,0.2-0.2,0.3-0.3
		l0.1-0.1l0.2-0.3c0,0,0.1-0.1,0.1-0.1l0.2-0.3l0.1-0.1c2.5-4.1,4.1-11.8,4.1-11.8C109.8,68.2,109.3,64.8,109.3,64.8z"/>
	<path class="st20" d="M75.8,102.5L75.8,102.5z"/>
	<path class="st20" d="M75.6,102.3L75.6,102.3z"/>
	<path class="st5" d="M123.3,168c-0.1-2-5.4-10.4-6.4-12.1C117.8,157.5,122.9,165.6,123.3,168z"/>
	<path class="st21" d="M82.6,71.6l-0.1-0.2L82.6,71.6z"/>
	<path class="st21" d="M82.7,71.9v-0.1V71.9z"/>
	<path class="st21" d="M82.4,71.2L82.3,71L82.4,71.2z"/>
	<path class="st21" d="M82.8,72.3C82.8,72.3,82.8,72.2,82.8,72.3C82.8,72.2,82.8,72.3,82.8,72.3z"/>
	<path class="st21" d="M81.1,68.3L81.1,68.3L81.1,68.3z"/>
	<path class="st21" d="M83.2,73.6L83.2,73.6z"/>
	<path class="st21" d="M81.7,69.5l-0.1-0.1L81.7,69.5z"/>
	<path class="st21" d="M81.9,69.9c0-0.1,0-0.1-0.1-0.2C81.9,69.8,81.9,69.9,81.9,69.9z"/>
	<path class="st21" d="M82.2,70.7l-0.1-0.2L82.2,70.7z"/>
	<path class="st21" d="M82.1,70.3L82,70.2L82.1,70.3z"/>
	<path class="st21" d="M81.5,69.1L81.5,69.1z"/>
	<path class="st21" d="M83.3,73.9L83.3,73.9z"/>
	<path class="st21" d="M81.3,105.4L81.3,105.4z"/>
	<polygon class="st21" points="84,106.3 84,106.3 84,106.3 	"/>
	<path class="st21" d="M81.3,105.4c0.1,0.2,0.2,0.3,0.3,0.5L81.3,105.4L81.3,105.4z"/>
	<path class="st22" d="M93,24c0.2-0.1,0.4-0.2,0.6-0.3c-0.3,0-0.5,0-0.8,0L93,24z"/>
	<path class="st1" d="M78.6,65.3L78.6,65.3c0,0,0-0.1,0-0.2S78.6,65.3,78.6,65.3z"/>
	<path class="st1" d="M83.7,75.4l0.2-0.1L83.7,75.4L83.7,75.4z"/>
	<path class="st1" d="M99.8,63.9c-5.6-0.8-11.3-0.7-16.9,0.3c-1.5,0.3-2.9,0.6-4.3,1c0,0,0,0.1,0,0.2c0.1,0,0.2,0.1,0.3,0.2l0.1,0.1
		l0.2,0.2l0.1,0.1l0.2,0.2l0.1,0.1c0.1,0.1,0.2,0.2,0.3,0.3l0,0c0.1,0.1,0.2,0.2,0.3,0.4l0.1,0.1l0.2,0.3l0.1,0.1l0.2,0.4
		c0,0,0,0,0,0.1l0.3,0.5l0,0l0,0l0.3,0.7l0,0l0.1,0.3l0.1,0.1c0,0.1,0.1,0.2,0.1,0.3c0,0,0.1,0.1,0.1,0.2c0,0.1,0.1,0.2,0.1,0.3
		l0.1,0.2c0,0.1,0.1,0.2,0.1,0.3l0.1,0.2c0,0.1,0.1,0.2,0.1,0.3l0.1,0.2l0.1,0.3l0.1,0.2l0.1,0.3v0.1l0.1,0.3c0,0,0,0,0,0.1
		c0.2,0.5,0.3,0.9,0.4,1.3l0,0l0.1,0.3l0,0c0.2,0.8,0.3,1.3,0.4,1.4l0,0c0.1,0.9-0.3,1.7-1,2.3l0,0c0,0,0,0.1-0.1,0.2
		c3-1.3,6.1-2.3,9.3-3.1c0.5-0.2,1-0.3,1.5-0.4h0.1c0.1,0,0.3-0.1,0.4-0.1l1.9-0.3l0.5-0.1c6-3.2,5.3-8.1,5.3-8.1l3.9-1.9
		c0-0.1,0-0.1,0-0.2v-0.2c0,0,0-0.1,0-0.1V63c0,0,0-0.1,0-0.1v0v-0.1l0,0c0,0,0-0.1,0-0.1l0,0v-0.1l0,0l0.1-0.1
		C104.4,62.3,99.8,63.9,99.8,63.9z M96.1,73.8h0.2H96.1z M96,73.8L96,73.8z"/>
	<path class="st23" d="M111.5,61.8l0.9-1.3c-1.4-1-2.6-2.1-3.7-3.5l-0.5,0.9C108.7,59.8,109.9,61.2,111.5,61.8z"/>
	<path class="st8" d="M108.3,58.1l-1.3,2.5l-0.8,1.5l-0.3,0.5h-0.1l-0.1,0.1l0,0v0.1l0,0c0,0,0,0.1,0,0.1l0,0v0.1v0c0,0,0,0.1,0,0.1
		v0.1c0,0,0,0.1,0,0.1v0.2c0,0.1,0,0.1,0,0.2c0,0,0,0.1,0,0.1c0,0,0,0.1,0,0.1c0,0,0,0.1,0,0.1V64v0.1c0,0,0,0.1,0,0.1v0.1l0.1,0.1
		c0,0,0,0.1,0,0.1c0,0,0.1,0.1,0.1,0.1l0.1,0.1l0.1,0.1l0.1,0.1l0.2,0.2c1.7,1.5,2.4,0.4,3-0.4l1.1-1.4l1.1-1.5
		C109.9,61,108.7,59.7,108.3,58.1z"/>
	<path class="st23" d="M119.3,50c1.6,2.6,4.1,4.6,6.9,5.6c0.3-0.5,0.6-0.9,0.8-1.4C126.1,53.9,121.3,52.5,119.3,50z"/>
	<path class="st24" d="M104.5,51c0.3,1,0.8,2,1.4,2.9c1.8,0.3,1.4-1,0.7-2.3c-0.1-0.2-0.2-0.5-0.2-0.7c-0.2,0-0.4-0.2-0.6-0.1
		C105.4,50.9,104.9,51,104.5,51z"/>
	<path class="st24" d="M109.5,31.7c0-0.3,0-1,0-1.5l-1-0.1c-0.8,0-1.2-0.1-1.2-0.1c-7.2,5-8.8,7.2-8.8,7.2c0.1,0.2,2.6,5.1,3.1,6.1
		c1.6-0.6,3.5,0.1,4.3,1.7c0.7,1,1.3,2.2,1.7,3.4c0.2-0.2,0.4-0.4,0.5-0.7c0.1-0.1,0.1-0.2,0.2-0.4c0.1-0.6-0.7-2.6-1.1-5.4
		s-0.1-2.9,0.4-4.2C108.3,35.7,108.9,33.7,109.5,31.7z"/>
	<path class="st8" d="M107.7,48.7c0-0.1-0.1-0.3-0.2-0.4c-0.4-1.2-1-2.4-1.7-3.4c-1.5-2.2-3.3-2-4.3-1.7c-0.2,0.1-1.8,0.8-1.7,3.7
		c0,1,0.5,2,1.3,2.7c0.7,0.5,1.5,0.9,2.3,1.1c1.3,0.4,2.8,0.4,4.1-0.1c0.4-0.1,0.6-0.5,0.6-0.9C107.9,49.4,107.8,49.1,107.7,48.7z"
		/>
	<path class="st9" d="M107,49c-0.6-1.6-1.6-3.5-3.5-3.7c-0.3-0.1-0.6-0.1-0.9,0c-0.8,0.4-1.3,1.3-1.2,2.3c0.2,1.1,0.9,2,2,2.3
		c0.3,0.1,0.7,0.3,1,0.4c0.6,0.2,1.1,0.2,1.7,0.1c0.3,0,0.6-0.1,0.8-0.3C107.1,49.7,107.2,49.3,107,49z"/>
	<path class="st8" d="M103,47.5c0,0,1.5-0.2,1.8,0.3s0,0.6-0.2,0.7s-0.4,0.3,0.2,0.7s1.7,0.6,1.7,0.2s-0.5-0.4-0.7-0.8
		c-0.1-0.2-0.2-0.5-0.1-0.8c0-0.2-0.8-0.9-1.3-1S103,47.5,103,47.5z"/>
	<line class="st4" x1="120.8" y1="31.6" x2="120.7" y2="31.6"/>
	<path class="st8" d="M132.5,43.5c-0.6-2.5-3.2-2-3.2-2c-0.3-4.8-1.3-9.4-2.8-13.9l0.2-0.2h-0.3l-0.8-2.9c-1.8,1.2-3.7,2.3-5.6,3.2
		l-1.7,0.1l-0.2,0.9c-1,0.5-2.2,1-3.4,1.6c-1.7,0.1-3.4,0.1-5.2,0.1c0,0.5,0,1.2,0,1.5c-0.2,0.9-0.5,1.8-0.8,2.6
		c-0.5,1-0.9,2-1.1,3.1c0,0.1-0.1,0.1-0.1,0.2c-0.5,1.3-0.8,1.4-0.4,4.2s1.2,4.8,1.1,5.4c-0.1,0.4-0.4,0.8-0.7,1.1l0,0
		c0.1,0.1,0.1,0.3,0.2,0.4c0.6,1.8-0.1,2-1.3,2.2c0,0.2,0.1,0.5,0.2,0.7c0.7,1.3,1.1,2.6-0.7,2.3c0.7,1.1,1.4,2.1,2.2,3.1l0,0
		c1,1.3,2.2,2.4,3.6,3.4l0,0h0.1c0.6,0.4,1.3,0.8,2,1.1c1.1,0.4,2.3,0.7,3.4,0.6c0.4,0,0.8-0.1,1.2-0.1l0,0l0.2-0.1
		c0.8-0.2,1.6-0.5,2.4-1c0.3-0.2,0.6-0.4,0.8-0.6c1.8-1.3,3.4-3,4.6-4.9c-2.9-1-5.3-2.9-7-5.5c2,2.6,6.8,4,7.8,4.2
		c1.2-2.3,2.1-4.7,2.6-7.2C129.6,47,133,45.9,132.5,43.5z"/>
	<path class="st25" d="M126.6,23c2.9-1.4,2.5-1,7-2.7c-3.8,1-7.5,2.1-11.2,3.5h-0.1c-0.1-0.2-0.2-0.4-0.3-0.6
		c-1.3,0.4-4,1.3-4.3,1.7S122.7,24.9,126.6,23z"/>
	<path class="st6" d="M126.6,23c2.9-1.4,2.5-1,7-2.7c-3.8,1-7.5,2.1-11.2,3.5h-0.1c-0.1-0.2-0.2-0.4-0.3-0.6c-1.3,0.4-4,1.3-4.3,1.7
		S122.7,24.9,126.6,23z"/>
	<path class="st1" d="M139.3,19.5c-0.6-0.1-1.2-0.1-1.7,0c-0.9,0-1.7,0.2-2.5,0.5c-0.4,0.1-0.9,0.2-1.4,0.4c-4.5,1.7-4.2,1.2-7,2.7
		c-3.9,1.9-9.2,2.5-8.8,2s3-1.3,4.3-1.7c-2.2-4.1-8.9-6.1-14.6-5.2c-1.8,0.3-3.4,1.1-4.9,2.2c-0.7,0.5-1.4,1.1-2,1.8
		c-1.9,1.8-3.5,4-4.7,6.4c-0.1,0.3-0.2,0.6-0.2,0.9c0,0.4,0.1,0.9,0.2,1.3c0.4,1.6,0.9,3.2,1.6,4.6c0.6,1.3,1.1,2.3,1.3,2.8l0,0
		c0,0,1.3-2.1,6.7-6.1c0.7-0.5,1.5-1.1,2.4-1.7c0,0,9,1.2,16.3-1.6C128,27.4,134.5,19.5,139.3,19.5L139.3,19.5z"/>
	<path class="st26" d="M127.6,38.2c0.1,1.1-0.4,2-1,2s-1.3-0.8-1.3-1.9s0.4-2,1-2S127.5,37.1,127.6,38.2z"/>
	<path class="st26" d="M122.9,39.2c0.1,1.3-0.5,2.4-1.3,2.4s-1.5-0.9-1.6-2.2s0.5-2.4,1.3-2.4S122.8,37.9,122.9,39.2z"/>
	<path class="st17" d="M126.7,38.6c0,0.5-0.2,0.9-0.5,1s-0.6-0.4-0.6-0.9s0.2-0.9,0.5-1S126.7,38.1,126.7,38.6z"/>
	<path class="st17" d="M121.7,39.5c0,0.6-0.2,1.1-0.6,1.2s-0.7-0.5-0.8-1.1s0.2-1.1,0.6-1.1S121.7,38.9,121.7,39.5z"/>
	<path class="st27" d="M120.3,85.9l-0.1,0.1l0,0L120.3,85.9L120.3,85.9z"/>
	<path class="st4" d="M120.2,86.1l0.1-0.1l0,0L120.2,86.1L120.2,86.1z"/>
	<path class="st8" d="M137.4,80.9c-0.3-0.4-0.5-0.8-0.7-1.2c-2.9,1-12.1,4.1-14.5,6.3c-0.3,0.4-0.8,0.6-1.3,0.5
		c-0.2,0-0.4-0.2-0.6-0.3l-0.1,0.1c-0.5,0.7-1.1,1.5-1.7,2.1c-0.6,0.7-1.3,1.4-2,2.1l-0.1,0.1c0.6,0.2,1.2,0.6,1.7,1l0.4,0.3
		c1.7,1.5,2.3,1.2,3.3,0.4s6.4-2.7,13.8-8.8c0.7-0.7,1.6-1.3,2.5-1.8L137.4,80.9z"/>
	<path class="st4" d="M141.8,84.1L141.8,84.1L141.8,84.1z"/>
	<path class="st4" d="M143,83.9c0.1,0.1,0.2,0.2,0.3,0.3C143.2,84.2,143.1,84.1,143,83.9z"/>
	<path class="st8" d="M141.7,83.4c0,0,0.2,0.5,0,0.6l1.5,0.2c-0.1-0.1-0.2-0.2-0.3-0.3c-0.2-0.3-0.3-0.9,0.5-1.2
		c-0.9-0.6-2.1-1.3-2.3-1.4C141.2,82.1,141.4,82.8,141.7,83.4z"/>
	<path class="st28" d="M143,83.9c-0.2-0.3-0.3-0.8,0.5-1.2C142.7,83.1,142.8,83.6,143,83.9z"/>
	<path class="st8" d="M144.8,84c0.1-0.3-0.4-0.7-1.3-1.3c-0.8,0.4-0.7,0.9-0.5,1.2c0.1,0.1,0.2,0.2,0.3,0.3l-1.5-0.2l-0.9,0.9
		c-0.3,0.3-0.4,0.7-0.2,1.1c0,0-0.9-0.3-1.3,0.1c-0.2,0.2-0.2,0.6,0,0.8c0,0,0,0,0,0c0,0-1.2-0.4-1.6,0c-0.2,0.2-0.3,0.5-0.3,0.8
		c0.3,0.1,0.5,0.2,0.8,0.2c1.7,0.2,0.8-0.7,1.5-0.8s1.1-0.1,1.4-0.8s0.5-0.4,1.3-0.6s0.6-0.9,0.7-1.2S144.6,84.7,144.8,84z"/>
	<path class="st7" d="M139.4,86.9c-0.2-0.2-0.3-0.5-0.1-0.8c0,0,0,0,0,0c0.4-0.4,1.3-0.1,1.3-0.1c-0.2-0.3-0.1-0.8,0.2-1.1l0.9-0.9
		h-0.1c-0.5,0.2-1.7-0.8-1.9-1.2v0.1c0,0.1,0.1,0.2,0.2,0.3c0.4,0.4,0.8,0.7,1.2,1l0,0c-0.3-0.2-2.2-1.2-2.6-0.7
		c-0.3,0.3-0.3,0.7-0.1,1.1c-1.1-0.3-1.1,0.6-1.1,0.6c-1.6,0-0.8,1.3-0.8,1.3l-1.3-1.6c-0.1,0.5-0.2,0.9-0.3,1.4
		c0.8,0.5,1.7,1,2.6,1.3c0-0.3,0.1-0.6,0.3-0.8C138.3,86.5,139.4,86.9,139.4,86.9z"/>
	<path class="st29" d="M138.1,80.9c-0.2-0.1-0.4-0.1-0.6-0.1c0,0.3,0,0.7,0,1c0.3,0.1,0.5,0.2,0.8,0.3l1.6,0.7
		C139.1,82.1,138.7,81.2,138.1,80.9z"/>
	<path class="st8" d="M141.2,84.2L141.2,84.2c-0.4-0.3-0.8-0.6-1.2-1c-0.1-0.1-0.1-0.2-0.2-0.3v-0.1l0,0c-0.2-0.5-0.2-1-0.1-1.5
		l-1.9-0.2c0,0,0.6,2.6-3.6,2.3c0,0,1,1,0.9,1.6l1.3,1.6c0,0-0.7-1.4,0.8-1.3c0,0-0.1-1,1.1-0.6c-0.2-0.3-0.2-0.8,0.1-1.1
		C138.9,83,140.9,84,141.2,84.2z"/>
	<polygon class="st30" points="139.8,82.9 139.8,82.9 139.8,82.9 	"/>
	<path class="st8" d="M141.3,81.3L141.3,81.3c0.1-0.4,0.2-1.1-2.7-1.7s-5.5,1.2-6.5,2c-0.1,0.6-0.3,1.2-0.4,1.7
		c0.2,0.1,0.4,0.1,0.6,0.2c0.5,0.3,0.8,1.3,1.4,2.2l1.1,0.7c0.2-0.4,0.3-0.9,0.3-1.4c0.1-0.6-0.9-1.6-0.9-1.6
		c4.2,0.4,3.6-2.3,3.6-2.3l1.9,0.2l0,0h1.5L141.3,81.3z"/>
	<path class="st1" d="M152.7,87.3c0-0.5-1.7-5.2-2.8-5.7l-22.2,1.1c0,0,1.6,12.2,2.8,19.9c3.5,4.8,11.6,13.1,23.2,8.1
		c-1-2.4-0.9-6.9-0.8-8.9C153,99.5,152.7,87.7,152.7,87.3z M142.3,87.5l-4.1,0.3c-1.1,0.1-2.1-0.4-2.1-1.1c0-0.3,0.1-0.6,0.4-0.8
		c0.4-0.6,1-1,1.7-1l3.8-0.3c0.7-0.1,1.4,0.1,1.8,0.6c0.3,0.2,0.5,0.5,0.6,0.8C144.3,86.7,143.4,87.4,142.3,87.5z"/>
	<path class="st1" d="M130.6,102.6c0.4,2.9,0.8,5.1,1,5.8c0.8,2.7-1.4,5.2-1.4,6.9s1.6-0.4,3.9-1.1s17.1-1.6,18.9-1.1
		s2.7,0.3,1.2-1.6c-0.2-0.2-0.4-0.5-0.5-0.8C142.1,115.7,134.1,107.4,130.6,102.6z"/>
	<path class="st1" d="M134.4,94.6c0,0,1.1,4.3,5.1,3.9s7.9-8.4,7.9-8.4s-1.1,8.2-6.2,10.3S134,98,134.4,94.6z"/>
	<path class="st1" d="M148.8,101.1c-0.8,2.4-2.2,4.6-3.9,6.5C144.8,107.6,150.3,107.4,148.8,101.1z"/>
	<path class="st4" d="M143.8,85.5c-0.5-0.6-1.2-0.9-1.9-0.9l-4.2-0.1c-0.8-0.1-1.5,0.2-2,0.9c-0.3,0.2-0.5,0.5-0.5,0.8
		c0,0.8,1,1.5,2.3,1.5l4.6,0.1c1.3,0,2.3-0.6,2.4-1.4C144.3,86.1,144.1,85.7,143.8,85.5z"/>
	<path class="st1" d="M150.5,108.5c0.2-1.6,2.8-18.2,3.1-19.7c0.1-0.5-1.3-5.9-2.5-6.6l-6.3-0.3l-4.5-0.2l-14-0.7
		c0,0,0.1,2.1,0.2,5.2l0,0c0.2,4.8,0.5,11.9,0.8,17.2c3.3,5.7,11.4,15.8,24.8,11.5C151.3,112.1,150.2,110.7,150.5,108.5z M142,87.8
		l-4.6-0.1c-1.3,0-2.3-0.7-2.3-1.5c0-0.3,0.2-0.7,0.5-0.8c0.5-0.6,1.2-0.9,2-0.9l4.2,0.1c0.8,0,1.5,0.3,1.9,0.9
		c0.3,0.2,0.5,0.6,0.5,1C144.3,87.3,143.2,87.9,142,87.8z"/>
	<path class="st31" d="M126.3,86.2l0.3-0.1l0,0L126.3,86.2z"/>
	<path class="st32" d="M127.3,103.3c0.2,3.2,0.3,5.8,0.5,6.6c0.6,3.1-2.2,5.6-2.3,7.5s1.8-0.2,4.5-0.8s19.1,0.2,21.1,0.9
		s2.9,0.6,1.5-1.7c-0.2-0.3-0.3-0.7-0.4-1C138.7,119.1,130.6,109.1,127.3,103.3z"/>
	<path class="st8" d="M141.3,81.4h-1.5c-0.1,0.5-0.1,1,0.1,1.4l0,0c0.1,0.3,1.1,1.4,1.9,1.2h0.1c0.2-0.1,0-0.6,0-0.6
		C141.4,82.8,141.2,82.1,141.3,81.4z"/>
	<path class="st8" d="M140.1,87c0,0-3.1-1.5-2-2.8c0.5-0.5,2.9,1.6,2.9,1.6"/>
	<path class="st8" d="M138.1,87.1c0,0-1.3-0.7-0.4-1.6c0.4-0.4,2.6,1.4,2.6,1.4"/>
	<path class="st8" d="M141.1,86.1c0,0-3.3-1.7-2.1-2.9c0.5-0.5,2.9,1.6,2.9,1.6"/>
	<path class="st32" d="M153.4,87.2c-0.3-1.1-0.6-2.2-1.1-3.2c-0.5-1.3-1-1.5-1-1.5l-9.9-0.5c0,0,0,0.1,0,0.1c0,0.2,0,0.4,0.1,0.6
		v0.1c0.1,0.2,0.1,0.3,0.2,0.5v0.1l0,0c0,0.2,0.1,0.3,0.1,0.4l0,0c0.3,0.3,0,0.8-0.4,0.7c0,0,0,0.1,0,0.1c0.1,0,0.3,0.1,0.3,0.2
		c0.5,0,1,0.2,1.4,0.4c0.2,0.1,0.3,0.3,0.2,0.5c-0.1,0.1-0.2,0.2-0.3,0.2h0l-0.1,0.1c-0.3,0.3-1,0.2-1.3,0.4l0,0c0,0.1,0,0.1,0,0.2
		c-0.1,0.2-0.2,0.3-0.4,0.4l-0.1,0.1c-0.1,0.2-0.3,0.2-0.5,0.2c-0.2,0-0.3,0-0.5,0c-0.1,0-0.1,0-0.2-0.1c-0.5,0.1-0.9,0.2-1.4,0.1
		h-0.1c-0.1,0-0.1,0-0.2,0h-0.1c-0.5,0-1.2-0.1-1.4-0.6c-0.1-0.1-0.2-0.3-0.2-0.4c-0.1-0.5,0.3-0.9,0.8-1.1l0,0
		c0.2-0.1,0.4-0.1,0.6-0.1c-0.1-0.4,0.1-0.8,0.4-0.9c0.2-0.1,0.4-0.1,0.6,0.1c0-0.1-0.1-0.1-0.1-0.2c0,0,0-0.1,0-0.1l0,0V84
		c0,0,0,0,0-0.1l0,0l0,0c-0.1-0.1,0-0.3,0.1-0.4c0.1-0.3,0.3-0.3,0.5-0.2c0.1,0,0.3,0,0.4,0.1l0.2,0.1l0,0v-0.1
		c-0.2-0.2-0.4-0.6-0.4-0.9c0-0.1,0-0.2,0.1-0.3c0-0.1,0-0.3,0-0.4l-13.3-0.7l0.3,8.1c0,0,5.9-1.2,9.2-0.3s9.7,1.9,11.7,1.3
		c1.4-0.5,2.8-1,4.2-1.2c0.6,0,1.8,0.2,1.8,0.2S153.6,88.4,153.4,87.2z"/>
	<path class="st1" d="M120.3,85.9L120.3,85.9l-0.1,0.1l0,0L120.3,85.9z"/>
	<path class="st1" d="M121.4,83.7c-0.7-0.2-1.4-0.5-2-0.9c-4-2.1-4.7-5.2-5.8-7.9c-1-2.2-2.2-4.3-3.7-6.1c-0.5,2.2-1.1,4.5-1.8,6.7
		c-0.6,1.7-1.3,3.4-2.3,5l-0.1,0.1c-0.1,0.1-0.1,0.2-0.2,0.3c0,0,0,0.1-0.1,0.1l-0.2,0.3l-0.1,0.1c-0.1,0.1-0.2,0.2-0.3,0.3l0.2-0.2
		c2.4,4.9,8.5,10.5,8.5,10.5s0.9,0.1,2.7-1.4l0.1-0.1c0.7-0.6,1.4-1.3,2-2.1c0.6-0.7,1.2-1.4,1.7-2.1l0.1-0.1
		C121.6,84.2,121.4,83.7,121.4,83.7z M120.3,85.9l-0.1,0.1l0,0L120.3,85.9L120.3,85.9z"/>
	<path class="st33" d="M130.5,97.7v1.2c0.1-0.1,0.3-0.3,0.4-0.3c0.2-0.1,0.4-0.1,0.6-0.1c0.2,0,0.5,0.1,0.7,0.2
		c0.2,0.1,0.4,0.3,0.4,0.5c0.1,0.3,0.2,0.5,0.1,0.8c0,0.2,0,0.4-0.1,0.7c-0.1,0.2-0.2,0.4-0.3,0.5c-0.1,0.1-0.3,0.3-0.4,0.3
		c-0.2,0.1-0.4,0.1-0.5,0.1c-0.1,0-0.2,0-0.3,0c-0.1,0-0.2-0.1-0.3-0.1c-0.1,0-0.1-0.1-0.2-0.2c-0.1-0.1-0.1-0.1-0.2-0.2v0.1
		c0,0.1,0,0.2-0.1,0.3c-0.1,0.1-0.2,0.1-0.3,0.1c-0.1,0-0.2,0-0.3-0.1c-0.1-0.1-0.1-0.2-0.1-0.3v-3.4c0-0.1,0-0.3,0.1-0.4
		c0.1-0.1,0.2-0.1,0.3-0.1c0.1,0,0.2,0,0.3,0.1C130.4,97.5,130.5,97.6,130.5,97.7z M130.5,100c0,0.3,0,0.5,0.2,0.7
		c0.1,0.2,0.3,0.3,0.6,0.3c0.2,0,0.4-0.1,0.5-0.3c0.2-0.2,0.3-0.4,0.3-0.7c0-0.2,0-0.4-0.1-0.5c0-0.1-0.1-0.3-0.2-0.3
		c-0.1-0.1-0.2-0.1-0.4-0.1c-0.1,0-0.3,0-0.4,0.1c-0.1,0.1-0.2,0.2-0.3,0.3C130.5,99.6,130.5,99.8,130.5,100L130.5,100z"/>
	<path class="st33" d="M135.6,100.2H134c0,0.2,0,0.3,0.1,0.5c0.1,0.1,0.2,0.2,0.3,0.3c0.1,0.1,0.2,0.1,0.4,0.1c0.1,0,0.2,0,0.3,0
		c0.1,0,0.2-0.1,0.2-0.1l0.2-0.1l0.2-0.2c0.1-0.1,0.2-0.1,0.4,0c0.1,0,0.1,0.1,0.1,0.2c0,0.1,0,0.2-0.1,0.3
		c-0.1,0.1-0.2,0.2-0.3,0.3c-0.1,0.1-0.3,0.2-0.4,0.2c-0.2,0.1-0.4,0.1-0.6,0.1c-0.4,0-0.9-0.1-1.2-0.4c-0.3-0.3-0.4-0.7-0.4-1.2
		c0-0.2,0-0.4,0.1-0.6c0.1-0.2,0.2-0.4,0.3-0.5c0.1-0.1,0.3-0.2,0.5-0.3c0.2-0.1,0.4-0.1,0.6-0.1c0.3,0,0.5,0.1,0.8,0.2
		c0.2,0.1,0.4,0.3,0.5,0.5c0.1,0.2,0.2,0.4,0.1,0.6c0,0.1,0,0.3-0.2,0.4C135.9,100.2,135.7,100.2,135.6,100.2z M134,99.8h1.4
		c0-0.2-0.1-0.4-0.2-0.6c-0.1-0.1-0.3-0.2-0.5-0.2c-0.2,0-0.4,0.1-0.5,0.2C134.1,99.3,134,99.5,134,99.8z"/>
	<path class="st33" d="M136.8,101.2v-3.4c0-0.1,0-0.2,0.1-0.3c0.1-0.1,0.2-0.1,0.3-0.1c0.1,0,0.2,0.1,0.3,0.1
		c0.1,0.1,0.1,0.2,0.1,0.3v3.4c0,0.1,0,0.3-0.1,0.3c-0.1,0.1-0.2,0.1-0.3,0.1c-0.1,0-0.2,0-0.3-0.1
		C136.9,101.4,136.8,101.3,136.8,101.2z"/>
	<path class="st33" d="M138.4,101.2l0.1-3.4c0-0.1,0-0.3,0.1-0.3c0.1-0.1,0.2-0.1,0.3-0.1c0.1,0,0.2,0,0.3,0.1
		c0.1,0.1,0.1,0.2,0.1,0.3v3.4c0,0.1,0,0.3-0.1,0.3c-0.1,0.1-0.2,0.1-0.3,0.1c-0.1,0-0.2,0-0.3-0.1
		C138.5,101.4,138.4,101.3,138.4,101.2z"/>
	<path class="st34" d="M140.8,97.8V99c0.1-0.1,0.3-0.2,0.4-0.3c0.2-0.1,0.4-0.1,0.6-0.1c0.2,0,0.5,0.1,0.7,0.2
		c0.2,0.1,0.4,0.3,0.4,0.5c0.1,0.3,0.2,0.5,0.1,0.8c0,0.2,0,0.4-0.1,0.7c-0.1,0.2-0.1,0.4-0.3,0.5c-0.1,0.1-0.3,0.3-0.4,0.3
		c-0.2,0.1-0.3,0.1-0.5,0.1c-0.1,0-0.2,0-0.3,0c-0.1,0-0.2-0.1-0.3-0.1c-0.1,0-0.1-0.1-0.2-0.2c-0.1-0.1-0.1-0.1-0.2-0.2v0.1
		c0,0.1,0,0.2-0.1,0.3c-0.1,0.1-0.2,0.1-0.3,0.1c-0.1,0-0.2,0-0.3-0.1c-0.1-0.1-0.1-0.2-0.1-0.3l0.1-3.4c0-0.1,0-0.3,0.1-0.4
		c0.1-0.1,0.2-0.1,0.3-0.1c0.1,0,0.2,0,0.3,0.1C140.7,97.6,140.8,97.7,140.8,97.8z M140.8,100.1c0,0.3,0.1,0.5,0.2,0.7
		c0.1,0.2,0.3,0.3,0.6,0.3c0.2,0,0.4-0.1,0.5-0.3c0.2-0.2,0.2-0.5,0.2-0.7c0-0.2,0-0.4-0.1-0.5c0-0.1-0.1-0.3-0.3-0.3
		c-0.1-0.1-0.2-0.1-0.4-0.1c-0.1,0-0.3,0-0.4,0.1c-0.1,0.1-0.2,0.2-0.3,0.3C140.8,99.7,140.8,99.9,140.8,100.1z"/>
	<path class="st34" d="M146.6,100.2c0,0.2,0,0.4-0.1,0.6c-0.1,0.2-0.2,0.4-0.3,0.5c-0.1,0.1-0.3,0.2-0.5,0.3
		c-0.2,0.1-0.4,0.1-0.6,0.1c-0.2,0-0.4,0-0.6-0.1c-0.2-0.1-0.4-0.2-0.5-0.3c-0.1-0.1-0.2-0.3-0.3-0.5c-0.1-0.2-0.1-0.4-0.1-0.6
		c0-0.2,0-0.4,0.1-0.7c0.1-0.2,0.2-0.4,0.3-0.5c0.1-0.1,0.3-0.2,0.5-0.3c0.2-0.1,0.4-0.1,0.6-0.1c0.2,0,0.4,0,0.6,0.1
		c0.2,0.1,0.4,0.2,0.5,0.3c0.1,0.1,0.2,0.3,0.3,0.5C146.5,99.7,146.6,100,146.6,100.2z M145.8,100.2c0-0.3,0-0.5-0.2-0.8
		c-0.1-0.2-0.3-0.3-0.6-0.3c-0.1,0-0.3,0-0.4,0.1c-0.1,0.1-0.2,0.2-0.3,0.3c-0.1,0.3-0.1,0.7,0,1.1c0.1,0.1,0.1,0.3,0.3,0.3
		c0.1,0.1,0.3,0.1,0.4,0.1c0.2,0,0.4-0.1,0.6-0.3C145.7,100.7,145.8,100.4,145.8,100.2L145.8,100.2z"/>
	<path class="st34" d="M147.8,101.9l0.1-0.2l-0.9-2.4c0-0.1-0.1-0.2-0.1-0.3c0-0.1,0-0.1,0-0.2c0-0.1,0.1-0.1,0.1-0.1
		c0.1,0,0.1,0,0.2,0c0.1,0,0.2,0,0.3,0.1c0.1,0.1,0.1,0.2,0.1,0.3l0.6,1.9l0.6-1.8c0-0.1,0.1-0.2,0.1-0.3c0-0.1,0.1-0.1,0.1-0.2
		c0.1,0,0.1,0,0.2,0c0.1,0,0.1,0,0.2,0c0.1,0,0.1,0.1,0.1,0.1c0,0.1,0,0.1,0,0.2c0,0,0,0.1,0,0.2c0,0.1,0,0.1-0.1,0.2l-1,2.6
		c-0.1,0.2-0.2,0.4-0.3,0.5c-0.1,0.1-0.2,0.2-0.3,0.3c-0.2,0.1-0.4,0.1-0.6,0.1c-0.2,0-0.3,0-0.5-0.1c-0.1,0-0.2-0.2-0.2-0.3
		c0-0.1,0-0.2,0.1-0.2c0.1-0.1,0.2-0.1,0.2-0.1c0,0,0.1,0,0.1,0h0.1c0.1,0,0.1,0,0.2,0c0.1,0,0.1-0.1,0.1-0.1
		C147.7,102.1,147.8,102,147.8,101.9z"/>
	<path class="st1" d="M130.5,97.7v1.2c0.1-0.1,0.3-0.3,0.4-0.3c0.2-0.1,0.4-0.1,0.6-0.1c0.2,0,0.5,0.1,0.7,0.2
		c0.2,0.1,0.4,0.3,0.4,0.5c0.1,0.3,0.2,0.5,0.1,0.8c0,0.2,0,0.4-0.1,0.7c-0.1,0.2-0.2,0.4-0.3,0.5c-0.1,0.1-0.3,0.3-0.4,0.3
		c-0.2,0.1-0.4,0.1-0.5,0.1c-0.1,0-0.2,0-0.3,0c-0.1,0-0.2-0.1-0.3-0.1c-0.1,0-0.1-0.1-0.2-0.2c-0.1-0.1-0.1-0.1-0.2-0.2v0.1
		c0,0.1,0,0.2-0.1,0.3c-0.1,0.1-0.2,0.1-0.3,0.1c-0.1,0-0.2,0-0.3-0.1c-0.1-0.1-0.1-0.2-0.1-0.3v-3.4c0-0.1,0-0.3,0.1-0.4
		c0.1-0.1,0.2-0.1,0.3-0.1c0.1,0,0.2,0,0.3,0.1C130.4,97.5,130.5,97.6,130.5,97.7z M130.5,100c0,0.3,0,0.5,0.2,0.7
		c0.1,0.2,0.3,0.3,0.6,0.3c0.2,0,0.4-0.1,0.5-0.3c0.2-0.2,0.3-0.4,0.3-0.7c0-0.2,0-0.4-0.1-0.5c0-0.1-0.1-0.3-0.2-0.3
		c-0.1-0.1-0.2-0.1-0.4-0.1c-0.1,0-0.3,0-0.4,0.1c-0.1,0.1-0.2,0.2-0.3,0.3C130.5,99.6,130.5,99.8,130.5,100L130.5,100z"/>
	<path class="st1" d="M135.6,100.2H134c0,0.2,0,0.3,0.1,0.5c0.1,0.1,0.2,0.2,0.3,0.3c0.1,0.1,0.2,0.1,0.4,0.1c0.1,0,0.2,0,0.3,0
		c0.1,0,0.2-0.1,0.2-0.1l0.2-0.1l0.2-0.2c0.1-0.1,0.2-0.1,0.4,0c0.1,0,0.1,0.1,0.1,0.2c0,0.1,0,0.2-0.1,0.3
		c-0.1,0.1-0.2,0.2-0.3,0.3c-0.1,0.1-0.3,0.2-0.4,0.2c-0.2,0.1-0.4,0.1-0.6,0.1c-0.4,0-0.9-0.1-1.2-0.4c-0.3-0.3-0.4-0.7-0.4-1.2
		c0-0.2,0-0.4,0.1-0.6c0.1-0.2,0.2-0.4,0.3-0.5c0.1-0.1,0.3-0.2,0.5-0.3c0.2-0.1,0.4-0.1,0.6-0.1c0.3,0,0.5,0.1,0.8,0.2
		c0.2,0.1,0.4,0.3,0.5,0.5c0.1,0.2,0.2,0.4,0.1,0.6c0,0.1,0,0.3-0.2,0.4C135.9,100.2,135.7,100.2,135.6,100.2z M134,99.8h1.4
		c0-0.2-0.1-0.4-0.2-0.6c-0.1-0.1-0.3-0.2-0.5-0.2c-0.2,0-0.4,0.1-0.5,0.2C134.1,99.3,134,99.5,134,99.8z"/>
	<path class="st1" d="M136.8,101.2v-3.4c0-0.1,0-0.2,0.1-0.3c0.1-0.1,0.2-0.1,0.3-0.1c0.1,0,0.2,0.1,0.3,0.1
		c0.1,0.1,0.1,0.2,0.1,0.3v3.4c0,0.1,0,0.3-0.1,0.3c-0.1,0.1-0.2,0.1-0.3,0.1c-0.1,0-0.2,0-0.3-0.1
		C136.9,101.4,136.8,101.3,136.8,101.2z"/>
	<path class="st1" d="M138.4,101.2l0.1-3.4c0-0.1,0-0.3,0.1-0.3c0.1-0.1,0.2-0.1,0.3-0.1c0.1,0,0.2,0,0.3,0.1
		c0.1,0.1,0.1,0.2,0.1,0.3v3.4c0,0.1,0,0.3-0.1,0.3c-0.1,0.1-0.2,0.1-0.3,0.1c-0.1,0-0.2,0-0.3-0.1
		C138.5,101.4,138.4,101.3,138.4,101.2z"/>
	<path class="st5" d="M140.8,97.8V99c0.1-0.1,0.3-0.2,0.4-0.3c0.2-0.1,0.4-0.1,0.6-0.1c0.2,0,0.5,0.1,0.7,0.2
		c0.2,0.1,0.4,0.3,0.4,0.5c0.1,0.3,0.2,0.5,0.1,0.8c0,0.2,0,0.4-0.1,0.7c-0.1,0.2-0.1,0.4-0.3,0.5c-0.1,0.1-0.3,0.3-0.4,0.3
		c-0.2,0.1-0.3,0.1-0.5,0.1c-0.1,0-0.2,0-0.3,0c-0.1,0-0.2-0.1-0.3-0.1c-0.1,0-0.1-0.1-0.2-0.2c-0.1-0.1-0.1-0.1-0.2-0.2v0.1
		c0,0.1,0,0.2-0.1,0.3c-0.1,0.1-0.2,0.1-0.3,0.1c-0.1,0-0.2,0-0.3-0.1c-0.1-0.1-0.1-0.2-0.1-0.3l0.1-3.4c0-0.1,0-0.3,0.1-0.4
		c0.1-0.1,0.2-0.1,0.3-0.1c0.1,0,0.2,0,0.3,0.1C140.7,97.6,140.8,97.7,140.8,97.8z M140.8,100.1c0,0.3,0.1,0.5,0.2,0.7
		c0.1,0.2,0.3,0.3,0.6,0.3c0.2,0,0.4-0.1,0.5-0.3c0.2-0.2,0.2-0.5,0.2-0.7c0-0.2,0-0.4-0.1-0.5c0-0.1-0.1-0.3-0.3-0.3
		c-0.1-0.1-0.2-0.1-0.4-0.1c-0.1,0-0.3,0-0.4,0.1c-0.1,0.1-0.2,0.2-0.3,0.3C140.8,99.7,140.8,99.9,140.8,100.1z"/>
	<path class="st5" d="M146.6,100.2c0,0.2,0,0.4-0.1,0.6c-0.1,0.2-0.2,0.4-0.3,0.5c-0.1,0.1-0.3,0.2-0.5,0.3
		c-0.2,0.1-0.4,0.1-0.6,0.1c-0.2,0-0.4,0-0.6-0.1c-0.2-0.1-0.4-0.2-0.5-0.3c-0.1-0.1-0.2-0.3-0.3-0.5c-0.1-0.2-0.1-0.4-0.1-0.6
		c0-0.2,0-0.4,0.1-0.7c0.1-0.2,0.2-0.4,0.3-0.5c0.1-0.1,0.3-0.2,0.5-0.3c0.2-0.1,0.4-0.1,0.6-0.1c0.2,0,0.4,0,0.6,0.1
		c0.2,0.1,0.4,0.2,0.5,0.3c0.1,0.1,0.2,0.3,0.3,0.5C146.5,99.7,146.6,100,146.6,100.2z M145.8,100.2c0-0.3,0-0.5-0.2-0.8
		c-0.1-0.2-0.3-0.3-0.6-0.3c-0.1,0-0.3,0-0.4,0.1c-0.1,0.1-0.2,0.2-0.3,0.3c-0.1,0.3-0.1,0.7,0,1.1c0.1,0.1,0.1,0.3,0.3,0.3
		c0.1,0.1,0.3,0.1,0.4,0.1c0.2,0,0.4-0.1,0.6-0.3C145.7,100.7,145.8,100.4,145.8,100.2L145.8,100.2z"/>
	<path class="st5" d="M147.8,101.9l0.1-0.2l-0.9-2.4c0-0.1-0.1-0.2-0.1-0.3c0-0.1,0-0.1,0-0.2c0-0.1,0.1-0.1,0.1-0.1
		c0.1,0,0.1,0,0.2,0c0.1,0,0.2,0,0.3,0.1c0.1,0.1,0.1,0.2,0.1,0.3l0.6,1.9l0.6-1.8c0-0.1,0.1-0.2,0.1-0.3c0-0.1,0.1-0.1,0.1-0.2
		c0.1,0,0.1,0,0.2,0c0.1,0,0.1,0,0.2,0c0.1,0,0.1,0.1,0.1,0.1c0,0.1,0,0.1,0,0.2c0,0,0,0.1,0,0.2c0,0.1,0,0.1-0.1,0.2l-1,2.6
		c-0.1,0.2-0.2,0.4-0.3,0.5c-0.1,0.1-0.2,0.2-0.3,0.3c-0.2,0.1-0.4,0.1-0.6,0.1c-0.2,0-0.3,0-0.5-0.1c-0.1,0-0.2-0.2-0.2-0.3
		c0-0.1,0-0.2,0.1-0.2c0.1-0.1,0.2-0.1,0.2-0.1c0,0,0.1,0,0.1,0h0.1c0.1,0,0.1,0,0.2,0c0.1,0,0.1-0.1,0.1-0.1
		C147.7,102.1,147.8,102,147.8,101.9z"/>
	<path class="st17" d="M98.2,75.3l0.6-0.8c0.1-0.4,0.1-0.7,0.2-1.1c0-0.1,0-0.1,0-0.2c0,0,0-0.1,0.1-0.1c0-0.1,0.1-0.1,0.2-0.1
		c0.1,0,0.1,0,0.2,0c0.1,0,0.1,0,0.1,0.1c0,0.1,0,0.2,0,0.3c0,0.3-0.1,0.6-0.1,0.9l0.9-0.7c0,0,0.1-0.1,0.1-0.1l0.1-0.1h0.1h0.1
		c0,0,0.1,0,0.1,0.1c0,0.1,0,0.1,0,0.2c0,0-0.1,0.1-0.1,0.1l-0.2,0.2c-0.4,0.3-0.8,0.6-1.2,0.8l-0.6,0.8c-0.1,0.1-0.1,0.2-0.2,0.2
		c-0.1,0-0.1,0-0.2,0c-0.1,0-0.1-0.1-0.1-0.1C98.1,75.5,98.1,75.4,98.2,75.3z"/>
	<path class="st17" d="M101.3,75.4c-0.1,0.1-0.2,0.3-0.3,0.4c-0.1,0.1-0.2,0.2-0.4,0.3c-0.1,0.1-0.3,0.1-0.4,0.1c-0.1,0-0.3,0-0.4,0
		c-0.1,0-0.2-0.1-0.3-0.2c-0.1-0.1-0.1-0.2-0.1-0.3c0-0.1,0-0.2,0.1-0.3c0.1-0.1,0.1-0.3,0.2-0.4c0.1-0.1,0.2-0.3,0.3-0.4
		c0.1-0.1,0.2-0.2,0.4-0.3c0.1-0.1,0.2-0.1,0.4-0.1c0.1,0,0.2,0,0.4,0c0.1,0,0.2,0.1,0.3,0.1c0.1,0.1,0.1,0.2,0.1,0.3
		c0,0.1,0,0.2,0,0.3C101.4,75.1,101.4,75.2,101.3,75.4z M100.9,75.3c0.1-0.1,0.2-0.3,0.2-0.5c0-0.1-0.1-0.2-0.2-0.2
		c-0.1,0-0.2,0-0.3,0c-0.1,0-0.2,0.1-0.3,0.2c-0.1,0.1-0.2,0.2-0.3,0.3c-0.1,0.1-0.1,0.2-0.2,0.3c0,0.1,0,0.2,0,0.2
		c0,0.1,0.1,0.1,0.2,0.1c0.1,0,0.3,0,0.4-0.1C100.6,75.6,100.8,75.4,100.9,75.3z"/>
	<path class="st17" d="M102.2,76.3L102.2,76.3c-0.1,0-0.2,0.1-0.3,0.1c-0.1,0-0.2,0.1-0.3,0.1h-0.2c-0.1,0-0.2-0.1-0.2-0.1
		c0-0.1,0-0.2,0-0.2c0-0.2,0.1-0.3,0.2-0.5c0.2-0.3,0.4-0.7,0.6-1c0-0.1,0.1-0.2,0.2-0.2c0.1,0,0.1-0.1,0.2-0.1c0.1,0,0.1,0,0.1,0.1
		c0,0.1,0,0.2-0.1,0.2l-0.5,0.8c-0.1,0.1-0.1,0.2-0.2,0.3c0,0.1,0,0.1,0,0.2c0,0.1,0.1,0.1,0.1,0.1c0.1,0,0.2,0,0.3,0
		c0.1,0,0.2-0.1,0.3-0.2c0.1-0.1,0.2-0.3,0.3-0.5l0.4-0.6c0-0.1,0.1-0.2,0.2-0.2c0.1,0,0.1-0.1,0.2-0.1c0.1,0,0.1,0,0.1,0.1
		c0,0.1,0,0.2-0.1,0.2c-0.3,0.5-0.6,1-0.9,1.4c0,0.1-0.1,0.2-0.2,0.2c-0.1,0-0.1,0-0.2,0c0,0-0.1,0-0.1-0.1
		C102.1,76.5,102.2,76.4,102.2,76.3z"/>
	<path class="st17" d="M103.7,76.1l-0.3,0.4c0,0.1-0.1,0.2-0.2,0.2c-0.1,0-0.1,0.1-0.2,0.1c-0.1,0-0.1,0-0.1-0.1
		c0-0.1,0-0.2,0.1-0.2c0.3-0.5,0.6-0.9,0.8-1.4c0.1-0.2,0.3-0.3,0.4-0.3s0.1,0,0.1,0.1c0,0.1,0,0.2-0.1,0.3c0.1-0.1,0.2-0.2,0.3-0.2
		c0.1,0,0.2-0.1,0.3-0.1c0.1,0,0.2,0,0.2,0.1c0.1,0.1,0.1,0.2,0,0.2c0,0.1-0.1,0.1-0.1,0.2c0,0-0.1,0.1-0.2,0.1c0,0-0.1,0-0.1,0
		c0,0-0.1,0-0.1,0c-0.1,0-0.1,0-0.2,0c-0.1,0-0.1,0.1-0.2,0.2c-0.1,0.1-0.1,0.2-0.2,0.3L103.7,76.1z"/>
	<path class="st17" d="M94.2,76.5l-0.3-0.1l-0.6,0.5c-0.1,0.1-0.1,0.1-0.2,0.1c-0.1,0-0.1,0-0.2,0c0,0-0.1-0.1-0.1-0.1
		c0-0.1,0.1-0.1,0.1-0.2c0.5-0.5,1-0.9,1.5-1.4c0.1-0.1,0.1-0.1,0.2-0.2c0.1,0,0.1,0,0.2,0l0.4,0.2c0.1,0,0.2,0.1,0.3,0.2
		c0.1,0,0.1,0.1,0.1,0.2c0,0.1,0,0.2-0.1,0.2c-0.1,0.1-0.1,0.2-0.2,0.3c-0.2,0.2-0.4,0.3-0.6,0.4C94.6,76.6,94.4,76.6,94.2,76.5z
		 M95,75.6l-0.2-0.1c-0.2,0.2-0.4,0.4-0.6,0.6l0.2,0.1c0.1,0,0.1,0.1,0.2,0.1c0.1,0,0.1,0,0.2,0c0.1,0,0.2-0.1,0.2-0.2
		c0.1-0.1,0.1-0.1,0.1-0.2C95.2,75.7,95.1,75.7,95,75.6L95,75.6z"/>
	<path class="st17" d="M95.8,77.3c-0.2-0.1-0.4-0.2-0.7-0.2c-0.1,0.1-0.1,0.1-0.2,0.2c0,0.1,0,0.1,0,0.2c0,0.1,0.1,0.1,0.1,0.1
		c0,0,0.1,0,0.1,0h0.1h0.2l0.2-0.1h0.1c0,0,0,0,0,0.1s0,0.1,0,0.1c0,0-0.1,0.1-0.2,0.1c-0.1,0-0.2,0.1-0.2,0.1c-0.1,0-0.2,0-0.3,0
		c-0.1,0-0.2,0-0.3-0.1c-0.2-0.1-0.3-0.2-0.3-0.4c0-0.2,0.2-0.4,0.3-0.6c0.1-0.1,0.2-0.2,0.3-0.3c0.1-0.1,0.2-0.1,0.3-0.2
		c0.1,0,0.2-0.1,0.3-0.1c0.1,0,0.2,0,0.3,0c0.1,0,0.2,0.1,0.3,0.2c0,0.1,0,0.2,0,0.3c0,0.1-0.1,0.2-0.2,0.3
		c-0.1,0.1-0.1,0.1-0.2,0.2C96,77.3,95.9,77.3,95.8,77.3z M95.3,76.8l0.6,0.2c0.1-0.1,0.1-0.2,0.2-0.3c0-0.1,0-0.1-0.1-0.2
		c-0.1,0-0.2,0-0.3,0C95.6,76.7,95.5,76.7,95.3,76.8z"/>
	<path class="st17" d="M96.6,77.7L96.3,78c-0.1,0.1-0.1,0.1-0.2,0.2c-0.1,0-0.1,0-0.2,0c0,0-0.1,0-0.1-0.1c0,0,0,0,0,0
		c0-0.1,0.1-0.1,0.1-0.2c0.3-0.3,0.6-0.7,0.9-1c0.2-0.2,0.3-0.2,0.4-0.2s0.1,0.1,0.1,0.1c0,0.1-0.1,0.1-0.1,0.2
		c0.1-0.1,0.2-0.1,0.3-0.1c0.1,0,0.1,0,0.2,0c0.1,0,0.1,0.1,0.2,0.1c0,0.1,0,0.1,0,0.2c0,0-0.1,0.1-0.1,0.1c0,0-0.1,0-0.1,0h-0.1
		c0,0-0.1,0-0.1-0.1c-0.1,0-0.1,0-0.2,0c-0.1,0-0.1,0.1-0.2,0.1l-0.2,0.2L96.6,77.7z"/>
	<path class="st17" d="M98.4,78.3c-0.1,0.1-0.2,0.2-0.3,0.3c-0.1,0.1-0.2,0.1-0.4,0.1c-0.1,0-0.3,0-0.4,0c-0.1,0-0.2-0.1-0.3-0.2
		C97,78.5,97,78.4,97,78.3c0-0.1,0-0.1,0.1-0.2c0,0,0.1-0.1,0.1-0.1c0,0,0.1,0,0.1,0c0,0,0.1,0,0.1,0.1c0,0,0,0.1,0,0.1
		c0,0.1,0,0.1,0,0.2c0,0.1,0.1,0.1,0.2,0.1c0.1,0,0.1,0,0.2,0c0.1,0,0.1,0,0.2-0.1c0.1-0.1,0.1-0.1,0.1-0.2c0-0.1-0.1-0.1-0.2-0.2
		c-0.1-0.1-0.1-0.1-0.2-0.2c0-0.1-0.1-0.1-0.1-0.2c0-0.1,0-0.2,0.1-0.2c0.1-0.1,0.1-0.2,0.2-0.3c0.1-0.1,0.2-0.1,0.3-0.1
		c0.1,0,0.2,0,0.3,0c0.1,0,0.2,0,0.2,0.1c0,0,0.1,0.1,0.1,0.1c0,0,0,0.1,0,0.2c0,0,0,0.1-0.1,0.1c0,0-0.1,0.1-0.1,0.1
		c0,0-0.1,0-0.2,0c0,0,0,0-0.1,0c0,0,0-0.1,0-0.1c0,0,0-0.1,0-0.1c0,0-0.1-0.1-0.1-0.1h-0.2c-0.1,0-0.1,0-0.2,0.1c0,0,0,0.1,0,0.1
		c0,0,0,0.1,0.1,0.1l0.2,0.1c0.1,0,0.1,0.1,0.2,0.2c0,0.1,0,0.1,0,0.2C98.5,78.2,98.5,78.3,98.4,78.3z"/>
	<path class="st17" d="M100.3,78.4c-0.1,0.1-0.2,0.2-0.3,0.3c-0.1,0.1-0.2,0.2-0.3,0.2c-0.1,0.1-0.2,0.1-0.4,0.1c-0.1,0-0.2,0-0.3,0
		c-0.1,0-0.2-0.1-0.3-0.1c-0.1-0.1-0.1-0.1-0.1-0.2c0-0.1,0-0.2,0.1-0.3c0.1-0.1,0.1-0.2,0.2-0.3c0.1-0.1,0.2-0.2,0.3-0.3
		c0.1-0.1,0.2-0.2,0.3-0.2c0.1-0.1,0.2-0.1,0.3-0.1c0.1,0,0.2,0,0.3,0c0.1,0,0.2,0.1,0.3,0.1c0.1,0.1,0.1,0.1,0.1,0.2
		c0,0.1,0,0.2,0,0.3C100.5,78.2,100.4,78.4,100.3,78.4z M99.9,78.4c0.1-0.1,0.2-0.3,0.2-0.4c0-0.1,0-0.2-0.2-0.2c-0.1,0-0.2,0-0.2,0
		c-0.1,0-0.2,0.1-0.3,0.2c-0.1,0.1-0.2,0.2-0.3,0.3c-0.1,0.1-0.1,0.2-0.2,0.3c0,0.1,0,0.1,0,0.2c0,0.1,0.1,0.1,0.1,0.1
		c0.1,0,0.3,0,0.4-0.1C99.7,78.6,99.8,78.5,99.9,78.4z"/>
	<path class="st17" d="M101.3,78L101.3,78c0.1-0.1,0.2-0.1,0.4-0.2c0.1,0,0.2,0,0.3,0c0.1,0,0.2,0.1,0.2,0.1c0,0.1,0,0.2,0,0.2
		c0,0.1,0,0.1-0.1,0.2c0,0.1-0.1,0.2-0.2,0.2c-0.2,0.3-0.4,0.5-0.6,0.8c-0.1,0.1-0.1,0.1-0.2,0.2c-0.1,0-0.1,0-0.2,0
		c0,0-0.1,0-0.1-0.1c0-0.1,0-0.1,0.1-0.2l0.5-0.7c0.1-0.1,0.1-0.2,0.2-0.3c0-0.1,0-0.1-0.1-0.1C101.5,78.1,101.5,78.1,101.3,78
		c0,0.1-0.1,0.2-0.2,0.3c-0.1,0.1-0.2,0.2-0.3,0.3l-0.4,0.5c-0.1,0.1-0.1,0.1-0.2,0.2c-0.1,0-0.1,0-0.2,0c0,0-0.1,0-0.1-0.1
		c0,0,0,0,0,0c0-0.1,0-0.1,0.1-0.2c0.3-0.4,0.6-0.8,0.9-1.2c0-0.1,0.1-0.1,0.2-0.2c0.1,0,0.1,0,0.2,0c0,0,0,0,0.1,0c0,0,0,0,0,0.1
		C101.4,77.8,101.4,77.9,101.3,78z"/>
	<path class="st17" d="M102.7,79.6c-0.1,0.1-0.3,0.1-0.4,0.1c-0.1,0-0.2,0-0.3,0c-0.1,0-0.2,0-0.2-0.1c0-0.1,0-0.1,0-0.2
		c0-0.1,0.1-0.2,0.1-0.3c0.1-0.1,0.2-0.2,0.3-0.3c0.1-0.1,0.2-0.1,0.4-0.1h0.2h0.3h0.3c0.1-0.1,0.1-0.2,0.1-0.3c0,0,0-0.1-0.2-0.1
		c-0.1,0-0.2,0-0.2,0c-0.1,0-0.2,0.1-0.2,0.1l-0.2,0.1c0,0-0.1,0-0.1,0c0,0-0.1,0-0.1-0.1c0,0,0-0.1,0-0.1c0.1-0.1,0.1-0.1,0.2-0.2
		c0.1-0.1,0.2-0.1,0.3-0.2c0.1,0,0.3,0,0.4,0c0.1,0,0.2,0,0.3,0.1c0.1,0.1,0.1,0.2,0.1,0.2c0,0.1-0.1,0.3-0.2,0.4
		c-0.1,0.1-0.1,0.2-0.2,0.3l-0.2,0.2c-0.1,0.1-0.1,0.2-0.1,0.3c0,0.1,0,0.1-0.1,0.2c0,0-0.1,0.1-0.1,0.1c-0.1,0-0.1,0-0.2,0
		c0,0-0.1,0-0.1-0.1C102.7,79.7,102.7,79.6,102.7,79.6z M103.1,78.9c-0.1,0-0.2,0-0.3,0h-0.3c-0.1,0-0.1,0-0.2,0
		c-0.1,0-0.1,0.1-0.2,0.1c0,0-0.1,0.1-0.1,0.2c0,0,0.1,0.1,0.1,0.1c0.1,0,0.2,0,0.2,0c0.1,0,0.2-0.1,0.2-0.1
		C102.9,79.1,103,79,103.1,78.9L103.1,78.9z"/>
	<path class="st17" d="M103.5,79.6c0.4-0.6,0.8-1.2,1.2-1.9c0-0.1,0.1-0.1,0.2-0.2c0.1,0,0.1,0,0.2,0c0.1,0,0.1,0,0.1,0.1
		c0,0.1,0,0.2-0.1,0.2c-0.4,0.6-0.8,1.3-1.2,1.9c0,0.1-0.1,0.1-0.2,0.2c-0.1,0-0.1,0-0.2,0c-0.1,0-0.1,0-0.1-0.1
		C103.4,79.8,103.4,79.7,103.5,79.6z"/>
	<path class="st17" d="M91.2,78.9l0.2-0.2l-0.7-0.4l-0.4,0.2c-0.1,0-0.2,0.1-0.3,0.1c-0.1,0-0.1,0-0.2,0c0,0-0.1-0.1-0.1-0.1
		c0-0.1,0-0.1,0.1-0.1l0.1-0.1l0.2-0.1c0.6-0.3,1.2-0.5,1.8-0.8l0.2-0.1l0.2-0.1c0.1,0,0.1,0,0.2,0c0,0,0.1,0,0.2,0
		c0,0,0.1,0.1,0.1,0.1c0,0,0,0.1,0,0.1c0,0,0,0.1-0.1,0.1c0,0-0.1,0.1-0.1,0.2c-0.3,0.4-0.6,0.9-0.9,1.3c0,0.1-0.1,0.1-0.2,0.2
		c-0.1,0-0.1,0.1-0.2,0.1c-0.1,0-0.1,0-0.2,0l0,0c0,0,0,0,0-0.1c0,0,0-0.1,0-0.1L91.2,78.9z M91.1,78.1l0.5,0.3
		c0.2-0.3,0.4-0.5,0.6-0.8L91.1,78.1z"/>
	<path class="st17" d="M93.1,79.5c-0.1,0.1-0.2,0.1-0.3,0.2c-0.1,0-0.3,0-0.4,0c-0.1,0-0.3,0-0.4-0.1c-0.1,0-0.2-0.1-0.3-0.2
		c0-0.1,0-0.2,0-0.2c0-0.1,0.1-0.1,0.1-0.2c0,0,0.1,0,0.1,0c0,0,0.1,0,0.2,0c0,0,0,0,0,0.1c0,0,0,0.1,0,0.1c0,0.1,0,0.1,0,0.2
		c0,0,0.1,0.1,0.1,0.1c0.1,0,0.1,0,0.2,0c0.1,0,0.1,0,0.2-0.1c0.1-0.1,0.1-0.1,0.1-0.2c0-0.1-0.1-0.1-0.1-0.2
		c-0.1-0.1-0.1-0.1-0.2-0.2c0-0.1,0-0.1,0-0.2c0-0.1,0.1-0.2,0.2-0.2c0.1-0.1,0.2-0.1,0.3-0.2c0.1,0,0.2,0,0.3,0
		c0.1,0,0.2,0,0.3,0.1c0.1,0,0.1,0.1,0.2,0.1c0,0,0.1,0.1,0.1,0.1c0,0,0,0.1,0,0.2c0,0,0,0.1-0.1,0.1c0,0-0.1,0.1-0.2,0.1
		c0,0-0.1,0-0.2,0c0,0-0.1,0-0.1-0.1c0,0,0-0.1,0-0.1c0,0,0-0.1,0-0.1c0,0-0.1-0.1-0.1-0.1c-0.1,0-0.1,0-0.2,0c-0.1,0-0.1,0-0.2,0.1
		c0,0-0.1,0.1,0,0.1c0,0,0,0.1,0,0.1l0.1,0.2c0.1,0.1,0.1,0.1,0.2,0.2c0,0.1,0,0.1,0,0.2C93.2,79.5,93.2,79.5,93.1,79.5z"/>
	<path class="st17" d="M94.5,80.1c-0.1,0.1-0.2,0.2-0.3,0.2c-0.1,0-0.2,0.1-0.4,0.1c-0.1,0-0.3,0-0.4-0.1c-0.1,0-0.2-0.1-0.3-0.2
		c0-0.1,0-0.1,0-0.2c0-0.1,0.1-0.1,0.1-0.2c0,0,0.1-0.1,0.2-0.1c0,0,0.1,0,0.1,0c0,0,0.1,0,0.1,0.1c0,0,0,0.1,0,0.1
		c0,0.1,0,0.1,0,0.2c0,0,0.1,0.1,0.2,0.1c0.1,0,0.2,0,0.2,0c0.1,0,0.1,0,0.2-0.1c0.1-0.1,0.1-0.1,0.1-0.2c0-0.1-0.1-0.1-0.1-0.2
		c-0.1-0.1-0.1-0.1-0.2-0.2c0-0.1,0-0.1,0-0.2c0-0.1,0.1-0.2,0.2-0.2c0.1-0.1,0.2-0.1,0.3-0.2c0.1,0,0.2-0.1,0.3-0.1
		c0.1,0,0.2,0,0.3,0.1c0.1,0,0.1,0.1,0.2,0.1c0,0,0.1,0.1,0.1,0.1c0,0,0,0.1,0,0.2c0,0-0.1,0.1-0.1,0.1c0,0-0.1,0.1-0.1,0.1
		c-0.1,0-0.1,0-0.2,0c0,0,0,0,0-0.1c0,0,0-0.1,0-0.1c0,0,0-0.1,0-0.1c0,0-0.1-0.1-0.1-0.1c-0.1,0-0.1,0-0.2,0c-0.1,0-0.1,0-0.2,0.1
		c0,0,0,0.1,0,0.1c0,0,0,0.1,0.1,0.1l0.2,0.1c0.1,0.1,0.1,0.1,0.2,0.2c0,0.1,0,0.1,0,0.2C94.8,80,94.7,80.1,94.5,80.1z"/>
	<path class="st17" d="M96,79.6l-1.1,1c-0.1,0.1-0.1,0.1-0.2,0.1c-0.1,0-0.1,0-0.2,0c-0.1,0-0.1,0-0.1-0.1c0-0.1,0.1-0.1,0.1-0.2
		l1.1-1c0.1-0.1,0.1-0.1,0.2-0.1c0.1,0,0.1,0,0.2,0c0,0,0.1,0.1,0.1,0.1C96.1,79.5,96.1,79.6,96,79.6z M96.2,79.2
		C96.2,79.2,96.1,79.2,96.2,79.2c-0.1-0.2-0.1-0.2,0-0.2c0,0,0.1-0.1,0.2-0.1c0.1,0,0.1,0,0.2,0c0,0,0.1,0,0.1,0.1
		c0,0,0,0.1-0.1,0.2c0,0.1-0.1,0.1-0.2,0.1C96.3,79.2,96.3,79.2,96.2,79.2L96.2,79.2z"/>
	<path class="st17" d="M96.7,80.9c-0.1,0.1-0.2,0.2-0.3,0.2c-0.1,0.1-0.3,0.1-0.4,0.1c-0.1,0-0.3,0-0.4-0.1c-0.1,0-0.2-0.1-0.3-0.2
		c0-0.1,0-0.1,0-0.2c0-0.1,0.1-0.1,0.1-0.2c0,0,0.1-0.1,0.2-0.1c0,0,0.1,0,0.2,0h0.1c0,0,0,0.1,0,0.1c0,0.1,0,0.1,0,0.2
		c0,0,0.1,0.1,0.2,0.1c0.1,0,0.2,0,0.2,0c0.1,0,0.1,0,0.2-0.1c0.1-0.1,0.1-0.1,0.1-0.2c0-0.1-0.1-0.1-0.2-0.2
		c-0.1-0.1-0.2-0.1-0.2-0.2c0-0.1,0-0.1,0-0.2c0-0.1,0.1-0.2,0.1-0.2c0.1-0.1,0.2-0.1,0.3-0.2c0.1,0,0.2-0.1,0.3-0.1
		c0.1,0,0.2,0,0.4,0c0.1,0,0.2,0.1,0.2,0.1c0,0,0.1,0.1,0.1,0.1c0,0,0,0.1,0,0.1c0,0.1,0,0.1-0.1,0.1c0,0-0.1,0.1-0.1,0.1
		c-0.1,0-0.1,0-0.2,0c0,0-0.1,0-0.1-0.1c0,0,0-0.1,0-0.1c0,0-0.1,0-0.1,0c0,0,0-0.1-0.1-0.1c-0.1,0-0.1,0-0.2,0
		c-0.1,0-0.1,0-0.2,0.1c0,0,0,0.1,0,0.1c0,0,0,0.1,0.1,0.1l0.2,0.1c0.1,0,0.1,0.1,0.2,0.2c0,0.1,0,0.1,0,0.2
		C96.9,80.8,96.8,80.9,96.7,80.9z"/>
	<path class="st17" d="M98,80L98,80l0.2-0.2l0.1-0.1l0.1-0.1h0.1h0.1c0,0,0.1,0,0.1,0.1c0,0,0,0.1,0,0.1l-0.1,0.2l-0.2,0.3h0.1
		c0.1,0,0.1,0,0.1,0.1c0,0,0,0.1-0.1,0.1c0,0-0.1,0.1-0.2,0.1c-0.1,0-0.1,0-0.2,0h-0.1l-0.7,0.7l-0.1,0.1c0,0,0,0.1,0,0.1
		c0,0,0,0,0.1,0h0.1h0.1c0,0,0,0,0,0.1c0,0,0,0.1-0.1,0.1c-0.1,0.1-0.2,0.1-0.2,0.1c-0.1,0-0.2,0-0.3,0c-0.1,0-0.2-0.1-0.2-0.1
		c0-0.1,0-0.1,0-0.2c0.1-0.1,0.2-0.2,0.3-0.3l0.7-0.7l0,0c-0.1,0-0.1,0-0.1-0.1c0,0,0-0.1,0-0.1c0,0,0.1-0.1,0.1-0.1
		C97.9,80,97.9,80,98,80z"/>
	<path class="st17" d="M98.7,81.8c-0.1,0-0.3,0.1-0.4,0.1c-0.1,0-0.2,0-0.3,0c-0.1,0-0.2-0.1-0.2-0.1c0-0.1,0-0.1,0-0.2
		c0-0.1,0.1-0.2,0.2-0.2c0.1-0.1,0.2-0.2,0.4-0.2c0.1-0.1,0.3-0.1,0.4-0.1h0.8c0.1-0.1,0.1-0.2,0.1-0.2c0,0,0-0.1-0.2-0.1
		c-0.1,0-0.2,0-0.3,0c-0.1,0-0.2,0-0.2,0.1l-0.2,0.1c0,0-0.1,0-0.1,0c0,0-0.1,0-0.1-0.1c0,0,0-0.1,0.1-0.1c0.1-0.1,0.2-0.1,0.3-0.2
		c0.1-0.1,0.2-0.1,0.4-0.1c0.1,0,0.3,0,0.4,0c0.1,0,0.2,0.1,0.3,0.2c0.1,0.1,0.1,0.2,0,0.2c-0.1,0.1-0.2,0.3-0.3,0.4l-0.2,0.2
		l-0.2,0.2c-0.1,0.1-0.1,0.1-0.2,0.2c0,0.1-0.1,0.1-0.1,0.2c0,0-0.1,0.1-0.2,0.1c-0.1,0-0.1,0-0.2,0c0,0-0.1,0-0.1-0.1
		C98.7,81.9,98.7,81.9,98.7,81.8z M99.2,81.3c-0.1,0-0.2,0-0.3,0h-0.3h-0.2c-0.1,0-0.1,0.1-0.2,0.1c0,0-0.1,0.1-0.1,0.2
		c0,0.1,0,0.1,0.1,0.1c0.1,0,0.2,0,0.3,0c0.1,0,0.2,0,0.3-0.1C99,81.5,99.1,81.4,99.2,81.3L99.2,81.3z"/>
	<path class="st17" d="M100.8,80.9L100.8,80.9c0.1-0.1,0.3-0.1,0.4-0.2c0.1,0,0.2,0,0.3,0c0.1,0,0.2,0.1,0.2,0.1c0,0.1,0,0.2,0,0.2
		c0,0.1,0,0.1-0.1,0.2l-0.2,0.2c-0.2,0.3-0.4,0.5-0.7,0.7c-0.1,0.1-0.1,0.1-0.2,0.2c-0.1,0-0.1,0-0.2,0c-0.1,0-0.1,0-0.1-0.1
		c0-0.1,0-0.1,0.1-0.2l0.6-0.7c0.1-0.1,0.2-0.2,0.2-0.3c0-0.1,0-0.1-0.1-0.2C101.1,81,101,81,100.8,80.9c0,0.1-0.1,0.2-0.2,0.2
		c-0.1,0.1-0.2,0.2-0.3,0.3L99.9,82c-0.1,0.1-0.1,0.1-0.2,0.2c-0.1,0-0.1,0-0.2,0c-0.1,0-0.1,0-0.1-0.1c0-0.1,0.1-0.1,0.1-0.2
		c0.3-0.4,0.7-0.8,1-1.1c0.1-0.1,0.1-0.1,0.2-0.2c0.1,0,0.1,0,0.2,0c0,0,0,0,0.1,0c0,0,0,0.1,0,0.1
		C100.9,80.8,100.9,80.9,100.8,80.9z"/>
	<path class="st17" d="M102.4,81L102.4,81c0.1-0.1,0.1-0.2,0.2-0.3l0.1-0.2c0,0,0.1-0.1,0.1-0.1l0.1-0.1h0.1c0,0,0.1,0,0.1,0.1
		c0,0,0,0.1,0,0.1l-0.1,0.2c-0.1,0.1-0.2,0.2-0.2,0.3h0.1c0,0,0.1,0,0.1,0.1c0,0,0,0.1,0,0.1c0,0.1-0.1,0.1-0.2,0.1
		c-0.1,0-0.1,0-0.2,0h-0.1l-0.6,0.8c0,0-0.1,0.1-0.1,0.2c0,0,0,0.1,0,0.1c0,0,0,0,0.1,0h0.2l0,0c0,0,0,0.1,0,0.1
		c-0.1,0.1-0.1,0.1-0.2,0.1c-0.1,0-0.2,0-0.3,0c-0.1,0-0.2-0.1-0.2-0.1c0-0.1,0-0.1,0-0.2c0.1-0.1,0.1-0.2,0.2-0.3
		c0.2-0.3,0.4-0.5,0.7-0.8l0,0c-0.1,0-0.1,0-0.1-0.1c0,0,0-0.1,0-0.1c0,0,0.1-0.1,0.1-0.1C102.3,80.9,102.4,81,102.4,81z"/>
	<path class="st17" d="M112.6,20.9l0.7,1.1c0-0.2,0.1-0.4,0.3-0.5c0.1-0.2,0.3-0.3,0.5-0.4c0.3-0.1,0.5-0.1,0.8-0.1
		c0.3,0,0.6,0.1,0.8,0.3c0.3,0.2,0.5,0.4,0.7,0.7c0.1,0.2,0.2,0.4,0.3,0.6c0,0.2,0,0.4,0,0.6c0,0.2-0.1,0.3-0.2,0.5
		c-0.1,0.1-0.3,0.3-0.5,0.3c-0.1,0-0.2,0.1-0.4,0.1h-0.3l-0.2-0.1l-0.3-0.1v0.1c0.1,0.1,0.1,0.2,0.1,0.4c0,0.1-0.1,0.2-0.2,0.2
		c-0.1,0-0.2,0-0.3,0c-0.1-0.1-0.2-0.1-0.3-0.3l-2-3.2c-0.1-0.1-0.1-0.2-0.1-0.4c0-0.1,0.1-0.2,0.2-0.2c0.1-0.1,0.2-0.1,0.4,0
		C112.5,20.7,112.6,20.8,112.6,20.9z M114,23.1c0.1,0.3,0.4,0.5,0.7,0.6c0.2,0.1,0.5,0.1,0.7,0c0.2-0.1,0.3-0.2,0.4-0.4
		c0-0.3-0.1-0.6-0.2-0.8c-0.1-0.2-0.2-0.3-0.4-0.5c-0.1-0.1-0.3-0.2-0.5-0.2c-0.2,0-0.3,0-0.5,0c-0.1,0-0.3,0.1-0.3,0.3
		c-0.1,0.1-0.1,0.3-0.1,0.4C113.8,22.7,113.9,22.9,114,23.1z"/>
	<path class="st17" d="M116.3,19.5l0.7,1.1c0.1-0.2,0.1-0.4,0.3-0.5c0.1-0.2,0.3-0.3,0.5-0.3c0.3-0.1,0.5-0.1,0.8-0.1
		c0.3,0,0.6,0.2,0.8,0.3c0.3,0.2,0.5,0.4,0.7,0.7c0.1,0.2,0.2,0.4,0.3,0.6c0,0.2,0,0.4,0,0.6c0,0.2-0.1,0.4-0.2,0.5
		c-0.1,0.1-0.3,0.3-0.5,0.3c-0.1,0-0.2,0.1-0.4,0.1c-0.1,0-0.2,0-0.3,0c-0.1,0-0.2,0-0.3-0.1c-0.1,0-0.2-0.1-0.3-0.1v0.1
		c0.1,0.1,0.1,0.2,0.1,0.4c0,0.1-0.1,0.2-0.2,0.2c-0.1,0-0.2,0-0.3,0c-0.1-0.1-0.2-0.2-0.3-0.3l-2-3.2c-0.1-0.1-0.1-0.2-0.1-0.4
		c0-0.1,0.1-0.2,0.2-0.2c0.1,0,0.2,0,0.3,0C116.1,19.2,116.2,19.3,116.3,19.5z M117.7,21.6c0.2,0.3,0.4,0.5,0.7,0.6
		c0.2,0.1,0.5,0.1,0.7,0c0.2-0.1,0.3-0.2,0.4-0.4c0-0.3,0-0.6-0.2-0.8c-0.1-0.2-0.2-0.3-0.4-0.5c-0.1-0.1-0.3-0.2-0.5-0.2
		c-0.2,0-0.3,0-0.5,0c-0.3,0.1-0.5,0.4-0.4,0.7C117.5,21.2,117.6,21.4,117.7,21.6z"/>
	<path class="st5" d="M125.5,166.5c-0.1-1-6.4-15.3-7.7-18.1c-1.7-3.8-3.1-7.7-4.2-11.8c-0.3-1.8-1-3.5-1.9-5.1
		c-0.4-0.4-7.4-7.8-8.1-8.9s-3.8-2.9-5.4-4.4s-1.9-3.1-2.8-3.4s-1.8-0.5-1.8-0.5c0.1-0.6,0.2-6,0.2-6l-1.1-0.1h-0.3l-0.7-0.1
		l-0.4-0.1l-0.6-0.1l-0.4-0.1l-0.5-0.1l-0.4-0.1l-0.5-0.1l-0.5-0.1l-0.4-0.1l-0.5-0.1l-0.4-0.1l-0.5-0.1l-0.3-0.1l-0.5-0.1l-0.3-0.1
		l-0.5-0.1l-0.3-0.1l-0.5-0.2l-0.2-0.1c-0.9-0.3-1.9-0.6-2.8-1l-0.2-0.1h-0.1H81l-0.2-0.1c-1.8-0.7-3.4-1.6-5-2.7l0,0l-0.2-0.2l0,0
		l-0.2-0.2c-0.1,1.9-0.4,3.7-1,5.5c-1,1.7-1,3.8,0,5.5c1.2,1.5,2.6,2.8,4.2,3.9l0,0c0,0,7.1,4.2,11.5,6.3l0.1-0.1l1.6,0.9
		c0.4,0.2,0.8,0.4,1.2,0.7c11.3,6.7,11.3,9.9,11.2,10.6c-0.2,0.7,0.2,1.4,0.9,1.6c0,0,0,0,0.1,0c0.9,0.2,1.7,0.8,1.6,1.6
		s-0.7,1.6,1,2.6s1.4,2.9,2,6.3s3.8,9.4,5,10.1s4.7,5.9,5.8,8.2s1.8,2.4,1.8,2.4l0,0c0.3,0,0.7-0.1,1-0.3
		c-0.4-2.4-5.4-10.5-6.4-12.2c1,1.7,6.4,10.1,6.4,12.2c0.8-0.2,1.6-0.7,2.3-1.3C125.5,166.8,125.5,166.6,125.5,166.5z"/>
	<path class="st17" d="M143.3,85.1c0.1,0.1,0.1,0.3,0.2,0.4c0.1,0.6-0.6,1.3-1.6,1.4l-3.5,0.4c-1,0.1-1.8-0.3-1.9-1
		c0-0.1,0-0.2,0-0.3c-0.2,0.2-0.3,0.5-0.3,0.8c0.1,0.7,1,1.2,2,1.1l3.8-0.4c1.1-0.1,1.8-0.8,1.8-1.5
		C143.8,85.6,143.6,85.3,143.3,85.1z"/>
	<path class="st7" d="M140.6,87c0.7,0,1.4-0.1,2-0.3c0.3-0.1,0.5-0.3,0.7-0.6c0.1-0.1,0.1-0.3,0.2-0.4c0-0.2,0-0.5-0.2-0.6l-0.2-0.1
		c0,0.4-0.4,0.8-0.9,0.8c0,0-0.9-0.1-1,0.4C141.2,86.6,140.9,86.8,140.6,87z"/>
</g>
</svg>
