<svg xmlns="http://www.w3.org/2000/svg" viewBox="0 0 374.16 250.33"><defs><style>.cls-1{isolation:isolate;}.cls-2,.cls-6,.cls-7{fill:#57c3e4;}.cls-2,.cls-21{opacity:0.33;}.cls-3{fill:#494e9d;}.cls-4{fill:#fff;mix-blend-mode:soft-light;}.cls-5{fill:#2c2c5b;}.cls-17,.cls-7{mix-blend-mode:multiply;}.cls-8{fill:#5f6bb0;}.cls-9{fill:#41458a;}.cls-10{fill:#00819c;}.cls-11{fill:#00647f;}.cls-12{fill:#4ca7c3;}.cls-13{fill:#e94965;}.cls-14{fill:#912f3e;}.cls-15{fill:#5f1c24;}.cls-16{fill:#bb3c51;}.cls-18{fill:#9d9d9c;}.cls-19{fill:#373972;}.cls-20{fill:#3a3c79;}</style></defs><title>Slider 2</title><g class="cls-1"><g id="Capa_1" data-name="Capa 1"><path class="cls-2" d="M389.11,210.66c0-5.07-4.78-9.18-10.69-9.18H345.86a9,9,0,0,0,5.44-8c0-5.07-4.79-9.18-10.7-9.18H307.69a8.62,8.62,0,0,0,.23-16.21h53c5.91,0,10.7-4.11,10.7-9.18s-4.79-9.17-10.7-9.17h-1a14.18,14.18,0,0,0-1.75-.26h20.3c5.91,0,10.69-4.11,10.69-9.17s-4.78-9.17-10.69-9.17H345.86a9.07,9.07,0,0,0,5.44-8c0-5.07-4.79-9.17-10.7-9.17H307.69c3.45-1.53,5.81-4.6,5.81-8.16a9.07,9.07,0,0,0-5.58-8.06h53c5.91,0,10.7-4.11,10.7-9.18s-4.79-9.17-10.7-9.17H43.16c-5.91,0-10.7,4.11-10.7,9.17s4.79,9.18,10.7,9.18h53a9.08,9.08,0,0,0-5.59,8.06c0,3.56,2.36,6.63,5.82,8.16H63.47c-5.91,0-10.7,4.1-10.7,9.17a9.07,9.07,0,0,0,5.44,8H25.65c-5.91,0-10.7,4.1-10.7,9.17s4.79,9.17,10.7,9.17H45.94a14,14,0,0,0-1.74.26h-1c-5.91,0-10.7,4.1-10.7,9.17s4.79,9.18,10.7,9.18h53a9.08,9.08,0,0,0-5.59,8.06c0,3.56,2.36,6.63,5.82,8.15H63.47c-5.91,0-10.7,4.11-10.7,9.18a9,9,0,0,0,5.44,8H25.65c-5.91,0-10.7,4.11-10.7,9.18s4.79,9.17,10.7,9.17H40.48c-4.61,1-8,4.6-8,8.88,0,5.06,4.79,9.17,10.7,9.17h1.16a12.85,12.85,0,0,0,2.5.26H95.66a9,9,0,0,0-5.1,7.8,9.11,9.11,0,0,0,5.82,8.16H63.47c-5.91,0-10.7,4.11-10.7,9.17a9.07,9.07,0,0,0,5.44,8H25.65c-5.91,0-10.7,4.1-10.7,9.17s4.79,9.17,10.7,9.17H38.19a9.13,9.13,0,0,0-5.73,8.13c0,4.65,4,8.48,9.27,9.08a12,12,0,0,0,5.09,1.1H357.24a12,12,0,0,0,5.1-1.1c5.23-.6,9.27-4.43,9.27-9.08a9.13,9.13,0,0,0-5.73-8.13h12.54c5.91,0,10.69-4.1,10.69-9.17s-4.78-9.17-10.69-9.17H345.86a9.07,9.07,0,0,0,5.44-8c0-5.06-4.79-9.17-10.7-9.17H307.69a9.12,9.12,0,0,0,5.81-8.16,9,9,0,0,0-5.1-7.8h48.84a12.87,12.87,0,0,0,2.51-.26h1.16c5.91,0,10.7-4.11,10.7-9.17,0-4.28-3.41-7.86-8-8.88h14.83C384.33,219.83,389.11,215.73,389.11,210.66Z" transform="translate(-14.95 -61.85)"/><path class="cls-3" d="M145.94,117.45c1.28,3.42,1.16,6.63-.28,7.17l.34-.13,5.58,9.76a140.31,140.31,0,0,1,17.66,3.81l-9-18.91-.34.13c1.43-.54,1.56-3.75.28-7.17s-3.49-5.75-4.92-5.21L141,112.24C142.46,111.7,144.66,114,145.94,117.45Z" transform="translate(-14.95 -61.85)"/><path class="cls-4" d="M145.66,124.62l.34-.13,14.26-5.34-.34.13c1.15-.44-11.82-4.74-16.9-6.4a11.27,11.27,0,0,1,2.92,4.57C147.22,120.87,147.1,124.08,145.66,124.62Z" transform="translate(-14.95 -61.85)"/><path class="cls-5" d="M163,136.43c2,.47,4.08,1,6.08,1.59l-8.89-18.66L146,124.69l10.21-1.6Z" transform="translate(-14.95 -61.85)"/><path class="cls-5" d="M148,116.64c1.27,3.39.47,6.83-1.8,7.68s-5.14-1.21-6.41-4.61-.46-6.83,1.8-7.68S146.72,113.24,148,116.64Z" transform="translate(-14.95 -61.85)"/><path class="cls-6" d="M145.48,117.41A3.68,3.68,0,0,1,143,122l-68.3,20.63a3.68,3.68,0,0,1-4.59-2.46h0a3.68,3.68,0,0,1,2.46-4.59L140.89,115a3.69,3.69,0,0,1,4.59,2.46Z" transform="translate(-14.95 -61.85)"/><path class="cls-7" d="M145.48,117.41a3.66,3.66,0,0,0-2.89-2.54,3.52,3.52,0,0,1,.27.63,3.67,3.67,0,0,1-2.46,4.59L72.1,140.72a3.55,3.55,0,0,1-1.71.09,3.69,3.69,0,0,0,4.33,1.82L143,122A3.68,3.68,0,0,0,145.48,117.41Z" transform="translate(-14.95 -61.85)"/><path class="cls-8" d="M92,169.75l-9.64-26.1-.34.12c1.45-.49,1.68-3.7.5-7.16s-3.3-5.86-4.75-5.36l-14.42,4.89c1.46-.49,3.58,1.91,4.76,5.37s1,6.66-.5,7.15l.34-.11,6.83,14.8C80.54,165.31,86.11,168,92,169.75Z" transform="translate(-14.95 -61.85)"/><path class="cls-4" d="M67.57,148.66l.34-.11,14.41-4.9-.34.12c1.17-.4-11.66-5.11-16.69-6.92a11.27,11.27,0,0,1,2.78,4.66C69.24,145,69,148.17,67.57,148.66Z" transform="translate(-14.95 -61.85)"/><path class="cls-5" d="M86.24,167.75c1.85.71,3.72,1.38,5.61,2l-9.58-25.85-14.38,4.88,10.26-1.28Z" transform="translate(-14.95 -61.85)"/><path class="cls-5" d="M70.14,140.76c1.17,3.43.25,6.85-2,7.62S63,147,61.84,143.58s-.25-6.85,2-7.63S69,137.32,70.14,140.76Z" transform="translate(-14.95 -61.85)"/><polygon class="cls-5" points="272.78 198.74 202.85 229.13 81.3 202.89 145.18 170.17 272.78 198.74"/><path class="cls-3" d="M139.38,133.92a2.61,2.61,0,0,1,2.58-2.65l198.19,28.57a2.61,2.61,0,0,1,2.58,2.64h0a2.61,2.61,0,0,1-2.58,2.65L142,136.56a2.61,2.61,0,0,1-2.58-2.64Z" transform="translate(-14.95 -61.85)"/><polygon class="cls-9" points="145.99 73.17 155.82 157.39 272.46 175.8 312.48 97.99 324.6 97.99 272.78 198.74 145.18 170.17 133.87 73.17 145.99 73.17"/><polygon class="cls-6" points="179.54 18.23 168.21 4.55 141.95 18.39 145.65 46.14 176.55 46.14 179.54 18.23"/><polygon class="cls-10" points="194.47 0 164.28 13.71 164.42 14.73 168.21 14.73 168.21 41.76 178.32 159.18 201.94 37.92 194.47 0"/><polygon class="cls-5" points="261.18 178.96 237.4 189.79 170.69 174.93 199.5 160.18 261.18 178.96"/><path class="cls-11" d="M298.81,74.74l-29-4.18a26.54,26.54,0,0,1-47.78-6.89l-12.64-1.82c-.64,0,5,160.18,5,160.18l61.68,18.78L297.42,76.92l1.39.2a1.19,1.19,0,0,0,0-2.38Z" transform="translate(-14.95 -61.85)"/><polygon class="cls-6" points="261.18 178.96 237.4 189.79 250.92 28.78 282.62 14.77 261.18 178.96"/><polygon class="cls-12" points="261.18 178.96 237.4 189.79 250.92 28.78 282.62 14.77 261.18 178.96"/><path class="cls-6" d="M268.62,88.44,246.11,85.2a26.65,26.65,0,0,1-53-3.88,25.45,25.45,0,0,1,.27-3.72l-6.86-1-5.61-.81-1.66-.24a1.2,1.2,0,0,0,0,2.39l2.08.3,4.33,158.54,66.71,14.85L266,90.45l2.65.38a1.2,1.2,0,0,0,0-2.39Z" transform="translate(-14.95 -61.85)"/><path class="cls-4" d="M185.84,94.15l3.1,136.42,59.42,13.23.68-9.17C229.49,193.67,210.79,132.06,185.84,94.15Z" transform="translate(-14.95 -61.85)"/><polygon class="cls-11" points="260.18 175.69 241.45 183.83 258.56 171.83 276.72 21.03 260.18 175.69"/><polygon class="cls-12" points="164.28 13.71 141.95 18.39 171.76 0 194.47 0 178.41 15.74 164.28 13.71"/><polygon class="cls-6" points="318.73 74.48 287.19 88.19 243.75 66.75 249.26 30.68 252.72 26.88 321.48 43.18 318.73 74.48"/><polygon class="cls-4" points="289.94 56.89 287.19 88.19 318.73 74.48 321.48 43.18 289.94 56.89"/><polygon class="cls-11" points="291.84 58.05 289.45 85.23 316.84 73.33 319.23 46.14 291.84 58.05"/><polygon class="cls-12" points="321.48 43.18 289.94 56.89 252.72 26.88 231.15 23.35 254.89 8.71 284.41 12.87 321.48 43.18"/><polygon class="cls-13" points="131.02 87.45 122.21 76.81 101.79 87.58 104.67 109.16 128.7 109.16 131.02 87.45"/><polygon class="cls-14" points="142.64 73.27 119.15 83.93 119.27 84.73 122.21 84.73 122.21 105.75 132.62 180.03 148.45 102.77 142.64 73.27"/><polygon class="cls-5" points="197.06 195.41 178.56 203.84 126.67 192.28 149.08 180.81 197.06 195.41"/><path class="cls-15" d="M227.12,145.14l-22.53-3.25a20.65,20.65,0,0,1-37.17-5.35l-9.83-1.42c-.5,0,6.45,107.54,6.45,107.54l48,14.6,14-110.42,1.08.16a.93.93,0,0,0,0-1.86Z" transform="translate(-14.95 -61.85)"/><polygon class="cls-6" points="197.06 195.41 178.56 203.84 186.55 95.65 211.2 84.76 197.06 195.41"/><polygon class="cls-16" points="197.06 195.41 178.56 203.84 186.55 95.65 211.2 84.76 197.06 195.41"/><path class="cls-13" d="M203.64,155.81l-17.51-2.53a20.74,20.74,0,0,1-41.25-3,19.76,19.76,0,0,1,.22-2.89l-5.34-.77L135.4,146l-1.29-.19a.93.93,0,0,0,0,1.86l1.61.23,5.91,106.27,51.89,11.55,8.06-108.32,2.06.29a.93.93,0,0,0,0-1.85Z" transform="translate(-14.95 -61.85)"/><path class="cls-4" d="M139.25,160.25l4.94,89.05,46.22,10.29.53-7.13A772.51,772.51,0,0,0,139.25,160.25Z" transform="translate(-14.95 -61.85)"/><polygon class="cls-15" points="196.28 192.87 181.71 199.21 195.03 189.87 206.61 89.63 196.28 192.87"/><polygon class="cls-16" points="119.15 83.93 101.79 87.58 124.98 73.27 142.64 73.27 130.14 85.52 119.15 83.93"/><polygon class="cls-13" points="239.29 131.21 214.76 141.87 180.97 125.19 185.25 97.13 187.94 94.18 241.44 106.86 239.29 131.21"/><polygon class="cls-4" points="216.9 117.52 214.76 141.87 239.29 131.21 241.44 106.86 216.9 117.52"/><polygon class="cls-15" points="218.38 118.42 216.51 139.57 237.82 130.31 239.68 109.16 218.38 118.42"/><polygon class="cls-16" points="241.44 106.86 216.9 117.52 187.94 94.18 171.17 91.43 189.63 80.04 212.6 83.28 241.44 106.86"/><polygon class="cls-8" points="75.78 99.81 91.95 190.11 197.31 216.35 242.55 128.38 254.67 128.38 202.85 229.13 81.3 202.89 63.66 99.81 75.78 99.81"/><g class="cls-17"><polygon class="cls-18" points="89.76 187.59 91.58 188.04 75.78 99.81 74.04 99.81 89.76 187.59"/><polygon class="cls-18" points="251.18 128.38 200.66 226.61 80.94 200.77 81.3 202.89 202.85 229.13 254.67 128.38 251.18 128.38"/></g><polygon class="cls-3" points="272.78 198.74 202.85 229.13 252.18 133.22 322.45 102.17 272.78 198.74"/><polygon class="cls-3" points="272.78 198.74 202.85 229.13 252.18 133.22 322.45 102.17 272.78 198.74"/><polygon class="cls-4" points="270.56 191.5 215.93 215.24 254.47 140.32 309.36 116.06 270.56 191.5"/><path class="cls-8" d="M72.44,164.31A2.62,2.62,0,0,1,75,161.66l198.19,28.57a2.62,2.62,0,0,1,2.59,2.65h0a2.61,2.61,0,0,1-2.59,2.64L75,167a2.61,2.61,0,0,1-2.58-2.64Z" transform="translate(-14.95 -61.85)"/><path class="cls-19" d="M287.73,256.67l-28.11-3.75-6.79-.91c-2.94-.39-11.89-1.14-10.05-3.38.72-.87,6.86-5.64,8.28-6.73,2.55-2,5.21-4.8,5.8-8,1.29-7.05-7.82-11.74-12.71-11.07-7.94,1.09-15.45,3.74-23,6.14-4.51,1.44-10,4.06-16.23,6.08L113.7,222.81,91.15,233.3,181,247.12c-16.9,8-3,16.68,1.68,30.05,5.82,16.68-9.32,18.05,23.06,30.74,0,0,18.69,3.79,27.46,4,.13,0,18.36,2.43,16.39-6.43-.61-2.72-3.37-2.88-6.13-3.8,3.49,1.16,11.85.21,14.94-1.49,5.45-3,5.38-10-.86-10.78l-4.51-.79c5.26.38,12.88.37,17.88-1.54,5.78-2.21,7.84-10.21,1-12.27,7,.77,24.88,9.59,36.68-9C313.39,258.17,294.55,257.58,287.73,256.67Z" transform="translate(-14.95 -61.85)"/><path class="cls-3" d="M287.73,256.67l-28.11-3.75-6.79-.91c-2.94-.39-11.89-1.14-10.05-3.38.72-.87,6.86-5.64,8.28-6.73,2.55-2,5.21-4.8,5.8-8,1.29-7.05-7.82-11.74-12.71-11.07-7.94,1.09-15.45,3.74-23,6.14-4.51,1.44-10,4.06-16.23,6.08L187.38,247.3c-16.91,8.06-9.36,16.5-4.7,29.87,5.82,16.68-9.32,18.05,23.06,30.74,0,0,18.69,3.79,27.46,4,.13,0,18.36,2.43,16.39-6.43-.61-2.72-3.37-2.88-6.13-3.8,3.49,1.16,11.85.21,14.94-1.49,5.45-3,5.38-10-.86-10.78l-4.51-.79c5.26.38,12.88.37,17.88-1.54,5.78-2.21,7.84-10.21,1-12.27,7,.77,24.88,9.59,36.68-9C313.39,258.17,294.55,257.58,287.73,256.67Z" transform="translate(-14.95 -61.85)"/><path class="cls-20" d="M200.72,296.49c3.53-8.08,7.27-16,11.57-23.74a1.63,1.63,0,0,1,.41-1c11.92-9.38,20.08-17.35,31.93-24.74,2.14-1.77,5.44-4.32,6.43-5.09,2.55-2,5.21-4.8,5.8-8,.76-4.2-2.15-7.54-5.67-9.44-1.29,1.53-7.85,6.46-10.58,8.95-1.83,1.44-6.8,1.58-8.62,3-9.86,7.85-19.33,16.17-28.89,24.38q-7.22,6.17-14.43,12.34c-1.84,1.57-3.85,3.06-5.78,4.63,4.67,14.35-6.25,17.09,14,26.41C198.22,301.67,199.57,299.13,200.72,296.49Z" transform="translate(-14.95 -61.85)"/><path class="cls-20" d="M287.73,256.67l-14.92-2q-11.28,9.06-22.47,18.26c-8.92,7.33-18,14.55-26.65,22.15-5,4.36-9.88,9.13-15.13,13.37,5.55,1.06,18,3.28,24.64,3.42.13,0,18.36,2.43,16.39-6.43-.61-2.72-3.37-2.88-6.13-3.8,3.49,1.16,11.85.21,14.94-1.49,5.45-3,5.38-10-.86-10.78l-4.51-.79c5.26.38,12.88.37,17.88-1.54,5.78-2.21,7.84-10.21,1-12.27,7,.77,24.88,9.59,36.68-9C313.39,258.17,294.55,257.58,287.73,256.67Z" transform="translate(-14.95 -61.85)"/><polygon class="cls-5" points="185.59 208.66 159.55 221.77 78.79 226.11 110.2 196.46 185.59 208.66"/><path class="cls-6" d="M290.61,265.1l-53.84-7.17c-3.19-.42-13.33-4.05-11.39-6,6.31-2.64,17.69-8.66,15.89-17.23-.74-3.57-8.53-3.67-12.24-1.63l-40.7,14.88a1,1,0,0,0-1-.62l-90-13.46-4.78-.42-1.42-.12a1,1,0,0,0-.93,1.07c0,.55,3.53,53.59,3.53,53.59l71.44-3.84c11.61,13.34,42.72,25.63,51.34,26.69l.12,0s23.11,4.41,24.13-3.28c.41-3.05-2.18-6-6-7.13,9,.75,18.41.42,19-4.1.47-3.52-3-6.89-7.81-7.53l-5.94-.79c11.19.93,23,.7,23.69-4.26.42-3.11-1.89-6.11-5.49-7.65,19.83,2.25,40.54,3.22,41.29-2.41C300.08,269.67,296.08,265.83,290.61,265.1Z" transform="translate(-14.95 -61.85)"/><g class="cls-21"><path class="cls-4" d="M126.61,238.21l-29.26-4.37-4.78-.42-1.42-.12a1,1,0,0,0-.93,1.07c0,.55,3.53,53.59,3.53,53.59S121.8,245.69,126.61,238.21Z" transform="translate(-14.95 -61.85)"/><path class="cls-4" d="M126.33,269.66a190.48,190.48,0,0,1-11.11,17.12l8.69-.47c4.33-5.9,8.1-12.24,11.9-18.58a228,228,0,0,1,17.5-25.52l-8.78-1.32C138.44,250.47,132.16,259.92,126.33,269.66Z" transform="translate(-14.95 -61.85)"/><path class="cls-4" d="M290.61,265.1l-53.84-7.17c-3.19-.42-13.33-4.05-11.39-6,6.31-2.64,17.69-8.66,15.89-17.23-.74-3.57-8.53-3.67-12.24-1.63l-40.7,14.88a1,1,0,0,0-1-.62l-5.07-.75c-1.55,1.65-3.09,3.31-4.6,5-8.85,9.95-15.76,20.55-22.62,31.91-.25.41-.5.82-.74,1.24l10.84-.58c11.61,13.34,42.72,25.63,51.34,26.69l.12,0s23.11,4.41,24.13-3.28c.41-3.05-2.18-6-6-7.13,9,.75,18.41.42,19-4.1.47-3.52-3-6.89-7.81-7.53l-5.94-.79c11.19.93,23,.7,23.69-4.26.42-3.11-1.89-6.11-5.49-7.65,19.83,2.25,40.54,3.22,41.29-2.41C300.08,269.67,296.08,265.83,290.61,265.1Z" transform="translate(-14.95 -61.85)"/></g></g></g></svg>