<?xml version="1.0" encoding="utf-8"?>
<!-- Generator: Adobe Illustrator 16.0.0, SVG Export Plug-In . SVG Version: 6.00 Build 0)  -->
<!DOCTYPE svg PUBLIC "-//W3C//DTD SVG 1.1//EN" "http://www.w3.org/Graphics/SVG/1.1/DTD/svg11.dtd">
<svg version="1.1" id="Layer_1" xmlns="http://www.w3.org/2000/svg" xmlns:xlink="http://www.w3.org/1999/xlink" x="0px" y="0px"
	 width="70px" height="55px" viewBox="0 0 70 55" enable-background="new 0 0 70 55" xml:space="preserve">
<g>
	<defs>
		<path id="SVGID_1_" d="M20.268,47.748h1.562v-9.215h-1.562V47.748z M31.668,38.533l-3.263,6.461l-3.24-6.461h-1.703l4.965,9.977
			l4.991-9.977H31.668z M12.311,39.063v-0.53h-1.562v9.215h1.562v-5.533c0-0.738,0.202-1.299,0.622-1.718
			c0.395-0.406,0.997-0.612,1.789-0.612c1.63,0,2.388,0.767,2.388,2.413v5.45h1.562v-5.533c0-1.178-0.347-2.113-1.032-2.782
			c-0.683-0.666-1.666-1.004-2.918-1.004C13.674,38.429,12.868,38.642,12.311,39.063 M51.108,38.178
			c-0.09,0.007-0.17,0.045-0.239,0.114c-0.069,0.056-0.066,0.111,0.011,0.167c0.076,0.056,0.128,0.09,0.156,0.104
			c-0.015,0.069-0.021,0.135-0.021,0.197c0,0.063-0.013,0.129-0.041,0.198c-0.042,0.139-0.08,0.264-0.114,0.374
			c-0.035,0.111-0.087,0.229-0.156,0.354c-0.153,0.263-0.288,0.537-0.405,0.821c-0.118,0.284-0.232,0.565-0.344,0.842
			c-0.236,0.583-0.472,1.158-0.707,1.727c-0.236,0.569-0.472,1.145-0.708,1.727c-0.041,0.111-0.086,0.222-0.135,0.333
			c-0.048,0.111-0.094,0.222-0.135,0.333c0.069-0.263,0.143-0.527,0.218-0.79c0.076-0.264,0.163-0.521,0.261-0.771
			c0.277-0.817,0.578-1.622,0.904-2.413c0.326-0.79,0.648-1.58,0.968-2.371c0-0.055-0.021-0.062-0.062-0.021
			c-0.431,0.735-0.812,1.494-1.144,2.277c-0.333,0.784-0.639,1.578-0.916,2.382c-0.235,0.666-0.461,1.342-0.676,2.028
			s-0.398,1.384-0.552,2.091c-0.235,0.609-0.439,1.22-0.613,1.83c-0.173,0.61-0.295,1.241-0.364,1.894
			c-0.014,0.11,0.038,0.231,0.156,0.364c0.118,0.131,0.211,0.231,0.281,0.302c0.139,0.11,0.298,0.211,0.479,0.301
			c0.18,0.091,0.353,0.149,0.52,0.177c0.125,0.028,0.257,0.049,0.395,0.062c0.14,0.014,0.271,0.007,0.396-0.021
			c0.125-0.028,0.232-0.083,0.323-0.167c0.089-0.083,0.148-0.208,0.177-0.374c0.069-0.68,0.218-1.342,0.447-1.986
			c0.229-0.645,0.468-1.279,0.717-1.903c0.167-0.402,0.33-0.801,0.489-1.196s0.322-0.794,0.488-1.196
			c0.042-0.069,0.087-0.146,0.136-0.229s0.094-0.159,0.135-0.229c0.194-0.347,0.393-0.687,0.593-1.02
			c0.201-0.333,0.413-0.658,0.635-0.978c0.444-0.639,0.919-1.245,1.425-1.82s1.051-1.12,1.633-1.633
			c0.139-0.125,0.278-0.25,0.416-0.374c0.139-0.126,0.285-0.236,0.438-0.333c0.014,0,0.034-0.007,0.062-0.021
			c0.027-0.014,0.055-0.027,0.083-0.041v0.041c0.014,0.056,0.014,0.111,0,0.167c-0.014,0.055-0.021,0.104-0.021,0.145
			c-0.042,0.195-0.101,0.375-0.178,0.542c-0.076,0.166-0.148,0.34-0.218,0.52c-0.083,0.222-0.159,0.44-0.229,0.655
			c-0.07,0.216-0.14,0.434-0.208,0.655c-0.139,0.402-0.284,0.808-0.438,1.217c-0.152,0.409-0.326,0.809-0.52,1.196
			c-0.153,0.319-0.33,0.624-0.53,0.915c-0.201,0.291-0.455,0.534-0.76,0.729c-0.125,0.083-0.235,0.135-0.333,0.155
			c-0.097,0.021-0.208,0.046-0.332,0.073c-0.057,0.014-0.108,0.028-0.156,0.041c-0.049,0.015-0.102,0.028-0.156,0.042h-0.041h-0.188
			h-0.208c-0.194,0.015-0.315,0.084-0.364,0.208c-0.049,0.125-0.018,0.264,0.094,0.416c0.139,0.194,0.305,0.357,0.499,0.489
			s0.401,0.239,0.624,0.322c0.499,0.194,0.998,0.268,1.498,0.219c0.499-0.049,0.97-0.219,1.414-0.51
			c0.305-0.209,0.568-0.469,0.791-0.78c0.222-0.312,0.416-0.628,0.582-0.946c0.194-0.389,0.36-0.783,0.5-1.187
			c0.138-0.401,0.263-0.817,0.373-1.247c0.111-0.431,0.209-0.874,0.292-1.332c0.083-0.457,0.11-0.908,0.083-1.352
			c-0.028-0.375-0.143-0.725-0.344-1.051c-0.2-0.326-0.453-0.582-0.759-0.77c-0.305-0.188-0.638-0.281-0.998-0.281
			c-0.361,0-0.707,0.125-1.04,0.375c-0.444,0.333-0.863,0.693-1.259,1.081c-0.396,0.389-0.773,0.798-1.134,1.228
			c0.069-0.193,0.117-0.385,0.146-0.571c0.027-0.188,0.027-0.386,0-0.594c-0.028-0.36-0.146-0.696-0.354-1.009
			s-0.485-0.537-0.832-0.676c-0.027-0.014-0.049-0.021-0.062-0.021s-0.028-0.008-0.042-0.021c-0.014,0-0.049-0.014-0.104-0.041
			c-0.069-0.028-0.139-0.053-0.208-0.073s-0.139-0.045-0.208-0.072c-0.065-0.01-0.129-0.014-0.19-0.014
			C51.168,38.175,51.139,38.176,51.108,38.178 M62.403,38.178c-0.09,0.007-0.17,0.045-0.238,0.114
			c-0.07,0.056-0.066,0.111,0.01,0.167s0.128,0.09,0.156,0.104c-0.014,0.069-0.021,0.135-0.021,0.197
			c0,0.063-0.015,0.129-0.042,0.198c-0.041,0.139-0.08,0.264-0.114,0.374c-0.035,0.111-0.087,0.229-0.156,0.354
			c-0.152,0.263-0.288,0.537-0.405,0.821c-0.118,0.284-0.232,0.565-0.343,0.842c-0.236,0.583-0.472,1.158-0.708,1.727
			c-0.235,0.569-0.472,1.145-0.707,1.727c-0.042,0.111-0.087,0.222-0.136,0.333c-0.048,0.111-0.093,0.222-0.135,0.333
			c0.069-0.263,0.143-0.527,0.218-0.79c0.077-0.264,0.163-0.521,0.26-0.771c0.278-0.817,0.579-1.622,0.905-2.413
			c0.326-0.79,0.648-1.58,0.968-2.371c0-0.055-0.021-0.062-0.062-0.021c-0.43,0.735-0.812,1.494-1.144,2.277
			c-0.334,0.784-0.639,1.578-0.916,2.382c-0.235,0.666-0.461,1.342-0.676,2.028s-0.398,1.384-0.552,2.091
			c-0.235,0.609-0.439,1.22-0.613,1.83s-0.295,1.241-0.363,1.894c-0.015,0.11,0.038,0.231,0.155,0.364
			c0.118,0.131,0.212,0.231,0.28,0.302c0.139,0.11,0.299,0.211,0.479,0.301c0.181,0.091,0.354,0.149,0.521,0.177
			c0.125,0.028,0.257,0.049,0.396,0.062s0.271,0.007,0.395-0.021c0.125-0.028,0.232-0.083,0.323-0.167
			c0.09-0.083,0.148-0.208,0.177-0.374c0.069-0.68,0.218-1.342,0.447-1.986c0.229-0.645,0.468-1.279,0.718-1.903
			c0.166-0.402,0.329-0.801,0.488-1.196s0.322-0.794,0.489-1.196c0.041-0.069,0.086-0.146,0.135-0.229s0.094-0.159,0.136-0.229
			c0.194-0.347,0.392-0.687,0.593-1.02c0.2-0.333,0.412-0.658,0.634-0.978c0.444-0.639,0.919-1.245,1.426-1.82
			c0.506-0.575,1.05-1.12,1.632-1.633c0.139-0.125,0.278-0.25,0.416-0.374c0.139-0.126,0.284-0.236,0.438-0.333
			c0.014,0,0.034-0.007,0.062-0.021c0.027-0.014,0.056-0.027,0.083-0.041v0.041c0.014,0.056,0.014,0.111,0,0.167
			c-0.014,0.055-0.021,0.104-0.021,0.145c-0.042,0.195-0.101,0.375-0.177,0.542c-0.077,0.166-0.149,0.34-0.219,0.52
			c-0.083,0.222-0.16,0.44-0.229,0.655c-0.07,0.216-0.139,0.434-0.208,0.655c-0.14,0.402-0.285,0.808-0.437,1.217
			c-0.153,0.409-0.326,0.809-0.521,1.196c-0.152,0.319-0.33,0.624-0.53,0.915c-0.201,0.291-0.455,0.534-0.76,0.729
			c-0.124,0.083-0.236,0.135-0.333,0.155c-0.097,0.021-0.207,0.046-0.332,0.073c-0.056,0.014-0.108,0.028-0.156,0.041
			c-0.049,0.015-0.101,0.028-0.156,0.042h-0.042h-0.187h-0.209c-0.193,0.015-0.314,0.084-0.363,0.208
			c-0.049,0.125-0.018,0.264,0.094,0.416c0.139,0.194,0.305,0.357,0.499,0.489c0.193,0.132,0.402,0.239,0.624,0.322
			c0.5,0.194,0.999,0.268,1.498,0.219s0.97-0.219,1.414-0.51c0.305-0.209,0.568-0.469,0.791-0.78
			c0.222-0.312,0.416-0.628,0.582-0.946c0.194-0.389,0.36-0.783,0.499-1.187c0.139-0.401,0.264-0.817,0.375-1.247
			c0.11-0.431,0.208-0.874,0.291-1.332c0.083-0.457,0.11-0.908,0.083-1.352c-0.027-0.375-0.142-0.725-0.343-1.051
			s-0.454-0.582-0.76-0.77c-0.305-0.188-0.638-0.281-0.998-0.281s-0.707,0.125-1.04,0.375c-0.444,0.333-0.863,0.693-1.259,1.081
			c-0.396,0.389-0.773,0.798-1.134,1.228c0.069-0.193,0.118-0.385,0.146-0.571c0.028-0.188,0.028-0.386,0-0.594
			c-0.027-0.36-0.146-0.696-0.354-1.009s-0.485-0.537-0.832-0.676c-0.028-0.014-0.048-0.021-0.062-0.021
			c-0.014,0-0.028-0.008-0.041-0.021c-0.015,0-0.049-0.014-0.104-0.041c-0.069-0.028-0.139-0.053-0.208-0.073
			s-0.139-0.045-0.208-0.072c-0.065-0.01-0.129-0.014-0.19-0.014C62.464,38.175,62.434,38.176,62.403,38.178 M21.009,35.625
			c-0.885,0.146-1.017,0.686-1.017,0.994l0,0.022c0.021,0.289,0.132,0.527,0.331,0.708l0.034,0.026
			c0.235,0.16,0.471,0.242,0.702,0.242c0.678,0,1.067-0.364,1.067-0.999v-0.041l-0.01-0.04c-0.213-0.798-0.754-0.918-1.057-0.918
			L21.009,35.625z M42.403,41.235c-0.222-0.073-0.43-0.146-0.624-0.221c0.042-0.059,0.083-0.11,0.125-0.154
			c0.041-0.044,0.09-0.096,0.146-0.154c0.527-0.646,1.064-1.282,1.612-1.907s1.099-1.245,1.653-1.863l0.021-0.021
			c-0.361,0.661-0.705,1.319-1.03,1.974c-0.326,0.653-0.648,1.326-0.968,2.017c-0.11,0.206-0.207,0.412-0.29,0.617
			C42.84,41.404,42.625,41.309,42.403,41.235 M48.374,32.438c-0.126,0-0.216,0.03-0.271,0.088c-0.015,0-0.021-0.007-0.021-0.021
			c-0.235,0.221-0.44,0.475-0.613,0.761c-0.174,0.287-0.343,0.57-0.51,0.849l-0.624,0.661c-0.277,0.295-0.559,0.585-0.843,0.871
			c-0.284,0.287-0.565,0.577-0.843,0.871c-0.582,0.617-1.161,1.238-1.736,1.863c-0.576,0.625-1.147,1.261-1.717,1.907
			c-0.068,0.074-0.131,0.144-0.187,0.209c-0.056,0.066-0.118,0.137-0.188,0.21c-0.027,0-0.049-0.007-0.062-0.022
			c0.679-0.866,1.372-1.709,2.079-2.524c0.708-0.815,1.415-1.643,2.122-2.48c0.014-0.015,0.018-0.025,0.011-0.033
			c-0.008-0.007-0.018-0.003-0.031,0.012c-0.777,0.809-1.539,1.62-2.289,2.436c-0.748,0.816-1.477,1.658-2.184,2.525
			c-0.402-0.104-0.814-0.177-1.237-0.221c-0.424-0.044-0.85-0.081-1.279-0.11c-0.556-0.029-1.134-0.04-1.737-0.033
			c-0.603,0.008-1.168,0.114-1.696,0.32c-0.332,0.132-0.582,0.334-0.749,0.605c-0.167,0.272-0.256,0.566-0.271,0.883
			c-0.013,0.315,0.045,0.628,0.177,0.937c0.131,0.309,0.336,0.566,0.613,0.771c0.055,0.03,0.128,0.056,0.219,0.077
			c0.09,0.022,0.169,0.012,0.239-0.032c0.139-0.104,0.225-0.232,0.26-0.387c0.034-0.154,0.1-0.297,0.198-0.43
			c0.11-0.117,0.252-0.202,0.426-0.254c0.173-0.051,0.336-0.091,0.489-0.12c0.443-0.074,0.895-0.133,1.353-0.177
			c0.457-0.044,0.908-0.066,1.352-0.066c-0.056,0-0.097,0.008-0.124,0.022c-0.556,0.073-1.1,0.184-1.634,0.33
			c-0.534,0.147-1.058,0.331-1.57,0.552c-0.028,0.029-0.028,0.044,0,0.044c0.512-0.177,1.033-0.331,1.56-0.464
			c0.526-0.132,1.054-0.228,1.581-0.286c0.068-0.015,0.131-0.022,0.187-0.022s0.111-0.007,0.166-0.021
			c-0.152,0.206-0.294,0.411-0.426,0.617s-0.267,0.412-0.405,0.617c-0.069,0.104-0.136,0.202-0.197,0.298
			c-0.063,0.096-0.129,0.195-0.198,0.298c-0.485,0.617-0.971,1.231-1.456,1.841c-0.485,0.61-0.937,1.246-1.352,1.907
			c-0.028,0.044-0.018,0.096,0.031,0.154c0.048,0.059,0.111,0.106,0.187,0.144c0.076,0.036,0.156,0.059,0.239,0.066
			c0.083,0.007,0.146-0.012,0.187-0.056c0.569-0.617,1.114-1.253,1.633-1.907s1.051-1.305,1.591-1.951
			c0.277-0.353,0.559-0.698,0.843-1.036s0.572-0.676,0.863-1.015c0.111,0,0.225,0.005,0.344,0.011
			c0.117,0.008,0.231,0.012,0.343,0.012c0.11,0.015,0.219,0.029,0.322,0.044c0.104,0.015,0.211,0.037,0.322,0.066
			c0.111,0.015,0.215,0.029,0.312,0.044c0.097,0.015,0.2,0.037,0.312,0.066c-0.195,0.44-0.382,0.878-0.562,1.312
			c-0.18,0.434-0.367,0.871-0.562,1.312c-0.152,0.383-0.302,0.765-0.447,1.147c-0.146,0.382-0.294,0.764-0.447,1.146
			c-0.152,0.411-0.306,0.815-0.457,1.213c-0.153,0.396-0.257,0.815-0.312,1.256c-0.028,0.118,0.014,0.243,0.125,0.375
			c0.11,0.132,0.2,0.228,0.271,0.287c0.11,0.103,0.231,0.187,0.364,0.254c0.131,0.065,0.266,0.128,0.405,0.188
			c0.235,0.072,0.481,0.109,0.738,0.109s0.461-0.117,0.613-0.353c0.235-0.367,0.42-0.765,0.552-1.19
			c0.131-0.427,0.273-0.838,0.427-1.235c0.055-0.118,0.09-0.205,0.104-0.265c0.402-0.867,0.797-1.727,1.186-2.579
			s0.791-1.705,1.206-2.558c0.555-1.103,1.124-2.19,1.706-3.264c0.583-1.072,1.131-2.168,1.645-3.285
			c0.013-0.015,0.017-0.025,0.01-0.033c-0.007-0.007-0.018-0.004-0.031,0.011c-0.652,1.059-1.266,2.136-1.841,3.23
			c-0.576,1.095-1.147,2.193-1.717,3.297c-0.014,0.029-0.027,0.059-0.041,0.088c-0.015,0.029-0.028,0.059-0.042,0.088
			c0.11-0.25,0.226-0.499,0.344-0.75c0.117-0.249,0.232-0.499,0.343-0.749c0.347-0.75,0.693-1.488,1.04-2.216s0.7-1.459,1.061-2.194
			c0.194-0.366,0.382-0.73,0.562-1.091c0.18-0.36,0.354-0.731,0.52-1.113c0.069-0.177,0.148-0.364,0.239-0.562
			c0.09-0.199,0.135-0.4,0.135-0.606c0.015-0.221-0.024-0.441-0.113-0.661c-0.091-0.221-0.198-0.412-0.323-0.573
			c-0.097-0.118-0.218-0.21-0.363-0.276c-0.12-0.054-0.241-0.081-0.365-0.081C48.429,32.434,48.4,32.436,48.374,32.438
			 M7.718,32.136v11.56c0,0.851-0.309,1.51-0.944,2.015c-0.591,0.473-1.336,0.712-2.214,0.712c-0.892,0-1.637-0.232-2.215-0.691
			c-0.62-0.491-0.921-1.157-0.921-2.035v-11.56H0v11.56c0,1.304,0.46,2.356,1.371,3.129c0.851,0.701,1.924,1.056,3.189,1.056
			c1.308,0,2.382-0.349,3.193-1.037C8.688,46.06,9.162,45,9.162,43.695v-11.56H7.718z"/>
	</defs>
	<clipPath id="SVGID_2_">
		<use xlink:href="#SVGID_1_"  overflow="visible"/>
	</clipPath>
	
		<linearGradient id="SVGID_3_" gradientUnits="userSpaceOnUse" x1="-277.5576" y1="264.2051" x2="-277.4463" y2="264.2051" gradientTransform="matrix(628.2174 0 0 -628.2174 174366.5 166020.5)">
		<stop  offset="0" style="stop-color:#1D115B"/>
		<stop  offset="0.3" style="stop-color:#453C73"/>
		<stop  offset="0.6" style="stop-color:#766A95"/>
		<stop  offset="0.8" style="stop-color:#453C73"/>
		<stop  offset="1" style="stop-color:#1D115B"/>
	</linearGradient>
	<rect y="32.136" clip-path="url(#SVGID_2_)" fill="url(#SVGID_3_)" width="69.909" height="20.689"/>
</g>
<g>
	<defs>
		<rect id="SVGID_4_" width="70" height="52.818"/>
	</defs>
	<clipPath id="SVGID_5_">
		<use xlink:href="#SVGID_4_"  overflow="visible"/>
	</clipPath>
	<path clip-path="url(#SVGID_5_)" d="M69.92,25.792c0.04,0.083,0.066,0.132,0.08,0.158C69.979,25.913,69.942,25.841,69.92,25.792"/>
	<path clip-path="url(#SVGID_5_)" d="M69.906,25.764c0.002,0.009,0.008,0.017,0.014,0.026
		C69.914,25.784,69.908,25.775,69.906,25.764"/>
	<path clip-path="url(#SVGID_5_)" d="M69.889,25.735c0.005,0.012,0.008,0.02,0.014,0.032C69.896,25.747,69.889,25.735,69.889,25.735
		"/>
</g>
<g>
	<defs>
		<path id="SVGID_6_" d="M11.302,0.345L0.406,16.787l-0.12,0.075c23.088-0.738,33.815,15.271,33.815,15.271L33.53,7.227
			C27.167,1.1,19.828,0,15.379,0C12.888,0,11.302,0.345,11.302,0.345"/>
	</defs>
	<clipPath id="SVGID_7_">
		<use xlink:href="#SVGID_6_"  overflow="visible"/>
	</clipPath>
	
		<linearGradient id="SVGID_8_" gradientUnits="userSpaceOnUse" x1="-277.8413" y1="263.5137" x2="-277.7305" y2="263.5137" gradientTransform="matrix(0 -288.8237 -288.8237 0 76126 -80215)">
		<stop  offset="0" style="stop-color:#766A95"/>
		<stop  offset="1" style="stop-color:#453C73"/>
	</linearGradient>
	<rect x="0.287" clip-path="url(#SVGID_7_)" fill="url(#SVGID_8_)" width="33.815" height="32.133"/>
</g>
<g>
	<defs>
		<rect id="SVGID_9_" width="70" height="52.818"/>
	</defs>
	<clipPath id="SVGID_10_">
		<use xlink:href="#SVGID_9_"  overflow="visible"/>
	</clipPath>
	<path clip-path="url(#SVGID_10_)" fill="#1D115B" d="M0.189,24.507l2.476-4.083c0,0,16.21,0.322,29.674,12.889
		c0,0-16.493-9.783-32.277-8.725"/>
</g>
<g>
	<defs>
		<path id="SVGID_11_" d="M36.509,7.227l-0.572,24.906c0,0,10.727-16.009,33.814-15.271l-0.122-0.075L58.736,0.345
			c0,0-1.586-0.345-4.077-0.345C50.21,0,42.871,1.1,36.509,7.227"/>
	</defs>
	<clipPath id="SVGID_12_">
		<use xlink:href="#SVGID_11_"  overflow="visible"/>
	</clipPath>
	
		<linearGradient id="SVGID_13_" gradientUnits="userSpaceOnUse" x1="-277.8413" y1="264.499" x2="-277.7305" y2="264.499" gradientTransform="matrix(0 -288.8237 -288.8237 0 76446.5 -80215)">
		<stop  offset="0" style="stop-color:#766A95"/>
		<stop  offset="1" style="stop-color:#453C73"/>
	</linearGradient>
	<rect x="35.937" clip-path="url(#SVGID_12_)" fill="url(#SVGID_13_)" width="33.814" height="32.133"/>
</g>
<g>
	<defs>
		<rect id="SVGID_14_" width="70" height="52.818"/>
	</defs>
	<clipPath id="SVGID_15_">
		<use xlink:href="#SVGID_14_"  overflow="visible"/>
	</clipPath>
	<path clip-path="url(#SVGID_15_)" fill="#1D115B" d="M69.849,24.507l-2.479-4.083c0,0-16.206,0.322-29.673,12.889
		c0,0,16.496-9.783,32.28-8.725"/>
</g>
</svg>
