<svg xmlns="http://www.w3.org/2000/svg" width="167.453" height="130.96" viewBox="0 0 167.453 130.96">
  <g id="_2" data-name="2" transform="translate(-578.486 -104.405)">
    <g id="Group_380" data-name="Group 380" transform="translate(579.802 105.721)">
      <rect id="Rectangle_171" data-name="Rectangle 171" width="164.821" height="128.328" fill="none" stroke="#484751" stroke-miterlimit="10" stroke-width="2.632"/>
      <line id="Line_46" data-name="Line 46" x2="153.762" transform="translate(0 21.455)" fill="none" stroke="#484751" stroke-miterlimit="10" stroke-width="2.632"/>
      <line id="Line_47" data-name="Line 47" x2="5.648" transform="translate(9.832 10.824)" fill="none" stroke="#484751" stroke-miterlimit="10" stroke-width="2.632"/>
      <line id="Line_48" data-name="Line 48" x2="5.648" transform="translate(21.129 10.824)" fill="none" stroke="#484751" stroke-miterlimit="10" stroke-width="2.632"/>
      <line id="Line_49" data-name="Line 49" x2="5.648" transform="translate(34.171 10.824)" fill="none" stroke="#484751" stroke-miterlimit="10" stroke-width="2.632"/>
    </g>
    <path id="Path_4074" data-name="Path 4074" d="M622.43,136.233h44.4l-9.887,24.679H619.18L605.9,126.362H597.4" transform="translate(24.679 24.098)" fill="none" stroke="#484751" stroke-linecap="square" stroke-miterlimit="10" stroke-width="2.632"/>
    <path id="Path_4075" data-name="Path 4075" d="M649.262,154.5H607.936a2.29,2.29,0,0,1-2.092-3.218l3.424-9.2" transform="translate(35.075 42.659)" fill="none" stroke="#484751" stroke-linecap="square" stroke-miterlimit="10" stroke-width="2.632"/>
    <path id="Path_4076" data-name="Path 4076" d="M630.121,154.481a4.368,4.368,0,1,1-4.367-4.367A4.367,4.367,0,0,1,630.121,154.481Z" transform="translate(54.835 52.115)" fill="#484751"/>
    <path id="Path_4077" data-name="Path 4077" d="M615.121,154.481a4.368,4.368,0,1,1-4.367-4.367A4.367,4.367,0,0,1,615.121,154.481Z" transform="translate(35.055 52.115)" fill="#484751"/>
  </g>
</svg>
